<svg xmlns="http://www.w3.org/2000/svg" xmlns:xlink="http://www.w3.org/1999/xlink" width="108" height="108" viewBox="0 0 108 108">
  <defs>
    <filter id="Trazado_982547" x="0" y="0" width="108" height="108" filterUnits="userSpaceOnUse">
      <feOffset dy="3" input="SourceAlpha"/>
      <feGaussianBlur stdDeviation="3" result="blur"/>
      <feFlood flood-opacity="0.161"/>
      <feComposite operator="in" in2="blur"/>
      <feComposite in="SourceGraphic"/>
    </filter>
  </defs>
  <g id="Grupo_1148754" data-name="Grupo 1148754" transform="translate(-204 -854)">
    <g id="Grupo_1148553" data-name="Grupo 1148553" transform="translate(-1017 -2573)">
      <g id="Grupo_1147068" data-name="Grupo 1147068" transform="translate(605 -556)">
        <g transform="matrix(1, 0, 0, 1, 616, 3983)" filter="url(#Trazado_982547)">
          <g id="Trazado_982547-2" data-name="Trazado 982547" transform="translate(9 6)" fill="#fbecfa">
            <path d="M 45 88.5 C 39.12687683105469 88.5 33.43022537231445 87.35007476806641 28.06830024719238 85.08217620849609 C 22.88852500915527 82.89131164550781 18.23629951477051 79.75458526611328 14.2408504486084 75.75914764404297 C 10.24541282653809 71.76370239257812 7.108687400817871 67.11147308349609 4.917825222015381 61.93170166015625 C 2.649924993515015 56.56977462768555 1.5 50.87312316894531 1.5 45 C 1.5 39.12687683105469 2.649924993515015 33.43022537231445 4.917825222015381 28.06830024719238 C 7.108687400817871 22.88852500915527 10.24541282653809 18.23629951477051 14.2408504486084 14.2408504486084 C 18.23629951477051 10.24541282653809 22.88852500915527 7.108687400817871 28.06830024719238 4.917825222015381 C 33.43022537231445 2.649924993515015 39.12687683105469 1.5 45 1.5 C 50.87312316894531 1.5 56.56977462768555 2.649924993515015 61.93170166015625 4.917825222015381 C 67.11147308349609 7.108687400817871 71.76370239257812 10.24541282653809 75.75914764404297 14.2408504486084 C 79.75458526611328 18.23629951477051 82.89131164550781 22.88852500915527 85.08217620849609 28.06830024719238 C 87.35007476806641 33.43022537231445 88.5 39.12687683105469 88.5 45 C 88.5 50.87312316894531 87.35007476806641 56.56977462768555 85.08217620849609 61.93170166015625 C 82.89131164550781 67.11147308349609 79.75458526611328 71.76370239257812 75.75914764404297 75.75914764404297 C 71.76370239257812 79.75458526611328 67.11147308349609 82.89131164550781 61.93170166015625 85.08217620849609 C 56.56977462768555 87.35007476806641 50.87312316894531 88.5 45 88.5 Z" stroke="none"/>
            <path d="M 45 3 C 39.32871246337891 3 33.82865524291992 4.110054016113281 28.65262985229492 6.299339294433594 C 23.65165710449219 8.414573669433594 19.15968322753906 11.44334411621094 15.301513671875 15.301513671875 C 11.44334411621094 19.15968322753906 8.414573669433594 23.65165710449219 6.299339294433594 28.65262985229492 C 4.110054016113281 33.82865524291992 3 39.32871246337891 3 45 C 3 50.67128753662109 4.110054016113281 56.17134475708008 6.299339294433594 61.34737396240234 C 8.414573669433594 66.34834289550781 11.44334411621094 70.84031677246094 15.301513671875 74.698486328125 C 19.15968322753906 78.55665588378906 23.65165710449219 81.58542633056641 28.65262985229492 83.70066070556641 C 33.82865524291992 85.88994598388672 39.32871246337891 87 45 87 C 50.67128753662109 87 56.17134475708008 85.88994598388672 61.34737396240234 83.70066070556641 C 66.34834289550781 81.58542633056641 70.84031677246094 78.55665588378906 74.698486328125 74.698486328125 C 78.55665588378906 70.84031677246094 81.58542633056641 66.34834289550781 83.70066070556641 61.34737396240234 C 85.88994598388672 56.17134475708008 87 50.67128753662109 87 45 C 87 39.32871246337891 85.88994598388672 33.82865524291992 83.70066070556641 28.65262985229492 C 81.58542633056641 23.65165710449219 78.55665588378906 19.15968322753906 74.698486328125 15.301513671875 C 70.84031677246094 11.44334411621094 66.34834289550781 8.414573669433594 61.34737396240234 6.299339294433594 C 56.17134475708008 4.110054016113281 50.67128753662109 3 45 3 M 45 0 C 69.85281372070312 0 90 20.14718627929688 90 45 C 90 69.85281372070312 69.85281372070312 90 45 90 C 20.14718627929688 90 0 69.85281372070312 0 45 C 0 20.14718627929688 20.14718627929688 0 45 0 Z" stroke="none" fill="#de53d4"/>
          </g>
        </g>
      </g>
    </g>
    <g id="pricing" transform="translate(231.981 880.977)">
      <path id="Trazado_982998" data-name="Trazado 982998" d="M444.712,158l-1.7.363,1.225,5.747,1.462-1.461Zm0,0" transform="translate(-394.988 -140.871)" fill="#c7c7c5"/>
      <path id="Trazado_982999" data-name="Trazado 982999" d="M25.346,58.307,8,40.961,40.957,8,56.568,9.739,58.3,25.35Zm0,0" transform="translate(-7.133 -7.133)" fill="#ffb531"/>
      <path id="Trazado_983000" data-name="Trazado 983000" d="M99.963,35.934,98.229,20.323l-4.03-.448c-4.5,22.19-27.806,32.812-39.472,36.736l12.28,12.28Zm0,0" transform="translate(-48.793 -17.717)" fill="#ffa912"/>
      <path id="Trazado_983001" data-name="Trazado 983001" d="M395.469,57.738A1.735,1.735,0,1,1,393.735,56,1.735,1.735,0,0,1,395.469,57.738Zm0,0" transform="translate(-349.503 -49.929)" fill="#e8770c"/>
      <g id="Grupo_1148753" data-name="Grupo 1148753" transform="translate(6.326 28.099)">
        <path id="Trazado_983002" data-name="Trazado 983002" d="M58.352,264.789l5.637-5.637,1.226,1.226-5.637,5.637Zm0,0" transform="translate(-58.352 -259.152)" fill="#f98500"/>
        <path id="Trazado_983003" data-name="Trazado 983003" d="M83.141,289.586l5.637-5.637L90,285.176l-5.637,5.637Zm0,0" transform="translate(-80.453 -281.261)" fill="#f98500"/>
        <path id="Trazado_983004" data-name="Trazado 983004" d="M107.941,314.387l5.637-5.637,1.226,1.226-5.637,5.637Zm0,0" transform="translate(-102.565 -303.373)" fill="#f98500"/>
        <path id="Trazado_983005" data-name="Trazado 983005" d="M132.742,339.188l5.637-5.637,1.226,1.226-5.637,5.637Zm0,0" transform="translate(-124.677 -325.485)" fill="#f98500"/>
        <path id="Trazado_983006" data-name="Trazado 983006" d="M157.543,363.989l5.637-5.637,1.226,1.226-5.637,5.637Zm0,0" transform="translate(-146.79 -347.598)" fill="#f98500"/>
      </g>
      <path id="Trazado_983007" data-name="Trazado 983007" d="M216,80.681l8.673-8.673L236.815,84.15l-8.673,8.673Zm0,0" transform="translate(-192.583 -64.198)" fill="#ffcb73"/>
      <path id="Trazado_983008" data-name="Trazado 983008" d="M362.736,376.138,354.6,368l-2.6,2.6,8.134,8.134a1.84,1.84,0,0,0,2.6-2.6Zm0,0" transform="translate(-313.839 -328.104)" fill="#348fd9"/>
      <path id="Trazado_983009" data-name="Trazado 983009" d="M357.564,370.967,354.6,368l-2.6,2.6,3.087,3.087A13.084,13.084,0,0,0,357.564,370.967Zm0,0" transform="translate(-313.839 -328.104)" fill="#2d7dbf"/>
      <path id="Trazado_983010" data-name="Trazado 983010" d="M194.019,205.013A13.009,13.009,0,1,1,181.009,192,13.009,13.009,0,0,1,194.019,205.013Zm0,0" transform="translate(-149.787 -171.185)" fill="#348fd9"/>
      <path id="Trazado_983011" data-name="Trazado 983011" d="M219.08,233.544a9.54,9.54,0,1,1-9.54-9.54A9.54,9.54,0,0,1,219.08,233.544Zm0,0" transform="translate(-178.318 -199.716)" fill="#5ac6d4"/>
      <path id="Trazado_983012" data-name="Trazado 983012" d="M231.611,247.81A7.806,7.806,0,1,1,223.806,240,7.805,7.805,0,0,1,231.611,247.81Zm0,0" transform="translate(-192.583 -213.981)" fill="#60d1e0"/>
      <path id="Trazado_983013" data-name="Trazado 983013" d="M260.336,254.075H258.6a.867.867,0,0,1-.867-.867v-.867a.867.867,0,0,1,.867-.867h1.735a.867.867,0,0,1,.867.867h1.735a2.6,2.6,0,0,0-2.6-2.6V248H258.6v1.735a2.6,2.6,0,0,0-2.6,2.6v.867a2.6,2.6,0,0,0,2.6,2.6h1.735a.867.867,0,0,1,.867.867v.867a.867.867,0,0,1-.867.867H258.6a.867.867,0,0,1-.867-.867H256a2.6,2.6,0,0,0,2.6,2.6v1.735h1.735v-1.735a2.6,2.6,0,0,0,2.6-2.6v-.867A2.6,2.6,0,0,0,260.336,254.075Zm0,0" transform="translate(-228.247 -221.114)" fill="#f35244"/>
      <path id="Trazado_983014" data-name="Trazado 983014" d="M28.815,27.084H22.744l.867,4.336L17.54,27.084H11.469A3.469,3.469,0,0,1,8,23.615V11.473A3.469,3.469,0,0,1,11.469,8H28.815a3.469,3.469,0,0,1,3.469,3.469V23.615A3.469,3.469,0,0,1,28.815,27.084Zm0,0" transform="translate(-7.133 -7.133)" fill="#60d1e0"/>
      <path id="Trazado_983015" data-name="Trazado 983015" d="M37.442,12.234c-5.348,9.332-15.491,14.736-21.665,17.4A3.447,3.447,0,0,0,18.4,30.856h6.071l6.071,4.336-.867-4.336h6.071a3.469,3.469,0,0,0,3.469-3.469V15.245a3.454,3.454,0,0,0-1.776-3.011Zm0,0" transform="translate(-14.067 -10.904)" fill="#5ac6d4"/>
      <path id="Trazado_983016" data-name="Trazado 983016" d="M51.08,53.013H32.867A.867.867,0,0,1,32,52.146V40h1.735V51.279H51.08Zm0,0" transform="translate(-28.531 -35.664)" fill="#3fb7c7"/>
      <path id="Trazado_983017" data-name="Trazado 983017" d="M47.3,53.218a.868.868,0,0,1-.666-.311l-3.593-4.312-2.825,4.237a.867.867,0,0,1-.694.386.906.906,0,0,1-.718-.347L36.9,50.328l-1.908,2.544L33.6,51.831l2.6-3.469a.9.9,0,0,1,1.387,0l1.867,2.489,2.789-4.185a.867.867,0,0,1,1.388-.075l3.526,4.232,3.722-6.7,1.516.841-4.336,7.806a.868.868,0,0,1-.676.443.755.755,0,0,1-.082,0Zm0,0" transform="translate(-29.959 -39.338)" fill="#f35244"/>
      <path id="Trazado_983018" data-name="Trazado 983018" d="M405.984,82.213l-1.462,1.461,1.027,4.82a1.2,1.2,0,1,1-2.361.363L400.2,68.539a.867.867,0,1,0-1.716.255l2.988,20.295a2.93,2.93,0,1,0,5.777-.95Zm0,0" transform="translate(-355.27 -60.433)" fill="#d6d6d4"/>
      <path id="Trazado_983019" data-name="Trazado 983019" d="M17.6,239.327a.868.868,0,0,0,1.226,0l4.336-4.336-1.226-1.226-3.723,3.723L2.1,221.368l9.794-9.794-1.226-1.226L.256,220.754a.868.868,0,0,0,0,1.226Zm0,0" transform="translate(-0.002 -187.539)"/>
      <path id="Trazado_983020" data-name="Trazado 983020" d="M275.236,18.124,273.5,2.513a.868.868,0,0,0-.767-.767L257.123.011a.877.877,0,0,0-.708.249l-6.071,6.071,1.226,1.226,5.776-5.776,14.512,1.611L273.47,17.9l-3.4,3.4-1.648-11.085a2.614,2.614,0,1,0-1.744.066l1.342,9.02L255.906,7.2a.867.867,0,0,0-1.226,0l-4.336,4.336,1.226,1.226,3.723-3.723,10.916,10.916-1.989,1.989,1.226,1.226,2.6-2.6a.841.841,0,0,0,.123-.185l.364,2.448-1.714,1.714,1.226,1.226.8-.805.551,3.7a2.93,2.93,0,1,0,5.777-.95l-1.6-7.479,1.4-1.4a.867.867,0,0,0,.249-.708Zm-7.8-11.179a.867.867,0,1,1-.867.867A.867.867,0,0,1,267.435,6.944Zm6.048,21.12a1.2,1.2,0,1,1-2.361.363l-.738-4.988,1.744-1.744Zm0,0" transform="translate(-223.203 -0.002)"/>
      <path id="Trazado_983021" data-name="Trazado 983021" d="M58.352,264.789l5.637-5.637,1.226,1.226-5.637,5.637Zm0,0" transform="translate(-52.026 -231.053)"/>
      <path id="Trazado_983022" data-name="Trazado 983022" d="M83.137,289.586l5.637-5.637L90,285.175l-5.637,5.637Zm0,0" transform="translate(-74.124 -253.162)"/>
      <path id="Trazado_983023" data-name="Trazado 983023" d="M107.941,333.639l3.3-3.3,1.227,1.226-3.3,3.3Zm0,0" transform="translate(-96.239 -294.527)"/>
      <path id="Trazado_983024" data-name="Trazado 983024" d="M132.742,366.287l2.342-2.342,1.226,1.226-2.342,2.342Zm0,0" transform="translate(-118.351 -324.486)"/>
      <path id="Trazado_983025" data-name="Trazado 983025" d="M157.543,396.086l1.735-1.734,1.226,1.226-1.734,1.734Zm0,0" transform="translate(-140.464 -351.596)"/>
      <path id="Trazado_983026" data-name="Trazado 983026" d="M173.861,211.981a13.787,13.787,0,0,0,8.2-2.711l6.255,6.255a2.707,2.707,0,0,0,3.828-3.828l-6.4-6.4-.111.111a13.863,13.863,0,1,0-11.777,6.573Zm17.061.942a.973.973,0,0,1-1.375,1.375l-6.146-6.145a13.975,13.975,0,0,0,1.317-1.433Zm-17.061-26.961A12.142,12.142,0,1,1,161.719,198.1,12.142,12.142,0,0,1,173.861,185.962Zm0,0" transform="translate(-142.639 -164.276)"/>
      <path id="Trazado_983027" data-name="Trazado 983027" d="M202.407,236.819A10.407,10.407,0,1,0,192,226.411,10.407,10.407,0,0,0,202.407,236.819Zm0-19.08a8.673,8.673,0,1,1-8.673,8.673A8.673,8.673,0,0,1,202.407,217.739Zm0,0" transform="translate(-171.185 -192.583)"/>
      <path id="Trazado_983028" data-name="Trazado 983028" d="M260.336,258.411H258.6a.867.867,0,0,1-.867-.867H256a2.6,2.6,0,0,0,2.6,2.6v1.735h1.735v-1.735a2.6,2.6,0,0,0,2.6-2.6v-.867a2.6,2.6,0,0,0-2.6-2.6H258.6a.867.867,0,0,1-.867-.867v-.867a.867.867,0,0,1,.867-.867h1.735a.867.867,0,0,1,.867.867h1.735a2.6,2.6,0,0,0-2.6-2.6V248H258.6v1.735a2.6,2.6,0,0,0-2.6,2.6v.867a2.6,2.6,0,0,0,2.6,2.6h1.735a.867.867,0,0,1,.867.867v.867A.867.867,0,0,1,260.336,258.411Zm0,0" transform="translate(-228.247 -221.114)"/>
      <path id="Trazado_983029" data-name="Trazado 983029" d="M4.336,20.819H10.13l5.844,4.174a.864.864,0,0,0,.5.162.877.877,0,0,0,.471-.139.867.867,0,0,0,.379-.9l-.659-3.3h5.013a4.342,4.342,0,0,0,4.336-4.336V4.34A4.342,4.342,0,0,0,21.682,0H4.337A4.342,4.342,0,0,0,0,4.34V16.483a4.342,4.342,0,0,0,4.336,4.336ZM1.735,4.34a2.6,2.6,0,0,1,2.6-2.6H21.682a2.6,2.6,0,0,1,2.6,2.6V16.483a2.6,2.6,0,0,1-2.6,2.6H15.611a.867.867,0,0,0-.85,1.04l.434,2.186L10.909,19.25a.861.861,0,0,0-.5-.166H4.336a2.6,2.6,0,0,1-2.6-2.6Zm0,0"/>
      <path id="Trazado_983030" data-name="Trazado 983030" d="M32.867,53.013H51.08V51.279H33.735V48.966l1.735-2.312L37.377,49.2a.923.923,0,0,0,.717.347.867.867,0,0,0,.7-.386l2.825-4.237,3.592,4.312a.873.873,0,0,0,.667.311.658.658,0,0,0,.082,0,.867.867,0,0,0,.676-.443L50.971,41.3l-1.516-.841-3.722,6.7-3.525-4.233a.852.852,0,0,0-.714-.315.868.868,0,0,0-.675.385L38.03,47.177l-1.867-2.489a.9.9,0,0,0-1.387,0l-1.041,1.388V40H32V52.146a.867.867,0,0,0,.867.867Zm0,0" transform="translate(-28.531 -35.664)"/>
    </g>
  </g>
</svg>
