<svg xmlns="http://www.w3.org/2000/svg" xmlns:xlink="http://www.w3.org/1999/xlink" width="108" height="108" viewBox="0 0 108 108">
  <defs>
    <filter id="Trazado_982547" x="0" y="0" width="108" height="108" filterUnits="userSpaceOnUse">
      <feOffset dy="3" input="SourceAlpha"/>
      <feGaussianBlur stdDeviation="3" result="blur"/>
      <feFlood flood-opacity="0.161"/>
      <feComposite operator="in" in2="blur"/>
      <feComposite in="SourceGraphic"/>
    </filter>
  </defs>
  <g id="Grupo_1148756" data-name="Grupo 1148756" transform="translate(-623 -854)">
    <g id="Grupo_1148554" data-name="Grupo 1148554" transform="translate(-598 -2573)">
      <g id="Grupo_1147068" data-name="Grupo 1147068" transform="translate(605 -556)">
        <g transform="matrix(1, 0, 0, 1, 616, 3983)" filter="url(#Trazado_982547)">
          <g id="Trazado_982547-2" data-name="Trazado 982547" transform="translate(9 6)" fill="#fbecfa">
            <path d="M 45 88.5 C 39.12687683105469 88.5 33.43022537231445 87.35007476806641 28.06830024719238 85.08217620849609 C 22.88852500915527 82.89131164550781 18.23629951477051 79.75458526611328 14.2408504486084 75.75914764404297 C 10.24541282653809 71.76370239257812 7.108687400817871 67.11147308349609 4.917825222015381 61.93170166015625 C 2.649924993515015 56.56977462768555 1.5 50.87312316894531 1.5 45 C 1.5 39.12687683105469 2.649924993515015 33.43022537231445 4.917825222015381 28.06830024719238 C 7.108687400817871 22.88852500915527 10.24541282653809 18.23629951477051 14.2408504486084 14.2408504486084 C 18.23629951477051 10.24541282653809 22.88852500915527 7.108687400817871 28.06830024719238 4.917825222015381 C 33.43022537231445 2.649924993515015 39.12687683105469 1.5 45 1.5 C 50.87312316894531 1.5 56.56977462768555 2.649924993515015 61.93170166015625 4.917825222015381 C 67.11147308349609 7.108687400817871 71.76370239257812 10.24541282653809 75.75914764404297 14.2408504486084 C 79.75458526611328 18.23629951477051 82.89131164550781 22.88852500915527 85.08217620849609 28.06830024719238 C 87.35007476806641 33.43022537231445 88.5 39.12687683105469 88.5 45 C 88.5 50.87312316894531 87.35007476806641 56.56977462768555 85.08217620849609 61.93170166015625 C 82.89131164550781 67.11147308349609 79.75458526611328 71.76370239257812 75.75914764404297 75.75914764404297 C 71.76370239257812 79.75458526611328 67.11147308349609 82.89131164550781 61.93170166015625 85.08217620849609 C 56.56977462768555 87.35007476806641 50.87312316894531 88.5 45 88.5 Z" stroke="none"/>
            <path d="M 45 3 C 39.32871246337891 3 33.82865524291992 4.110054016113281 28.65262985229492 6.299339294433594 C 23.65165710449219 8.414573669433594 19.15968322753906 11.44334411621094 15.301513671875 15.301513671875 C 11.44334411621094 19.15968322753906 8.414573669433594 23.65165710449219 6.299339294433594 28.65262985229492 C 4.110054016113281 33.82865524291992 3 39.32871246337891 3 45 C 3 50.67128753662109 4.110054016113281 56.17134475708008 6.299339294433594 61.34737396240234 C 8.414573669433594 66.34834289550781 11.44334411621094 70.84031677246094 15.301513671875 74.698486328125 C 19.15968322753906 78.55665588378906 23.65165710449219 81.58542633056641 28.65262985229492 83.70066070556641 C 33.82865524291992 85.88994598388672 39.32871246337891 87 45 87 C 50.67128753662109 87 56.17134475708008 85.88994598388672 61.34737396240234 83.70066070556641 C 66.34834289550781 81.58542633056641 70.84031677246094 78.55665588378906 74.698486328125 74.698486328125 C 78.55665588378906 70.84031677246094 81.58542633056641 66.34834289550781 83.70066070556641 61.34737396240234 C 85.88994598388672 56.17134475708008 87 50.67128753662109 87 45 C 87 39.32871246337891 85.88994598388672 33.82865524291992 83.70066070556641 28.65262985229492 C 81.58542633056641 23.65165710449219 78.55665588378906 19.15968322753906 74.698486328125 15.301513671875 C 70.84031677246094 11.44334411621094 66.34834289550781 8.414573669433594 61.34737396240234 6.299339294433594 C 56.17134475708008 4.110054016113281 50.67128753662109 3 45 3 M 45 0 C 69.85281372070312 0 90 20.14718627929688 90 45 C 90 69.85281372070312 69.85281372070312 90 45 90 C 20.14718627929688 90 0 69.85281372070312 0 45 C 0 20.14718627929688 20.14718627929688 0 45 0 Z" stroke="none" fill="#de53d4"/>
          </g>
        </g>
      </g>
    </g>
    <g id="critical-thinking_9631292" transform="translate(630.671 817.381)">
      <g id="Grupo_1148755" data-name="Grupo 1148755" transform="translate(14.842 63.655)">
        <path id="Trazado_983031" data-name="Trazado 983031" d="M297.261,144.546l2.9-1.662,1.086,1.89a8.634,8.634,0,0,1,3.579-.469l.563-2.1,3.23.858-.563,2.1a8.873,8.873,0,0,1,2.855,2.2l1.89-1.086,1.662,2.9-1.877,1.086a8.861,8.861,0,0,1,.469,3.579l2.1.563-.871,3.23-2.1-.563a9.071,9.071,0,0,1-2.2,2.868l1.086,1.876-2.882,1.649-1.086-1.89a8.635,8.635,0,0,1-3.579.469l-.563,2.1-3.23-.871.563-2.091a8.874,8.874,0,0,1-2.855-2.2l-1.89,1.086-1.662-2.9,1.877-1.086a8.862,8.862,0,0,1-.469-3.579l-2.091-.563.858-3.217,2.1.563a9.07,9.07,0,0,1,2.2-2.868Z" transform="translate(-256.726 -132.49)" fill="#d71b5a" fill-rule="evenodd"/>
        <path id="Trazado_983032" data-name="Trazado 983032" d="M342.1,189.272a4.729,4.729,0,1,1-1.729,6.461A4.717,4.717,0,0,1,342.1,189.272Z" transform="translate(-297.022 -172.699)" fill="#ffcd05" fill-rule="evenodd"/>
        <path id="Trazado_983033" data-name="Trazado 983033" d="M57.124,119.689c-.643-9.731.617-13.551,2.413-16.54A15.561,15.561,0,0,1,61.413,76.57a16.823,16.823,0,0,0-3.2-3.056,19.344,19.344,0,0,0-8.659-3.485,27.24,27.24,0,0,0-13.9,1.716,17.677,17.677,0,0,0-9.168,9.61,14.585,14.585,0,0,0-.925,8.015c.308,1.7.536,2.051-.563,3.619-1.045,1.541-2.252,3.056-3.177,4.664-3.083,5.4,4.45,2.426,4.664,7.774.094,2.6-.67,4.758.63,6.461,1.1,1.448,3.163,1.287,4.906,1.354.978.04,1.97.08,2.935.188,3.673.375,3.967,3.941,4.276,6.273H57.124Z" transform="translate(-21.079 -69.755)" fill="#f79d79" fill-rule="evenodd"/>
        <path id="Trazado_983034" data-name="Trazado 983034" d="M100.859,105h3.123v2.037a8.25,8.25,0,0,1,3.123,1.287l1.434-1.434,2.212,2.212-1.434,1.434a8.272,8.272,0,0,1,1.3,3.123h2.037v3.123h-2.037a8.272,8.272,0,0,1-1.3,3.123l1.434,1.434-2.212,2.212-1.434-1.434a8.272,8.272,0,0,1-3.123,1.3v2.037h-3.123v-2.037a8.272,8.272,0,0,1-3.123-1.3L96.3,123.55l-2.212-2.212,1.434-1.434a8.041,8.041,0,0,1-1.287-3.123H92.2v-3.123h2.037a8.25,8.25,0,0,1,1.287-3.123L94.09,109.1,96.3,106.89l1.434,1.434a8.041,8.041,0,0,1,3.123-1.287Z" transform="translate(-82.667 -100.276)" fill="#fff" fill-rule="evenodd"/>
        <path id="Trazado_983035" data-name="Trazado 983035" d="M139.923,148.2a4.423,4.423,0,1,1-4.423,4.423A4.428,4.428,0,0,1,139.923,148.2Z" transform="translate(-120.163 -137.686)" fill="#cc3737" fill-rule="evenodd"/>
      </g>
      <path id="Trazado_983036" data-name="Trazado 983036" d="M34.6,73.231a5.361,5.361,0,1,1-5.361,5.361A5.36,5.36,0,0,1,34.6,73.231Zm2.466,2.9a3.487,3.487,0,1,0,0,4.932,3.488,3.488,0,0,0,0-4.932Zm-4.034-8.686h3.123a.932.932,0,0,1,.938.938v1.287a9.337,9.337,0,0,1,2.037.844l.911-.911a.947.947,0,0,1,1.327,0l2.212,2.212a.947.947,0,0,1,0,1.327l-.911.911a9.337,9.337,0,0,1,.844,2.037H44.8a.932.932,0,0,1,.938.938v3.123a.932.932,0,0,1-.938.938H43.515l-.362,1.045c-.147.348-.308.67-.483.992l.911.911a.947.947,0,0,1,0,1.327l-2.212,2.212a.947.947,0,0,1-1.327,0l-.911-.911a9.337,9.337,0,0,1-2.037.844v1.287a.932.932,0,0,1-.938.938H33.034a.932.932,0,0,1-.938-.938V87.506a9.337,9.337,0,0,1-2.037-.844l-.911.911a.947.947,0,0,1-1.327,0l-2.212-2.212a.947.947,0,0,1,0-1.327l.911-.911a9.337,9.337,0,0,1-.844-2.037H24.388a.932.932,0,0,1-.938-.938V77.024a.932.932,0,0,1,.938-.938h1.287a9.337,9.337,0,0,1,.844-2.037l-.911-.911a.947.947,0,0,1,0-1.327L27.82,69.6a.947.947,0,0,1,1.327,0l.911.911a9.175,9.175,0,0,1,2.051-.844V68.379A.921.921,0,0,1,33.034,67.441Zm2.185,1.876H33.972v1.045a.92.92,0,0,1-.764.965,7.584,7.584,0,0,0-2.721,1.113.941.941,0,0,1-1.233-.08l-.777-.777-.885.885.777.777a.95.95,0,0,1,.107,1.193,7.408,7.408,0,0,0-1.126,2.708.94.94,0,0,1-.925.831h-1.1v1.247h1.1a.944.944,0,0,1,.925.764,7.351,7.351,0,0,0,1.112,2.721.941.941,0,0,1-.08,1.233l-.777.777.885.871.777-.777A.948.948,0,0,1,30.46,84.7a7.408,7.408,0,0,0,2.708,1.126.94.94,0,0,1,.831.925v1.1h1.247v-1.1a.958.958,0,0,1,.764-.925,7.259,7.259,0,0,0,2.721-1.112.941.941,0,0,1,1.233.08l.777.777.885-.871-.777-.777a.948.948,0,0,1-.107-1.193,7.011,7.011,0,0,0,.71-1.327,6.85,6.85,0,0,0,.416-1.381.93.93,0,0,1,.925-.831h1.1V77.949h-1.1a.958.958,0,0,1-.925-.764,7.486,7.486,0,0,0-1.112-2.721.941.941,0,0,1,.08-1.233l.777-.777-.885-.885-.777.777a.95.95,0,0,1-1.193.107,7.434,7.434,0,0,0-2.708-1.139.93.93,0,0,1-.831-.925ZM49.9,112.651a44.475,44.475,0,0,1,.362-10.026A17.569,17.569,0,0,1,52.067,97.3a16.494,16.494,0,0,1,1.649-27.089c-4.356-4.7-10.87-6.219-17.143-5.442a28.135,28.135,0,0,0-6.8,1.729,16.658,16.658,0,0,0-8.618,9.047,13.726,13.726,0,0,0-.885,7.546c.348,1.89.63,2.372-.71,4.3-1.005,1.474-2.252,3.056-3.136,4.611-1.166,2.037-.442,2.171.871,2.681,1.742.67,3.766,1.461,3.9,4.611a19.008,19.008,0,0,1-.067,2.359c-.094,1.434-.174,2.654.509,3.552.818,1.072,2.748.925,4.2.992,1.045.04,1.97.08,2.989.188,3.981.416,4.651,3.686,5,6.259Zm2.212-9.691a44.316,44.316,0,0,0-.281,10.508.933.933,0,0,1-.925,1.059H32.98a.928.928,0,0,1-.925-.818c-.268-2.091-.55-5.16-3.445-5.455-1.032-.107-2.52-.188-3.539-.2-1.783-.04-3.713-.094-4.946-1.7-1.568-2.051-.724-4.463-.818-7s-2.48-2.627-4.008-3.512c-1.434-.831-2.091-2-.5-4.758.952-1.662,2.118-3.123,3.217-4.731.871-1.273.67-1.5.416-2.922a15.593,15.593,0,0,1,.965-8.5,18.556,18.556,0,0,1,9.7-10.173c7.573-2.949,16.728-3.043,23.443,1.89a18.1,18.1,0,0,1,2.9,2.654,17.051,17.051,0,0,1,4.544-1.327l-.5-.295a.938.938,0,1,1,.965-1.608l3.123,1.89a.926.926,0,0,1-.04,1.608l-3.2,1.756a.938.938,0,0,1-1.247-1.314,14.64,14.64,0,0,0-2.667,27.705.95.95,0,0,1,.483,1.233.929.929,0,0,1-1.233.483,15.652,15.652,0,0,1-2.051-1.072,15.913,15.913,0,0,0-1.515,4.6ZM68.138,70.912a.936.936,0,0,1,.751-1.716,15.98,15.98,0,0,1,2.064,1.086.936.936,0,0,1-.978,1.6,14.114,14.114,0,0,0-1.836-.965Zm4.383,2.962a.947.947,0,0,1-.013-1.327.934.934,0,0,1,1.327-.013A16.443,16.443,0,0,1,76.1,75.3a.948.948,0,0,1-.268,1.3.934.934,0,0,1-1.3-.268A14.733,14.733,0,0,0,72.521,73.874ZM76.059,79.4a.933.933,0,1,1,1.756-.63,16.514,16.514,0,0,1-13.243,21.9l.5.295a.939.939,0,0,1,.322,1.287.951.951,0,0,1-1.287.322l-3.123-1.89a.937.937,0,0,1,.04-1.622l3.2-1.756a.938.938,0,0,1,1.247,1.314A14.648,14.648,0,0,0,76.059,79.4ZM50.968,96.339c-.04-.04-.08-.067-.121-.107Zm8.484-16.915a5.666,5.666,0,1,1-2.078,7.747A5.672,5.672,0,0,1,59.452,79.423Zm3.807,1.247a3.8,3.8,0,1,0,2.681,4.651A3.8,3.8,0,0,0,63.259,80.67Zm-8.35-5.777,2.9-1.662a.924.924,0,0,1,1.273.335l.724,1.247a9.278,9.278,0,0,1,2.426-.322l.362-1.381a.946.946,0,0,1,1.153-.67l3.23.871a.938.938,0,0,1,.657,1.153l-.362,1.381a9.971,9.971,0,0,1,1.944,1.488l1.247-.71a.928.928,0,0,1,1.273.348l1.675,2.9a.946.946,0,0,1-.389,1.314l-1.193.684a9.278,9.278,0,0,1,.322,2.426l1.381.375a.946.946,0,0,1,.67,1.153l-.858,3.23a.938.938,0,0,1-1.153.657L70.8,89.342a9.971,9.971,0,0,1-1.488,1.944l.724,1.233a.946.946,0,0,1-.389,1.314l-2.842,1.635a.928.928,0,0,1-1.273-.348l-.71-1.247a9.277,9.277,0,0,1-2.426.322l-.362,1.381a.946.946,0,0,1-1.153.67l-3.23-.871a.946.946,0,0,1-.67-1.153l.375-1.381a9.97,9.97,0,0,1-1.944-1.488l-1.233.71a.943.943,0,0,1-1.287-.335l-1.662-2.9a.955.955,0,0,1,.335-1.287l1.247-.724A9.278,9.278,0,0,1,52.5,84.4l-1.381-.375a.946.946,0,0,1-.67-1.153l.871-3.217a.946.946,0,0,1,1.153-.67l1.381.375a9.971,9.971,0,0,1,1.488-1.944l-.71-1.233A.883.883,0,0,1,54.908,74.893Zm3.016.416-1.273.737.617,1.072a.929.929,0,0,1-.2,1.18,7.9,7.9,0,0,0-1.944,2.52.944.944,0,0,1-1.1.536l-1.193-.322-.375,1.421,1.193.322a.957.957,0,0,1,.7.978,7.892,7.892,0,0,0,.4,3.163.949.949,0,0,1-.4,1.153l-1.072.617.737,1.273,1.072-.617a.946.946,0,0,1,1.18.2A7.956,7.956,0,0,0,58.8,91.487a.937.937,0,0,1,.536,1.1l-.322,1.193,1.421.375.322-1.193a.957.957,0,0,1,.978-.7,7.9,7.9,0,0,0,3.163-.416.943.943,0,0,1,1.153.4l.617,1.072,1.273-.737-.617-1.072a.949.949,0,0,1,.2-1.18,7.9,7.9,0,0,0,1.944-2.52.937.937,0,0,1,1.1-.536l1.193.322.375-1.421-1.193-.322a.951.951,0,0,1-.7-.965,7.89,7.89,0,0,0-.416-3.2.919.919,0,0,1,.416-1.112l1.072-.617-.737-1.273-1.032.6a.93.93,0,0,1-1.22-.174,7.9,7.9,0,0,0-2.52-1.944.944.944,0,0,1-.536-1.1l.322-1.193L64.184,74.5,63.862,75.7a.931.931,0,0,1-.965.7,8,8,0,0,0-3.177.416.954.954,0,0,1-1.153-.4Z" transform="translate(0 0)"/>
    </g>
  </g>
</svg>
