<svg xmlns="http://www.w3.org/2000/svg" xmlns:xlink="http://www.w3.org/1999/xlink" width="108" height="108" viewBox="0 0 108 108">
  <defs>
    <filter id="Trazado_982547" x="0" y="0" width="108" height="108" filterUnits="userSpaceOnUse">
      <feOffset dy="3" input="SourceAlpha"/>
      <feGaussianBlur stdDeviation="3" result="blur"/>
      <feFlood flood-opacity="0.161"/>
      <feComposite operator="in" in2="blur"/>
      <feComposite in="SourceGraphic"/>
    </filter>
  </defs>
  <g id="Grupo_1148767" data-name="Grupo 1148767" transform="translate(-1045 -854)">
    <g id="Grupo_1148555" data-name="Grupo 1148555" transform="translate(-176 -2573)">
      <g id="Grupo_1147068" data-name="Grupo 1147068" transform="translate(605 -556)">
        <g transform="matrix(1, 0, 0, 1, 616, 3983)" filter="url(#Trazado_982547)">
          <g id="Trazado_982547-2" data-name="Trazado 982547" transform="translate(9 6)" fill="#fbecfa">
            <path d="M 45 88.5 C 39.12687683105469 88.5 33.43022537231445 87.35007476806641 28.06830024719238 85.08217620849609 C 22.88852500915527 82.89131164550781 18.23629951477051 79.75458526611328 14.2408504486084 75.75914764404297 C 10.24541282653809 71.76370239257812 7.108687400817871 67.11147308349609 4.917825222015381 61.93170166015625 C 2.649924993515015 56.56977462768555 1.5 50.87312316894531 1.5 45 C 1.5 39.12687683105469 2.649924993515015 33.43022537231445 4.917825222015381 28.06830024719238 C 7.108687400817871 22.88852500915527 10.24541282653809 18.23629951477051 14.2408504486084 14.2408504486084 C 18.23629951477051 10.24541282653809 22.88852500915527 7.108687400817871 28.06830024719238 4.917825222015381 C 33.43022537231445 2.649924993515015 39.12687683105469 1.5 45 1.5 C 50.87312316894531 1.5 56.56977462768555 2.649924993515015 61.93170166015625 4.917825222015381 C 67.11147308349609 7.108687400817871 71.76370239257812 10.24541282653809 75.75914764404297 14.2408504486084 C 79.75458526611328 18.23629951477051 82.89131164550781 22.88852500915527 85.08217620849609 28.06830024719238 C 87.35007476806641 33.43022537231445 88.5 39.12687683105469 88.5 45 C 88.5 50.87312316894531 87.35007476806641 56.56977462768555 85.08217620849609 61.93170166015625 C 82.89131164550781 67.11147308349609 79.75458526611328 71.76370239257812 75.75914764404297 75.75914764404297 C 71.76370239257812 79.75458526611328 67.11147308349609 82.89131164550781 61.93170166015625 85.08217620849609 C 56.56977462768555 87.35007476806641 50.87312316894531 88.5 45 88.5 Z" stroke="none"/>
            <path d="M 45 3 C 39.32871246337891 3 33.82865524291992 4.110054016113281 28.65262985229492 6.299339294433594 C 23.65165710449219 8.414573669433594 19.15968322753906 11.44334411621094 15.301513671875 15.301513671875 C 11.44334411621094 19.15968322753906 8.414573669433594 23.65165710449219 6.299339294433594 28.65262985229492 C 4.110054016113281 33.82865524291992 3 39.32871246337891 3 45 C 3 50.67128753662109 4.110054016113281 56.17134475708008 6.299339294433594 61.34737396240234 C 8.414573669433594 66.34834289550781 11.44334411621094 70.84031677246094 15.301513671875 74.698486328125 C 19.15968322753906 78.55665588378906 23.65165710449219 81.58542633056641 28.65262985229492 83.70066070556641 C 33.82865524291992 85.88994598388672 39.32871246337891 87 45 87 C 50.67128753662109 87 56.17134475708008 85.88994598388672 61.34737396240234 83.70066070556641 C 66.34834289550781 81.58542633056641 70.84031677246094 78.55665588378906 74.698486328125 74.698486328125 C 78.55665588378906 70.84031677246094 81.58542633056641 66.34834289550781 83.70066070556641 61.34737396240234 C 85.88994598388672 56.17134475708008 87 50.67128753662109 87 45 C 87 39.32871246337891 85.88994598388672 33.82865524291992 83.70066070556641 28.65262985229492 C 81.58542633056641 23.65165710449219 78.55665588378906 19.15968322753906 74.698486328125 15.301513671875 C 70.84031677246094 11.44334411621094 66.34834289550781 8.414573669433594 61.34737396240234 6.299339294433594 C 56.17134475708008 4.110054016113281 50.67128753662109 3 45 3 M 45 0 C 69.85281372070312 0 90 20.14718627929688 90 45 C 90 69.85281372070312 69.85281372070312 90 45 90 C 20.14718627929688 90 0 69.85281372070312 0 45 C 0 20.14718627929688 20.14718627929688 0 45 0 Z" stroke="none" fill="#de53d4"/>
          </g>
        </g>
      </g>
    </g>
    <g id="decision-making_4624061" transform="translate(1065.235 879.726)">
      <g id="Grupo_1148765" data-name="Grupo 1148765" transform="translate(7.905 0.802)">
        <g id="Grupo_1148757" data-name="Grupo 1148757" transform="translate(28.126 22.527)">
          <path id="Trazado_983037" data-name="Trazado 983037" d="M289.813,225.964l8.649-7.474a1.6,1.6,0,0,1,2.392,2.093l-7.168,10.953a6.84,6.84,0,0,1-3.335,2.662l-2.351.876v9.558H277.522v-9.9a6.276,6.276,0,0,1,2.287-4.846l6.671-5.494a2.037,2.037,0,0,1,3.333,1.572Z" transform="translate(-277.522 -218.1)" fill="#ffe6c6"/>
        </g>
        <g id="Grupo_1148758" data-name="Grupo 1148758" transform="translate(0 22.527)">
          <path id="Trazado_983038" data-name="Trazado 983038" d="M25.885,225.964a2.037,2.037,0,0,1,3.333-1.572l6.671,5.494a6.276,6.276,0,0,1,2.287,4.846v9.9s-10.365-.113-10.478,0,0-9.557,0-9.557l-2.351-.876a6.84,6.84,0,0,1-3.335-2.662l-7.168-10.953a1.6,1.6,0,0,1,2.392-2.093Z" transform="translate(-14.582 -218.101)" fill="#ffe6c6"/>
        </g>
        <path id="Trazado_983039" data-name="Trazado 983039" d="M37.646,238.179H31.34a1.657,1.657,0,0,1-1.657-1.672c0-.3.005-.582.008-.841a2.241,2.241,0,0,0-1.459-2.122l-.876-.326a6.84,6.84,0,0,1-3.335-2.662L16.853,219.6a1.6,1.6,0,0,1-.262-.877,1.619,1.619,0,0,1,.1-.544,1.6,1.6,0,0,0-1.844,2.4l7.168,10.953a6.84,6.84,0,0,0,3.335,2.662l2.351.876s-.113,9.671,0,9.557a14.964,14.964,0,0,1,1.65-.048h.157c1.567-.007,3.867.006,5.7.021h0l2.308.021.163,0h.111l.273,0h.112v-6.4a2.858,2.858,0,0,0-.531-.05Z" transform="translate(-14.582 -195.574)" fill="#f8d3aa"/>
        <path id="Trazado_983040" data-name="Trazado 983040" d="M139.337,428.962v-6.917a1.235,1.235,0,0,0-1.235-1.235h-9.8a1.235,1.235,0,0,0-1.235,1.235v6.917a.874.874,0,0,0,.874.874h10.518A.874.874,0,0,0,139.337,428.962Z" transform="translate(-115.038 -376.601)" fill="#f9f7f7"/>
        <path id="Trazado_983041" data-name="Trazado 983041" d="M131.87,428.1a2.035,2.035,0,0,1-2.035-2.035V420.81H128.3a1.235,1.235,0,0,0-1.235,1.235v6.917a.874.874,0,0,0,.874.874h10.518a.874.874,0,0,0,.874-.874v-.86H131.87Z" transform="translate(-115.038 -376.6)" fill="#f2eae7"/>
        <g id="Grupo_1148764" data-name="Grupo 1148764" transform="translate(0.431)">
          <g id="XMLID_179_" transform="translate(28.256 28.353)">
            <g id="Grupo_1148760" data-name="Grupo 1148760">
              <g id="XMLID_180_">
                <g id="Grupo_1148759" data-name="Grupo 1148759">
                  <path id="Trazado_983042" data-name="Trazado 983042" d="M332.882,280.313l-1.4,1.209v0l-7.3,6.326a3.267,3.267,0,0,0,4.427-.238l3.411-3.509a3.652,3.652,0,0,0,.862-3.786Z" transform="translate(-319.753 -279.484)" fill="#f8d3aa"/>
                  <path id="Trazado_983043" data-name="Trazado 983043" d="M293.905,273.165a2.039,2.039,0,0,1,0,2.883l-7.233,7.484-3.9-2.753a6.27,6.27,0,0,1,1.725-2.252l6.672-5.494a2.037,2.037,0,0,1,2.736.132Z" transform="translate(-282.772 -272.568)" fill="#ffe6c6"/>
                </g>
              </g>
            </g>
          </g>
          <g id="XMLID_177_" transform="translate(9.267 28.353)">
            <g id="Grupo_1148762" data-name="Grupo 1148762">
              <g id="XMLID_178_">
                <g id="Grupo_1148761" data-name="Grupo 1148761">
                  <path id="Trazado_983044" data-name="Trazado 983044" d="M113.106,287.786l-6.34-6.34-1.309-1.132a3.651,3.651,0,0,0,.862,3.786l3.544,3.587A2.352,2.352,0,0,0,113.106,287.786Z" transform="translate(-105.251 -279.485)" fill="#f8d3aa"/>
                  <path id="Trazado_983045" data-name="Trazado 983045" d="M131.668,280.176l-3.794,3.357-4.393-4.853-2.632-2.631a2.038,2.038,0,0,1,2.736-3.014l6.671,5.494A6.3,6.3,0,0,1,131.668,280.176Z" transform="translate(-118.647 -272.568)" fill="#ffe6c6"/>
                </g>
              </g>
            </g>
          </g>
          <circle id="Elipse_11613" data-name="Elipse 11613" cx="11.905" cy="11.905" r="11.905" fill="#9de5d1"/>
          <g id="Grupo_1148763" data-name="Grupo 1148763" transform="translate(6.821 7.447)">
            <path id="Trazado_983046" data-name="Trazado 983046" d="M86.287,86.473a1.6,1.6,0,0,1-1.1-.44l-2.658-2.519a.456.456,0,0,1-.017-.645l1.58-1.667a.456.456,0,0,1,.645-.017l1.186,1.124a.456.456,0,0,0,.64-.012l4.931-5.042a.456.456,0,0,1,.645-.007l1.642,1.606a.456.456,0,0,1,.007.645L87.435,85.99A1.6,1.6,0,0,1,86.287,86.473Z" transform="translate(-82.383 -77.118)" fill="#f9f7f7"/>
          </g>
          <circle id="Elipse_11614" data-name="Elipse 11614" cx="11.905" cy="11.905" r="11.905" transform="translate(27.047)" fill="#ee878a"/>
          <path id="Trazado_983047" data-name="Trazado 983047" d="M22.913,19.625A11.907,11.907,0,0,1,33.267,7.82a11.905,11.905,0,1,0-1.2,23.392,11.909,11.909,0,0,1-9.155-11.586Z" transform="translate(-18.613 -7.501)" fill="#82dec5"/>
          <path id="Trazado_983048" data-name="Trazado 983048" d="M275.773,19.625A11.909,11.909,0,0,1,286.129,7.819a11.905,11.905,0,1,0-1.2,23.392A11.909,11.909,0,0,1,275.773,19.625Z" transform="translate(-244.425 -7.5)" fill="#ec6e73"/>
          <path id="Trazado_983049" data-name="Trazado 983049" d="M334.54,68.769l3.412-3.332a.452.452,0,0,0,.008-.639l-1.84-1.884a.452.452,0,0,0-.639-.008L332.009,66.3l-3.474-3.392a.452.452,0,0,0-.639.008l-1.84,1.884a.452.452,0,0,0,.008.639l3.414,3.333L326.064,72.1a.452.452,0,0,0-.008.639l1.84,1.884a.452.452,0,0,0,.639.008l3.474-3.392,3.473,3.391a.452.452,0,0,0,.639-.008l1.84-1.884a.452.452,0,0,0-.008-.639Z" transform="translate(-293.056 -56.864)" fill="#f9f7f7"/>
        </g>
        <path id="Trazado_983050" data-name="Trazado 983050" d="M282.25,279.368l6.671-5.494a2.048,2.048,0,0,1,.589-.34,2.037,2.037,0,0,0-3.029-.5l-6.672,5.494a6.276,6.276,0,0,0-2.287,4.846v9.9H288v-6.451c-.05,0-6.665,0-6.665,0a1.373,1.373,0,0,1-1.373-1.373v-1.234A6.277,6.277,0,0,1,282.25,279.368Z" transform="translate(-249.396 -244.215)" fill="#f8d3aa"/>
        <path id="Trazado_983051" data-name="Trazado 983051" d="M283.208,428.962v-6.917a1.235,1.235,0,0,0-1.235-1.235h-9.8a1.235,1.235,0,0,0-1.235,1.235v6.917a.874.874,0,0,0,.874.874h10.518A.874.874,0,0,0,283.208,428.962Z" transform="translate(-243.52 -376.601)" fill="#f9f7f7"/>
        <path id="Trazado_983052" data-name="Trazado 983052" d="M275.455,428.1a1.748,1.748,0,0,1-1.748-1.748v-5.544h-1.53a1.235,1.235,0,0,0-1.235,1.235v6.917a.874.874,0,0,0,.874.874h10.518a.874.874,0,0,0,.874-.874v-.86Z" transform="translate(-243.52 -376.601)" fill="#f2eae7"/>
      </g>
      <g id="Grupo_1148766" data-name="Grupo 1148766" transform="translate(7.105 0)">
        <path id="Trazado_983053" data-name="Trazado 983053" d="M288.517,211.226a2.419,2.419,0,0,0-3.154-.006l-7.7,6.657a2.842,2.842,0,0,0-4.264-.769l-6.672,5.494a7.056,7.056,0,0,0-2.579,5.465v4.751a2.031,2.031,0,0,0-.7,1.536v7.79a.8.8,0,0,0,1.6,0v-7.79a.433.433,0,0,1,.432-.432h9.8a.433.433,0,0,1,.432.432v7.79a.8.8,0,0,0,1.6,0v-7.79a2.038,2.038,0,0,0-1.083-1.8v-3.587l1.828-.681a7.588,7.588,0,0,0,3.726-2.976l7.168-10.953A2.416,2.416,0,0,0,288.517,211.226Zm-.909,2.254-7.168,10.953a6,6,0,0,1-2.944,2.351l-3.19,1.188a.8.8,0,0,0,.28,1.554l.037,0v2.793h-8.875v-4.25a5.456,5.456,0,0,1,1.995-4.226l6.671-5.494a1.236,1.236,0,0,1,1.659,1.828l-2.632,2.632a.8.8,0,1,0,1.134,1.135l2.632-2.632a2.819,2.819,0,0,0,.8-1.618l8.4-7.257a.8.8,0,0,1,1.2,1.047Z" transform="translate(-236.021 -188.106)"/>
        <path id="Trazado_983054" data-name="Trazado 983054" d="M32.3,232.816v-4.751a7.063,7.063,0,0,0-2.526-5.419.8.8,0,0,0-1.032,1.228,5.462,5.462,0,0,1,1.954,4.191v4.25H21.823v-2.793l.037,0a.8.8,0,0,0,.28-1.554l-3.19-1.188a5.994,5.994,0,0,1-2.944-2.351L8.838,213.479a.8.8,0,0,1,1.2-1.047l8.4,7.258a2.825,2.825,0,0,0,.8,1.616l2.632,2.632A.8.8,0,1,0,23,222.8l-2.632-2.632a1.236,1.236,0,0,1,1.659-1.828l4.022,3.312a.8.8,0,0,0,1.02-1.239l-4.022-3.312a2.84,2.84,0,0,0-4.263.769l-7.705-6.658A2.407,2.407,0,0,0,7.5,214.358l7.168,10.953a7.588,7.588,0,0,0,3.726,2.976l1.828.681v3.587a2.038,2.038,0,0,0-1.083,1.8v7.79a.8.8,0,1,0,1.6,0v-7.79a.433.433,0,0,1,.432-.432h9.8a.433.433,0,0,1,.432.432v7.79a.8.8,0,1,0,1.6,0v-7.79a2.031,2.031,0,0,0-.7-1.536Z" transform="translate(-7.105 -188.105)"/>
        <path id="Trazado_983055" data-name="Trazado 983055" d="M23.82,25.415A12.707,12.707,0,1,0,11.113,12.707,12.722,12.722,0,0,0,23.82,25.415Zm0-23.81a11.1,11.1,0,1,1-11.1,11.1A11.116,11.116,0,0,1,23.82,1.6Z" transform="translate(-10.684 0)"/>
        <path id="Trazado_983056" data-name="Trazado 983056" d="M77.941,79.92a2.407,2.407,0,0,0,3.376-.064l1.7-1.742a.8.8,0,1,0-1.147-1.122l-1.7,1.742a.8.8,0,0,1-1.125.022l-2.407-2.281,1.1-1.165.934.886a1.264,1.264,0,0,0,1.765-.033l4.689-4.794,1.147,1.122-2.012,2.057a.8.8,0,1,0,1.147,1.122l2.254-2.3a1.258,1.258,0,0,0-.02-1.779L86,69.979a1.258,1.258,0,0,0-1.779.02l-4.692,4.8-.938-.889a1.258,1.258,0,0,0-1.779.048l-1.58,1.667a1.26,1.26,0,0,0,.048,1.779Z" transform="translate(-67.64 -62.173)"/>
        <path id="Trazado_983057" data-name="Trazado 983057" d="M276.68,25.415a12.719,12.719,0,0,0,8.163-2.969.8.8,0,0,0-1.031-1.229,11.094,11.094,0,1,1,2.129-2.382.8.8,0,0,0,1.337.887,12.708,12.708,0,1,0-10.6,5.693Z" transform="translate(-236.497 0)"/>
        <path id="Trazado_983058" data-name="Trazado 983058" d="M331.835,57.54l-1.84-1.884a1.254,1.254,0,0,0-1.773-.021l-2.912,2.844L322.4,55.633a1.254,1.254,0,0,0-1.773.021l-1.84,1.884a1.254,1.254,0,0,0,.021,1.773l2.826,2.759L318.8,64.831a1.254,1.254,0,0,0-.021,1.773l1.84,1.884a1.246,1.246,0,0,0,.882.378h.015a1.246,1.246,0,0,0,.876-.357l2.913-2.845,2.912,2.844a1.254,1.254,0,0,0,1.773-.021l1.84-1.884a1.255,1.255,0,0,0-.021-1.773l-2.824-2.758,2.825-2.758A1.255,1.255,0,0,0,331.835,57.54ZM327.281,61.5a.8.8,0,0,0,0,1.148l3.161,3.087-1.35,1.383-3.222-3.146a.8.8,0,0,0-1.121,0l-3.223,3.147-1.35-1.383,3.163-3.088a.8.8,0,0,0,0-1.148l-3.163-3.088,1.35-1.383,3.223,3.147a.8.8,0,0,0,1.121,0l3.222-3.146,1.35,1.383Z" transform="translate(-285.125 -49.364)"/>
      </g>
    </g>
  </g>
</svg>
