<svg xmlns="http://www.w3.org/2000/svg" xmlns:xlink="http://www.w3.org/1999/xlink" width="108" height="108" viewBox="0 0 108 108">
  <defs>
    <filter id="Trazado_982419" x="0" y="0" width="108" height="108" filterUnits="userSpaceOnUse">
      <feOffset dy="3" input="SourceAlpha"/>
      <feGaussianBlur stdDeviation="3" result="blur"/>
      <feFlood flood-opacity="0.161"/>
      <feComposite operator="in" in2="blur"/>
      <feComposite in="SourceGraphic"/>
    </filter>
  </defs>
  <g id="Grupo_1148819" data-name="Grupo 1148819" transform="translate(-616 -2941)">
    <g id="Grupo_1148746" data-name="Grupo 1148746" transform="translate(415 2619)">
      <g transform="matrix(1, 0, 0, 1, 201, 322)" filter="url(#Trazado_982419)">
        <g id="Trazado_982419-2" data-name="Trazado 982419" transform="translate(9 6)" fill="#fffbe9">
          <path d="M 45 88.5 C 39.12687683105469 88.5 33.43022537231445 87.35007476806641 28.06830024719238 85.08217620849609 C 22.88852500915527 82.89131164550781 18.23629951477051 79.75458526611328 14.2408504486084 75.75914764404297 C 10.24541282653809 71.76370239257812 7.108687400817871 67.11147308349609 4.917825222015381 61.93170166015625 C 2.649924993515015 56.56977462768555 1.5 50.87312316894531 1.5 45 C 1.5 39.12687683105469 2.649924993515015 33.43022537231445 4.917825222015381 28.06830024719238 C 7.108687400817871 22.88852500915527 10.24541282653809 18.23629951477051 14.2408504486084 14.2408504486084 C 18.23629951477051 10.24541282653809 22.88852500915527 7.108687400817871 28.06830024719238 4.917825222015381 C 33.43022537231445 2.649924993515015 39.12687683105469 1.5 45 1.5 C 50.87312316894531 1.5 56.56977462768555 2.649924993515015 61.93170166015625 4.917825222015381 C 67.11147308349609 7.108687400817871 71.76370239257812 10.24541282653809 75.75914764404297 14.2408504486084 C 79.75458526611328 18.23629951477051 82.89131164550781 22.88852500915527 85.08217620849609 28.06830024719238 C 87.35007476806641 33.43022537231445 88.5 39.12687683105469 88.5 45 C 88.5 50.87312316894531 87.35007476806641 56.56977462768555 85.08217620849609 61.93170166015625 C 82.89131164550781 67.11147308349609 79.75458526611328 71.76370239257812 75.75914764404297 75.75914764404297 C 71.76370239257812 79.75458526611328 67.11147308349609 82.89131164550781 61.93170166015625 85.08217620849609 C 56.56977462768555 87.35007476806641 50.87312316894531 88.5 45 88.5 Z" stroke="none"/>
          <path d="M 45 3 C 39.32871246337891 3 33.82865524291992 4.110054016113281 28.65262985229492 6.299339294433594 C 23.65165710449219 8.414573669433594 19.15968322753906 11.44334411621094 15.301513671875 15.301513671875 C 11.44334411621094 19.15968322753906 8.414573669433594 23.65165710449219 6.299339294433594 28.65262985229492 C 4.110054016113281 33.82865524291992 3 39.32871246337891 3 45 C 3 50.67128753662109 4.110054016113281 56.17134475708008 6.299339294433594 61.34737396240234 C 8.414573669433594 66.34834289550781 11.44334411621094 70.84031677246094 15.301513671875 74.698486328125 C 19.15968322753906 78.55665588378906 23.65165710449219 81.58542633056641 28.65262985229492 83.70066070556641 C 33.82865524291992 85.88994598388672 39.32871246337891 87 45 87 C 50.67128753662109 87 56.17134475708008 85.88994598388672 61.34737396240234 83.70066070556641 C 66.34834289550781 81.58542633056641 70.84031677246094 78.55665588378906 74.698486328125 74.698486328125 C 78.55665588378906 70.84031677246094 81.58542633056641 66.34834289550781 83.70066070556641 61.34737396240234 C 85.88994598388672 56.17134475708008 87 50.67128753662109 87 45 C 87 39.32871246337891 85.88994598388672 33.82865524291992 83.70066070556641 28.65262985229492 C 81.58542633056641 23.65165710449219 78.55665588378906 19.15968322753906 74.698486328125 15.301513671875 C 70.84031677246094 11.44334411621094 66.34834289550781 8.414573669433594 61.34737396240234 6.299339294433594 C 56.17134475708008 4.110054016113281 50.67128753662109 3 45 3 M 45 0 C 69.85281372070312 0 90 20.14718627929688 90 45 C 90 69.85281372070312 69.85281372070312 90 45 90 C 20.14718627929688 90 0 69.85281372070312 0 45 C 0 20.14718627929688 20.14718627929688 0 45 0 Z" stroke="none" fill="#ffde33"/>
        </g>
      </g>
    </g>
    <g id="feedback-loop" transform="translate(642.044 2964.044)">
      <g id="Grupo_1148817" data-name="Grupo 1148817" transform="translate(0.819 0.818)">
        <path id="Trazado_983120" data-name="Trazado 983120" d="M32.648,161.288l-1.563,2.034a.328.328,0,0,1-.462.059A25.678,25.678,0,0,1,22.429,134.4a.327.327,0,0,0-.157-.405l-1.058-.539a.328.328,0,0,1-.027-.568l5.315-3.384a.328.328,0,0,1,.5.258l.356,6.274a.328.328,0,0,1-.476.31l-1.133-.578a.327.327,0,0,0-.458.183A22.454,22.454,0,0,0,32.59,160.83.328.328,0,0,1,32.648,161.288Z" transform="translate(-19.403 -116.135)" fill="#90809e"/>
        <path id="Trazado_983121" data-name="Trazado 983121" d="M382.594,70.675l1.563-2.034a.328.328,0,0,1,.462-.059,25.678,25.678,0,0,1,8.194,28.978.327.327,0,0,0,.157.405l1.058.539a.328.328,0,0,1,.027.568l-5.315,3.384a.328.328,0,0,1-.5-.258l-.356-6.274a.328.328,0,0,1,.476-.31l1.133.578a.327.327,0,0,0,.458-.183,22.454,22.454,0,0,0-7.295-24.877.328.328,0,0,1-.058-.458Z" transform="translate(-341.573 -61.849)" fill="#7f688c"/>
        <g id="Grupo_1148815" data-name="Grupo 1148815" transform="translate(0 35.515)">
          <path id="Trazado_983122" data-name="Trazado 983122" d="M26.26,342.1a9.367,9.367,0,0,1-3.9,7.611c-2.142.133-3.557.787-5.6.787a34.761,34.761,0,0,1-5.36-.787A9.38,9.38,0,1,1,26.26,342.1Z" transform="translate(-7.5 -332.716)" fill="#bbf49b"/>
          <path id="Trazado_983123" data-name="Trazado 983123" d="M77.057,425.6c0,2.54-4.413,2.3-4.566,0l.4-.111a.486.486,0,0,0,.358-.47v-2.57H76.3v2.57a.486.486,0,0,0,.358.47Z" transform="translate(-65.394 -412.645)" fill="#bb5d4c"/>
          <path id="Trazado_983124" data-name="Trazado 983124" d="M54.16,454.047v1.3a9.38,9.38,0,0,1-10.964,0v-1.3a2.447,2.447,0,0,1,1.218-2.114,2.482,2.482,0,0,1,.572-.24L46.4,451.3a2.6,2.6,0,0,0,4.566,0l1.408.389a2.444,2.444,0,0,1,1.791,2.354Z" transform="translate(-39.298 -438.354)" fill="#f3f7fe"/>
          <path id="Trazado_983125" data-name="Trazado 983125" d="M64.657,367.995l.417.237a2.174,2.174,0,0,0,2.147,0l.417-.237a3.654,3.654,0,0,0,1.85-3.178v-1.2a3.34,3.34,0,0,0-6.681,0v1.2A3.654,3.654,0,0,0,64.657,367.995Z" transform="translate(-56.767 -357.271)" fill="#c96d59"/>
        </g>
        <g id="Grupo_1148816" data-name="Grupo 1148816" transform="translate(35.513)">
          <path id="Trazado_983126" data-name="Trazado 983126" d="M351.466,16.874a9.367,9.367,0,0,1-3.9,7.611c-2.142.133-3.557.787-5.6.787a34.766,34.766,0,0,1-5.36-.787,9.38,9.38,0,1,1,14.862-7.611Z" transform="translate(-332.706 -7.494)" fill="#fc90a8"/>
          <path id="Trazado_983127" data-name="Trazado 983127" d="M402.264,100.374c0,2.54-4.413,2.3-4.566,0l.4-.111a.486.486,0,0,0,.358-.47v-2.57H401.5v2.57a.486.486,0,0,0,.358.47Z" transform="translate(-390.601 -87.423)" fill="#ffcebe"/>
          <path id="Trazado_983128" data-name="Trazado 983128" d="M379.366,128.825v1.3a9.38,9.38,0,0,1-10.964,0v-1.3a2.447,2.447,0,0,1,1.218-2.114,2.483,2.483,0,0,1,.572-.24l1.408-.389a2.6,2.6,0,0,0,4.566,0l1.408.389a2.444,2.444,0,0,1,1.791,2.354Z" transform="translate(-364.504 -113.132)" fill="#f3f7fe"/>
          <path id="Trazado_983129" data-name="Trazado 983129" d="M389.864,42.774l.417.237a2.174,2.174,0,0,0,2.147,0l.417-.237a3.654,3.654,0,0,0,1.85-3.178V38.4a3.34,3.34,0,0,0-6.681,0v1.2A3.654,3.654,0,0,0,389.864,42.774Z" transform="translate(-381.974 -32.05)" fill="#ffdfcf"/>
        </g>
        <path id="Trazado_983130" data-name="Trazado 983130" d="M151.064,66.062l-.4,16.767c0,.835-2.219,1.514-3.054,1.514H135.491a1.513,1.513,0,0,1-1.511-1.514V66.062a1.512,1.512,0,0,1,1.511-1.512h12.116c.834,0,3.457.677,3.457,1.512Z" transform="translate(-120.168 -58.319)" fill="#afe6f2"/>
        <path id="Trazado_983131" data-name="Trazado 983131" d="M184.563,290.662v16.767c0,.835-2.455,1.512-3.29,1.512H168.862a1.512,1.512,0,0,1-1.511-1.512v-1.512a.756.756,0,0,0-.756-.757h-2.576a.679.679,0,0,1-.519-1.117l3.672-4.353a.759.759,0,0,0,.178-.488v-8.54a1.512,1.512,0,0,1,1.511-1.512h12.411C182.109,289.15,184.563,289.827,184.563,290.662Z" transform="translate(-146.322 -258.392)" fill="#ffe177"/>
        <path id="Trazado_983132" data-name="Trazado 983132" d="M268,69.012a.681.681,0,0,1-.161.438L264.166,73.8a.754.754,0,0,0-.179.488v8.54a1.513,1.513,0,0,1-1.511,1.514H258.77a1.514,1.514,0,0,0,1.512-1.514V66.062a1.513,1.513,0,0,0-1.512-1.512h3.705a1.512,1.512,0,0,1,1.511,1.512v1.514a.756.756,0,0,0,.757.756h2.575a.68.68,0,0,1,.679.68Z" transform="translate(-231.331 -58.319)" fill="#9adbef"/>
        <path id="Trazado_983133" data-name="Trazado 983133" d="M332.483,290.662v16.767a1.513,1.513,0,0,1-1.512,1.512h-3.41a1.512,1.512,0,0,0,1.512-1.512V290.662a1.512,1.512,0,0,0-1.512-1.512h3.41A1.513,1.513,0,0,1,332.483,290.662Z" transform="translate(-292.609 -258.392)" fill="#ffd15b"/>
        <path id="Trazado_983134" data-name="Trazado 983134" d="M238.323,326.47l1.591,3.224a.328.328,0,0,0,.247.179l3.558.517a.328.328,0,0,1,.181.559l-2.575,2.509a.328.328,0,0,0-.094.29l.608,3.543a.328.328,0,0,1-.475.345l-3.183-1.673a.328.328,0,0,0-.3,0l-3.183,1.673a.328.328,0,0,1-.475-.345l.608-3.543a.328.328,0,0,0-.094-.29l-2.575-2.509a.328.328,0,0,1,.182-.559l3.558-.517a.328.328,0,0,0,.247-.179l1.591-3.224A.328.328,0,0,1,238.323,326.47Z" transform="translate(-207.536 -291.474)" fill="#f3f7fe"/>
      </g>
      <g id="Grupo_1148818" data-name="Grupo 1148818" transform="translate(0 0)">
        <path id="Trazado_983135" data-name="Trazado 983135" d="M242.705,37.081l-1.23-.633a26.249,26.249,0,0,0,1.386-9.3A26.531,26.531,0,0,0,240.9,17.9a10.2,10.2,0,1,0-16.876-7.888H222.8V8.562a2.334,2.334,0,0,0-2.331-2.332h-8.035a.819.819,0,0,0,0,1.638h8.035a.694.694,0,0,1,.693.694v1.513a1.577,1.577,0,0,0,1.575,1.575h2.275l-3.478,4.122a1.578,1.578,0,0,0-.372,1.017v8.54a.694.694,0,0,1-.693.694h-3.828a.819.819,0,1,0,0,1.638h3.828a2.334,2.334,0,0,0,2.331-2.332V16.812L224.9,14.33a10.2,10.2,0,0,0,11.662,5.8A21.613,21.613,0,0,1,237.1,34.22l-1.087-.551a.819.819,0,0,0-1.188.777l.421,7.4a.819.819,0,0,0,1.257.644l6.27-3.992a.819.819,0,0,0-.065-1.419ZM226.1,12.907l.363-.43a1.5,1.5,0,0,0-.8-2.423,8.56,8.56,0,1,1,14.822,5.97,3.259,3.259,0,0,0-2.355-2.657l-1.567-.433v-.973a4.481,4.481,0,0,0,1.818-3.6v-1.2a4.159,4.159,0,0,0-8.319,0v1.2a4.481,4.481,0,0,0,1.818,3.6v.973l-1.567.433a3.259,3.259,0,0,0-2.355,2.656,8.5,8.5,0,0,1-1.86-3.116Zm9.21-2.077-.417.237a1.361,1.361,0,0,1-1.338,0l-.417-.237h0A2.84,2.84,0,0,1,231.7,8.364v-1.2a2.521,2.521,0,0,1,5.043,0v1.2a2.84,2.84,0,0,1-1.436,2.465Zm-1.79,2.357v-.392a2.976,2.976,0,0,0,1.408,0v.392a1.305,1.305,0,0,0,.263.785,1.575,1.575,0,0,1-1.934,0A1.3,1.3,0,0,0,233.518,13.187Zm-3.959,4.179V16.51a1.622,1.622,0,0,1,1.19-1.564l.936-.258a3.194,3.194,0,0,0,5.074,0l.936.258a1.623,1.623,0,0,1,1.19,1.564v.861a8.519,8.519,0,0,1-9.327-.005Zm10.53,20.21.6.308L236.8,40.359l-.261-4.586.669.339a.819.819,0,0,0,1.143-.458,23.231,23.231,0,0,0-.23-16.033,10.165,10.165,0,0,0,1.416-.722,24.9,24.9,0,0,1,1.688,8.294,24.621,24.621,0,0,1-1.529,9.369.819.819,0,0,0,.393,1.013Z" transform="translate(-188.51 0)"/>
        <path id="Trazado_983136" data-name="Trazado 983136" d="M128.806,78.482h8.17a.819.819,0,0,0,0-1.638h-8.171a.694.694,0,0,1-.693-.694V59.384a.694.694,0,0,1,.693-.694h3.964a.819.819,0,0,0,0-1.638h-3.964a2.334,2.334,0,0,0-2.331,2.332V76.151a2.334,2.334,0,0,0,2.331,2.332Z" transform="translate(-112.664 -50.822)"/>
        <path id="Trazado_983137" data-name="Trazado 983137" d="M178.335,103.712h-9.823a.819.819,0,1,0,0,1.638h9.823a.819.819,0,1,0,0-1.638Z" transform="translate(-149.381 -92.386)"/>
        <path id="Trazado_983138" data-name="Trazado 983138" d="M179.154,148.493a.819.819,0,0,0-.819-.819h-9.823a.819.819,0,0,0,0,1.638h9.823A.819.819,0,0,0,179.154,148.493Z" transform="translate(-149.381 -131.548)"/>
        <path id="Trazado_983139" data-name="Trazado 983139" d="M168.512,191.636a.819.819,0,0,0,0,1.638h4.647a.819.819,0,0,0,0-1.638Z" transform="translate(-149.381 -170.709)"/>
        <path id="Trazado_983140" data-name="Trazado 983140" d="M39.181,137.368H23.36a2.334,2.334,0,0,0-2.331,2.332v8.517l-1.043,1.236A10.2,10.2,0,0,0,7.8,142.411,21.736,21.736,0,0,1,6.5,137.3a.819.819,0,0,0-1.624.21,23.372,23.372,0,0,0,1.373,5.414,10.175,10.175,0,0,0-1.411.731,24.88,24.88,0,0,1-.11-17.922.819.819,0,0,0-.39-1.018l-.575-.3,3.891-2.477.261,4.583-.693-.353a.819.819,0,0,0-1.142.45A23.1,23.1,0,0,0,4.7,133.552a.819.819,0,0,0,1.637.068,21.357,21.357,0,0,1,.983-5.56l1.12.571a.819.819,0,0,0,1.189-.776l-.421-7.4a.819.819,0,0,0-1.257-.644L1.678,123.8a.819.819,0,0,0,.064,1.419l1.2.62a26.527,26.527,0,0,0,.531,18.825,10.2,10.2,0,1,0,16.563,10.352h.992v1.45A2.334,2.334,0,0,0,23.36,158.8H39.181a2.334,2.334,0,0,0,2.331-2.332V154.82a.819.819,0,0,0-1.638,0v1.646a.694.694,0,0,1-.693.694H23.36a.694.694,0,0,1-.693-.694v-1.513a1.577,1.577,0,0,0-1.575-1.575H18.817l3.478-4.123a1.578,1.578,0,0,0,.371-1.016V139.7a.694.694,0,0,1,.693-.694H39.181a.694.694,0,0,1,.693.694V151a.819.819,0,0,0,1.638,0V139.7a2.334,2.334,0,0,0-2.331-2.332ZM5.536,159.5v-.861a1.622,1.622,0,0,1,1.191-1.564l.936-.259a3.194,3.194,0,0,0,5.074,0l.936.259a1.623,1.623,0,0,1,1.191,1.564v.856a8.52,8.52,0,0,1-9.327.005ZM9.5,155.313v-.392a2.977,2.977,0,0,0,1.408,0v.392a1.3,1.3,0,0,0,.263.785,1.575,1.575,0,0,1-1.934,0A1.305,1.305,0,0,0,9.5,155.313Zm1.79-2.357-.417.237a1.361,1.361,0,0,1-1.338,0l-.417-.237a2.84,2.84,0,0,1-1.436-2.465v-1.2a2.521,2.521,0,0,1,5.043,0v1.2a2.84,2.84,0,0,1-1.436,2.465Zm5.178,5.193a3.259,3.259,0,0,0-2.355-2.655l-1.567-.433v-.973a4.481,4.481,0,0,0,1.818-3.6v-1.2a4.16,4.16,0,0,0-8.319,0v1.2a4.481,4.481,0,0,0,1.818,3.6v.973l-1.567.433a3.259,3.259,0,0,0-2.355,2.657,8.558,8.558,0,1,1,14.725-7.127l-1.289,1.527A1.5,1.5,0,0,0,18.331,155a8.515,8.515,0,0,1-1.867,3.145Z" transform="translate(0 -106.611)"/>
        <path id="Trazado_983141" data-name="Trazado 983141" d="M235.4,320.185a.819.819,0,0,0-.661-.557l-3.959-.575-1.771-3.587a.819.819,0,0,0-1.469,0l-1.771,3.587-3.959.575a.819.819,0,0,0-.454,1.4l2.865,2.792-.676,3.942a.819.819,0,0,0,1.188.863l3.542-1.861,3.542,1.861a.819.819,0,0,0,1.188-.864l-.676-3.942,2.865-2.792a.818.818,0,0,0,.208-.839Zm-4.524,2.759a.819.819,0,0,0-.236.725l.469,2.731-2.454-1.29a.819.819,0,0,0-.762,0l-2.454,1.29.468-2.731a.819.819,0,0,0-.236-.725l-1.985-1.934,2.743-.4a.819.819,0,0,0,.617-.448l1.227-2.485,1.227,2.485a.819.819,0,0,0,.617.448l2.743.4Z" transform="translate(-196.966 -280.609)"/>
      </g>
    </g>
  </g>
</svg>
