<svg xmlns="http://www.w3.org/2000/svg" xmlns:xlink="http://www.w3.org/1999/xlink" width="108" height="108" viewBox="0 0 108 108">
  <defs>
    <filter id="Trazado_982419" x="0" y="0" width="108" height="108" filterUnits="userSpaceOnUse">
      <feOffset dy="3" input="SourceAlpha"/>
      <feGaussianBlur stdDeviation="3" result="blur"/>
      <feFlood flood-opacity="0.161"/>
      <feComposite operator="in" in2="blur"/>
      <feComposite in="SourceGraphic"/>
    </filter>
  </defs>
  <g id="Grupo_1148795" data-name="Grupo 1148795" transform="translate(-213 -504)">
    <g id="Grupo_1148745" data-name="Grupo 1148745" transform="translate(12 182)">
      <g transform="matrix(1, 0, 0, 1, 201, 322)" filter="url(#Trazado_982419)">
        <g id="Trazado_982419-2" data-name="Trazado 982419" transform="translate(9 6)" fill="#fbecfa">
          <path d="M 45 88.5 C 39.12687683105469 88.5 33.43022537231445 87.35007476806641 28.06830024719238 85.08217620849609 C 22.88852500915527 82.89131164550781 18.23629951477051 79.75458526611328 14.2408504486084 75.75914764404297 C 10.24541282653809 71.76370239257812 7.108687400817871 67.11147308349609 4.917825222015381 61.93170166015625 C 2.649924993515015 56.56977462768555 1.5 50.87312316894531 1.5 45 C 1.5 39.12687683105469 2.649924993515015 33.43022537231445 4.917825222015381 28.06830024719238 C 7.108687400817871 22.88852500915527 10.24541282653809 18.23629951477051 14.2408504486084 14.2408504486084 C 18.23629951477051 10.24541282653809 22.88852500915527 7.108687400817871 28.06830024719238 4.917825222015381 C 33.43022537231445 2.649924993515015 39.12687683105469 1.5 45 1.5 C 50.87312316894531 1.5 56.56977462768555 2.649924993515015 61.93170166015625 4.917825222015381 C 67.11147308349609 7.108687400817871 71.76370239257812 10.24541282653809 75.75914764404297 14.2408504486084 C 79.75458526611328 18.23629951477051 82.89131164550781 22.88852500915527 85.08217620849609 28.06830024719238 C 87.35007476806641 33.43022537231445 88.5 39.12687683105469 88.5 45 C 88.5 50.87312316894531 87.35007476806641 56.56977462768555 85.08217620849609 61.93170166015625 C 82.89131164550781 67.11147308349609 79.75458526611328 71.76370239257812 75.75914764404297 75.75914764404297 C 71.76370239257812 79.75458526611328 67.11147308349609 82.89131164550781 61.93170166015625 85.08217620849609 C 56.56977462768555 87.35007476806641 50.87312316894531 88.5 45 88.5 Z" stroke="none"/>
          <path d="M 45 3 C 39.32871246337891 3 33.82865524291992 4.110054016113281 28.65262985229492 6.299339294433594 C 23.65165710449219 8.414573669433594 19.15968322753906 11.44334411621094 15.301513671875 15.301513671875 C 11.44334411621094 19.15968322753906 8.414573669433594 23.65165710449219 6.299339294433594 28.65262985229492 C 4.110054016113281 33.82865524291992 3 39.32871246337891 3 45 C 3 50.67128753662109 4.110054016113281 56.17134475708008 6.299339294433594 61.34737396240234 C 8.414573669433594 66.34834289550781 11.44334411621094 70.84031677246094 15.301513671875 74.698486328125 C 19.15968322753906 78.55665588378906 23.65165710449219 81.58542633056641 28.65262985229492 83.70066070556641 C 33.82865524291992 85.88994598388672 39.32871246337891 87 45 87 C 50.67128753662109 87 56.17134475708008 85.88994598388672 61.34737396240234 83.70066070556641 C 66.34834289550781 81.58542633056641 70.84031677246094 78.55665588378906 74.698486328125 74.698486328125 C 78.55665588378906 70.84031677246094 81.58542633056641 66.34834289550781 83.70066070556641 61.34737396240234 C 85.88994598388672 56.17134475708008 87 50.67128753662109 87 45 C 87 39.32871246337891 85.88994598388672 33.82865524291992 83.70066070556641 28.65262985229492 C 81.58542633056641 23.65165710449219 78.55665588378906 19.15968322753906 74.698486328125 15.301513671875 C 70.84031677246094 11.44334411621094 66.34834289550781 8.414573669433594 61.34737396240234 6.299339294433594 C 56.17134475708008 4.110054016113281 50.67128753662109 3 45 3 M 45 0 C 69.85281372070312 0 90 20.14718627929688 90 45 C 90 69.85281372070312 69.85281372070312 90 45 90 C 20.14718627929688 90 0 69.85281372070312 0 45 C 0 20.14718627929688 20.14718627929688 0 45 0 Z" stroke="none" fill="#de53d4"/>
        </g>
      </g>
    </g>
    <g id="sales-manager" transform="translate(235.637 543.82)">
      <g id="Grupo_1148794" data-name="Grupo 1148794" transform="translate(1.921 -19.035)">
        <g id="Grupo_1148790" data-name="Grupo 1148790" transform="translate(0 0)">
          <path id="Trazado_983080" data-name="Trazado 983080" d="M46.529,210.014a18.743,18.743,0,0,0-37.446,0,.833.833,0,0,0,.832.871H45.7a.833.833,0,0,0,.832-.871Z" transform="translate(-9.081 -167.689)" fill="#64b5f6" fill-rule="evenodd"/>
          <path id="Trazado_983081" data-name="Trazado 983081" d="M139.437,244.056h5.518l-1.751-7.279,2.735-4.4-3.743-2.72-3.744,2.72,2.735,4.4Z" transform="translate(-123.472 -200.86)" fill="#ffda2d" fill-rule="evenodd"/>
          <path id="Trazado_983082" data-name="Trazado 983082" d="M142.2,229.657l3.743,2.72-2.735,4.4h-2.016l-2.735-4.4Z" transform="translate(-123.473 -200.86)" fill="#ffc700" fill-rule="evenodd"/>
          <path id="Trazado_983083" data-name="Trazado 983083" d="M92.579,196.858a18.645,18.645,0,0,0-5.174,2.15l3.747,7.331a.594.594,0,0,0,.914.183l4.994-4.234Z" transform="translate(-78.335 -171.859)" fill="#2d90f1" fill-rule="evenodd"/>
          <path id="Trazado_983084" data-name="Trazado 983084" d="M175.261,196.858a18.645,18.645,0,0,1,5.174,2.15l-3.747,7.331a.594.594,0,0,1-.914.183l-4.994-4.234Z" transform="translate(-152.057 -171.859)" fill="#2d90f1" fill-rule="evenodd"/>
          <g id="Grupo_1148789" data-name="Grupo 1148789" transform="translate(4.397)">
            <path id="Trazado_983085" data-name="Trazado 983085" d="M125.06,193.461a18.644,18.644,0,0,0-13.78,0l6.89,4.656Z" transform="translate(-103.843 -167.688)" fill="#ffd6bd" fill-rule="evenodd"/>
            <circle id="Elipse_11618" data-name="Elipse 11618" cx="10.13" cy="10.13" r="10.13" transform="translate(0 14.324) rotate(-45)" fill="#ffd6bd"/>
          </g>
        </g>
        <g id="Grupo_1148792" data-name="Grupo 1148792" transform="translate(22.731 29.581)">
          <g id="Grupo_1148791" data-name="Grupo 1148791" transform="translate(0.168 4.604)">
            <path id="Trazado_983086" data-name="Trazado 983086" d="M207.277,432.724h4.3a.441.441,0,0,1,.44.44v6.311a.441.441,0,0,1-.44.44h-4.3a.441.441,0,0,1-.44-.44v-6.311A.441.441,0,0,1,207.277,432.724Z" transform="translate(-206.837 -414.597)" fill="#fc685b" fill-rule="evenodd"/>
            <path id="Trazado_983087" data-name="Trazado 983087" d="M285.337,391.8h4.3a.441.441,0,0,1,.44.44v11.049a.441.441,0,0,1-.44.44h-4.3a.441.441,0,0,1-.44-.44V392.245A.441.441,0,0,1,285.337,391.8Z" transform="translate(-275.858 -378.416)" fill="#ffda2d" fill-rule="evenodd"/>
            <path id="Trazado_983088" data-name="Trazado 983088" d="M363.4,350.883h4.3a.441.441,0,0,1,.44.44v15.788a.441.441,0,0,1-.44.44h-4.3a.441.441,0,0,1-.44-.44V351.323A.441.441,0,0,1,363.4,350.883Z" transform="translate(-344.879 -342.232)" fill="#72d561" fill-rule="evenodd"/>
            <path id="Trazado_983089" data-name="Trazado 983089" d="M430.985,281.3v19.757a.441.441,0,0,1-.44.44h-4.3a.441.441,0,0,1-.44-.44V281.3h-1.654a.337.337,0,0,1-.247-.568L428,276.351a.548.548,0,0,1,.8,0l4.087,4.379a.337.337,0,0,1-.247.568Z" transform="translate(-398.691 -276.177)" fill="#64b5f6" fill-rule="evenodd"/>
          </g>
          <path id="Trazado_983090" data-name="Trazado 983090" d="M225.584,238.59l-.852-1.475a.462.462,0,0,1,.463-.69l5.585.755a.463.463,0,0,1,.366.634l-2.139,5.214a.462.462,0,0,1-.829.056l-.852-1.475-19.893,11.486a.608.608,0,0,1-.828-.222l-1.136-1.968a.608.608,0,0,1,.222-.828Z" transform="translate(-205.388 -236.421)" fill="#b4d2d7" fill-rule="evenodd"/>
        </g>
        <g id="Grupo_1148793" data-name="Grupo 1148793" transform="translate(34.973 4.193)">
          <circle id="Elipse_11619" data-name="Elipse 11619" cx="11.105" cy="11.105" r="11.105" transform="translate(0 0)" fill="#fdb800"/>
          <circle id="Elipse_11620" data-name="Elipse 11620" cx="7.751" cy="7.751" r="7.751" transform="translate(3.354 3.354)" fill="#ffda2d"/>
        </g>
      </g>
      <path id="Trazado_983091" data-name="Trazado 983091" d="M45.286,19.591a2.547,2.547,0,0,1,1.8-2.429V16.6a.926.926,0,1,1,1.851,0v.525a2.557,2.557,0,0,1,1.464.984.926.926,0,1,1-1.5,1.085.691.691,0,0,0-.557-.288h-.508a.688.688,0,1,0,0,1.375h.36a2.54,2.54,0,0,1,.743,4.969v.564a.926.926,0,1,1-1.851,0v-.525a2.549,2.549,0,0,1-1.458-.983.927.927,0,1,1,1.5-1.086.691.691,0,0,0,.557.288h.508a.688.688,0,1,0,0-1.375h-.36a2.546,2.546,0,0,1-2.545-2.541Zm2.725-5.211A6.825,6.825,0,1,0,54.832,21.2,6.834,6.834,0,0,0,48.011,14.38Zm0,15.5A8.678,8.678,0,1,0,39.333,21.2,8.688,8.688,0,0,0,48.011,29.882Zm0-18.856A10.179,10.179,0,1,0,58.186,21.2,10.19,10.19,0,0,0,48.011,11.026Zm0,22.21A12.031,12.031,0,1,0,35.98,21.2,12.047,12.047,0,0,0,48.011,33.236Zm-9.563,14.94H35.461l2.824-1.631A16.307,16.307,0,0,1,38.448,48.176ZM26.521,51.2,46.138,39.873a.929.929,0,0,1,1.267.339l.377.658,1.557-3.786-4.058-.548.382.658a.927.927,0,0,1-.344,1.265L25.707,49.785Zm-1.737-3.022,11.884-6.859a17.93,17.93,0,0,0-6-6.933l-3.626,7.093a.921.921,0,0,1-.639.487,1.014,1.014,0,0,1-.186.018.93.93,0,0,1-.6-.22l-1.851-1.571-1.114,1.793,1.491,6.193h.639Zm-14.151-13.8,3.632,7.1a.921.921,0,0,0,.639.487.971.971,0,0,0,.186.018.9.9,0,0,0,.6-.22l1.857-1.571,1.114,1.793-1.491,6.193H2.862a17.825,17.825,0,0,1,7.772-13.8Zm14.844-2.42-4.822,3.26-4.833-3.265a17.762,17.762,0,0,1,9.656,0ZM11.453,20.23a9.2,9.2,0,1,1,9.2,9.2,9.213,9.213,0,0,1-9.2-9.2ZM22.184,36.419l5.467-3.695c.492.21.967.442,1.431.694l-3.151,6.175ZM21.146,40.9l1.2-1.918L20.655,37.55l-1.688,1.429,1.2,1.918Zm-.77,1.853h.557l1.305,5.426H19.071Zm-5-3.158,3.747-3.174-5.472-3.7c-.492.209-.967.44-1.431.691ZM46.263,41.94l.388.672a1.386,1.386,0,0,0,2.485-.167l2.141-5.214a1.389,1.389,0,0,0-1.1-1.9l-5.587-.755A1.388,1.388,0,0,0,43.2,36.645l.388.673-5.319,3.07a19.716,19.716,0,0,0-12.61-10.3,11.058,11.058,0,1,0-10.022,0A19.765,19.765,0,0,0,.983,49.1a.927.927,0,0,0,.928.926H23.779a1.465,1.465,0,0,0,.164.405L25.079,52.4a1.516,1.516,0,0,0,.928.714,1.536,1.536,0,0,0,.4.053,1.515,1.515,0,0,0,.765-.206l5.079-2.934H39.4a.929.929,0,0,0,.928-.926A19.757,19.757,0,0,0,40,45.556Zm10.857,2.345a.926.926,0,0,0-.923.926V64.482H52.872V45.212a.926.926,0,0,0-.923-.926h-.3l2.884-3.092,2.889,3.092Zm-1.507-4.653L59.7,44.013a1.264,1.264,0,0,1-.923,2.126h-.726V65.409a.927.927,0,0,1-.928.927H51.949a.927.927,0,0,1-.928-.927V46.138h-.726a1.264,1.264,0,0,1-.923-2.126l4.085-4.379a1.476,1.476,0,0,1,2.157,0ZM29.082,64.482H25.756V59.145h3.326ZM30,57.292H24.827a.926.926,0,0,0-.923.926v7.191a.926.926,0,0,0,.923.927H30a.927.927,0,0,0,.928-.927V58.218A.927.927,0,0,0,30,57.292Zm8.116,7.191H34.795V54.406h3.326Zm.923-11.929a.927.927,0,0,1,.928.926V65.409a.927.927,0,0,1-.928.927H33.866a.926.926,0,0,1-.923-.927V53.48a.926.926,0,0,1,.923-.926Zm8.116,11.929H43.833V49.668h3.326Zm.923-16.668a.927.927,0,0,1,.928.926V65.409a.927.927,0,0,1-.928.927H42.91a.927.927,0,0,1-.928-.927V48.741a.927.927,0,0,1,.928-.926Z" transform="translate(0 -24.942)" fill-rule="evenodd"/>
    </g>
  </g>
</svg>
