<svg xmlns="http://www.w3.org/2000/svg" xmlns:xlink="http://www.w3.org/1999/xlink" width="1200.809" height="304.357" viewBox="0 0 1200.809 304.357">
  <defs>
    <filter id="Trazado_983903" x="954.649" y="28.632" width="246.16" height="246.16" filterUnits="userSpaceOnUse">
      <feOffset dy="3" input="SourceAlpha"/>
      <feGaussianBlur stdDeviation="3" result="blur"/>
      <feFlood flood-opacity="0.161"/>
      <feComposite operator="in" in2="blur"/>
      <feComposite in="SourceGraphic"/>
    </filter>
    <filter id="Trazado_983904" x="0" y="27.632" width="249.06" height="249.06" filterUnits="userSpaceOnUse">
      <feOffset dy="3" input="SourceAlpha"/>
      <feGaussianBlur stdDeviation="3" result="blur-2"/>
      <feFlood flood-opacity="0.161"/>
      <feComposite operator="in" in2="blur-2"/>
      <feComposite in="SourceGraphic"/>
    </filter>
    <filter id="Trazado_987919" x="273.06" y="0" width="161.452" height="304.357" filterUnits="userSpaceOnUse">
      <feOffset dy="3" input="SourceAlpha"/>
      <feGaussianBlur stdDeviation="3" result="blur-3"/>
      <feFlood flood-opacity="0.161"/>
      <feComposite operator="in" in2="blur-3"/>
      <feComposite in="SourceGraphic"/>
    </filter>
    <filter id="Trazado_987922" x="438.704" y="0" width="161.452" height="304.357" filterUnits="userSpaceOnUse">
      <feOffset dy="3" input="SourceAlpha"/>
      <feGaussianBlur stdDeviation="3" result="blur-4"/>
      <feFlood flood-opacity="0.161"/>
      <feComposite operator="in" in2="blur-4"/>
      <feComposite in="SourceGraphic"/>
    </filter>
    <filter id="Trazado_987925" x="604.348" y="0" width="161.452" height="304.357" filterUnits="userSpaceOnUse">
      <feOffset dy="3" input="SourceAlpha"/>
      <feGaussianBlur stdDeviation="3" result="blur-5"/>
      <feFlood flood-opacity="0.161"/>
      <feComposite operator="in" in2="blur-5"/>
      <feComposite in="SourceGraphic"/>
    </filter>
    <filter id="Trazado_987931" x="770.002" y="0" width="161.452" height="304.357" filterUnits="userSpaceOnUse">
      <feOffset dy="3" input="SourceAlpha"/>
      <feGaussianBlur stdDeviation="3" result="blur-6"/>
      <feFlood flood-opacity="0.161"/>
      <feComposite operator="in" in2="blur-6"/>
      <feComposite in="SourceGraphic"/>
    </filter>
  </defs>
  <g id="Grupo_1148991" data-name="Grupo 1148991" transform="translate(-212 -1061)">
    <g id="Grupo_1148949" data-name="Grupo 1148949" transform="translate(19.063 -29.925)">
      <g transform="matrix(1, 0, 0, 1, 192.94, 1090.93)" filter="url(#Trazado_983903)">
        <path id="Trazado_983903-2" data-name="Trazado 983903" d="M114.08,0A114.08,114.08,0,1,1,0,114.08,114.08,114.08,0,0,1,114.08,0Z" transform="translate(963.65 34.63)" fill="#86c5f7"/>
      </g>
      <g id="Grupo_1148647" data-name="Grupo 1148647" transform="translate(159.612 729.569)">
        <path id="Trazado_983275" data-name="Trazado 983275" d="M1167.9,555.061c-4.452-13.294-11.509-29.623-17.337-44.146-3.4-8.243-12.15-8.9-12.15-8.9s-59.7.168-59.887.2h0c-7.834-.189-12.412,6.091-13.588,8.873-5.923,14.481-13.137,30.863-17.673,44.146.021.126,12.5,6.049,12.5,6.049,4.431-7.55,14.187-22.483,17.894-28.258l-2.321,81.813a128.992,128.992,0,0,0,35.052,4.925c9.692-.189,22.966-1.754,32.207-4.925l-2.951-79.514c4.316,6.815,12.171,19.164,15.993,25.812,0,0,12.234-5.933,12.255-6.059Z" transform="translate(0.086 4.503)" fill="#262262"/>
        <rect id="Rectángulo_406122" data-name="Rectángulo 406122" width="16.403" height="6.332" transform="translate(1152.569 562.052) rotate(-25.76)" fill="#151544"/>
        <path id="Trazado_983276" data-name="Trazado 983276" d="M1116.043,490.02a4.484,4.484,0,0,0,.494.158c.126,7.151-.021,19.847-.021,19.847s-18.7-1.523-19.406-2.268l.031-17.736Z" transform="translate(2.584 3.902)" fill="#e8af92"/>
        <path id="Trazado_983277" data-name="Trazado 983277" d="M1121.741,502.419l-4.872-5.534-9.881,9.356-9.6-9.461-5.219,5.639,14.838,22.525Z" transform="translate(2.336 4.241)" fill="#9fbdf4"/>
        <path id="Trazado_983278" data-name="Trazado 983278" d="M1107.319,498.2c-8.474-.094-32.648-9.808-31.587-34.391V435.346a6.826,6.826,0,0,1,6.826-6.826h49.512a6.825,6.825,0,0,1,6.826,6.826v28.468c1.4,24.8-21.265,34.5-31.587,34.391Z" transform="translate(1.511 0.821)" fill="#f7c6aa"/>
        <path id="Trazado_983279" data-name="Trazado 983279" d="M1081.52,451.818h0c0-5.692,19.038-5.345,19.038,0v2.667C1094.279,450.757,1087.936,448.111,1081.52,451.818Z" transform="translate(1.803 1.781)" fill="#6d210f"/>
        <path id="Trazado_983280" data-name="Trazado 983280" d="M1130.808,451.818h0c0-5.524-19.038-5.534-19.038,0v2.667C1118.081,450.747,1124.424,448.1,1130.808,451.818Z" transform="translate(3.319 1.781)" fill="#6d210f"/>
        <path id="Trazado_983281" data-name="Trazado 983281" d="M1098.46,480.878l.84-1.712a10.922,10.922,0,0,0,8.327.662,8.813,8.813,0,0,0,5.587-5.818l1.848.483c-1.712,6.5-9.545,9.871-16.613,6.4Z" transform="translate(2.651 3.1)" fill="#be1e2d"/>
        <path id="Trazado_983282" data-name="Trazado 983282" d="M1099.93,469.185l1.334-1.071a8.541,8.541,0,0,0,5.146,1.67,6.35,6.35,0,0,0,4.683-1.964l1.607.809c-2.583,3.15-8.663,3.686-12.759.557Z" transform="translate(2.725 2.79)" fill="#d1946b"/>
        <g id="Grupo_1148640" data-name="Grupo 1148640" transform="translate(1087.135 456.485)">
          <path id="Trazado_983283" data-name="Trazado 983283" d="M1126.852,456.8c-3.539-3.3-9.23-3.14-11.982-.105l.914.609a6.608,6.608,0,0,1,3.728-1.8,2.135,2.135,0,1,0,2.625.095,9.2,9.2,0,0,1,3.917,1.88l.788-.672Z" transform="translate(-1083.661 -454.369)" fill="#222223"/>
          <path id="Trazado_983284" data-name="Trazado 983284" d="M1097.132,456.8c-3.539-3.3-9.23-3.14-11.982-.105l.914.609a6.607,6.607,0,0,1,3.728-1.8,2.135,2.135,0,1,0,2.625.095,9.2,9.2,0,0,1,3.917,1.88l.787-.672Z" transform="translate(-1085.15 -454.369)" fill="#222223"/>
        </g>
        <path id="Trazado_983285" data-name="Trazado 983285" d="M1059.738,558.876c6.1,10.711,17.7,32,17.7,32s-2.9,8.1-3.938,11.194c-11.225-13.536-19.49-28.71-27.187-42.4a5.477,5.477,0,0,1,.861-6.773s12.612,6.08,12.559,5.986Z" transform="translate(0 7.052)" fill="#e8af92"/>
        <g id="Grupo_1148641" data-name="Grupo 1148641" transform="translate(1067.12 594.8)">
          <rect id="Rectángulo_406123" data-name="Rectángulo 406123" width="11.856" height="3.266" transform="matrix(-0.728, 0.685, -0.685, -0.728, 10.872, 2.378)" fill="#5b6ba5"/>
          <path id="Trazado_983286" data-name="Trazado 983286" d="M1069.347,593.106a2.812,2.812,0,1,0,.116-3.98A2.819,2.819,0,0,0,1069.347,593.106Z" transform="translate(-1065.966 -585.971)" fill="#a7a9ac"/>
          <path id="Trazado_983287" data-name="Trazado 983287" d="M1069.867,592.545a2.05,2.05,0,1,0,.084-2.9A2.045,2.045,0,0,0,1069.867,592.545Z" transform="translate(-1065.929 -585.935)" fill="#efe9d0"/>
        </g>
        <path id="Trazado_983288" data-name="Trazado 983288" d="M1072.291,598.579c4.589-13.189,2.51-11.425,17.684-10.4,2.079.115,2.373,3.476-.189,3.329h-5.8l5.482,1.922h0l8.936,3.108a1.646,1.646,0,0,1-1.082,3.108l-8.936-3.108-.158.452,10.469,3.644a1.646,1.646,0,0,1-1.082,3.108L1087.15,600.1l-.158.452,8.926,3.108a1.646,1.646,0,0,1-1.082,3.108l-8.936-3.108-.147.431,7.067,2.457a1.662,1.662,0,0,1-1.092,3.14l-16.928-5.923a4.069,4.069,0,0,1-2.51-5.187Z" transform="translate(1.329 8.785)" fill="#e8af92"/>
        <rect id="Rectángulo_406124" data-name="Rectángulo 406124" width="16.928" height="6.332" transform="translate(1061.156 566.715) rotate(-154.24)" fill="#151544"/>
        <path id="Trazado_983289" data-name="Trazado 983289" d="M1141.021,428.732c-6.185-6.185-14.533-18.492-37.132-16.361-19.07,1.8-28.846,9.944-35.619,35.273l3.591.431c.032.3,2.195,7.13,3.822,12.223a.914.914,0,0,0,1.785-.273l.021-12.381c.63-.052,44.85-2.331,59.908-15.163.168.273.21,17.967.22,26.956a1.938,1.938,0,0,0,3.591,1.019c4.946-8.338,4.568-23.165-.21-31.734Z" transform="translate(1.139 0)" fill="#9b3415"/>
        <g id="Grupo_1148642" data-name="Grupo 1148642" transform="translate(1070.774 454.691)">
          <path id="Trazado_983293" data-name="Trazado 983293" d="M1073.046,470.9h0a3.487,3.487,0,0,0,3.476-3.476V456.136a3.487,3.487,0,0,0-3.476-3.476h0a3.487,3.487,0,0,0-3.476,3.476v11.289A3.487,3.487,0,0,0,1073.046,470.9Z" transform="translate(-1069.57 -452.66)" fill="#f7c6aa"/>
          <path id="Trazado_983294" data-name="Trazado 983294" d="M1075.007,466.179v-9.041a2.064,2.064,0,0,0-4.127,0v9.041A2.064,2.064,0,0,0,1075.007,466.179Z" transform="translate(-1069.504 -452.538)" fill="#e8af92"/>
        </g>
        <g id="Grupo_1148643" data-name="Grupo 1148643" transform="translate(1139.913 453.735)">
          <path id="Trazado_983295" data-name="Trazado 983295" d="M1138.886,469.99h0a3.487,3.487,0,0,1-3.476-3.476V455.226a3.487,3.487,0,0,1,3.476-3.476h0a3.487,3.487,0,0,1,3.476,3.476v11.289A3.487,3.487,0,0,1,1138.886,469.99Z" transform="translate(-1135.41 -451.75)" fill="#f7c6aa"/>
          <path id="Trazado_983296" data-name="Trazado 983296" d="M1136.79,465.269v-9.041a2.064,2.064,0,0,1,4.127,0v9.041A2.064,2.064,0,0,1,1136.79,465.269Z" transform="translate(-1135.341 -451.628)" fill="#e8af92"/>
        </g>
        <g id="Grupo_1148645" data-name="Grupo 1148645" transform="translate(1101.31 559.822)">
          <rect id="Rectángulo_406125" data-name="Rectángulo 406125" width="47.423" height="10.522" transform="translate(24.87 45.896) rotate(-121.63)" fill="#aeb6c1"/>
          <rect id="Rectángulo_406126" data-name="Rectángulo 406126" width="47.423" height="6.689" transform="translate(28.117 43.886) rotate(-121.63)" fill="#cad7ea"/>
          <path id="Trazado_983297" data-name="Trazado 983297" d="M1120.327,573.137l-13.179,8.1.094-2.7-2.373-1.019,13.179-8.086Z" transform="translate(-1098.337 -551.941)" fill="#ef4136"/>
          <g id="Grupo_1148644" data-name="Grupo 1148644" transform="translate(12.398 18.94)">
            <path id="Trazado_983298" data-name="Trazado 983298" d="M1116.015,577.573a2.651,2.651,0,1,0-.01,0Z" transform="translate(-1110.455 -570.811)" fill="#e0a603"/>
            <path id="Trazado_983299" data-name="Trazado 983299" d="M1115.558,576.863a2.862,2.862,0,1,1,.935-3.938A2.863,2.863,0,0,1,1115.558,576.863Z" transform="translate(-1110.418 -570.774)" fill="#f9ed32" opacity="0.39"/>
            <path id="Trazado_983300" data-name="Trazado 983300" d="M1117.619,575.388l-7.109-1.565a3.644,3.644,0,1,1,7.109,1.575Z" transform="translate(-1110.453 -570.811)" fill="#fffdf3" opacity="0.27"/>
          </g>
        </g>
        <path id="Trazado_983301" data-name="Trazado 983301" d="M1112,580.034l8.705-5.062-2.51-4.011c5.534.515,7.015.241,9.062,3.224l24.919-13.609,13.315-6.406c1.617,3.717,1.376,10.249-.115,11.719-5.954,7.2-23.89,13.735-33.047,17.652.126.242.252.473.378.725a3.256,3.256,0,0,1-1.659,3.623c-11.268,5.923-.1.084-10.953,5.776a1.579,1.579,0,0,1-2.132-.662l-.378-.714a1.583,1.583,0,0,1,.431-1.985c-1.008.536-2.037.767-2.636-.378l-.389-.735a1.55,1.55,0,0,1,.6-2.069c-1.239.651-2.079.347-2.5-.451l-.389-.735c-.42-.8-.22-1.659,1.092-2.342a1.568,1.568,0,0,1-2.048-.693l-.389-.735a1.564,1.564,0,0,1,.661-2.111Z" transform="translate(3.289 7.116)" fill="#e8af92"/>
        <path id="Trazado_983302" data-name="Trazado 983302" d="M1106.645,524.492l7.3-11.068-7.319-7.634-7.214,7.7Z" transform="translate(2.699 4.693)" fill="#889dbc"/>
        <path id="Trazado_983303" data-name="Trazado 983303" d="M1107.714,512.237a1.4,1.4,0,0,1-1.4,1.4,1.4,1.4,0,1,1,0-2.793A1.4,1.4,0,0,1,1107.714,512.237Z" transform="translate(2.975 4.946)" fill="#fbb040"/>
        <g id="Grupo_1148646" data-name="Grupo 1148646" transform="translate(1082.882 465.549)">
          <path id="Trazado_983304" data-name="Trazado 983304" d="M1094.268,467.61c0,2.541-2.951,4.61-6.584,4.61s-6.584-2.058-6.584-4.61,2.951-4.61,6.584-4.61S1094.268,465.058,1094.268,467.61Z" transform="translate(-1081.1 -463)" fill="#f774aa" opacity="0.23"/>
          <path id="Trazado_983305" data-name="Trazado 983305" d="M1130.648,467.61c0,2.541-2.951,4.61-6.584,4.61s-6.584-2.058-6.584-4.61,2.951-4.61,6.584-4.61S1130.648,465.058,1130.648,467.61Z" transform="translate(-1079.277 -463)" fill="#f774aa" opacity="0.23"/>
        </g>
        <path id="Trazado_983306" data-name="Trazado 983306" d="M1138.9,459.972h-8.17a8.674,8.674,0,0,0-17.285.3H1100.63a8.677,8.677,0,0,0-17.3-.242h-7.655v1.449h7.645a8.68,8.68,0,0,0,17.3.242h12.843a8.677,8.677,0,0,0,17.3-.3l8.149-.053v-1.4Zm-46.929,8.411a7.519,7.519,0,1,1,7.519-7.519A7.518,7.518,0,0,1,1091.967,468.383Zm30.117,0a7.519,7.519,0,1,1,7.519-7.519A7.518,7.518,0,0,1,1122.084,468.383Z" transform="translate(1.51 2.007)" fill="#8b5e3c"/>
      </g>
    </g>
    <g id="Grupo_1148656" data-name="Grupo 1148656" transform="translate(161.19 710.183)">
      <g transform="matrix(1, 0, 0, 1, 50.81, 350.82)" filter="url(#Trazado_983904)">
        <path id="Trazado_983904-2" data-name="Trazado 983904" d="M115.53,0A115.53,115.53,0,1,1,0,115.53,115.53,115.53,0,0,1,115.53,0Z" transform="translate(9 33.63)" fill="#86c5f7"/>
      </g>
      <g id="Grupo_1148655" data-name="Grupo 1148655">
        <path id="Trazado_983307" data-name="Trazado 983307" d="M113.29,558.89c.02.12,12.34,6.1,12.34,6.1,5.33-9.24,18.4-29.48,19.11-30.79l.08-28.68c-8.13-.59-12.88,6.02-14.07,8.89-5.86,14.63-12.98,31.08-17.46,44.47Z" fill="#fbfbfb"/>
        <path id="Trazado_983308" data-name="Trazado 983308" d="M235.74,559.05c-.02.12-12.35,6.1-12.35,6.1-5.33-9.24-18.4-29.48-19.11-30.78l-.08-28.68c8.13-.59,12.88,6.02,14.07,8.89,5.86,14.63,12.98,31.08,17.46,44.47Z" fill="#fbfbfb"/>
        <path id="Trazado_983309" data-name="Trazado 983309" d="M204.28,505.71c-.18-.03-59.01-.19-59.01-.19-3.69,32.08-7.21,67.88.75,89.62l55.78.05c9.47-22.25,6.34-34.18,2.47-89.49Z" fill="#307513"/>
        <path id="Trazado_983310" data-name="Trazado 983310" d="M203.2,611.48a99.987,99.987,0,0,1-31.05,4.01,110.816,110.816,0,0,1-28.18-4.39l1.51-16.87h56.19l1.54,17.24Z" fill="#514939"/>
        <rect id="Rectángulo_406127" data-name="Rectángulo 406127" width="57.2" height="4.27" transform="translate(144.88 594.33)" fill="#bc8017"/>
        <rect id="Rectángulo_406128" data-name="Rectángulo 406128" width="16.52" height="6.38" transform="translate(126.036 567.156) rotate(-154.24)" fill="#262262"/>
        <path id="Trazado_983311" data-name="Trazado 983311" d="M166.29,493.52a4.747,4.747,0,0,1-.5.15c-.13,6.94.19,17.22.19,17.22s18.67.56,19.38-.17l-.03-17.2H166.29Z" fill="#e8af92"/>
        <path id="Trazado_983312" data-name="Trazado 983312" d="M160.8,505.6l4.91-5.57,9.48,9.42,10.13-9.52,5.26,5.67-11.27,10.99c-2.87,2.62-5.45,2.62-8.06-.12L160.79,505.6Z" fill="#edda8e"/>
        <path id="Trazado_983313" data-name="Trazado 983313" d="M150.65,427.68h47.53a7.994,7.994,0,0,1,7.99,7.99v41.24a18.14,18.14,0,0,1-18.13,18.13H160.78a18.14,18.14,0,0,1-18.13-18.13V435.67a7.994,7.994,0,0,1,7.99-7.99Z" fill="#f7c6aa"/>
        <path id="Trazado_983314" data-name="Trazado 983314" d="M148.82,454.54h0c-.5-5.34,18.63-6.8,19.1-1.78l.23,2.51C161.53,452.36,154.93,450.45,148.82,454.54Z" fill="#757575"/>
        <path id="Trazado_983315" data-name="Trazado 983315" d="M199.81,454.39h0c.4-5.2-18.72-6.69-19.12-1.49l-.19,2.52C187.11,452.4,193.67,450.4,199.81,454.39Z" fill="#757575"/>
        <path id="Trazado_983316" data-name="Trazado 983316" d="M166.19,482.83l1.33-1.39a11.025,11.025,0,0,0,7.81,3.15,8.883,8.883,0,0,0,7.13-3.91l1.63,1.03c-3.61,5.73-12.15,6.6-17.9,1.13Z" fill="#be1e2d"/>
        <path id="Trazado_983317" data-name="Trazado 983317" d="M168.19,471.47l1.34-1.08a8.515,8.515,0,0,0,5.18,1.68,6.433,6.433,0,0,0,4.72-1.98l1.62.82c-2.6,3.17-8.73,3.71-12.85.57Z" fill="#d1946b"/>
        <path id="Trazado_983318" data-name="Trazado 983318" d="M216.2,438.27a13.933,13.933,0,0,0-10.74-24.93,13.927,13.927,0,0,0-24.21-8.41,8.631,8.631,0,0,0-13.64-.05,13.94,13.94,0,0,0-24.57,10.3A13.945,13.945,0,0,0,131,439.54a8.655,8.655,0,0,0,6.19,14.71c.09,0,.18-.01.27-.01v12.98h0a8.685,8.685,0,0,0,8.68-8.68V445.6a7.033,7.033,0,0,1,7-7.03l42.39-.13a7.031,7.031,0,0,1,7.05,7.03v12.11a8.685,8.685,0,0,0,8.68,8.68h0V454.01a8.657,8.657,0,0,0,4.94-15.74Z" fill="#414141"/>
        <rect id="Rectángulo_406129" data-name="Rectángulo 406129" width="16.52" height="6.37" transform="translate(219.895 559.879) rotate(-25.76)" fill="#262262"/>
        <g id="Grupo_1148649" data-name="Grupo 1148649">
          <path id="Trazado_983319" data-name="Trazado 983319" d="M194.95,457.68c-3.41-3.18-8.9-3.03-11.55-.1l.89.59a6.335,6.335,0,0,1,3.6-1.73,2.058,2.058,0,1,0,2.53.08,8.868,8.868,0,0,1,3.78,1.81l.76-.65Z" fill="#222223"/>
          <path id="Trazado_983320" data-name="Trazado 983320" d="M164.84,457.68c-3.41-3.18-8.9-3.03-11.55-.1l.89.59a6.335,6.335,0,0,1,3.6-1.73,2.058,2.058,0,1,0,2.53.08,8.868,8.868,0,0,1,3.78,1.81l.76-.65Z" fill="#222223"/>
        </g>
        <g id="Grupo_1148650" data-name="Grupo 1148650">
          <path id="Trazado_983321" data-name="Trazado 983321" d="M168.56,469.39H153.87c-.59,0-1.09-.31-1.14-.72l-.64-5.25c-.05-.46.47-.85,1.14-.85a137,137,0,0,1,15.96,0c.67,0,1.19.39,1.14.85l-.64,5.25c-.05.4-.54.72-1.14.72Zm.17-6.25c-5.16-.23-10.18-.25-15.02,0-.35,0-.63.21-.59.45l.71,4.86c.03.21.29.37.59.37h13.6a.549.549,0,0,0,.59-.37l.71-4.86c.04-.24-.24-.45-.59-.45Z" fill="#7c452d"/>
          <path id="Trazado_983322" data-name="Trazado 983322" d="M195.09,469.39H180.41c-.59,0-1.09-.31-1.14-.72l-.64-5.25c-.05-.46.47-.85,1.14-.85a137,137,0,0,1,15.96,0c.67,0,1.19.39,1.14.85l-.64,5.25c-.05.4-.54.72-1.14.72Zm.16-6.25c-5.16-.23-10.18-.25-15.02,0-.35,0-.63.21-.59.45l.71,4.86c.03.21.29.37.59.37h13.6a.549.549,0,0,0,.59-.37l.71-4.86c.04-.24-.24-.45-.59-.45Z" fill="#7c452d"/>
          <rect id="Rectángulo_406130" data-name="Rectángulo 406130" width="9.43" height="0.57" transform="translate(169.68 465.67)" fill="#7c452d"/>
        </g>
        <path id="Trazado_983323" data-name="Trazado 983323" d="M161.09,475.19H174.3v1.2a4.052,4.052,0,0,1-4.05,4.05H157.04v-1.2A4.052,4.052,0,0,1,161.09,475.19Z" fill="#757575"/>
        <path id="Trazado_983324" data-name="Trazado 983324" d="M174.6,475.19h13.21a4.052,4.052,0,0,1,4.05,4.05v1.2H178.65a4.052,4.052,0,0,1-4.05-4.05v-1.2Z" transform="translate(366.47 955.64) rotate(180)" fill="#757575"/>
        <g id="Grupo_1148651" data-name="Grupo 1148651">
          <path id="Trazado_983325" data-name="Trazado 983325" d="M138.69,476.29h0a4.162,4.162,0,0,0,4.4-3.84V459.97a4.162,4.162,0,0,0-4.4-3.84h0a4.162,4.162,0,0,0-4.4,3.84v12.48A4.162,4.162,0,0,0,138.69,476.29Z" fill="#f7c6aa"/>
          <path id="Trazado_983326" data-name="Trazado 983326" d="M141.26,471.21v-10c0-3.01-5.23-3.02-5.23,0v10C136.03,474.24,141.26,474.22,141.26,471.21Z" fill="#e8af92"/>
        </g>
        <g id="Grupo_1148652" data-name="Grupo 1148652">
          <path id="Trazado_983327" data-name="Trazado 983327" d="M210.24,475.56h0c-2.59,0-4.72-1.77-4.72-3.93V458.87c0-2.16,2.12-3.93,4.72-3.93h0c2.59,0,4.71,1.77,4.71,3.93v12.76C214.95,473.79,212.83,475.56,210.24,475.56Z" fill="#f7c6aa"/>
          <path id="Trazado_983328" data-name="Trazado 983328" d="M207.49,470.36V460.13c0-3.08,5.6-3.09,5.6,0v10.23C213.09,473.46,207.49,473.43,207.49,470.36Z" fill="#e8af92"/>
        </g>
        <path id="Trazado_983329" data-name="Trazado 983329" d="M179,551.74l2.8,63.64s16.85-.56,32.7-6.75l-8.45-102.92-11.92-.08L179,551.74Z" fill="#fbfbfb"/>
        <path id="Trazado_983330" data-name="Trazado 983330" d="M190.67,505.59l8.18.02-.19,14.1-7.06,2.74,7.06,2.1L179,551.74Z" fill="#262262"/>
        <path id="Trazado_983331" data-name="Trazado 983331" d="M171.67,551.74l-2.8,63.64a112.646,112.646,0,0,1-32.68-6.7l8.44-103.15,11.86-.06,15.19,46.26Z" fill="#fbfbfb"/>
        <path id="Trazado_983332" data-name="Trazado 983332" d="M160.78,505.51l-8.12.03.14,14.04,7.06,2.74-7.06,2.1,18.91,27.45Z" fill="#262262"/>
        <path id="Trazado_983340" data-name="Trazado 983340" d="M236.73,558.86l-35.36-10.83c-1.63-2.77-6.25-10.95-7.94-11.23l-6.84-1.16c-.3-.1-7.62-.33-7.62-.33s-4.65,1.66-4.88,1.69a1.4,1.4,0,1,0,.25,2.78l4.81-1.39,6.34.31-.05.27-6.31.05-5.69,1.4a1.439,1.439,0,1,0,.36,2.85l5.34-1.21,5.76.06-.04.22-5.71.34-3.91.82a1.348,1.348,0,1,0,.21,2.68l3.97-.8,4.9.1-.05.26-4.1.08-2.74.74c-2.11.25-1.73,2.74.21,2.51l2.73-.64,4.14.36c1.52,1.41,5.26,4.78,6.72,5.22l2.64.72h0c.8.62,20.25,12.55,34.49,17.62,1.58.38,8.61-2.3,9.33-5.99.54-2.73-.94-7.59-1.01-7.48Z" fill="#e8af92"/>
        <path id="Trazado_983341" data-name="Trazado 983341" d="M111.94,560.38l14.02,6.7c8.8,7.21,26.98,28.49,26.98,28.49l-4.88,7.71c-14.1-9.61-26.28-22.32-36.96-32.9-1.88-1.88-1.8-2.6.85-10Z" fill="#e8af92"/>
        <rect id="Rectángulo_406132" data-name="Rectángulo 406132" width="18.67" height="3.29" transform="matrix(0.508, -0.861, 0.861, 0.508, 142.171, 608.026)" fill="#262262"/>
        <rect id="Rectángulo_406133" data-name="Rectángulo 406133" width="18.67" height="3.3" transform="matrix(-0.508, -0.861, 0.861, -0.508, 204.321, 609.711)" fill="#262262"/>
      </g>
    </g>
    <g id="_3219094" data-name="3219094" transform="translate(455.391 945.675)">
      <g id="OBJECTS" transform="translate(38.67 121.325)">
        <g id="Grupo_1148955" data-name="Grupo 1148955">
          <g id="Grupo_1148951" data-name="Grupo 1148951">
            <path id="Trazado_987918" data-name="Trazado 987918" d="M114.37,121.33V230.813s66.242,16.994,93.575,110.95V213.239c-27.333-93.956-93.575-91.909-93.575-91.909Z" transform="translate(-42.301 -121.325)" fill="#af22a5"/>
            <g id="Grupo_1148950" data-name="Grupo 1148950">
              <g transform="matrix(1, 0, 0, 1, -282.06, -6)" filter="url(#Trazado_987919)">
                <path id="Trazado_987919-2" data-name="Trazado 987919" d="M182.122,366.268V193.046a71.7,71.7,0,0,0-35.863-62.111h0a71.718,71.718,0,0,0-71.726,0h0A71.726,71.726,0,0,0,38.67,193.046V366.268L110.4,407.682Z" transform="translate(243.39 -115.33)" fill="#dc29cf"/>
              </g>
              <circle id="Elipse_11670" data-name="Elipse 11670" cx="44.146" cy="44.146" r="44.146" transform="translate(27.58 23.863)" fill="#fff"/>
              <path id="Trazado_987920" data-name="Trazado 987920" d="M117.663,178.9a8.481,8.481,0,0,1,3.941,6.293,6.835,6.835,0,1,0-3.932-6.293Zm-4.484,13.985a6.836,6.836,0,1,0-6.836-6.836A6.842,6.842,0,0,0,113.179,192.886Zm2.9.467h-5.8a8.762,8.762,0,0,0-8.749,8.749v7.093l.019.1.486.152a39.872,39.872,0,0,0,11.9,1.923c6.436,0,10.158-1.837,10.387-1.952l.457-.228h.048V202.1a8.756,8.756,0,0,0-8.749-8.749Zm11.31-7.055h-5.76a8.393,8.393,0,0,1-2.6,5.865,10.393,10.393,0,0,1,7.426,9.949v2.19a23.75,23.75,0,0,0,9.178-1.923l.457-.229h.048v-7.093a8.756,8.756,0,0,0-8.749-8.749Zm-26.2-.466a6.776,6.776,0,0,0,3.637-1.057,8.4,8.4,0,0,1,3.18-5.389c0-.133.019-.257.019-.381a6.836,6.836,0,1,0-6.836,6.836Zm6.141,6.331a8.424,8.424,0,0,1-2.6-5.836c-.209-.019-.428-.038-.638-.038H98.3a8.756,8.756,0,0,0-8.749,8.749v7.093l.019.114.486.152a40.755,40.755,0,0,0,9.854,1.847V202.1a10.405,10.405,0,0,1,7.426-9.949Z" transform="translate(-41.111 -123.764)" fill="#fe1a57"/>
            </g>
          </g>
        </g>
        <g id="Grupo_1148961" data-name="Grupo 1148961" transform="translate(165.644)">
          <g id="Grupo_1148957" data-name="Grupo 1148957">
            <path id="Trazado_987921" data-name="Trazado 987921" d="M288,121.33V230.813s66.242,16.994,93.575,110.95V213.239C354.242,119.283,288,121.33,288,121.33Z" transform="translate(-216.274 -121.325)" fill="#c29500"/>
            <g id="Grupo_1148956" data-name="Grupo 1148956">
              <g transform="matrix(1, 0, 0, 1, -447.7, -6)" filter="url(#Trazado_987922)">
                <path id="Trazado_987922-2" data-name="Trazado 987922" d="M356.112,366.268V193.046a71.7,71.7,0,0,0-35.863-62.111h0a71.718,71.718,0,0,0-71.726,0h0a71.726,71.726,0,0,0-35.863,62.111V366.268l71.726,41.413Z" transform="translate(235.04 -115.33)" fill="#ffc300"/>
              </g>
              <circle id="Elipse_11671" data-name="Elipse 11671" cx="44.146" cy="44.146" r="44.146" transform="translate(27.58 23.863)" fill="#fff"/>
              <path id="Trazado_987923" data-name="Trazado 987923" d="M287.8,197.886l-1.58-3.5a15.22,15.22,0,0,0,3.8-4.046L293.6,191.7a1.331,1.331,0,0,0,1.714-.771l1.323-3.484a1.349,1.349,0,0,0-.029-1.019,1.3,1.3,0,0,0-.743-.695l-3.589-1.361a15.334,15.334,0,0,0-.171-5.55l3.5-1.58a1.3,1.3,0,0,0,.7-.743,1.349,1.349,0,0,0-.029-1.019l-1.533-3.4a1.335,1.335,0,0,0-1.761-.666l-3.5,1.58a15.07,15.07,0,0,0-4.046-3.8l1.361-3.6a1.331,1.331,0,0,0-.771-1.714l-3.484-1.323a1.348,1.348,0,0,0-1.019.029,1.33,1.33,0,0,0-.695.743l-1.361,3.589a15.112,15.112,0,0,0-5.55.171l-1.571-3.5a1.3,1.3,0,0,0-.743-.695,1.348,1.348,0,0,0-1.019.029l-3.4,1.533a1.321,1.321,0,0,0-.666,1.752l1.58,3.5a15.411,15.411,0,0,0-3.808,4.046L260.7,172.39a1.348,1.348,0,0,0-1.019.029,1.3,1.3,0,0,0-.7.743l-1.323,3.484a1.323,1.323,0,0,0,.771,1.714l3.589,1.361a15.126,15.126,0,0,0,.171,5.55l-3.5,1.58a1.324,1.324,0,0,0-.657,1.761l1.523,3.4a1.33,1.33,0,0,0,.743.695,1.348,1.348,0,0,0,1.019-.029l3.5-1.58a15.07,15.07,0,0,0,4.046,3.8l-1.361,3.6a1.335,1.335,0,0,0,.771,1.714l3.484,1.323a1.306,1.306,0,0,0,.466.086,1.321,1.321,0,0,0,.543-.114,1.36,1.36,0,0,0,.7-.743l1.361-3.6a15.111,15.111,0,0,0,5.55-.171l1.571,3.494a1.3,1.3,0,0,0,.743.695,1.348,1.348,0,0,0,1.019-.029l3.4-1.533a1.332,1.332,0,0,0,.666-1.761Zm-2.209-12.633a9.074,9.074,0,0,1-8.435,5.826,9.02,9.02,0,1,1,8.425-5.826ZM315.149,203.4a1.358,1.358,0,0,0-.923-.428l-2.5-.1a11.615,11.615,0,0,0-1.228-3.38l1.847-1.695a1.328,1.328,0,0,0,.076-1.885l-1.837-2a1.318,1.318,0,0,0-.923-.428,1.333,1.333,0,0,0-.962.343l-1.847,1.695A11.273,11.273,0,0,0,303.591,194l.1-2.5a1.336,1.336,0,0,0-1.266-1.39l-2.713-.124a1.351,1.351,0,0,0-1.39,1.276l-.1,2.5a11.616,11.616,0,0,0-3.38,1.228l-1.695-1.847a1.318,1.318,0,0,0-.923-.428,1.345,1.345,0,0,0-.952.352l-2,1.837a1.317,1.317,0,0,0-.076,1.876l1.695,1.847a11.274,11.274,0,0,0-1.514,3.256l-2.5-.114a1.343,1.343,0,0,0-1.39,1.266l-.114,2.713a1.38,1.38,0,0,0,.343.952,1.318,1.318,0,0,0,.923.428l2.5.1a11.614,11.614,0,0,0,1.228,3.38l-1.847,1.695a1.358,1.358,0,0,0-.428.923,1.337,1.337,0,0,0,.343.952l1.837,2a1.281,1.281,0,0,0,.923.428,1.341,1.341,0,0,0,.962-.352L294,214.565a11.273,11.273,0,0,0,3.256,1.514l-.1,2.5a1.344,1.344,0,0,0,1.276,1.39l2.713.114h.057a1.315,1.315,0,0,0,1.323-1.266l.1-2.5a11.368,11.368,0,0,0,3.38-1.238l1.695,1.847a1.358,1.358,0,0,0,.923.428,1.375,1.375,0,0,0,.962-.343l2-1.837a1.337,1.337,0,0,0,.076-1.885l-1.695-1.847a11.275,11.275,0,0,0,1.514-3.256l2.5.1a1.343,1.343,0,0,0,1.39-1.266l.114-2.713a1.337,1.337,0,0,0-.343-.952Zm-14.975,7.873a6.2,6.2,0,0,1,.257-12.4h.267a6.2,6.2,0,1,1-.524,12.386Z" transform="translate(-214.815 -123.299)" fill="#ffc300"/>
            </g>
          </g>
        </g>
        <g id="Grupo_1148968" data-name="Grupo 1148968" transform="translate(331.288)">
          <g id="Grupo_1148964" data-name="Grupo 1148964">
            <path id="Trazado_987924" data-name="Trazado 987924" d="M462.73,121.33V230.813s66.242,16.994,93.575,110.95V213.239c-27.333-93.956-93.575-91.909-93.575-91.909Z" transform="translate(-390.299 -121.325)" fill="#00a63a"/>
            <g id="Grupo_1148963" data-name="Grupo 1148963">
              <g transform="matrix(1, 0, 0, 1, -613.35, -6)" filter="url(#Trazado_987925)">
                <path id="Trazado_987925-2" data-name="Trazado 987925" d="M530.1,366.268V193.046a71.7,71.7,0,0,0-35.863-62.111h0a71.718,71.718,0,0,0-71.726,0h0a71.726,71.726,0,0,0-35.863,62.111V366.268l71.726,41.413Z" transform="translate(226.7 -115.33)" fill="#00e952"/>
              </g>
              <circle id="Elipse_11672" data-name="Elipse 11672" cx="44.146" cy="44.146" r="44.146" transform="translate(27.59 23.863)" fill="#fff"/>
              <g id="Grupo_1148962" data-name="Grupo 1148962" transform="translate(49.468 49.111)">
                <path id="Trazado_987926" data-name="Trazado 987926" d="M441.79,203.914v7.216a.807.807,0,0,0,.8.809h5.579a.815.815,0,0,0,.809-.809V198.44l-4.056,4.056a4.952,4.952,0,0,1-3.132,1.428Z" transform="translate(-438.763 -174.135)" fill="#00e952"/>
                <path id="Trazado_987927" data-name="Trazado 987927" d="M452.26,198.34v12.786a.815.815,0,0,0,.809.809h5.579a.815.815,0,0,0,.809-.809v-7.531a4.852,4.852,0,0,1-3.351-1.428l-3.837-3.837Z" transform="translate(-439.265 -174.129)" fill="#00e952"/>
                <path id="Trazado_987928" data-name="Trazado 987928" d="M462.73,202.676V211a.815.815,0,0,0,.809.809h5.579a.815.815,0,0,0,.809-.809V195.64l-6.4,6.4A4.614,4.614,0,0,1,462.73,202.676Z" transform="translate(-439.767 -174)" fill="#00e952"/>
                <path id="Trazado_987929" data-name="Trazado 987929" d="M479.845,185.73l-6.645,6.655V210.53a.807.807,0,0,0,.8.809h5.579a.807.807,0,0,0,.8-.809v-24.3c-.181-.152-.314-.3-.419-.381l-.114-.124Z" transform="translate(-440.269 -173.525)" fill="#00e952"/>
                <path id="Trazado_987930" data-name="Trazado 987930" d="M482.756,173.338a1.547,1.547,0,0,0-1.181-.428h-.143c-2.6.114-5.189.248-7.788.362a1.716,1.716,0,0,0-1.2.409,1.42,1.42,0,0,0-.286.419,1.35,1.35,0,0,0,.409,1.628l.647.657c.447.457.9.914,1.361,1.361l-15.7,15.709-7.055-7.055a2.241,2.241,0,0,0-3.17,0l-9.387,9.387a2.241,2.241,0,0,0,0,3.17l.419.419a2.241,2.241,0,0,0,3.17,0L450.234,192l7.055,7.055a2.252,2.252,0,0,0,3.18,0l17.708-17.708,2,2a1.528,1.528,0,0,0,1.066.571,1.366,1.366,0,0,0,.638-.171,1.476,1.476,0,0,0,.381-.286,1.868,1.868,0,0,0,.486-1.285c.076-1.685.152-3.37.238-5.055l.124-2.532a1.57,1.57,0,0,0-.381-1.238Z" transform="translate(-438.61 -172.91)" fill="#00e952"/>
              </g>
            </g>
          </g>
        </g>
        <g id="Grupo_1148974" data-name="Grupo 1148974" transform="translate(496.941)">
          <g id="Grupo_1148970" data-name="Grupo 1148970">
            <g transform="matrix(1, 0, 0, 1, -779, -6)" filter="url(#Trazado_987931)">
              <path id="Trazado_987931-2" data-name="Trazado 987931" d="M704.1,366.268V193.046a71.7,71.7,0,0,0-35.863-62.111h0a71.718,71.718,0,0,0-71.726,0h0a71.726,71.726,0,0,0-35.863,62.111V366.268l71.726,41.413L704.1,366.268Z" transform="translate(218.35 -115.33)" fill="#008fff"/>
            </g>
            <circle id="Elipse_11673" data-name="Elipse 11673" cx="44.146" cy="44.146" r="44.146" transform="translate(27.58 23.863)" fill="#fff"/>
            <g id="Grupo_1148969" data-name="Grupo 1148969" transform="translate(44.745 44.103)">
              <path id="Trazado_987932" data-name="Trazado 987932" d="M615.36,214.706a1.114,1.114,0,0,0,1.123,1.2c1.466,0,13.6-.019,13.6-.019l.019-11.139s-.19-1.837,1.59-1.837h5.646a1.754,1.754,0,0,1,1.98,1.837l-.019,11.11h13.309a1.4,1.4,0,0,0,1.428-1.5V193.809L635.276,177.12,615.36,193.809v20.9Z" transform="translate(-608.02 -168.104)" fill="#008fff"/>
              <path id="Trazado_987933" data-name="Trazado 987933" d="M607.65,191.8s1.695,3.123,5.379,0l22.04-18.65,20.659,18.527c4.275,3.085,5.874,0,5.874,0L635.069,167.65,607.65,191.8Z" transform="translate(-607.65 -167.65)" fill="#008fff"/>
              <path id="Trazado_987934" data-name="Trazado 987934" d="M657.362,173.39H652.05l.019,6.445,5.293,4.494Z" transform="translate(-609.78 -167.925)" fill="#008fff"/>
            </g>
          </g>
        </g>
      </g>
    </g>
    <path id="Trazado_987936" data-name="Trazado 987936" d="M-23.233,0h-2.9l-1.742-2.883q-.2-.328-.375-.586a3.255,3.255,0,0,0-.363-.441,1.445,1.445,0,0,0-.383-.281.972.972,0,0,0-.434-.1h-.68V0h-2.523V-11.2h4q4.078,0,4.078,3.047a3.155,3.155,0,0,1-.18,1.082,3.006,3.006,0,0,1-.508.895,3.219,3.219,0,0,1-.793.688,4.089,4.089,0,0,1-1.035.453v.031a1.606,1.606,0,0,1,.484.254,3.469,3.469,0,0,1,.453.41,5.722,5.722,0,0,1,.418.5q.2.27.363.527Zm-6.875-9.312V-6.2h1.094a1.813,1.813,0,0,0,1.3-.469,1.564,1.564,0,0,0,.5-1.18q0-1.469-1.758-1.469Zm8.931.047A1.442,1.442,0,0,1-22.2-9.637a1.2,1.2,0,0,1-.4-.91,1.153,1.153,0,0,1,.4-.906,1.49,1.49,0,0,1,1.023-.352,1.486,1.486,0,0,1,1.027.352,1.158,1.158,0,0,1,.395.906,1.191,1.191,0,0,1-.395.922A1.466,1.466,0,0,1-21.177-9.266ZM-19.958,0h-2.469V-8h2.469Zm9.267-3.3h-5.219q.125,1.742,2.2,1.742a4.286,4.286,0,0,0,2.32-.625V-.4A6.1,6.1,0,0,1-14.277.2,4.058,4.058,0,0,1-17.284-.879a4.058,4.058,0,0,1-1.07-3A4.281,4.281,0,0,1-17.2-7.031,3.852,3.852,0,0,1-14.355-8.2a3.5,3.5,0,0,1,2.707,1.039,4,4,0,0,1,.957,2.82ZM-12.98-4.812q0-1.719-1.391-1.719a1.328,1.328,0,0,0-1.027.492,2.234,2.234,0,0,0-.527,1.227Zm3.236,4.6v-2a5.256,5.256,0,0,0,1.215.547,4.028,4.028,0,0,0,1.145.18,2.455,2.455,0,0,0,1.035-.18.581.581,0,0,0,.379-.547A.506.506,0,0,0-6.142-2.6a1.6,1.6,0,0,0-.441-.273,5.009,5.009,0,0,0-.59-.211q-.32-.094-.617-.211a5.913,5.913,0,0,1-.84-.387,2.427,2.427,0,0,1-.609-.48A1.889,1.889,0,0,1-9.615-4.8a2.525,2.525,0,0,1-.129-.852A2.192,2.192,0,0,1-9.451-6.8,2.393,2.393,0,0,1-8.67-7.6a3.57,3.57,0,0,1,1.117-.453A5.825,5.825,0,0,1-6.244-8.2a7.261,7.261,0,0,1,1.078.082,8.047,8.047,0,0,1,1.078.238v1.906a3.9,3.9,0,0,0-1-.41,4.235,4.235,0,0,0-1.051-.137,2.328,2.328,0,0,0-.457.043,1.505,1.505,0,0,0-.379.125.7.7,0,0,0-.258.211.486.486,0,0,0-.094.293.541.541,0,0,0,.141.375,1.221,1.221,0,0,0,.367.27,3.625,3.625,0,0,0,.5.2q.277.09.551.184a7.161,7.161,0,0,1,.891.375,2.848,2.848,0,0,1,.684.477,1.871,1.871,0,0,1,.437.641,2.277,2.277,0,0,1,.152.875A2.282,2.282,0,0,1-3.912-1.23a2.471,2.471,0,0,1-.82.82,3.72,3.72,0,0,1-1.18.461A6.54,6.54,0,0,1-7.3.2,7.149,7.149,0,0,1-9.744-.211Zm15.408-.7A4.526,4.526,0,0,1,4.375,2.535,5.224,5.224,0,0,1,.641,3.758,5.919,5.919,0,0,1-1.922,3.3V1.219A4.907,4.907,0,0,0,.57,1.938a2.684,2.684,0,0,0,1.938-.66A2.369,2.369,0,0,0,3.2-.516v-.633H3.164A2.757,2.757,0,0,1,.672.2,3,3,0,0,1-1.758-.883a4.372,4.372,0,0,1-.9-2.891A4.87,4.87,0,0,1-1.656-7,3.265,3.265,0,0,1,.977-8.2,2.429,2.429,0,0,1,3.164-7.07H3.2V-8H5.664ZM3.227-3.844v-.633A1.945,1.945,0,0,0,2.777-5.77,1.453,1.453,0,0,0,1.609-6.3,1.51,1.51,0,0,0,.32-5.664a3.012,3.012,0,0,0-.469,1.8A2.543,2.543,0,0,0,.3-2.277,1.451,1.451,0,0,0,1.516-1.7a1.511,1.511,0,0,0,1.238-.59A2.418,2.418,0,0,0,3.227-3.844ZM11.541.2A4.3,4.3,0,0,1,8.4-.926,4.064,4.064,0,0,1,7.252-3.969,4.065,4.065,0,0,1,8.439-7.074,4.487,4.487,0,0,1,11.65-8.2a4.249,4.249,0,0,1,3.125,1.121,3.985,3.985,0,0,1,1.133,2.965A4.23,4.23,0,0,1,14.74-.961,4.348,4.348,0,0,1,11.541.2ZM11.6-6.3a1.647,1.647,0,0,0-1.359.6A2.653,2.653,0,0,0,9.759-4q0,2.3,1.859,2.3,1.773,0,1.773-2.367Q13.392-6.3,11.6-6.3ZM29.544-8,26.294.641q-1.172,3.117-3.531,3.117a4.524,4.524,0,0,1-1.477-.2V1.586a2.076,2.076,0,0,0,1.07.289,1.337,1.337,0,0,0,1.328-.9l.422-.992L20.856-8h2.734l1.492,4.867a6.325,6.325,0,0,1,.219,1.07h.031a7.463,7.463,0,0,1,.258-1.055L27.1-8ZM-39.511,19h-2.336V17.852h-.031A2.607,2.607,0,0,1-44.261,19.2a2.492,2.492,0,0,1-1.832-.66,2.366,2.366,0,0,1-.668-1.762q0-2.328,2.758-2.687l2.172-.289q0-1.312-1.422-1.312a4.853,4.853,0,0,0-2.719.852V11.477a6.116,6.116,0,0,1,1.41-.469,7.413,7.413,0,0,1,1.629-.2q3.422,0,3.422,3.414Zm-2.32-3.25v-.539l-1.453.188q-1.2.156-1.2,1.086a.9.9,0,0,0,.293.691,1.126,1.126,0,0,0,.793.27,1.462,1.462,0,0,0,1.133-.48A1.735,1.735,0,0,0-41.831,15.75ZM-24.853,19h-2.461V14.438q0-1.742-1.281-1.742a1.177,1.177,0,0,0-.992.523,2.151,2.151,0,0,0-.383,1.3V19h-2.469V14.391q0-1.7-1.258-1.7a1.206,1.206,0,0,0-1.012.5,2.2,2.2,0,0,0-.379,1.359V19h-2.469V11h2.469v1.25h.031a2.952,2.952,0,0,1,1.074-1.043,2.952,2.952,0,0,1,1.512-.4A2.3,2.3,0,0,1-30.15,12.3,2.959,2.959,0,0,1-27.463,10.8q2.609,0,2.609,3.219Zm4.455-.93h-.031V19H-22.9V7.156h2.469V12.2h.031a2.929,2.929,0,0,1,2.6-1.4,2.855,2.855,0,0,1,2.383,1.063,4.582,4.582,0,0,1,.836,2.906,4.962,4.962,0,0,1-.977,3.211A3.181,3.181,0,0,1-18.164,19.2,2.521,2.521,0,0,1-20.4,18.07Zm-.07-3.375v.82a1.872,1.872,0,0,0,.445,1.281,1.449,1.449,0,0,0,1.141.508,1.514,1.514,0,0,0,1.309-.652,3.15,3.15,0,0,0,.465-1.848,2.506,2.506,0,0,0-.426-1.551A1.437,1.437,0,0,0-18.75,12.7a1.569,1.569,0,0,0-1.23.555A2.107,2.107,0,0,0-20.469,14.7Zm8.744-4.961a1.442,1.442,0,0,1-1.023-.371,1.2,1.2,0,0,1-.4-.91,1.153,1.153,0,0,1,.4-.906A1.49,1.49,0,0,1-11.725,7.2a1.486,1.486,0,0,1,1.027.352,1.158,1.158,0,0,1,.395.906,1.191,1.191,0,0,1-.395.922A1.466,1.466,0,0,1-11.725,9.734ZM-10.506,19h-2.469V11h2.469Zm9.923-.914a4.526,4.526,0,0,1-1.289,3.449,5.224,5.224,0,0,1-3.734,1.223A5.919,5.919,0,0,1-8.169,22.3V20.219a4.907,4.907,0,0,0,2.492.719,2.684,2.684,0,0,0,1.938-.66,2.369,2.369,0,0,0,.688-1.793v-.633h-.031A2.757,2.757,0,0,1-5.575,19.2,3,3,0,0,1-8,18.117a4.372,4.372,0,0,1-.9-2.891A4.87,4.87,0,0,1-7.9,12,3.265,3.265,0,0,1-5.27,10.8,2.429,2.429,0,0,1-3.083,11.93h.031V11H-.583Zm-2.437-2.93v-.633A1.945,1.945,0,0,0-3.47,13.23,1.453,1.453,0,0,0-4.638,12.7a1.51,1.51,0,0,0-1.289.641,3.012,3.012,0,0,0-.469,1.8,2.543,2.543,0,0,0,.445,1.582,1.451,1.451,0,0,0,1.219.582,1.511,1.511,0,0,0,1.238-.59A2.418,2.418,0,0,0-3.02,15.156ZM9.083,19H6.622V17.781H6.583A2.792,2.792,0,0,1,4.138,19.2q-2.781,0-2.781-3.367V11H3.817v4.609q0,1.7,1.344,1.7a1.329,1.329,0,0,0,1.063-.465,1.874,1.874,0,0,0,.4-1.262V11H9.083ZM7.036,9.734a1.23,1.23,0,0,1-.859-.3,1.049,1.049,0,0,1,0-1.539,1.25,1.25,0,0,1,.859-.3,1.254,1.254,0,0,1,.863.3,1.045,1.045,0,0,1,0,1.539A1.251,1.251,0,0,1,7.036,9.734Zm-3.578,0a1.232,1.232,0,0,1-.867-.309.993.993,0,0,1-.336-.762.977.977,0,0,1,.344-.77,1.258,1.258,0,0,1,.859-.3,1.236,1.236,0,0,1,.863.3,1.062,1.062,0,0,1,0,1.543A1.246,1.246,0,0,1,3.458,9.734ZM18.35,15.7H13.131q.125,1.742,2.2,1.742a4.286,4.286,0,0,0,2.32-.625V18.6a6.1,6.1,0,0,1-2.883.594,4.058,4.058,0,0,1-3.008-1.074,4.058,4.058,0,0,1-1.07-3,4.281,4.281,0,0,1,1.156-3.156A3.852,3.852,0,0,1,14.686,10.8a3.5,3.5,0,0,1,2.707,1.039,4,4,0,0,1,.957,2.82Zm-2.289-1.516q0-1.719-1.391-1.719a1.328,1.328,0,0,0-1.027.492,2.234,2.234,0,0,0-.527,1.227ZM27.649,19H25.18V17.9h-.031a2.768,2.768,0,0,1-2.477,1.3,3.033,3.033,0,0,1-2.414-1.059,4.382,4.382,0,0,1-.914-2.957A4.77,4.77,0,0,1,20.352,12a3.287,3.287,0,0,1,2.641-1.2,2.246,2.246,0,0,1,2.156,1.109h.031V7.156h2.469Zm-2.422-3.891v-.6a1.893,1.893,0,0,0-.453-1.3,1.6,1.6,0,0,0-2.461.129,2.993,2.993,0,0,0-.461,1.77,2.59,2.59,0,0,0,.445,1.625,1.581,1.581,0,0,0,2.457-.031A2.507,2.507,0,0,0,25.227,15.109ZM36.385,19H34.049V17.852h-.031A2.607,2.607,0,0,1,31.635,19.2a2.492,2.492,0,0,1-1.832-.66,2.366,2.366,0,0,1-.668-1.762q0-2.328,2.758-2.687l2.172-.289q0-1.312-1.422-1.312a4.853,4.853,0,0,0-2.719.852V11.477a6.116,6.116,0,0,1,1.41-.469,7.413,7.413,0,0,1,1.629-.2q3.422,0,3.422,3.414Zm-2.32-3.25v-.539l-1.453.188q-1.2.156-1.2,1.086a.9.9,0,0,0,.293.691,1.126,1.126,0,0,0,.793.27,1.462,1.462,0,0,0,1.133-.48A1.735,1.735,0,0,0,34.064,15.75ZM46.167,19H43.7V17.9h-.031a2.768,2.768,0,0,1-2.477,1.3,3.033,3.033,0,0,1-2.414-1.059,4.382,4.382,0,0,1-.914-2.957A4.77,4.77,0,0,1,38.87,12a3.287,3.287,0,0,1,2.641-1.2,2.246,2.246,0,0,1,2.156,1.109H43.7V7.156h2.469Zm-2.422-3.891v-.6a1.893,1.893,0,0,0-.453-1.3,1.6,1.6,0,0,0-2.461.129,2.993,2.993,0,0,0-.461,1.77,2.59,2.59,0,0,0,.445,1.625,1.581,1.581,0,0,0,2.457-.031A2.507,2.507,0,0,0,43.745,15.109Z" transform="translate(732.061 1228.964)" fill="#0b0a0a"/>
    <path id="Trazado_987935" data-name="Trazado 987935" d="M-23.862-9.148h-3.953V-6.4h3.633v2.047h-3.633V0h-2.523V-11.2h6.477ZM-16.079,0h-2.336V-1.148h-.031A2.607,2.607,0,0,1-20.829.2a2.492,2.492,0,0,1-1.832-.66,2.366,2.366,0,0,1-.668-1.762q0-2.328,2.758-2.687L-18.4-5.2q0-1.312-1.422-1.312a4.853,4.853,0,0,0-2.719.852V-7.523a6.116,6.116,0,0,1,1.41-.469A7.413,7.413,0,0,1-19.5-8.2q3.422,0,3.422,3.414ZM-18.4-3.25v-.539l-1.453.188q-1.2.156-1.2,1.086a.9.9,0,0,0,.293.691,1.126,1.126,0,0,0,.793.27,1.462,1.462,0,0,0,1.133-.48A1.735,1.735,0,0,0-18.4-3.25ZM-11.656,0h-2.469V-11.844h2.469ZM-4.74-.094A3.649,3.649,0,0,1-6.388.2Q-9,.2-9-2.516V-6.18h-1.3V-8H-9V-9.727l2.461-.7V-8h1.8v1.82h-1.8v3.234q0,1.25.992,1.25a1.673,1.673,0,0,0,.8-.227ZM3.309,0H.973V-1.148H.941A2.607,2.607,0,0,1-1.441.2a2.492,2.492,0,0,1-1.832-.66,2.366,2.366,0,0,1-.668-1.762q0-2.328,2.758-2.687L.988-5.2q0-1.312-1.422-1.312a4.853,4.853,0,0,0-2.719.852V-7.523a6.116,6.116,0,0,1,1.41-.469A7.413,7.413,0,0,1-.113-8.2q3.422,0,3.422,3.414ZM.988-3.25v-.539L-.465-3.6q-1.2.156-1.2,1.086a.9.9,0,0,0,.293.691,1.126,1.126,0,0,0,.793.27,1.462,1.462,0,0,0,1.133-.48A1.735,1.735,0,0,0,.988-3.25ZM17.507,0H15.038V-1.1h-.031A2.768,2.768,0,0,1,12.531.2,3.033,3.033,0,0,1,10.116-.863,4.382,4.382,0,0,1,9.2-3.82,4.77,4.77,0,0,1,10.21-7a3.287,3.287,0,0,1,2.641-1.2,2.246,2.246,0,0,1,2.156,1.109h.031v-4.758h2.469ZM15.085-3.891v-.6a1.893,1.893,0,0,0-.453-1.3,1.5,1.5,0,0,0-1.18-.516,1.487,1.487,0,0,0-1.281.645,2.993,2.993,0,0,0-.461,1.77,2.59,2.59,0,0,0,.445,1.625,1.479,1.479,0,0,0,1.234.57,1.485,1.485,0,0,0,1.223-.6A2.507,2.507,0,0,0,15.085-3.891ZM26.774-3.3H21.556q.125,1.742,2.2,1.742a4.286,4.286,0,0,0,2.32-.625V-.4A6.1,6.1,0,0,1,23.188.2,4.058,4.058,0,0,1,20.181-.879a4.058,4.058,0,0,1-1.07-3,4.281,4.281,0,0,1,1.156-3.156A3.852,3.852,0,0,1,23.11-8.2a3.5,3.5,0,0,1,2.707,1.039,4,4,0,0,1,.957,2.82ZM24.485-4.812q0-1.719-1.391-1.719a1.328,1.328,0,0,0-1.027.492,2.234,2.234,0,0,0-.527,1.227ZM-45.677,9.734A1.442,1.442,0,0,1-46.7,9.363a1.2,1.2,0,0,1-.4-.91,1.153,1.153,0,0,1,.4-.906A1.49,1.49,0,0,1-45.677,7.2a1.486,1.486,0,0,1,1.027.352,1.158,1.158,0,0,1,.395.906,1.191,1.191,0,0,1-.395.922A1.466,1.466,0,0,1-45.677,9.734ZM-44.458,19h-2.469V11h2.469Zm9.806,0h-2.461V14.555q0-1.859-1.328-1.859a1.318,1.318,0,0,0-1.055.492,1.875,1.875,0,0,0-.414,1.25V19h-2.469V11h2.469v1.266h.031a2.829,2.829,0,0,1,2.57-1.461q2.656,0,2.656,3.3Zm7.173-9.953a2.494,2.494,0,0,0-.914-.187q-1.187,0-1.187,1.289V11h1.828v1.82H-29.58V19h-2.461V12.82h-1.344V11h1.344v-.992a2.88,2.88,0,0,1,.891-2.2,3.4,3.4,0,0,1,2.422-.836,4.253,4.253,0,0,1,1.25.156ZM-22.75,19.2a4.3,4.3,0,0,1-3.145-1.121,4.064,4.064,0,0,1-1.145-3.043,4.065,4.065,0,0,1,1.188-3.105A4.487,4.487,0,0,1-22.641,10.8a4.249,4.249,0,0,1,3.125,1.121,3.985,3.985,0,0,1,1.133,2.965,4.23,4.23,0,0,1-1.168,3.148A4.348,4.348,0,0,1-22.75,19.2Zm.063-6.5a1.647,1.647,0,0,0-1.359.6,2.653,2.653,0,0,0-.484,1.7q0,2.3,1.859,2.3,1.773,0,1.773-2.367Q-20.9,12.7-22.688,12.7Zm11.127.531a2.142,2.142,0,0,0-1.039-.242,1.5,1.5,0,0,0-1.258.59,2.573,2.573,0,0,0-.453,1.605V19H-16.78V11h2.469v1.484h.031a2.136,2.136,0,0,1,2.109-1.625,1.59,1.59,0,0,1,.609.094ZM2.339,19H-.122V14.438Q-.122,12.7-1.4,12.7a1.177,1.177,0,0,0-.992.523,2.151,2.151,0,0,0-.383,1.3V19H-5.247V14.391q0-1.7-1.258-1.7a1.206,1.206,0,0,0-1.012.5A2.2,2.2,0,0,0-7.9,14.555V19h-2.469V11H-7.9v1.25h.031A2.952,2.952,0,0,1-6.79,11.207a2.952,2.952,0,0,1,1.512-.4A2.3,2.3,0,0,1-2.958,12.3,2.959,2.959,0,0,1-.27,10.8q2.609,0,2.609,3.219Zm8.611,0H8.614V17.852H8.583A2.607,2.607,0,0,1,6.2,19.2a2.492,2.492,0,0,1-1.832-.66A2.366,2.366,0,0,1,3.7,16.773q0-2.328,2.758-2.687L8.63,13.8q0-1.312-1.422-1.312a4.853,4.853,0,0,0-2.719.852V11.477a6.116,6.116,0,0,1,1.41-.469,7.413,7.413,0,0,1,1.629-.2q3.422,0,3.422,3.414ZM8.63,15.75v-.539L7.177,15.4q-1.2.156-1.2,1.086a.9.9,0,0,0,.293.691,1.126,1.126,0,0,0,.793.27,1.462,1.462,0,0,0,1.133-.48A1.735,1.735,0,0,0,8.63,15.75Zm10.338,2.961a4.881,4.881,0,0,1-2.414.484,4.083,4.083,0,0,1-2.984-1.117A3.859,3.859,0,0,1,12.428,15.2a4.251,4.251,0,0,1,1.223-3.215A4.518,4.518,0,0,1,16.92,10.8a4.2,4.2,0,0,1,2.047.375v2.094a2.814,2.814,0,0,0-1.727-.578,2.275,2.275,0,0,0-1.684.621,2.317,2.317,0,0,0-.621,1.715A2.28,2.28,0,0,0,15.53,16.7a2.182,2.182,0,0,0,1.633.605,3.258,3.258,0,0,0,1.8-.578Zm2.869-8.977a1.442,1.442,0,0,1-1.023-.371,1.2,1.2,0,0,1-.4-.91,1.153,1.153,0,0,1,.4-.906,1.671,1.671,0,0,1,2.051,0,1.158,1.158,0,0,1,.395.906,1.191,1.191,0,0,1-.395.922A1.466,1.466,0,0,1,21.836,9.734ZM23.055,19H20.586V11h2.469Zm5.892.2A4.3,4.3,0,0,1,25.8,18.074a4.064,4.064,0,0,1-1.145-3.043,4.065,4.065,0,0,1,1.188-3.105A4.487,4.487,0,0,1,29.056,10.8a4.249,4.249,0,0,1,3.125,1.121,3.985,3.985,0,0,1,1.133,2.965,4.23,4.23,0,0,1-1.168,3.148A4.348,4.348,0,0,1,28.947,19.2Zm.063-6.5a1.647,1.647,0,0,0-1.359.6,2.653,2.653,0,0,0-.484,1.7q0,2.3,1.859,2.3,1.773,0,1.773-2.367Q30.8,12.7,29.01,12.7Zm2.648-5.484L29.213,9.734H27.431l2.031-2.523ZM42.636,19H40.175V14.555q0-1.859-1.328-1.859a1.318,1.318,0,0,0-1.055.492,1.875,1.875,0,0,0-.414,1.25V19H34.91V11h2.469v1.266h.031A2.829,2.829,0,0,1,39.98,10.8q2.656,0,2.656,3.3ZM-27.943,37.711a4.881,4.881,0,0,1-2.414.484,4.083,4.083,0,0,1-2.984-1.117A3.859,3.859,0,0,1-34.482,34.2,4.251,4.251,0,0,1-33.26,30.98,4.518,4.518,0,0,1-29.99,29.8a4.2,4.2,0,0,1,2.047.375v2.094A2.814,2.814,0,0,0-29.67,31.7a2.275,2.275,0,0,0-1.684.621,2.317,2.317,0,0,0-.621,1.715,2.28,2.28,0,0,0,.594,1.668,2.182,2.182,0,0,0,1.633.605,3.258,3.258,0,0,0,1.8-.578Zm5.431.484a4.3,4.3,0,0,1-3.145-1.121A4.064,4.064,0,0,1-26.8,34.031a4.065,4.065,0,0,1,1.188-3.105A4.487,4.487,0,0,1-22.4,29.8a4.249,4.249,0,0,1,3.125,1.121,3.985,3.985,0,0,1,1.133,2.965,4.23,4.23,0,0,1-1.168,3.148A4.348,4.348,0,0,1-22.512,38.2Zm.063-6.5a1.647,1.647,0,0,0-1.359.6,2.653,2.653,0,0,0-.484,1.7q0,2.3,1.859,2.3,1.773,0,1.773-2.367Q-20.66,31.7-22.449,31.7ZM-3.838,38H-6.3V33.438q0-1.742-1.281-1.742a1.177,1.177,0,0,0-.992.523,2.151,2.151,0,0,0-.383,1.3V38h-2.469V33.391q0-1.7-1.258-1.7a1.206,1.206,0,0,0-1.012.5,2.2,2.2,0,0,0-.379,1.359V38h-2.469V30h2.469v1.25h.031a2.952,2.952,0,0,1,1.074-1.043,2.952,2.952,0,0,1,1.512-.4A2.3,2.3,0,0,1-9.135,31.3,2.959,2.959,0,0,1-6.448,29.8q2.609,0,2.609,3.219Zm4.455-.93H.585V41.68H-1.884V30H.585v1.2H.616a2.9,2.9,0,0,1,2.57-1.4,2.892,2.892,0,0,1,2.4,1.066,4.54,4.54,0,0,1,.848,2.9,4.922,4.922,0,0,1-.988,3.211A3.222,3.222,0,0,1,2.82,38.2,2.491,2.491,0,0,1,.616,37.07Zm-.07-3.281v.641a2.037,2.037,0,0,0,.438,1.352,1.424,1.424,0,0,0,1.148.523,1.514,1.514,0,0,0,1.309-.652A3.15,3.15,0,0,0,3.905,33.8q0-2.109-1.641-2.109a1.541,1.541,0,0,0-1.238.574A2.29,2.29,0,0,0,.546,33.789ZM10.509,38H8.04V26.156h2.469Zm9.267-3.3H14.557q.125,1.742,2.2,1.742a4.286,4.286,0,0,0,2.32-.625V37.6a6.1,6.1,0,0,1-2.883.594,4.058,4.058,0,0,1-3.008-1.074,4.058,4.058,0,0,1-1.07-3,4.281,4.281,0,0,1,1.156-3.156A3.852,3.852,0,0,1,16.112,29.8a3.5,3.5,0,0,1,2.707,1.039,4,4,0,0,1,.957,2.82Zm-2.289-1.516q0-1.719-1.391-1.719a1.328,1.328,0,0,0-1.027.492,2.234,2.234,0,0,0-.527,1.227Zm8.6,4.719a3.649,3.649,0,0,1-1.648.289q-2.609,0-2.609-2.711V31.82h-1.3V30h1.3V28.273l2.461-.7V30h1.8v1.82h-1.8v3.234q0,1.25.992,1.25a1.673,1.673,0,0,0,.8-.227ZM34.131,38H31.795V36.852h-.031A2.607,2.607,0,0,1,29.381,38.2a2.492,2.492,0,0,1-1.832-.66,2.366,2.366,0,0,1-.668-1.762q0-2.328,2.758-2.687L31.81,32.8q0-1.312-1.422-1.312a4.853,4.853,0,0,0-2.719.852V30.477a6.116,6.116,0,0,1,1.41-.469,7.413,7.413,0,0,1,1.629-.2q3.422,0,3.422,3.414Zm-2.32-3.25v-.539l-1.453.188q-1.2.156-1.2,1.086a.9.9,0,0,0,.293.691,1.126,1.126,0,0,0,.793.27,1.462,1.462,0,0,0,1.133-.48A1.735,1.735,0,0,0,31.81,34.75Z" transform="translate(568.061 1218.964)" fill="#fff"/>
    <path id="Trazado_987937" data-name="Trazado 987937" d="M-45.209-3.859V0h-2.523V-11.2h3.953q4.234,0,4.234,3.57A3.426,3.426,0,0,1-40.76-4.9a4.813,4.813,0,0,1-3.246,1.043Zm0-5.406v3.492h.992q2.016,0,2.016-1.766,0-1.727-2.016-1.727Zm12.283,3.492a2.142,2.142,0,0,0-1.039-.242,1.5,1.5,0,0,0-1.258.59,2.573,2.573,0,0,0-.453,1.605V0h-2.469V-8h2.469v1.484h.031a2.136,2.136,0,0,1,2.109-1.625,1.59,1.59,0,0,1,.609.094ZM-24.651-3.3H-29.87q.125,1.742,2.2,1.742a4.286,4.286,0,0,0,2.32-.625V-.4A6.1,6.1,0,0,1-28.237.2,4.058,4.058,0,0,1-31.245-.879a4.058,4.058,0,0,1-1.07-3,4.281,4.281,0,0,1,1.156-3.156A3.852,3.852,0,0,1-28.315-8.2a3.5,3.5,0,0,1,2.707,1.039,4,4,0,0,1,.957,2.82ZM-26.94-4.812q0-1.719-1.391-1.719a1.328,1.328,0,0,0-1.027.492,2.234,2.234,0,0,0-.527,1.227Zm3.236,4.6v-2a5.256,5.256,0,0,0,1.215.547,4.028,4.028,0,0,0,1.145.18,2.455,2.455,0,0,0,1.035-.18.581.581,0,0,0,.379-.547A.506.506,0,0,0-20.1-2.6a1.6,1.6,0,0,0-.441-.273,5.009,5.009,0,0,0-.59-.211q-.32-.094-.617-.211a5.913,5.913,0,0,1-.84-.387,2.427,2.427,0,0,1-.609-.48,1.889,1.889,0,0,1-.375-.633,2.525,2.525,0,0,1-.129-.852A2.192,2.192,0,0,1-23.411-6.8,2.393,2.393,0,0,1-22.63-7.6a3.57,3.57,0,0,1,1.117-.453A5.825,5.825,0,0,1-20.2-8.2a7.261,7.261,0,0,1,1.078.082,8.047,8.047,0,0,1,1.078.238v1.906a3.9,3.9,0,0,0-1-.41A4.235,4.235,0,0,0-20.1-6.516a2.328,2.328,0,0,0-.457.043,1.505,1.505,0,0,0-.379.125.7.7,0,0,0-.258.211.486.486,0,0,0-.094.293.541.541,0,0,0,.141.375,1.221,1.221,0,0,0,.367.27,3.625,3.625,0,0,0,.5.2q.277.09.551.184a7.161,7.161,0,0,1,.891.375,2.848,2.848,0,0,1,.684.477,1.872,1.872,0,0,1,.438.641,2.277,2.277,0,0,1,.152.875,2.282,2.282,0,0,1-.309,1.215,2.471,2.471,0,0,1-.82.82,3.72,3.72,0,0,1-1.18.461A6.54,6.54,0,0,1-21.259.2,7.149,7.149,0,0,1-23.7-.211Zm8.814-9.055a1.442,1.442,0,0,1-1.023-.371,1.2,1.2,0,0,1-.4-.91,1.153,1.153,0,0,1,.4-.906A1.49,1.49,0,0,1-14.89-11.8a1.486,1.486,0,0,1,1.027.352,1.158,1.158,0,0,1,.395.906,1.191,1.191,0,0,1-.395.922A1.466,1.466,0,0,1-14.89-9.266ZM-13.671,0H-16.14V-8h2.469Zm5.892.2A4.3,4.3,0,0,1-10.923-.926a4.064,4.064,0,0,1-1.145-3.043,4.065,4.065,0,0,1,1.188-3.105A4.487,4.487,0,0,1-7.67-8.2,4.249,4.249,0,0,1-4.545-7.074,3.985,3.985,0,0,1-3.412-4.109,4.23,4.23,0,0,1-4.58-.961,4.348,4.348,0,0,1-7.779.2Zm.063-6.5a1.647,1.647,0,0,0-1.359.6A2.653,2.653,0,0,0-9.56-4q0,2.3,1.859,2.3,1.773,0,1.773-2.367Q-5.927-6.3-7.716-6.3Zm2.648-5.484L-7.513-9.266H-9.295l2.031-2.523ZM5.91,0H3.449V-4.445Q3.449-6.3,2.121-6.3a1.318,1.318,0,0,0-1.055.492,1.875,1.875,0,0,0-.414,1.25V0H-1.816V-8H.652v1.266H.684A2.829,2.829,0,0,1,3.254-8.2Q5.91-8.2,5.91-4.9Zm8.87-.93h-.031V3.68H12.281V-8h2.469v1.2h.031a2.9,2.9,0,0,1,2.57-1.4,2.892,2.892,0,0,1,2.4,1.066,4.54,4.54,0,0,1,.848,2.9,4.922,4.922,0,0,1-.988,3.211A3.222,3.222,0,0,1,16.984.2,2.491,2.491,0,0,1,14.781-.93Zm-.07-3.281v.641a2.037,2.037,0,0,0,.438,1.352A1.424,1.424,0,0,0,16.3-1.7,1.514,1.514,0,0,0,17.6-2.348,3.15,3.15,0,0,0,18.07-4.2q0-2.109-1.641-2.109a1.541,1.541,0,0,0-1.238.574A2.29,2.29,0,0,0,14.71-4.211ZM28.7,0H26.368V-1.148h-.031A2.607,2.607,0,0,1,23.954.2a2.492,2.492,0,0,1-1.832-.66,2.366,2.366,0,0,1-.668-1.762q0-2.328,2.758-2.687L26.384-5.2q0-1.312-1.422-1.312a4.853,4.853,0,0,0-2.719.852V-7.523a6.116,6.116,0,0,1,1.41-.469,7.413,7.413,0,0,1,1.629-.2Q28.7-8.2,28.7-4.781Zm-2.32-3.25v-.539L24.931-3.6q-1.2.156-1.2,1.086a.9.9,0,0,0,.293.691,1.126,1.126,0,0,0,.793.27,1.462,1.462,0,0,0,1.133-.48A1.735,1.735,0,0,0,26.384-3.25Zm9.494-2.523a2.142,2.142,0,0,0-1.039-.242,1.5,1.5,0,0,0-1.258.59,2.573,2.573,0,0,0-.453,1.605V0H30.659V-8h2.469v1.484h.031a2.136,2.136,0,0,1,2.109-1.625,1.59,1.59,0,0,1,.609.094ZM43.684,0H41.348V-1.148h-.031A2.607,2.607,0,0,1,38.934.2,2.492,2.492,0,0,1,37.1-.465a2.366,2.366,0,0,1-.668-1.762q0-2.328,2.758-2.687L41.363-5.2q0-1.312-1.422-1.312a4.853,4.853,0,0,0-2.719.852V-7.523a6.116,6.116,0,0,1,1.41-.469,7.413,7.413,0,0,1,1.629-.2q3.422,0,3.422,3.414Zm-2.32-3.25v-.539L39.91-3.6q-1.2.156-1.2,1.086A.9.9,0,0,0,39-1.824a1.126,1.126,0,0,0,.793.27,1.462,1.462,0,0,0,1.133-.48A1.735,1.735,0,0,0,41.363-3.25ZM-32.113,19h-2.469V17.9h-.031a2.768,2.768,0,0,1-2.477,1.3A3.033,3.033,0,0,1-39.5,18.137a4.382,4.382,0,0,1-.914-2.957A4.77,4.77,0,0,1-39.41,12a3.287,3.287,0,0,1,2.641-1.2,2.246,2.246,0,0,1,2.156,1.109h.031V7.156h2.469Zm-2.422-3.891v-.6a1.893,1.893,0,0,0-.453-1.3,1.5,1.5,0,0,0-1.18-.516,1.487,1.487,0,0,0-1.281.645,2.993,2.993,0,0,0-.461,1.77,2.59,2.59,0,0,0,.445,1.625,1.479,1.479,0,0,0,1.234.57,1.485,1.485,0,0,0,1.223-.6A2.507,2.507,0,0,0-34.535,15.109Zm11.689.594h-5.219q.125,1.742,2.2,1.742a4.286,4.286,0,0,0,2.32-.625V18.6a6.1,6.1,0,0,1-2.883.594,4.058,4.058,0,0,1-3.008-1.074,4.058,4.058,0,0,1-1.07-3,4.281,4.281,0,0,1,1.156-3.156A3.852,3.852,0,0,1-26.51,10.8,3.5,3.5,0,0,1-23.8,11.844a4,4,0,0,1,.957,2.82Zm-2.289-1.516q0-1.719-1.391-1.719a1.328,1.328,0,0,0-1.027.492,2.234,2.234,0,0,0-.527,1.227Zm9.822,4.523a4.881,4.881,0,0,1-2.414.484,4.083,4.083,0,0,1-2.984-1.117A3.859,3.859,0,0,1-21.852,15.2,4.251,4.251,0,0,1-20.63,11.98,4.518,4.518,0,0,1-17.36,10.8a4.2,4.2,0,0,1,2.047.375v2.094A2.814,2.814,0,0,0-17.04,12.7a2.275,2.275,0,0,0-1.684.621,2.317,2.317,0,0,0-.621,1.715,2.28,2.28,0,0,0,.594,1.668,2.182,2.182,0,0,0,1.633.605,3.258,3.258,0,0,0,1.8-.578Zm2.869-8.977a1.442,1.442,0,0,1-1.023-.371,1.2,1.2,0,0,1-.4-.91,1.153,1.153,0,0,1,.4-.906A1.49,1.49,0,0,1-12.445,7.2a1.486,1.486,0,0,1,1.027.352,1.158,1.158,0,0,1,.395.906,1.191,1.191,0,0,1-.395.922A1.466,1.466,0,0,1-12.445,9.734ZM-11.226,19h-2.469V11h2.469Zm1.556-.211v-2a5.256,5.256,0,0,0,1.215.547,4.028,4.028,0,0,0,1.145.18,2.455,2.455,0,0,0,1.035-.18.581.581,0,0,0,.379-.547.506.506,0,0,0-.172-.391,1.6,1.6,0,0,0-.441-.273,5.009,5.009,0,0,0-.59-.211q-.32-.094-.617-.211a5.914,5.914,0,0,1-.84-.387,2.427,2.427,0,0,1-.609-.48,1.889,1.889,0,0,1-.375-.633,2.525,2.525,0,0,1-.129-.852A2.192,2.192,0,0,1-9.377,12.2,2.393,2.393,0,0,1-8.6,11.4a3.57,3.57,0,0,1,1.117-.453A5.825,5.825,0,0,1-6.17,10.8a7.261,7.261,0,0,1,1.078.082,8.047,8.047,0,0,1,1.078.238v1.906a3.9,3.9,0,0,0-1-.41,4.235,4.235,0,0,0-1.051-.137,2.328,2.328,0,0,0-.457.043,1.505,1.505,0,0,0-.379.125.7.7,0,0,0-.258.211.486.486,0,0,0-.094.293.541.541,0,0,0,.141.375,1.221,1.221,0,0,0,.367.27,3.625,3.625,0,0,0,.5.2q.277.09.551.184a7.161,7.161,0,0,1,.891.375,2.848,2.848,0,0,1,.684.477,1.871,1.871,0,0,1,.437.641,2.277,2.277,0,0,1,.152.875,2.282,2.282,0,0,1-.309,1.215,2.471,2.471,0,0,1-.82.82,3.72,3.72,0,0,1-1.18.461,6.54,6.54,0,0,1-1.387.145A7.149,7.149,0,0,1-9.67,18.789ZM-.855,9.734a1.442,1.442,0,0,1-1.023-.371,1.2,1.2,0,0,1-.4-.91,1.153,1.153,0,0,1,.4-.906A1.49,1.49,0,0,1-.855,7.2a1.486,1.486,0,0,1,1.027.352,1.158,1.158,0,0,1,.395.906,1.191,1.191,0,0,1-.395.922A1.466,1.466,0,0,1-.855,9.734ZM.363,19H-2.105V11H.363Zm5.892.2a4.3,4.3,0,0,1-3.145-1.121,4.064,4.064,0,0,1-1.145-3.043,4.065,4.065,0,0,1,1.187-3.105A4.487,4.487,0,0,1,6.365,10.8,4.249,4.249,0,0,1,9.49,11.926a3.985,3.985,0,0,1,1.133,2.965,4.23,4.23,0,0,1-1.168,3.148A4.348,4.348,0,0,1,6.256,19.2Zm.063-6.5a1.647,1.647,0,0,0-1.359.6A2.653,2.653,0,0,0,4.474,15q0,2.3,1.859,2.3,1.773,0,1.773-2.367Q8.107,12.7,6.318,12.7ZM19.952,19H17.491V14.555q0-1.859-1.328-1.859a1.318,1.318,0,0,0-1.055.492,1.875,1.875,0,0,0-.414,1.25V19H12.226V11h2.469v1.266h.031A2.829,2.829,0,0,1,17.3,10.8q2.656,0,2.656,3.3Zm9.142-3.3H23.876q.125,1.742,2.2,1.742a4.286,4.286,0,0,0,2.32-.625V18.6a6.1,6.1,0,0,1-2.883.594A4.058,4.058,0,0,1,22.5,18.121a4.058,4.058,0,0,1-1.07-3,4.281,4.281,0,0,1,1.156-3.156A3.852,3.852,0,0,1,25.431,10.8a3.5,3.5,0,0,1,2.707,1.039,4,4,0,0,1,.957,2.82Zm-2.289-1.516q0-1.719-1.391-1.719a1.328,1.328,0,0,0-1.027.492,2.234,2.234,0,0,0-.527,1.227Zm3.236,4.6v-2a5.256,5.256,0,0,0,1.215.547,4.028,4.028,0,0,0,1.145.18,2.455,2.455,0,0,0,1.035-.18.581.581,0,0,0,.379-.547.506.506,0,0,0-.172-.391,1.6,1.6,0,0,0-.441-.273,5.009,5.009,0,0,0-.59-.211q-.32-.094-.617-.211a5.913,5.913,0,0,1-.84-.387,2.427,2.427,0,0,1-.609-.48,1.889,1.889,0,0,1-.375-.633,2.525,2.525,0,0,1-.129-.852,2.192,2.192,0,0,1,.293-1.156,2.393,2.393,0,0,1,.781-.793,3.57,3.57,0,0,1,1.117-.453,5.825,5.825,0,0,1,1.309-.145,7.261,7.261,0,0,1,1.078.082,8.047,8.047,0,0,1,1.078.238v1.906a3.9,3.9,0,0,0-1-.41,4.235,4.235,0,0,0-1.051-.137,2.328,2.328,0,0,0-.457.043,1.505,1.505,0,0,0-.379.125.7.7,0,0,0-.258.211.486.486,0,0,0-.094.293.541.541,0,0,0,.141.375,1.221,1.221,0,0,0,.367.27,3.625,3.625,0,0,0,.5.2q.277.09.551.184a7.161,7.161,0,0,1,.891.375,2.848,2.848,0,0,1,.684.477,1.871,1.871,0,0,1,.438.641,2.563,2.563,0,0,1-.156,2.09,2.471,2.471,0,0,1-.82.82,3.72,3.72,0,0,1-1.18.461,6.54,6.54,0,0,1-1.387.145A7.149,7.149,0,0,1,30.042,18.789ZM-21.247,32.227a2.142,2.142,0,0,0-1.039-.242,1.5,1.5,0,0,0-1.258.59A2.573,2.573,0,0,0-24,34.18V38h-2.469V30H-24v1.484h.031a2.136,2.136,0,0,1,2.109-1.625,1.59,1.59,0,0,1,.609.094ZM-13.441,38h-2.336V36.852h-.031A2.607,2.607,0,0,1-18.191,38.2a2.492,2.492,0,0,1-1.832-.66,2.366,2.366,0,0,1-.668-1.762q0-2.328,2.758-2.687l2.172-.289q0-1.312-1.422-1.312a4.853,4.853,0,0,0-2.719.852V30.477a6.116,6.116,0,0,1,1.41-.469,7.413,7.413,0,0,1,1.629-.2q3.422,0,3.422,3.414Zm-2.32-3.25v-.539l-1.453.188q-1.2.156-1.2,1.086a.9.9,0,0,0,.293.691,1.126,1.126,0,0,0,.793.27,1.462,1.462,0,0,0,1.133-.48A1.735,1.735,0,0,0-15.761,34.75Zm1.586-8.539-2.445,2.523H-18.4l2.031-2.523ZM-8.986,37.07h-.031V41.68h-2.469V30h2.469v1.2h.031a2.9,2.9,0,0,1,2.57-1.4,2.892,2.892,0,0,1,2.4,1.066,4.54,4.54,0,0,1,.848,2.9,4.922,4.922,0,0,1-.988,3.211A3.222,3.222,0,0,1-6.783,38.2,2.491,2.491,0,0,1-8.986,37.07Zm-.07-3.281v.641a2.037,2.037,0,0,0,.438,1.352A1.424,1.424,0,0,0-7.47,36.3a1.514,1.514,0,0,0,1.309-.652A3.15,3.15,0,0,0-5.7,33.8q0-2.109-1.641-2.109a1.541,1.541,0,0,0-1.238.574A2.29,2.29,0,0,0-9.056,33.789Zm8.744-5.055a1.442,1.442,0,0,1-1.023-.371,1.2,1.2,0,0,1-.4-.91,1.153,1.153,0,0,1,.4-.906A1.49,1.49,0,0,1-.313,26.2a1.486,1.486,0,0,1,1.027.352,1.158,1.158,0,0,1,.395.906,1.191,1.191,0,0,1-.395.922A1.466,1.466,0,0,1-.313,28.734ZM.906,38H-1.563V30H.906Zm9.908,0H8.345V36.9H8.314a2.768,2.768,0,0,1-2.477,1.3,3.033,3.033,0,0,1-2.414-1.059,4.382,4.382,0,0,1-.914-2.957A4.77,4.77,0,0,1,3.517,31a3.287,3.287,0,0,1,2.641-1.2,2.246,2.246,0,0,1,2.156,1.109h.031V26.156h2.469ZM8.392,34.109v-.6a1.893,1.893,0,0,0-.453-1.3,1.5,1.5,0,0,0-1.18-.516,1.487,1.487,0,0,0-1.281.645,2.993,2.993,0,0,0-.461,1.77,2.59,2.59,0,0,0,.445,1.625A1.479,1.479,0,0,0,6.7,36.3a1.485,1.485,0,0,0,1.223-.6A2.507,2.507,0,0,0,8.392,34.109ZM19.55,38H17.214V36.852h-.031A2.607,2.607,0,0,1,14.8,38.2a2.492,2.492,0,0,1-1.832-.66,2.366,2.366,0,0,1-.668-1.762q0-2.328,2.758-2.687L17.23,32.8q0-1.312-1.422-1.312a4.853,4.853,0,0,0-2.719.852V30.477a6.116,6.116,0,0,1,1.41-.469,7.413,7.413,0,0,1,1.629-.2q3.422,0,3.422,3.414Zm-2.32-3.25v-.539l-1.453.188q-1.2.156-1.2,1.086a.9.9,0,0,0,.293.691,1.126,1.126,0,0,0,.793.27,1.462,1.462,0,0,0,1.133-.48A1.735,1.735,0,0,0,17.23,34.75Zm3.752,3.039v-2a5.256,5.256,0,0,0,1.215.547,4.028,4.028,0,0,0,1.145.18,2.455,2.455,0,0,0,1.035-.18.581.581,0,0,0,.379-.547.506.506,0,0,0-.172-.391,1.6,1.6,0,0,0-.441-.273,5.009,5.009,0,0,0-.59-.211q-.32-.094-.617-.211a5.914,5.914,0,0,1-.84-.387,2.427,2.427,0,0,1-.609-.48,1.889,1.889,0,0,1-.375-.633,2.525,2.525,0,0,1-.129-.852,2.192,2.192,0,0,1,.293-1.156,2.393,2.393,0,0,1,.781-.793,3.57,3.57,0,0,1,1.117-.453,5.825,5.825,0,0,1,1.309-.145,7.261,7.261,0,0,1,1.078.082,8.047,8.047,0,0,1,1.078.238v1.906a3.9,3.9,0,0,0-1-.41,4.235,4.235,0,0,0-1.051-.137,2.328,2.328,0,0,0-.457.043,1.505,1.505,0,0,0-.379.125.7.7,0,0,0-.258.211.486.486,0,0,0-.094.293.541.541,0,0,0,.141.375,1.221,1.221,0,0,0,.367.27,3.625,3.625,0,0,0,.5.2q.277.09.551.184a7.161,7.161,0,0,1,.891.375,2.848,2.848,0,0,1,.684.477,1.871,1.871,0,0,1,.438.641,2.563,2.563,0,0,1-.156,2.09,2.471,2.471,0,0,1-.82.82,3.72,3.72,0,0,1-1.18.461,6.54,6.54,0,0,1-1.387.145A7.149,7.149,0,0,1,20.981,37.789Z" transform="translate(898.795 1218.964)" fill="#0b0a0a"/>
    <path id="Trazado_987938" data-name="Trazado 987938" d="M-31.442,0H-38.16V-11.2H-31.7v2.055h-3.938v2.492h3.664v2.047h-3.664v2.563h4.2Zm6.775-9.953a2.494,2.494,0,0,0-.914-.187q-1.187,0-1.187,1.289V-8h1.828v1.82h-1.828V0h-2.461V-6.18h-1.344V-8h1.344v-.992a2.88,2.88,0,0,1,.891-2.2,3.4,3.4,0,0,1,2.422-.836,4.253,4.253,0,0,1,1.25.156Zm8.1,6.656h-5.219q.125,1.742,2.2,1.742a4.286,4.286,0,0,0,2.32-.625V-.4A6.1,6.1,0,0,1-20.149.2,4.058,4.058,0,0,1-23.157-.879a4.058,4.058,0,0,1-1.07-3,4.281,4.281,0,0,1,1.156-3.156A3.852,3.852,0,0,1-20.227-8.2,3.5,3.5,0,0,1-17.52-7.156a4,4,0,0,1,.957,2.82Zm-2.289-1.516q0-1.719-1.391-1.719a1.328,1.328,0,0,0-1.027.492A2.234,2.234,0,0,0-21.8-4.812ZM-9.031-.289A4.881,4.881,0,0,1-11.445.2,4.083,4.083,0,0,1-14.429-.922,3.859,3.859,0,0,1-15.57-3.8,4.251,4.251,0,0,1-14.347-7.02,4.518,4.518,0,0,1-11.077-8.2a4.2,4.2,0,0,1,2.047.375v2.094A2.814,2.814,0,0,0-10.757-6.3a2.275,2.275,0,0,0-1.684.621,2.317,2.317,0,0,0-.621,1.715A2.28,2.28,0,0,0-12.468-2.3a2.182,2.182,0,0,0,1.633.605,3.258,3.258,0,0,0,1.8-.578Zm6.455.2A3.649,3.649,0,0,1-4.224.2Q-6.834.2-6.834-2.516V-6.18h-1.3V-8h1.3V-9.727l2.461-.7V-8h1.8v1.82h-1.8v3.234q0,1.25.992,1.25a1.673,1.673,0,0,0,.8-.227ZM2.566.2A4.3,4.3,0,0,1-.578-.926,4.064,4.064,0,0,1-1.723-3.969,4.065,4.065,0,0,1-.535-7.074,4.487,4.487,0,0,1,2.676-8.2,4.249,4.249,0,0,1,5.8-7.074,3.985,3.985,0,0,1,6.934-4.109,4.23,4.23,0,0,1,5.766-.961,4.348,4.348,0,0,1,2.566.2Zm.063-6.5a1.647,1.647,0,0,0-1.359.6A2.653,2.653,0,0,0,.785-4q0,2.3,1.859,2.3,1.773,0,1.773-2.367Q4.418-6.3,2.629-6.3ZM20.781,0H18.312V-1.1h-.031A2.768,2.768,0,0,1,15.8.2,3.033,3.033,0,0,1,13.39-.863a4.382,4.382,0,0,1-.914-2.957A4.77,4.77,0,0,1,13.484-7a3.287,3.287,0,0,1,2.641-1.2,2.246,2.246,0,0,1,2.156,1.109h.031v-4.758h2.469ZM18.359-3.891v-.6a1.893,1.893,0,0,0-.453-1.3,1.5,1.5,0,0,0-1.18-.516,1.487,1.487,0,0,0-1.281.645,2.993,2.993,0,0,0-.461,1.77,2.59,2.59,0,0,0,.445,1.625,1.479,1.479,0,0,0,1.234.57,1.485,1.485,0,0,0,1.223-.6A2.507,2.507,0,0,0,18.359-3.891ZM30.048-3.3H24.829q.125,1.742,2.2,1.742a4.286,4.286,0,0,0,2.32-.625V-.4A6.1,6.1,0,0,1,26.462.2,4.058,4.058,0,0,1,23.454-.879a4.058,4.058,0,0,1-1.07-3A4.281,4.281,0,0,1,23.54-7.031,3.852,3.852,0,0,1,26.384-8.2a3.5,3.5,0,0,1,2.707,1.039,4,4,0,0,1,.957,2.82ZM27.759-4.812q0-1.719-1.391-1.719a1.328,1.328,0,0,0-1.027.492,2.234,2.234,0,0,0-.527,1.227ZM33.987,0H31.518V-11.844h2.469ZM-58.246,18.789v-2a5.256,5.256,0,0,0,1.215.547,4.028,4.028,0,0,0,1.145.18,2.455,2.455,0,0,0,1.035-.18.581.581,0,0,0,.379-.547.506.506,0,0,0-.172-.391,1.6,1.6,0,0,0-.441-.273,5.009,5.009,0,0,0-.59-.211q-.32-.094-.617-.211a5.914,5.914,0,0,1-.84-.387,2.427,2.427,0,0,1-.609-.48,1.889,1.889,0,0,1-.375-.633,2.525,2.525,0,0,1-.129-.852,2.192,2.192,0,0,1,.293-1.156,2.393,2.393,0,0,1,.781-.793,3.57,3.57,0,0,1,1.117-.453,5.825,5.825,0,0,1,1.309-.145,7.261,7.261,0,0,1,1.078.082,8.047,8.047,0,0,1,1.078.238v1.906a3.9,3.9,0,0,0-1-.41,4.235,4.235,0,0,0-1.051-.137,2.328,2.328,0,0,0-.457.043,1.505,1.505,0,0,0-.379.125.7.7,0,0,0-.258.211.486.486,0,0,0-.094.293.541.541,0,0,0,.141.375,1.221,1.221,0,0,0,.367.27,3.625,3.625,0,0,0,.5.2q.277.09.551.184a7.161,7.161,0,0,1,.891.375,2.848,2.848,0,0,1,.684.477,1.871,1.871,0,0,1,.438.641,2.277,2.277,0,0,1,.152.875,2.282,2.282,0,0,1-.309,1.215,2.471,2.471,0,0,1-.82.82,3.72,3.72,0,0,1-1.18.461A6.54,6.54,0,0,1-55.8,19.2,7.149,7.149,0,0,1-58.246,18.789ZM-43.494,15.7h-5.219q.125,1.742,2.2,1.742a4.286,4.286,0,0,0,2.32-.625V18.6a6.1,6.1,0,0,1-2.883.594,4.058,4.058,0,0,1-3.008-1.074,4.058,4.058,0,0,1-1.07-3A4.281,4.281,0,0,1-50,11.969,3.852,3.852,0,0,1-47.158,10.8a3.5,3.5,0,0,1,2.707,1.039,4,4,0,0,1,.957,2.82Zm-2.289-1.516q0-1.719-1.391-1.719a1.328,1.328,0,0,0-1.027.492,2.234,2.234,0,0,0-.527,1.227Zm3.236,4.6v-2a5.256,5.256,0,0,0,1.215.547,4.028,4.028,0,0,0,1.145.18,2.455,2.455,0,0,0,1.035-.18.581.581,0,0,0,.379-.547.506.506,0,0,0-.172-.391,1.6,1.6,0,0,0-.441-.273,5.009,5.009,0,0,0-.59-.211q-.32-.094-.617-.211a5.914,5.914,0,0,1-.84-.387,2.427,2.427,0,0,1-.609-.48,1.889,1.889,0,0,1-.375-.633,2.525,2.525,0,0,1-.129-.852,2.192,2.192,0,0,1,.293-1.156,2.393,2.393,0,0,1,.781-.793,3.57,3.57,0,0,1,1.117-.453,5.825,5.825,0,0,1,1.309-.145,7.261,7.261,0,0,1,1.078.082,8.047,8.047,0,0,1,1.078.238v1.906a3.9,3.9,0,0,0-1-.41,4.235,4.235,0,0,0-1.051-.137,2.328,2.328,0,0,0-.457.043,1.505,1.505,0,0,0-.379.125.7.7,0,0,0-.258.211.486.486,0,0,0-.094.293.541.541,0,0,0,.141.375,1.221,1.221,0,0,0,.367.27,3.625,3.625,0,0,0,.5.2q.277.09.551.184a7.161,7.161,0,0,1,.891.375,2.848,2.848,0,0,1,.684.477,1.871,1.871,0,0,1,.438.641,2.277,2.277,0,0,1,.152.875,2.282,2.282,0,0,1-.309,1.215,2.471,2.471,0,0,1-.82.82,3.72,3.72,0,0,1-1.18.461A6.54,6.54,0,0,1-40.1,19.2,7.149,7.149,0,0,1-42.547,18.789Zm15.408-.7a4.526,4.526,0,0,1-1.289,3.449,5.224,5.224,0,0,1-3.734,1.223,5.919,5.919,0,0,1-2.562-.461V20.219a4.907,4.907,0,0,0,2.492.719,2.684,2.684,0,0,0,1.938-.66,2.369,2.369,0,0,0,.688-1.793v-.633h-.031A2.757,2.757,0,0,1-32.131,19.2a3,3,0,0,1-2.43-1.078,4.372,4.372,0,0,1-.9-2.891,4.87,4.87,0,0,1,1-3.227,3.265,3.265,0,0,1,2.633-1.2,2.429,2.429,0,0,1,2.188,1.125h.031V11h2.469Zm-2.437-2.93v-.633a1.945,1.945,0,0,0-.449-1.293,1.453,1.453,0,0,0-1.168-.535,1.51,1.51,0,0,0-1.289.641,3.012,3.012,0,0,0-.469,1.8,2.543,2.543,0,0,0,.445,1.582,1.451,1.451,0,0,0,1.219.582,1.511,1.511,0,0,0,1.238-.59A2.418,2.418,0,0,0-29.577,15.156Zm8.314,4.039a4.3,4.3,0,0,1-3.145-1.121,4.064,4.064,0,0,1-1.145-3.043,4.065,4.065,0,0,1,1.188-3.105A4.487,4.487,0,0,1-21.153,10.8a4.249,4.249,0,0,1,3.125,1.121A3.985,3.985,0,0,1-16.9,14.891a4.23,4.23,0,0,1-1.168,3.148A4.348,4.348,0,0,1-21.263,19.2Zm.063-6.5a1.647,1.647,0,0,0-1.359.6,2.653,2.653,0,0,0-.484,1.7q0,2.3,1.859,2.3,1.773,0,1.773-2.367Q-19.411,12.7-21.2,12.7Zm16.386,6.016a4.881,4.881,0,0,1-2.414.484,4.083,4.083,0,0,1-2.984-1.117A3.859,3.859,0,0,1-11.353,15.2a4.251,4.251,0,0,1,1.223-3.215A4.518,4.518,0,0,1-6.861,10.8a4.2,4.2,0,0,1,2.047.375v2.094A2.814,2.814,0,0,0-6.541,12.7a2.275,2.275,0,0,0-1.684.621,2.317,2.317,0,0,0-.621,1.715A2.28,2.28,0,0,0-8.252,16.7a2.182,2.182,0,0,0,1.633.605,3.258,3.258,0,0,0,1.8-.578ZM.617,19.2a4.3,4.3,0,0,1-3.145-1.121,4.064,4.064,0,0,1-1.145-3.043,4.065,4.065,0,0,1,1.188-3.105A4.487,4.487,0,0,1,.727,10.8a4.249,4.249,0,0,1,3.125,1.121,3.985,3.985,0,0,1,1.133,2.965,4.23,4.23,0,0,1-1.168,3.148A4.348,4.348,0,0,1,.617,19.2ZM.68,12.7a1.647,1.647,0,0,0-1.359.6A2.653,2.653,0,0,0-1.164,15q0,2.3,1.859,2.3,1.773,0,1.773-2.367Q2.469,12.7.68,12.7Zm13.752,5.391a4.526,4.526,0,0,1-1.289,3.449,5.224,5.224,0,0,1-3.734,1.223A5.919,5.919,0,0,1,6.845,22.3V20.219a4.907,4.907,0,0,0,2.492.719,2.684,2.684,0,0,0,1.937-.66,2.369,2.369,0,0,0,.688-1.793v-.633h-.031A2.757,2.757,0,0,1,9.439,19.2a3,3,0,0,1-2.43-1.078,4.372,4.372,0,0,1-.9-2.891,4.87,4.87,0,0,1,1-3.227,3.265,3.265,0,0,1,2.633-1.2,2.429,2.429,0,0,1,2.187,1.125h.031V11h2.469Zm-2.437-2.93v-.633a1.945,1.945,0,0,0-.449-1.293,1.453,1.453,0,0,0-1.168-.535,1.51,1.51,0,0,0-1.289.641,3.012,3.012,0,0,0-.469,1.8,2.543,2.543,0,0,0,.445,1.582,1.451,1.451,0,0,0,1.219.582,1.511,1.511,0,0,0,1.238-.59A2.418,2.418,0,0,0,11.994,15.156ZM24.222,19H21.761V14.555q0-1.859-1.328-1.859a1.318,1.318,0,0,0-1.055.492,1.875,1.875,0,0,0-.414,1.25V19H16.5V11h2.469v1.266H19a2.829,2.829,0,0,1,2.57-1.461q2.656,0,2.656,3.3Zm3.2-9.266A1.442,1.442,0,0,1,26.4,9.363a1.2,1.2,0,0,1-.4-.91,1.153,1.153,0,0,1,.4-.906,1.671,1.671,0,0,1,2.051,0,1.158,1.158,0,0,1,.395.906,1.191,1.191,0,0,1-.395.922A1.466,1.466,0,0,1,27.427,9.734ZM28.645,19H26.177V11h2.469Zm6.916-.094a3.649,3.649,0,0,1-1.648.289q-2.609,0-2.609-2.711V12.82h-1.3V11h1.3V9.273l2.461-.7V11h1.8v1.82h-1.8v3.234q0,1.25.992,1.25a1.673,1.673,0,0,0,.8-.227ZM38.2,9.734a1.442,1.442,0,0,1-1.023-.371,1.2,1.2,0,0,1-.4-.91,1.153,1.153,0,0,1,.4-.906,1.671,1.671,0,0,1,2.051,0,1.158,1.158,0,0,1,.395.906,1.191,1.191,0,0,1-.395.922A1.466,1.466,0,0,1,38.2,9.734ZM39.422,19H36.953V11h2.469Zm9.7-8-2.977,8H43.33l-2.836-8h2.641l1.391,4.93a7.2,7.2,0,0,1,.273,1.422h.031a8.069,8.069,0,0,1,.289-1.375L46.541,11Zm4.713,8.2a4.3,4.3,0,0,1-3.145-1.121,4.064,4.064,0,0,1-1.145-3.043,4.065,4.065,0,0,1,1.188-3.105A4.487,4.487,0,0,1,53.941,10.8a4.249,4.249,0,0,1,3.125,1.121A3.985,3.985,0,0,1,58.2,14.891a4.23,4.23,0,0,1-1.168,3.148A4.348,4.348,0,0,1,53.832,19.2Zm.063-6.5a1.647,1.647,0,0,0-1.359.6A2.653,2.653,0,0,0,52.05,15q0,2.3,1.859,2.3,1.773,0,1.773-2.367Q55.683,12.7,53.894,12.7Z" transform="translate(1064.489 1228.964)" fill="#fff"/>
  </g>
</svg>
