<svg xmlns="http://www.w3.org/2000/svg" xmlns:xlink="http://www.w3.org/1999/xlink" width="108" height="108" viewBox="0 0 108 108">
  <defs>
    <filter id="Trazado_982547" x="0" y="0" width="108" height="108" filterUnits="userSpaceOnUse">
      <feOffset dy="3" input="SourceAlpha"/>
      <feGaussianBlur stdDeviation="3" result="blur"/>
      <feFlood flood-opacity="0.161"/>
      <feComposite operator="in" in2="blur"/>
      <feComposite in="SourceGraphic"/>
    </filter>
  </defs>
  <g id="Grupo_1148814" data-name="Grupo 1148814" transform="translate(-628 -1841)">
    <g id="Grupo_1148527" data-name="Grupo 1148527" transform="translate(427 -940)">
      <g id="Grupo_1146954" data-name="Grupo 1146954" transform="translate(-415 -1202)">
        <g transform="matrix(1, 0, 0, 1, 616, 3983)" filter="url(#Trazado_982547)">
          <g id="Trazado_982547-2" data-name="Trazado 982547" transform="translate(9 6)" fill="#ebf6fb">
            <path d="M 45 88.5 C 39.12687683105469 88.5 33.43022537231445 87.35007476806641 28.06830024719238 85.08217620849609 C 22.88852500915527 82.89131164550781 18.23629951477051 79.75458526611328 14.2408504486084 75.75914764404297 C 10.24541282653809 71.76370239257812 7.108687400817871 67.11147308349609 4.917825222015381 61.93170166015625 C 2.649924993515015 56.56977462768555 1.5 50.87312316894531 1.5 45 C 1.5 39.12687683105469 2.649924993515015 33.43022537231445 4.917825222015381 28.06830024719238 C 7.108687400817871 22.88852500915527 10.24541282653809 18.23629951477051 14.2408504486084 14.2408504486084 C 18.23629951477051 10.24541282653809 22.88852500915527 7.108687400817871 28.06830024719238 4.917825222015381 C 33.43022537231445 2.649924993515015 39.12687683105469 1.5 45 1.5 C 50.87312316894531 1.5 56.56977462768555 2.649924993515015 61.93170166015625 4.917825222015381 C 67.11147308349609 7.108687400817871 71.76370239257812 10.24541282653809 75.75914764404297 14.2408504486084 C 79.75458526611328 18.23629951477051 82.89131164550781 22.88852500915527 85.08217620849609 28.06830024719238 C 87.35007476806641 33.43022537231445 88.5 39.12687683105469 88.5 45 C 88.5 50.87312316894531 87.35007476806641 56.56977462768555 85.08217620849609 61.93170166015625 C 82.89131164550781 67.11147308349609 79.75458526611328 71.76370239257812 75.75914764404297 75.75914764404297 C 71.76370239257812 79.75458526611328 67.11147308349609 82.89131164550781 61.93170166015625 85.08217620849609 C 56.56977462768555 87.35007476806641 50.87312316894531 88.5 45 88.5 Z" stroke="none"/>
            <path d="M 45 3 C 39.32871246337891 3 33.82865524291992 4.110054016113281 28.65262985229492 6.299339294433594 C 23.65165710449219 8.414573669433594 19.15968322753906 11.44334411621094 15.301513671875 15.301513671875 C 11.44334411621094 19.15968322753906 8.414573669433594 23.65165710449219 6.299339294433594 28.65262985229492 C 4.110054016113281 33.82865524291992 3 39.32871246337891 3 45 C 3 50.67128753662109 4.110054016113281 56.17134475708008 6.299339294433594 61.34737396240234 C 8.414573669433594 66.34834289550781 11.44334411621094 70.84031677246094 15.301513671875 74.698486328125 C 19.15968322753906 78.55665588378906 23.65165710449219 81.58542633056641 28.65262985229492 83.70066070556641 C 33.82865524291992 85.88994598388672 39.32871246337891 87 45 87 C 50.67128753662109 87 56.17134475708008 85.88994598388672 61.34737396240234 83.70066070556641 C 66.34834289550781 81.58542633056641 70.84031677246094 78.55665588378906 74.698486328125 74.698486328125 C 78.55665588378906 70.84031677246094 81.58542633056641 66.34834289550781 83.70066070556641 61.34737396240234 C 85.88994598388672 56.17134475708008 87 50.67128753662109 87 45 C 87 39.32871246337891 85.88994598388672 33.82865524291992 83.70066070556641 28.65262985229492 C 81.58542633056641 23.65165710449219 78.55665588378906 19.15968322753906 74.698486328125 15.301513671875 C 70.84031677246094 11.44334411621094 66.34834289550781 8.414573669433594 61.34737396240234 6.299339294433594 C 56.17134475708008 4.110054016113281 50.67128753662109 3 45 3 M 45 0 C 69.85281372070312 0 90 20.14718627929688 90 45 C 90 69.85281372070312 69.85281372070312 90 45 90 C 20.14718627929688 90 0 69.85281372070312 0 45 C 0 20.14718627929688 20.14718627929688 0 45 0 Z" stroke="none" fill="#26617a"/>
          </g>
        </g>
      </g>
    </g>
    <g id="brand-awareness" transform="translate(655.427 1865.425)">
      <g id="Grupo_1148812" data-name="Grupo 1148812" transform="translate(1.825 1.825)">
        <g id="Grupo_1148796" data-name="Grupo 1148796" transform="translate(13.199 46.197)">
          <path id="Trazado_983092" data-name="Trazado 983092" d="M41.1,61.3H18A3.3,3.3,0,0,1,21.3,58H37.8A3.3,3.3,0,0,1,41.1,61.3Z" transform="translate(-18 -58)" fill="#969faa"/>
        </g>
        <g id="Grupo_1148797" data-name="Grupo 1148797" transform="translate(18.149 41.248)">
          <path id="Trazado_983093" data-name="Trazado 983093" d="M24,52H37.2v4.95H24Z" transform="translate(-24 -52)" fill="#aab2bd"/>
        </g>
        <g id="Grupo_1148798" data-name="Grupo 1148798" transform="translate(0 34.648)">
          <path id="Trazado_983094" data-name="Trazado 983094" d="M51.5,44v3.3a3.3,3.3,0,0,1-3.3,3.3H5.3A3.3,3.3,0,0,1,2,47.3V44H51.5Z" transform="translate(-2 -44)" fill="#ccd1d9"/>
        </g>
        <g id="Grupo_1148799" data-name="Grupo 1148799" transform="translate(44.547 9.075)">
          <path id="Trazado_983095" data-name="Trazado 983095" d="M60.95,13V38.573H56V23.287a4.178,4.178,0,0,1,1.584-3.242A9.031,9.031,0,0,0,60.95,13Z" transform="translate(-56 -13)" fill="#69d6f4"/>
        </g>
        <g id="Grupo_1148800" data-name="Grupo 1148800" transform="translate(0 9.9)">
          <path id="Trazado_983096" data-name="Trazado 983096" d="M6.95,14V38.748H2V17.3A3.3,3.3,0,0,1,5.3,14Z" transform="translate(-2 -14)" fill="#69d6f4"/>
        </g>
        <g id="Grupo_1148801" data-name="Grupo 1148801" transform="translate(4.95 1.65)">
          <path id="Trazado_983097" data-name="Trazado 983097" d="M8,10.6V5.65A1.655,1.655,0,0,1,9.65,4H38.259a9.041,9.041,0,0,0-3.745,5.981q-.049.309-.074.619H8Z" transform="translate(-8 -4)" fill="#5cd6b3"/>
        </g>
        <g id="Grupo_1148802" data-name="Grupo 1148802" transform="translate(4.95 8.25)">
          <path id="Trazado_983098" data-name="Trazado 983098" d="M39.348,24.374a4.125,4.125,0,1,0,8.249,0V38.4H8V12H34.44a9.053,9.053,0,0,0,3.292,7.845,4.251,4.251,0,0,1,1.617,3.275v1.254Z" transform="translate(-8 -12)" fill="#e6e9ed"/>
        </g>
        <g id="Grupo_1148803" data-name="Grupo 1148803" transform="translate(8.249 23.099)">
          <path id="Trazado_983099" data-name="Trazado 983099" d="M12,30H23.549v8.249H12Z" transform="translate(-12 -30)" fill="#fcd770"/>
        </g>
        <g id="Grupo_1148804" data-name="Grupo 1148804" transform="translate(8.249 11.55)">
          <path id="Trazado_983100" data-name="Trazado 983100" d="M12,16H23.549v8.249H12Z" transform="translate(-12 -16)" fill="#ef7385"/>
        </g>
        <g id="Grupo_1148805" data-name="Grupo 1148805" transform="translate(36.298 26.399)">
          <path id="Trazado_983101" data-name="Trazado 983101" d="M46,34h3.3v4.95H46Z" transform="translate(-46 -34)" fill="#ef7385"/>
        </g>
        <g id="Grupo_1148806" data-name="Grupo 1148806" transform="translate(29.698 21.449)">
          <path id="Trazado_983102" data-name="Trazado 983102" d="M38,28h3.3v9.9H38Z" transform="translate(-38 -28)" fill="#ef7385"/>
        </g>
        <g id="Grupo_1148807" data-name="Grupo 1148807" transform="translate(23.099 24.749)">
          <path id="Trazado_983103" data-name="Trazado 983103" d="M30,32h3.3v6.6H30Z" transform="translate(-30 -32)" fill="#ef7385"/>
        </g>
        <g id="Grupo_1148808" data-name="Grupo 1148808" transform="translate(36.298 19.799)">
          <path id="Trazado_983104" data-name="Trazado 983104" d="M50.95,26h3.3v.825a4.125,4.125,0,1,1-8.249,0V26h4.95Z" transform="translate(-46 -26)" fill="#aab2bd"/>
        </g>
        <g id="Grupo_1148809" data-name="Grupo 1148809" transform="translate(31.352)">
          <path id="Trazado_983105" data-name="Trazado 983105" d="M48.028,2.058a9.093,9.093,0,0,0-7.911,7.573q-.049.309-.074.619a9.053,9.053,0,0,0,3.292,7.845,4.251,4.251,0,0,1,1.617,3.275V21.8H53.2v-.437a4.178,4.178,0,0,1,1.584-3.242A9.071,9.071,0,0,0,48.028,2.058Z" transform="translate(-40.005 -1.999)" fill="#ffeaa7"/>
        </g>
        <g id="Grupo_1148810" data-name="Grupo 1148810" transform="translate(41.858 7.425)">
          <path id="Trazado_983106" data-name="Trazado 983106" d="M55.768,11.487a1.613,1.613,0,0,1,.487,1.163A1.655,1.655,0,0,1,54.6,14.3H52.74l.115-1.757A1.65,1.65,0,0,1,54.5,11H54.6A1.613,1.613,0,0,1,55.768,11.487Z" transform="translate(-52.74 -11)" fill="#fcd770"/>
        </g>
        <g id="Grupo_1148811" data-name="Grupo 1148811" transform="translate(35.473 7.425)">
          <path id="Trazado_983107" data-name="Trazado 983107" d="M48.4,12.543l.115,1.757H46.65A1.662,1.662,0,0,1,45,12.65,1.655,1.655,0,0,1,46.65,11h.107A1.65,1.65,0,0,1,48.4,12.543Z" transform="translate(-45 -11)" fill="#fcd770"/>
        </g>
      </g>
      <g id="Grupo_1148813" data-name="Grupo 1148813" transform="translate(1 1.003)">
        <circle id="Elipse_11621" data-name="Elipse 11621" cx="1" cy="1" r="1" transform="translate(21.573 37.572)"/>
        <circle id="Elipse_11622" data-name="Elipse 11622" cx="1" cy="1" r="1" transform="translate(24.573 37.572)"/>
        <circle id="Elipse_11623" data-name="Elipse 11623" cx="1" cy="1" r="1" transform="translate(27.573 37.572)"/>
        <path id="Trazado_983108" data-name="Trazado 983108" d="M48.845,3.519a9.958,9.958,0,0,0-7.734-2.455,9.714,9.714,0,0,0-4.3,1.586H8.425A2.478,2.478,0,0,0,5.95,5.125V10.9H5.125A4.129,4.129,0,0,0,1,15.025V39.773A4.129,4.129,0,0,0,5.125,43.9H19.149v3.3h-.825A4.129,4.129,0,0,0,14.2,51.322v.825H38.948v-.825A4.129,4.129,0,0,0,34.823,47.2H34V43.9H48.022a4.129,4.129,0,0,0,4.125-4.125V10.9a9.917,9.917,0,0,0-3.3-7.381ZM41.294,2.7a8.866,8.866,0,0,1,.964-.054,8.154,8.154,0,0,1,5.487,2.1,8.24,8.24,0,0,1-.311,12.557A5,5,0,0,0,45.569,20.8H43.954l.495-7.425h1.1a2.475,2.475,0,1,0,0-4.95h-.106a2.482,2.482,0,0,0-2.469,2.311l-.066.989H41.589l-.066-.99a2.482,2.482,0,0,0-2.469-2.31h-.106a2.475,2.475,0,1,0,0,4.95h1.1l.495,7.425H38.924a5.105,5.105,0,0,0-1.9-3.521,8.225,8.225,0,0,1-2.927-7.7A8.311,8.311,0,0,1,41.294,2.7ZM7.6,35.648V10.9H32.361a9.814,9.814,0,0,0,3.622,7.656A3.434,3.434,0,0,1,37.3,21.191v1.258a4.942,4.942,0,0,0,8.249,3.679v9.52Zm37.948-13.2a3.3,3.3,0,1,1-6.6,0ZM41.7,13.375h1.1L42.3,20.8h-.106Zm2.86-1.65.059-.879a.828.828,0,0,1,.823-.771h.106a.825.825,0,1,1,0,1.65Zm-4.623,0h-.988a.825.825,0,0,1,0-1.65h.106a.828.828,0,0,1,.823.771ZM8.425,4.3H34.893a9.751,9.751,0,0,0-2.407,4.95H7.6V5.125A.826.826,0,0,1,8.425,4.3Zm-3.3,8.249H5.95v23.1H2.65V15.025A2.478,2.478,0,0,1,5.125,12.55ZM37.157,50.5H15.99a2.48,2.48,0,0,1,2.334-1.65h16.5a2.48,2.48,0,0,1,2.334,1.65Zm-4.809-3.3H20.8V43.9H32.348Zm15.674-4.95H5.125A2.478,2.478,0,0,1,2.65,39.773V37.3H50.5v2.475A2.478,2.478,0,0,1,48.022,42.248Zm2.475-6.6H47.2V21.187a3.347,3.347,0,0,1,1.274-2.6,9.927,9.927,0,0,0,2.026-2.24Z" transform="translate(-1 -1.003)"/>
        <path id="Trazado_983109" data-name="Trazado 983109" d="M11,7h1.65V8.65H11Z" transform="translate(-2.751 -2.053)"/>
        <path id="Trazado_983110" data-name="Trazado 983110" d="M19,7h1.65V8.65H19Z" transform="translate(-4.151 -2.053)"/>
        <path id="Trazado_983111" data-name="Trazado 983111" d="M15,7h1.65V8.65H15Z" transform="translate(-3.451 -2.053)"/>
        <path id="Trazado_983112" data-name="Trazado 983112" d="M11,24.9H24.2V15H11Zm1.65-8.249h9.9v6.6h-9.9Z" transform="translate(-2.751 -3.453)"/>
        <path id="Trazado_983113" data-name="Trazado 983113" d="M11,38.9H24.2V29H11Zm1.65-8.249h9.9v6.6h-9.9Z" transform="translate(-2.751 -5.904)"/>
        <path id="Trazado_983114" data-name="Trazado 983114" d="M17.526,35.01l-1.067-1.067-1.166,1.166,2.233,2.233,3.883-3.883-1.166-1.166Z" transform="translate(-3.502 -6.48)"/>
        <path id="Trazado_983115" data-name="Trazado 983115" d="M17.526,21.01l-1.067-1.067-1.166,1.166,2.233,2.233,3.883-3.883-1.166-1.166Z" transform="translate(-3.502 -4.029)"/>
        <path id="Trazado_983116" data-name="Trazado 983116" d="M29,15h6.6v1.65H29Z" transform="translate(-5.901 -3.453)"/>
        <path id="Trazado_983117" data-name="Trazado 983117" d="M29,19h6.6v1.65H29Z" transform="translate(-5.901 -4.153)"/>
        <path id="Trazado_983118" data-name="Trazado 983118" d="M29,23h6.6v1.65H29Z" transform="translate(-5.901 -4.853)"/>
        <path id="Trazado_983119" data-name="Trazado 983119" d="M42.2,36.9h-1.65V27H35.6v9.9H33.95V30.3H29v8.249H47.149v-6.6H42.2Zm-9.9,0H30.65V31.95H32.3Zm4.95-8.249H38.9V36.9h-1.65Zm6.6,4.95H45.5v3.3h-1.65Z" transform="translate(-5.901 -5.554)"/>
      </g>
    </g>
  </g>
</svg>
