<svg xmlns="http://www.w3.org/2000/svg" xmlns:xlink="http://www.w3.org/1999/xlink" width="108" height="108" viewBox="0 0 108 108">
  <defs>
    <filter id="Trazado_982419" x="0" y="0" width="108" height="108" filterUnits="userSpaceOnUse">
      <feOffset dy="3" input="SourceAlpha"/>
      <feGaussianBlur stdDeviation="3" result="blur"/>
      <feFlood flood-opacity="0.161"/>
      <feComposite operator="in" in2="blur"/>
      <feComposite in="SourceGraphic"/>
    </filter>
  </defs>
  <g id="Grupo_1148785" data-name="Grupo 1148785" transform="translate(-201 -357)">
    <g id="Grupo_1146650" data-name="Grupo 1146650" transform="translate(0 35)">
      <g transform="matrix(1, 0, 0, 1, 201, 322)" filter="url(#Trazado_982419)">
        <g id="Trazado_982419-2" data-name="Trazado 982419" transform="translate(9 6)" fill="#fbecfa">
          <path d="M 45 88.5 C 39.12687683105469 88.5 33.43022537231445 87.35007476806641 28.06830024719238 85.08217620849609 C 22.88852500915527 82.89131164550781 18.23629951477051 79.75458526611328 14.2408504486084 75.75914764404297 C 10.24541282653809 71.76370239257812 7.108687400817871 67.11147308349609 4.917825222015381 61.93170166015625 C 2.649924993515015 56.56977462768555 1.5 50.87312316894531 1.5 45 C 1.5 39.12687683105469 2.649924993515015 33.43022537231445 4.917825222015381 28.06830024719238 C 7.108687400817871 22.88852500915527 10.24541282653809 18.23629951477051 14.2408504486084 14.2408504486084 C 18.23629951477051 10.24541282653809 22.88852500915527 7.108687400817871 28.06830024719238 4.917825222015381 C 33.43022537231445 2.649924993515015 39.12687683105469 1.5 45 1.5 C 50.87312316894531 1.5 56.56977462768555 2.649924993515015 61.93170166015625 4.917825222015381 C 67.11147308349609 7.108687400817871 71.76370239257812 10.24541282653809 75.75914764404297 14.2408504486084 C 79.75458526611328 18.23629951477051 82.89131164550781 22.88852500915527 85.08217620849609 28.06830024719238 C 87.35007476806641 33.43022537231445 88.5 39.12687683105469 88.5 45 C 88.5 50.87312316894531 87.35007476806641 56.56977462768555 85.08217620849609 61.93170166015625 C 82.89131164550781 67.11147308349609 79.75458526611328 71.76370239257812 75.75914764404297 75.75914764404297 C 71.76370239257812 79.75458526611328 67.11147308349609 82.89131164550781 61.93170166015625 85.08217620849609 C 56.56977462768555 87.35007476806641 50.87312316894531 88.5 45 88.5 Z" stroke="none"/>
          <path d="M 45 3 C 39.32871246337891 3 33.82865524291992 4.110054016113281 28.65262985229492 6.299339294433594 C 23.65165710449219 8.414573669433594 19.15968322753906 11.44334411621094 15.301513671875 15.301513671875 C 11.44334411621094 19.15968322753906 8.414573669433594 23.65165710449219 6.299339294433594 28.65262985229492 C 4.110054016113281 33.82865524291992 3 39.32871246337891 3 45 C 3 50.67128753662109 4.110054016113281 56.17134475708008 6.299339294433594 61.34737396240234 C 8.414573669433594 66.34834289550781 11.44334411621094 70.84031677246094 15.301513671875 74.698486328125 C 19.15968322753906 78.55665588378906 23.65165710449219 81.58542633056641 28.65262985229492 83.70066070556641 C 33.82865524291992 85.88994598388672 39.32871246337891 87 45 87 C 50.67128753662109 87 56.17134475708008 85.88994598388672 61.34737396240234 83.70066070556641 C 66.34834289550781 81.58542633056641 70.84031677246094 78.55665588378906 74.698486328125 74.698486328125 C 78.55665588378906 70.84031677246094 81.58542633056641 66.34834289550781 83.70066070556641 61.34737396240234 C 85.88994598388672 56.17134475708008 87 50.67128753662109 87 45 C 87 39.32871246337891 85.88994598388672 33.82865524291992 83.70066070556641 28.65262985229492 C 81.58542633056641 23.65165710449219 78.55665588378906 19.15968322753906 74.698486328125 15.301513671875 C 70.84031677246094 11.44334411621094 66.34834289550781 8.414573669433594 61.34737396240234 6.299339294433594 C 56.17134475708008 4.110054016113281 50.67128753662109 3 45 3 M 45 0 C 69.85281372070312 0 90 20.14718627929688 90 45 C 90 69.85281372070312 69.85281372070312 90 45 90 C 20.14718627929688 90 0 69.85281372070312 0 45 C 0 20.14718627929688 20.14718627929688 0 45 0 Z" stroke="none" fill="#de53d4"/>
        </g>
      </g>
    </g>
    <g id="developing" transform="translate(227.262 380.279)">
      <g id="Grupo_1148783" data-name="Grupo 1148783" transform="translate(1.863 1.741)">
        <g id="Grupo_1148768" data-name="Grupo 1148768" transform="translate(41.401 0)">
          <path id="Trazado_983059" data-name="Trazado 983059" d="M54.313,2l4.313,6.9H56.9V23.563H51.725V8.9H50Z" transform="translate(-50 -2)" fill="#b4dd7f"/>
        </g>
        <g id="Grupo_1148769" data-name="Grupo 1148769" transform="translate(1.725 31.051)">
          <path id="Trazado_983060" data-name="Trazado 983060" d="M8.313,38l4.313,6.9H10.9V59.563H5.725V44.9H4Z" transform="translate(-4 -38)" fill="#b4dd7f"/>
        </g>
        <g id="Grupo_1148770" data-name="Grupo 1148770" transform="translate(31.465 26.359)">
          <path id="Trazado_983061" data-name="Trazado 983061" d="M47.752,35.769a15.6,15.6,0,0,0,1.432-2.958,3.4,3.4,0,0,0,.4.2,3.315,3.315,0,0,0,3.209-.371l.1-.078,3.666,3.666-.078.1a3.341,3.341,0,0,0-.371,3.209,3.335,3.335,0,0,0,2.527,2.01l.129.017V46.74l-.129.026a3.316,3.316,0,0,0-2.156,5.21l.078.1-3.666,3.657-.1-.069a3.341,3.341,0,0,0-3.209-.371,3.335,3.335,0,0,0-2.01,2.527l-.017.129H42.379l-.026-.138a3.308,3.308,0,0,0-2-2.519,3.407,3.407,0,0,0-1.872-.2,6.909,6.909,0,0,0,1.311-4.045,8.626,8.626,0,1,0,7.849-15.1h-.009c.043-.06.086-.121.121-.181Z" transform="translate(-38.48 -32.56)" fill="#ffc729"/>
        </g>
        <g id="Grupo_1148771" data-name="Grupo 1148771">
          <path id="Trazado_983062" data-name="Trazado 983062" d="M11.2,18.905l-.578,4.261c0,.112,0,.233.009.345h-.009A1.658,1.658,0,0,0,9.59,21.976c-.009,0-.009-.009-.017-.009a1.659,1.659,0,0,0-1.811.354l-.647.647L3.458,19.311l.647-.647a1.659,1.659,0,0,0,.354-1.811c0-.009-.009-.009-.009-.017A1.658,1.658,0,0,0,2.914,15.8H2V10.625h.914A1.658,1.658,0,0,0,4.45,9.59c0-.009.009-.009.009-.017A1.659,1.659,0,0,0,4.1,7.762l-.647-.647L7.115,3.458l.647.647a1.659,1.659,0,0,0,1.811.354c.009,0,.009-.009.017-.009a1.658,1.658,0,0,0,1.035-1.535V2H15.8v.914A1.658,1.658,0,0,0,16.835,4.45c.009,0,.009.009.017.009A1.659,1.659,0,0,0,18.664,4.1l.647-.647,3.657,3.657-.647.647a15.787,15.787,0,0,0-4.244,1.889V9.642A6.036,6.036,0,1,0,11.2,18.905Z" transform="translate(-2 -2)" fill="#ffc729"/>
        </g>
        <g id="Grupo_1148772" data-name="Grupo 1148772" transform="translate(5.175 5.175)">
          <path id="Trazado_983063" data-name="Trazado 983063" d="M18.9,10.467v.009a15.746,15.746,0,0,0-2.7,2.139,2.59,2.59,0,1,0-2.9,3.907,15.464,15.464,0,0,0-1.277,3.209A6.037,6.037,0,1,1,18.9,10.467Z" transform="translate(-8 -8)" fill="#fcd770"/>
        </g>
        <g id="Grupo_1148773" data-name="Grupo 1148773" transform="translate(31.051 29.748)">
          <path id="Trazado_983064" data-name="Trazado 983064" d="M39.725,44.693a5.175,5.175,0,1,0,5.356-5.175l-.009-.009a15.481,15.481,0,0,0,2.493-3.019h.009a8.626,8.626,0,1,1-7.849,15.1V50.73a.865.865,0,0,0-.863-.863H38v-3.45h.863a.865.865,0,0,0,.863-.863Z" transform="translate(-38 -36.49)" fill="#fcd770"/>
        </g>
        <g id="Grupo_1148774" data-name="Grupo 1148774" transform="translate(18.975 43.126)">
          <path id="Trazado_983065" data-name="Trazado 983065" d="M37.8,52.863v.863a6.909,6.909,0,0,1-1.311,4.045,7.257,7.257,0,0,1-.707.837A6.9,6.9,0,0,1,24,53.725v-.863A.865.865,0,0,1,24.863,52H36.938A.865.865,0,0,1,37.8,52.863Z" transform="translate(-24 -52)" fill="#aab2bd"/>
        </g>
        <g id="Grupo_1148775" data-name="Grupo 1148775" transform="translate(20.7 39.676)">
          <path id="Trazado_983066" data-name="Trazado 983066" d="M36.35,48v3.45H26V48H36.35Z" transform="translate(-26 -48)" fill="#ccd1d9"/>
        </g>
        <g id="Grupo_1148776" data-name="Grupo 1148776" transform="translate(8.625 5.175)">
          <path id="Trazado_983067" data-name="Trazado 983067" d="M36.15,40.776v.863a.865.865,0,0,1-.863.863H30.975V33.875h-3.45V42.5H23.213a.865.865,0,0,1-.863-.863V32.15H18.9v4.985a15.944,15.944,0,0,1-6.892-12.8C12,24.224,12,24.1,12,23.991l.578-4.261a15.464,15.464,0,0,1,1.277-3.209,15.955,15.955,0,0,1,2.829-3.838l.069-.069A16.143,16.143,0,0,1,23.7,8.587,16.038,16.038,0,0,1,27.991,8H30.51A15.985,15.985,0,0,1,45.543,29.434a15.6,15.6,0,0,1-1.432,2.958c-.035.06-.078.121-.121.181A15.482,15.482,0,0,1,41.5,35.592a14.133,14.133,0,0,1-1.9,1.544V25.25H36.15V40.776Z" transform="translate(-12 -8)" fill="#ffeaa7"/>
        </g>
        <g id="Grupo_1148777" data-name="Grupo 1148777" transform="translate(31.051 12.075)">
          <path id="Trazado_983068" data-name="Trazado 983068" d="M41.45,16A3.452,3.452,0,1,1,38,19.45,3.449,3.449,0,0,1,41.45,16Z" transform="translate(-38 -16)" fill="#ff826e"/>
        </g>
        <g id="Grupo_1148778" data-name="Grupo 1148778" transform="translate(22.425 20.7)">
          <path id="Trazado_983069" data-name="Trazado 983069" d="M33.891,27.009A3.452,3.452,0,1,1,31.45,26,3.472,3.472,0,0,1,33.891,27.009Z" transform="translate(-28 -26)" fill="#ff826e"/>
        </g>
        <g id="Grupo_1148779" data-name="Grupo 1148779" transform="translate(15.525 22.425)">
          <circle id="Elipse_11615" data-name="Elipse 11615" cx="1.725" cy="1.725" r="1.725" fill="#ff826e"/>
        </g>
        <g id="Grupo_1148780" data-name="Grupo 1148780" transform="translate(32.776 22.425)">
          <path id="Trazado_983070" data-name="Trazado 983070" d="M43.45,39.885v.009a15.511,15.511,0,0,1-1.941,1.147L40,41.8V28h3.45Z" transform="translate(-40 -28)" fill="#e6e9ed"/>
        </g>
        <g id="Grupo_1148781" data-name="Grupo 1148781" transform="translate(24.15 31.051)">
          <path id="Trazado_983071" data-name="Trazado 983071" d="M30,38h3.45v8.625H30Z" transform="translate(-30 -38)" fill="#e6e9ed"/>
        </g>
        <g id="Grupo_1148782" data-name="Grupo 1148782" transform="translate(15.525 29.326)">
          <path id="Trazado_983072" data-name="Trazado 983072" d="M23.45,36v6.9l-1.509-.759A15.51,15.51,0,0,1,20,40.994V36Z" transform="translate(-20 -36)" fill="#e6e9ed"/>
        </g>
      </g>
      <g id="Grupo_1148784" data-name="Grupo 1148784" transform="translate(1 0.113)">
        <circle id="Elipse_11616" data-name="Elipse 11616" cx="0.863" cy="0.863" r="0.863" transform="translate(25.875 24.916)"/>
        <path id="Trazado_983073" data-name="Trazado 983073" d="M30.213,32.25a4.306,4.306,0,0,0,3.594-6.687l2.657-2.657a4.325,4.325,0,1,0-1.22-1.22l-2.657,2.657a4.3,4.3,0,0,0-6.6,2.732H24.016a2.588,2.588,0,1,0,0,1.725h1.971A4.321,4.321,0,0,0,30.213,32.25Zm8.625-15.525a2.588,2.588,0,1,1-2.588,2.588A2.591,2.591,0,0,1,38.838,16.725ZM30.213,25.35a2.588,2.588,0,1,1-2.588,2.588A2.591,2.591,0,0,1,30.213,25.35ZM21.588,28.8a.863.863,0,1,1,.863-.863A.863.863,0,0,1,21.588,28.8Z" transform="translate(-3.475 -2.16)"/>
        <circle id="Elipse_11617" data-name="Elipse 11617" cx="0.863" cy="0.863" r="0.863" transform="translate(34.501 16.29)"/>
        <path id="Trazado_983074" data-name="Trazado 983074" d="M2.195,45.5H4.614V60.166h6.9V45.5h2.419l-5.869-9.39Zm7.594-1.725V58.441H6.339V43.778H5.309l2.756-4.41,2.756,4.41Z" transform="translate(-1.164 -5.062)"/>
        <path id="Trazado_983075" data-name="Trazado 983075" d="M53.626,36.232a2.463,2.463,0,0,1-1.6-3.861l.5-.7-4.692-4.693-.7.5a2.434,2.434,0,0,1-2.02.367,16.86,16.86,0,0,0,.688-3.679h5.223V9.5h2.419L47.576.113,41.706,9.5h2.419v6.024A16.858,16.858,0,0,0,29,6.053H26.48a16.9,16.9,0,0,0-2.952.275L19.175,1.975,17.917,3.233a.806.806,0,0,1-.893.159.792.792,0,0,1-.5-.734V.878h-6.9V2.657a.824.824,0,0,1-1.39.575L6.976,1.975,2.1,6.854,3.355,8.113a.8.8,0,0,1,.16.893.8.8,0,0,1-.735.5H1v6.9H2.779a.8.8,0,0,1,.743.521.8.8,0,0,1-.169.87L2.1,19.053l4.878,4.878,1.258-1.258a.806.806,0,0,1,.893-.159.792.792,0,0,1,.5.734h.012a16.754,16.754,0,0,0,9.3,14.734l1.033.517v2.055A1.727,1.727,0,0,0,21.7,42.279V44a1.727,1.727,0,0,0-1.725,1.725v.863a7.757,7.757,0,0,0,13.8,4.864,2.473,2.473,0,0,1,1.093.18A2.437,2.437,0,0,1,36.353,53.5l.143.854h6.637l.139-.849a2.464,2.464,0,0,1,3.862-1.6l.7.5,4.693-4.693-.5-.7a2.464,2.464,0,0,1,1.593-3.863l.854-.141V36.373ZM33.776,44V42.279a1.7,1.7,0,0,0,.544-.1,6.036,6.036,0,1,0,7.406-8.221,16.794,16.794,0,0,0,1.113-1.421A7.762,7.762,0,1,1,35.5,46.14v-.411A1.727,1.727,0,0,0,33.776,44Zm3.45-8.409a15.353,15.353,0,0,1-1.463.844l-.262.131V25.029h1.725ZM35.5,38.5l1.033-.517a17.012,17.012,0,0,0,3.756-2.558,4.3,4.3,0,1,1-4.79,4.267ZM47.576,3.368l2.756,4.41H49.3V22.441h-3.45V7.778H44.82ZM7.015,21.453l-.039.039-2.439-2.44.038-.038a2.548,2.548,0,0,0-1.8-4.335H2.725v-3.45h.054a2.549,2.549,0,0,0,1.8-4.335l-.038-.039,2.439-2.44.039.038A2.548,2.548,0,0,0,11.35,2.657V2.6H14.8v.054a2.549,2.549,0,0,0,4.336,1.8l.039-.039,2.377,2.377a16.729,16.729,0,0,0-3.408,1.486,6.892,6.892,0,1,0-8.08,10.864,16.515,16.515,0,0,0-.309,1.766,2.516,2.516,0,0,0-2.74.544Zm5-7.155a1.713,1.713,0,0,1,1.058-3.07,1.707,1.707,0,0,1,.985.325A16.9,16.9,0,0,0,12.017,14.3ZM15.3,10.326a3.443,3.443,0,1,0-4.1,5.511,16.851,16.851,0,0,0-.656,1.624A5.169,5.169,0,1,1,16.66,9.237,17,17,0,0,0,15.3,10.326Zm4.41,26.114A15.431,15.431,0,0,1,18.25,35.6V31.929h1.725v4.642ZM16.525,30.2v4.1A15.128,15.128,0,0,1,26.48,7.778H29A15.128,15.128,0,0,1,38.951,34.3v-11H33.776v17.25h-3.45V31.929H25.15v8.625H21.7V30.2ZM28.6,40.554H26.875v-6.9H28.6Zm-5.175,1.725h8.625V44H23.425Zm4.313,10.35A6.045,6.045,0,0,1,21.7,46.591v-.863H33.776v.863A6.045,6.045,0,0,1,27.738,52.629ZM52.751,41.591a4.191,4.191,0,0,0-2.444,5.9l-2.689,2.688a4.191,4.191,0,0,0-5.9,2.444h-3.8a4.1,4.1,0,0,0-3.126-2.808,7.7,7.7,0,0,0,.568-1.754,9.393,9.393,0,0,0,4.457,1.114,9.485,9.485,0,0,0,3.941-18.114,16.6,16.6,0,0,0,.766-1.576,4.157,4.157,0,0,0,3.1-.291l2.688,2.688a4.191,4.191,0,0,0,2.445,5.9Z" transform="translate(-1 -0.113)"/>
      </g>
    </g>
  </g>
</svg>
