<svg xmlns="http://www.w3.org/2000/svg" xmlns:xlink="http://www.w3.org/1999/xlink" width="108" height="108" viewBox="0 0 108 108">
  <defs>
    <filter id="Trazado_982419" x="0" y="0" width="108" height="108" filterUnits="userSpaceOnUse">
      <feOffset dy="3" input="SourceAlpha"/>
      <feGaussianBlur stdDeviation="3" result="blur"/>
      <feFlood flood-opacity="0.161"/>
      <feComposite operator="in" in2="blur"/>
      <feComposite in="SourceGraphic"/>
    </filter>
  </defs>
  <g id="Grupo_1148788" data-name="Grupo 1148788" transform="translate(-201 -3704)">
    <g id="Grupo_1148559" data-name="Grupo 1148559" transform="translate(0 3382)">
      <g transform="matrix(1, 0, 0, 1, 201, 322)" filter="url(#Trazado_982419)">
        <g id="Trazado_982419-2" data-name="Trazado 982419" transform="translate(9 6)" fill="#fffbe9">
          <path d="M 45 88.5 C 39.12687683105469 88.5 33.43022537231445 87.35007476806641 28.06830024719238 85.08217620849609 C 22.88852500915527 82.89131164550781 18.23629951477051 79.75458526611328 14.2408504486084 75.75914764404297 C 10.24541282653809 71.76370239257812 7.108687400817871 67.11147308349609 4.917825222015381 61.93170166015625 C 2.649924993515015 56.56977462768555 1.5 50.87312316894531 1.5 45 C 1.5 39.12687683105469 2.649924993515015 33.43022537231445 4.917825222015381 28.06830024719238 C 7.108687400817871 22.88852500915527 10.24541282653809 18.23629951477051 14.2408504486084 14.2408504486084 C 18.23629951477051 10.24541282653809 22.88852500915527 7.108687400817871 28.06830024719238 4.917825222015381 C 33.43022537231445 2.649924993515015 39.12687683105469 1.5 45 1.5 C 50.87312316894531 1.5 56.56977462768555 2.649924993515015 61.93170166015625 4.917825222015381 C 67.11147308349609 7.108687400817871 71.76370239257812 10.24541282653809 75.75914764404297 14.2408504486084 C 79.75458526611328 18.23629951477051 82.89131164550781 22.88852500915527 85.08217620849609 28.06830024719238 C 87.35007476806641 33.43022537231445 88.5 39.12687683105469 88.5 45 C 88.5 50.87312316894531 87.35007476806641 56.56977462768555 85.08217620849609 61.93170166015625 C 82.89131164550781 67.11147308349609 79.75458526611328 71.76370239257812 75.75914764404297 75.75914764404297 C 71.76370239257812 79.75458526611328 67.11147308349609 82.89131164550781 61.93170166015625 85.08217620849609 C 56.56977462768555 87.35007476806641 50.87312316894531 88.5 45 88.5 Z" stroke="none"/>
          <path d="M 45 3 C 39.32871246337891 3 33.82865524291992 4.110054016113281 28.65262985229492 6.299339294433594 C 23.65165710449219 8.414573669433594 19.15968322753906 11.44334411621094 15.301513671875 15.301513671875 C 11.44334411621094 19.15968322753906 8.414573669433594 23.65165710449219 6.299339294433594 28.65262985229492 C 4.110054016113281 33.82865524291992 3 39.32871246337891 3 45 C 3 50.67128753662109 4.110054016113281 56.17134475708008 6.299339294433594 61.34737396240234 C 8.414573669433594 66.34834289550781 11.44334411621094 70.84031677246094 15.301513671875 74.698486328125 C 19.15968322753906 78.55665588378906 23.65165710449219 81.58542633056641 28.65262985229492 83.70066070556641 C 33.82865524291992 85.88994598388672 39.32871246337891 87 45 87 C 50.67128753662109 87 56.17134475708008 85.88994598388672 61.34737396240234 83.70066070556641 C 66.34834289550781 81.58542633056641 70.84031677246094 78.55665588378906 74.698486328125 74.698486328125 C 78.55665588378906 70.84031677246094 81.58542633056641 66.34834289550781 83.70066070556641 61.34737396240234 C 85.88994598388672 56.17134475708008 87 50.67128753662109 87 45 C 87 39.32871246337891 85.88994598388672 33.82865524291992 83.70066070556641 28.65262985229492 C 81.58542633056641 23.65165710449219 78.55665588378906 19.15968322753906 74.698486328125 15.301513671875 C 70.84031677246094 11.44334411621094 66.34834289550781 8.414573669433594 61.34737396240234 6.299339294433594 C 56.17134475708008 4.110054016113281 50.67128753662109 3 45 3 M 45 0 C 69.85281372070312 0 90 20.14718627929688 90 45 C 90 69.85281372070312 69.85281372070312 90 45 90 C 20.14718627929688 90 0 69.85281372070312 0 45 C 0 20.14718627929688 20.14718627929688 0 45 0 Z" stroke="none" fill="#ffde33"/>
        </g>
      </g>
    </g>
    <g id="brain-process_17527814" transform="translate(219.321 3719.324)">
      <g id="Grupo_1148786" data-name="Grupo 1148786" transform="translate(13.453 13.445)">
        <path id="Trazado_983076" data-name="Trazado 983076" d="M123.493,136.614a18.393,18.393,0,0,0,4.588-1.9,1.1,1.1,0,0,1,1.082-.031l2.674,1.358a1.112,1.112,0,0,0,1.312-.208l2.711-2.711a1.113,1.113,0,0,0,.208-1.312l-1.362-2.67a1.108,1.108,0,0,1,.031-1.086,18.378,18.378,0,0,0,1.9-4.588,1.1,1.1,0,0,1,.744-.786l2.849-.928a1.117,1.117,0,0,0,.782-1.073v-3.832a1.121,1.121,0,0,0-.782-1.078l-2.849-.924a1.106,1.106,0,0,1-.744-.79,18.391,18.391,0,0,0-1.9-4.588,1.1,1.1,0,0,1-.031-1.082l1.362-2.674a1.112,1.112,0,0,0-.208-1.312l-2.711-2.711a1.121,1.121,0,0,0-1.312-.208l-2.674,1.362a1.1,1.1,0,0,1-1.082-.031,18.444,18.444,0,0,0-4.588-1.9,1.106,1.106,0,0,1-.79-.744l-.924-2.849a1.121,1.121,0,0,0-1.073-.782H116.87a1.116,1.116,0,0,0-1.073.782l-.928,2.849a1.1,1.1,0,0,1-.786.744,18.349,18.349,0,0,0-4.588,1.9,1.108,1.108,0,0,1-1.086.031l-2.67-1.362a1.117,1.117,0,0,0-1.312.208l-2.711,2.711a1.115,1.115,0,0,0-.208,1.312l1.362,2.674a1.1,1.1,0,0,1-.035,1.082,18.277,18.277,0,0,0-1.9,4.588,1.111,1.111,0,0,1-.744.79l-2.849.924a1.116,1.116,0,0,0-.782,1.078v3.832a1.11,1.11,0,0,0,.782,1.073l2.849.928a1.1,1.1,0,0,1,.74.786,18.349,18.349,0,0,0,1.9,4.588,1.108,1.108,0,0,1,.035,1.086l-1.362,2.67a1.11,1.11,0,0,0,.208,1.312l2.711,2.711a1.113,1.113,0,0,0,1.312.208l2.67-1.358a1.108,1.108,0,0,1,1.086.031,18.38,18.38,0,0,0,4.588,1.9,1.093,1.093,0,0,1,.786.744l.928,2.847a1.112,1.112,0,0,0,1.073.782H120.7a1.114,1.114,0,0,0,1.073-.782l.924-2.847A1.1,1.1,0,0,1,123.493,136.614Z" transform="translate(-96.56 -96.53)" fill="#2f5274" fill-rule="evenodd"/>
        <path id="Trazado_983077" data-name="Trazado 983077" d="M159.46,172.994a4.3,4.3,0,0,1,2.317-4.119,3.833,3.833,0,0,1,4.914-5.152,3.152,3.152,0,0,1-.153-.981,3.191,3.191,0,0,1,6.382,0v20.505a3.191,3.191,0,1,1-6.229-.981,3.777,3.777,0,0,1-1.43.276,3.828,3.828,0,0,1-3.484-5.424A4.3,4.3,0,0,1,159.46,172.994Z" transform="translate(-150.691 -150.765)" fill="#ff4646" fill-rule="evenodd"/>
        <path id="Trazado_983078" data-name="Trazado 983078" d="M269.465,172.994a4.292,4.292,0,0,0-2.317-4.119,3.78,3.78,0,0,0,.348-1.6,3.831,3.831,0,0,0-5.258-3.556,3.152,3.152,0,0,0,.153-.981,3.191,3.191,0,0,0-6.382,0v20.505a3.191,3.191,0,1,0,6.229-.981,3.777,3.777,0,0,0,1.43.276,3.829,3.829,0,0,0,3.828-3.828,3.76,3.76,0,0,0-.349-1.6A4.293,4.293,0,0,0,269.465,172.994Z" transform="translate(-233.782 -150.765)" fill="#ff4646" fill-rule="evenodd"/>
      </g>
      <g id="Grupo_1148787" data-name="Grupo 1148787" transform="translate(-0.009 -0.014)">
        <path id="Trazado_983079" data-name="Trazado 983079" d="M39.83,58.157l.956-2.943c.006-.018.01-.025.008-.024a.069.069,0,0,1,.022-.008h.006a20.049,20.049,0,0,0,5.013-2.08c.015-.008.024-.01.024-.011a.1.1,0,0,1,.025.01l2.759,1.407a2.282,2.282,0,0,0,2.651-.422l2.8-2.8a2.276,2.276,0,0,0,.418-2.651L53.1,45.876c-.006-.011-.007-.018-.008-.018a.194.194,0,0,1,.014-.029,19.915,19.915,0,0,0,2.073-5.006.132.132,0,0,1,.013-.032.114.114,0,0,1,.025-.011l2.937-.955a2.273,2.273,0,0,0,1.579-2.169V33.7a2.285,2.285,0,0,0-1.578-2.172l-2.932-.949a.114.114,0,0,1-.033-.015.1.1,0,0,1-.01-.021A20.014,20.014,0,0,0,53.1,25.51a.079.079,0,0,1-.008-.017.177.177,0,0,1,.008-.022l1.408-2.756a2.279,2.279,0,0,0-.42-2.651l-2.8-2.8a2.278,2.278,0,0,0-2.651-.422L45.883,18.25a.034.034,0,0,1-.047,0,20.079,20.079,0,0,0-5.019-2.081l-.02-.006a.074.074,0,0,1-.011-.024L39.831,13.2a2.275,2.275,0,0,0-2.173-1.579H33.7A2.273,2.273,0,0,0,31.531,13.2l-.956,2.943a.083.083,0,0,1-.011.024.192.192,0,0,1-.026.01A20.022,20.022,0,0,0,25.53,18.25a.083.083,0,0,1-.029.013.071.071,0,0,1-.024-.01l-2.759-1.407a2.282,2.282,0,0,0-2.651.422l-2.8,2.8a2.278,2.278,0,0,0-.418,2.651l1.4,2.752a.1.1,0,0,1,.011.028.07.07,0,0,1-.011.025,20.142,20.142,0,0,0-2.08,5.019c0,.014-.007.021-.007.021a.062.062,0,0,1-.024.011l-2.947.955A2.284,2.284,0,0,0,11.621,33.7v3.959A2.271,2.271,0,0,0,13.2,39.826l2.939.956a.083.083,0,0,1,.024.011.192.192,0,0,1,.01.026,20.06,20.06,0,0,0,2.077,5.007.267.267,0,0,1,.014.029.086.086,0,0,1-.01.025l-1.4,2.759a2.276,2.276,0,0,0,.42,2.65l2.8,2.8a2.28,2.28,0,0,0,2.651.422L25.477,53.1c.013-.007.021-.008.021-.01a.083.083,0,0,1,.025.01,20.091,20.091,0,0,0,5.017,2.081.1.1,0,0,1,.022.008.121.121,0,0,1,.011.024l.956,2.944A2.278,2.278,0,0,0,33.7,59.737h3.955a2.282,2.282,0,0,0,2.173-1.579Zm-6.177-.69L32.7,54.522a2.243,2.243,0,0,0-1.591-1.5,17.845,17.845,0,0,1-4.46-1.851,2.248,2.248,0,0,0-2.183-.06l-2.757,1.407c-.021.011-.033.015-.06-.011l-2.8-2.8c-.018-.018-.024-.028-.008-.06l1.4-2.756a2.253,2.253,0,0,0-.061-2.189,17.876,17.876,0,0,1-1.847-4.451,2.243,2.243,0,0,0-1.5-1.595L13.889,37.7c-.029-.01-.032-.014-.032-.045V33.7c0-.024,0-.038.033-.049l2.948-.955A2.249,2.249,0,0,0,18.332,31.1a17.91,17.91,0,0,1,1.849-4.46,2.252,2.252,0,0,0,.063-2.189l-1.4-2.753c-.017-.032-.011-.042.008-.06l2.8-2.8c.026-.026.039-.022.059-.013l2.757,1.407a2.248,2.248,0,0,0,2.19-.063A17.785,17.785,0,0,1,31.1,18.328a2.242,2.242,0,0,0,1.595-1.5l.956-2.946c.007-.022.013-.032.047-.032h3.955c.036,0,.04.01.049.035l.956,2.946a2.237,2.237,0,0,0,1.591,1.5,17.848,17.848,0,0,1,4.455,1.849,2.245,2.245,0,0,0,2.189.063l2.757-1.407c.021-.011.033-.015.06.011l2.8,2.8c.018.018.024.028.008.059l-1.409,2.759a2.233,2.233,0,0,0,.067,2.183,17.806,17.806,0,0,1,1.847,4.468,2.274,2.274,0,0,0,1.5,1.585l2.933.951c.04.013.04.026.04.05v3.959c0,.028,0,.035-.035.045l-2.939.956a2.257,2.257,0,0,0-1.507,1.595,17.694,17.694,0,0,1-1.842,4.45,2.237,2.237,0,0,0-.068,2.191L52.52,49.65c.017.032.011.04-.008.06l-2.8,2.8c-.026.026-.039.022-.059.013L46.9,51.113a2.241,2.241,0,0,0-2.19.063,17.868,17.868,0,0,1-4.451,1.847,2.24,2.24,0,0,0-1.595,1.5l-.956,2.944a.042.042,0,0,1-.049.035H33.7a.047.047,0,0,1-.049-.038ZM30.594,38.985a1.116,1.116,0,0,1-1.043.715,1.088,1.088,0,0,1-.4-.075A4.118,4.118,0,0,1,26.8,35.674a4.109,4.109,0,0,1,2.356-3.952,1.116,1.116,0,0,1,.793,2.087,1.978,1.978,0,0,0-.917,1.865,1.985,1.985,0,0,0,.92,1.867,1.118,1.118,0,0,1,.643,1.444ZM4.1,28.764A32.324,32.324,0,0,1,32.964,3.473L31.294,1.92A1.117,1.117,0,0,1,32.815.285l3.623,3.371A1.115,1.115,0,0,1,36.5,5.232L33.128,8.857a1.117,1.117,0,1,1-1.637-1.52l1.514-1.63A29.977,29.977,0,0,0,6.285,29.239a1.117,1.117,0,0,1-1.09.88,1.077,1.077,0,0,1-.238-.026A1.118,1.118,0,0,1,4.1,28.764ZM30.094,66.4a1.117,1.117,0,0,1-1.09.88,1.077,1.077,0,0,1-.238-.026,32.456,32.456,0,0,1-17.8-10.744A31.93,31.93,0,0,1,3.474,38.391L1.925,40.059a1.117,1.117,0,0,1-1.637-1.52l3.367-3.623a1.116,1.116,0,0,1,1.578-.057L8.861,38.23a1.117,1.117,0,0,1-1.52,1.637l-1.63-1.514A30.028,30.028,0,0,0,29.239,65.071,1.112,1.112,0,0,1,30.094,66.4ZM67.255,42.587A32.334,32.334,0,0,1,38.394,67.878l1.671,1.553a1.117,1.117,0,1,1-1.52,1.637L34.918,67.7a1.116,1.116,0,0,1-.057-1.578L38.232,62.5a1.117,1.117,0,0,1,1.635,1.521l-1.515,1.628A29.99,29.99,0,0,0,65.076,42.113a1.115,1.115,0,1,1,2.179.474ZM42.326,35.676a1.979,1.979,0,0,0-.917-1.865,1.116,1.116,0,0,1,.795-2.085,4.11,4.11,0,0,1,2.355,3.952,4.119,4.119,0,0,1-2.352,3.951,1.129,1.129,0,0,1-.4.075,1.116,1.116,0,0,1-.4-2.158,1.993,1.993,0,0,0,.921-1.869Zm28.741-2.863L67.7,36.435a1.118,1.118,0,0,1-1.578.057L62.5,33.122a1.117,1.117,0,0,1,1.521-1.635l1.632,1.52A29.981,29.981,0,0,0,42.113,6.283,1.116,1.116,0,0,1,42.589,4.1,32.321,32.321,0,0,1,67.882,32.957l1.55-1.666a1.117,1.117,0,1,1,1.635,1.521Zm-27.7,13.83c.072,0,.144,0,.216,0a5.078,5.078,0,0,0,4.942-6.2,5.892,5.892,0,0,0,2.157-4.772A5.888,5.888,0,0,0,48.527,30.9a5.078,5.078,0,0,0-4.942-6.2c-.072,0-.145,0-.216,0a4.41,4.41,0,0,0-7.691-2.546,4.408,4.408,0,0,0-7.688,2.546c-.072,0-.144,0-.216,0A5.076,5.076,0,0,0,22.7,29.772a5.011,5.011,0,0,0,.127,1.131,5.9,5.9,0,0,0-2.158,4.773,5.894,5.894,0,0,0,2.159,4.775,5.065,5.065,0,0,0,4.943,6.2c.072,0,.144,0,.216,0a4.409,4.409,0,0,0,7.688,2.543,4.411,4.411,0,0,0,7.691-2.544Zm-8.808-.385a2.177,2.177,0,1,1-4.271-.592,2.2,2.2,0,0,1,1.444-1.487,1.116,1.116,0,0,0-.671-2.129,4.461,4.461,0,0,0-2.647,2.29,2.827,2.827,0,0,1-3.481-2.763,2.867,2.867,0,0,1,.259-1.185,1.116,1.116,0,0,0-.619-1.506A3.361,3.361,0,0,1,22.9,35.677a3.361,3.361,0,0,1,1.671-3.209,1.116,1.116,0,0,0,.619-1.506,2.831,2.831,0,0,1,3.223-3.947,4.435,4.435,0,0,0,2.65,2.288,1.1,1.1,0,0,0,.332.05,1.117,1.117,0,0,0,.33-2.183,2.185,2.185,0,0,1-1.447-1.508s0,0,0,0a2.2,2.2,0,0,1-.075-.565,2.177,2.177,0,1,1,4.354,0V46.258Zm2.232,0V25.093a2.179,2.179,0,1,1,4.283.563s0,0,0,.006a2.188,2.188,0,0,1-1.447,1.508,1.117,1.117,0,0,0,.33,2.183,1.141,1.141,0,0,0,.332-.05,4.439,4.439,0,0,0,2.65-2.288,2.824,2.824,0,0,1,3.478,2.759,2.8,2.8,0,0,1-.255,1.182,1.116,1.116,0,0,0,.615,1.514,3.389,3.389,0,0,1,1.671,3.208,3.39,3.39,0,0,1-1.671,3.209,1.116,1.116,0,0,0-.615,1.514,2.767,2.767,0,0,1,.255,1.178,2.823,2.823,0,0,1-3.477,2.763,4.461,4.461,0,0,0-2.647-2.29,1.116,1.116,0,1,0-.671,2.129,2.2,2.2,0,0,1,1.446,1.492,2.178,2.178,0,1,1-4.276.586Z" transform="translate(0.009 0.014)"/>
      </g>
    </g>
  </g>
</svg>
