<svg xmlns="http://www.w3.org/2000/svg" xmlns:xlink="http://www.w3.org/1999/xlink" width="493" height="487" viewBox="0 0 493 487">
  <defs>
    <clipPath id="clip-path">
      <rect id="Rectángulo_407887" data-name="Rectángulo 407887" width="493" height="487" transform="translate(915.342 267.481)" fill="#fff" stroke="#707070" stroke-width="1"/>
    </clipPath>
    <clipPath id="clip-path-2">
      <rect id="Rectángulo_407883" data-name="Rectángulo 407883" width="12.303" height="12.303" fill="none"/>
    </clipPath>
    <clipPath id="clip-path-3">
      <rect id="Rectángulo_407884" data-name="Rectángulo 407884" width="6.754" height="15.185" fill="none"/>
    </clipPath>
  </defs>
  <g id="_1" data-name="1" transform="translate(-915.342 -267.481)" clip-path="url(#clip-path)">
    <g id="Grupo_1149004" data-name="Grupo 1149004" transform="translate(897.71 252.295)">
      <g id="Grupo_1148993" data-name="Grupo 1148993" transform="translate(0 0)">
        <g id="Grupo_1149002" data-name="Grupo 1149002">
          <g id="Grupo_1149003" data-name="Grupo 1149003">
            <path id="Trazado_987939" data-name="Trazado 987939" d="M493.141,354.39c-30.663,120.628-175.025,186.159-250.7,63.206-50.668-82.162-97.955-76.562-164.089-128.317C-35.567,181.268,60.111,11.728,208.081,20.4c172.192.983,334.521,156.025,285.06,333.989" transform="translate(1.149 0.82)" fill="#d9eff8"/>
            <path id="Trazado_987940" data-name="Trazado 987940" d="M411.289,407.332l-49.282-44.539-24.32,22.914-11.036-11.713,35.127-33.1,47.088,42.554,37.969-51.68L459.8,341.3Z" transform="translate(13.336 13.545)" fill="#de53d4"/>
            <path id="Trazado_987941" data-name="Trazado 987941" d="M460.737,352.466l4.051-36.685-33.8,14.83Z" transform="translate(17.596 12.892)" fill="#de53d4"/>
            <path id="Trazado_987942" data-name="Trazado 987942" d="M326.314,96.828v49.79a19.519,19.519,0,0,1-19.461,19.462H268.188l5.3,23.4-35.307-23.4h-54.7a19.52,19.52,0,0,1-19.462-19.462V96.828A19.52,19.52,0,0,1,183.48,77.366H306.853a19.519,19.519,0,0,1,19.461,19.462" transform="translate(6.696 3.159)" fill="#26617a"/>
            <path id="Trazado_987943" data-name="Trazado 987943" d="M314.139,96.35H177.223a1.089,1.089,0,0,1-1.086-1.085v-.881a1.089,1.089,0,0,1,1.086-1.086H314.139a1.088,1.088,0,0,1,1.085,1.086v.881a1.088,1.088,0,0,1-1.085,1.085" transform="translate(7.191 3.809)" fill="#fff"/>
            <path id="Trazado_987944" data-name="Trazado 987944" d="M314.928,108.595H178.012a1.089,1.089,0,0,1-1.086-1.085v-.879a1.089,1.089,0,0,1,1.086-1.087H314.928a1.088,1.088,0,0,1,1.084,1.087v.879a1.088,1.088,0,0,1-1.084,1.085" transform="translate(7.223 4.309)" fill="#fff"/>
            <path id="Trazado_987945" data-name="Trazado 987945" d="M269.143,122.564H177.223a1.089,1.089,0,0,1-1.086-1.085V120.6a1.089,1.089,0,0,1,1.086-1.086h91.921a1.087,1.087,0,0,1,1.083,1.086v.881a1.087,1.087,0,0,1-1.083,1.085" transform="translate(7.191 4.879)" fill="#fff"/>
            <path id="Trazado_987946" data-name="Trazado 987946" d="M276.377,417.818H49.5a.731.731,0,0,1-.732-.732V254.8a.731.731,0,0,1,.732-.732H276.377a.731.731,0,0,1,.732.732V417.086a.731.731,0,0,1-.732.732M50.232,416.355H275.645V255.532H50.232Z" transform="translate(1.991 10.373)" fill="#19203f"/>
            <path id="Trazado_988089" data-name="Trazado 988089" d="M0,0H86.232V86.232H0Z" transform="translate(60.965 333.888)" fill="#de53d4"/>
            <path id="Trazado_987947" data-name="Trazado 987947" d="M83.564,337.506v53.871L129.7,362.343Z" transform="translate(3.412 13.779)" fill="#fff"/>
            <rect id="Rectángulo_407879" data-name="Rectángulo 407879" width="50.275" height="50.275" transform="translate(152.795 369.845)" fill="#46b2e0"/>
            <path id="Trazado_988088" data-name="Trazado 988088" d="M0,0H50.275V50.275H0Z" transform="translate(61.839 277.19)" fill="#46b2e0"/>
            <path id="Trazado_987948" data-name="Trazado 987948" d="M438.785,123.909a52.9,52.9,0,0,1-2.939,17.252l-50.458-16.675,50.418-18.417a53.07,53.07,0,0,1,2.98,17.841" transform="translate(15.734 4.33)" fill="#26617a"/>
            <path id="Trazado_987949" data-name="Trazado 987949" d="M437.941,142.564a53.39,53.39,0,1,1-50.217-70.87l-.241,54.195Z" transform="translate(13.64 2.927)" fill="#ffde33"/>
            <path id="Trazado_987950" data-name="Trazado 987950" d="M435.807,107.47l-50.418,18.418.242-54.195a53.4,53.4,0,0,1,50.176,35.776" transform="translate(15.734 2.927)" fill="#a4bfea"/>
            <path id="Trazado_987951" data-name="Trazado 987951" d="M124.613,190.336a5.212,5.212,0,0,1-5.2,5.187H106.181V208.95a5.194,5.194,0,1,1-10.389,0V195.524H82.563a5.194,5.194,0,0,1,0-10.388h13.23V172.1a5.194,5.194,0,0,1,10.389,0v13.035h13.231a5.224,5.224,0,0,1,5.2,5.2" transform="translate(3.158 6.814)" fill="#26617a"/>
            <path id="Trazado_987952" data-name="Trazado 987952" d="M76.05,173.947a4.051,4.051,0,0,1-4.043,4.032H61.726v10.434a4.037,4.037,0,1,1-8.074,0V177.98H43.37a4.037,4.037,0,0,1,0-8.075H53.652v-10.13a4.037,4.037,0,0,1,8.074,0V169.9H72.008a4.06,4.06,0,0,1,4.043,4.043" transform="translate(1.606 6.358)" fill="#de53d4"/>
            <path id="Trazado_987953" data-name="Trazado 987953" d="M76.05,218.222a4.051,4.051,0,0,1-4.043,4.032H61.726v10.434a4.037,4.037,0,1,1-8.074,0V222.255H43.37a4.037,4.037,0,0,1,0-8.075H53.652V204.05a4.037,4.037,0,0,1,8.074,0v10.13H72.008a4.06,4.06,0,0,1,4.043,4.043" transform="translate(1.606 8.166)" fill="#de53d4"/>
            <rect id="Rectángulo_407881" data-name="Rectángulo 407881" width="520.413" height="685.387" fill="none"/>
          </g>
        </g>
      </g>
      <g id="Grupo_1149001" data-name="Grupo 1149001" transform="translate(0 0)">
        <path id="Trazado_987954" data-name="Trazado 987954" d="M412.361,558.037a72.774,72.774,0,0,1-15.89-1.785.882.882,0,0,1-.665-1.054l2.16-9.531a60.291,60.291,0,0,1-15.662-6.187l-4.944,8.432a.881.881,0,0,1-1.2.317A72.468,72.468,0,0,1,352.939,526.5a.874.874,0,0,1-.138-.662.884.884,0,0,1,.371-.566l8.092-5.486A60.551,60.551,0,0,1,352.99,500.7l-9.533,2.161a.881.881,0,0,1-1.054-.666,71.676,71.676,0,0,1,0-31.793.881.881,0,0,1,1.054-.666l9.532,2.16a60.492,60.492,0,0,1,6.186-15.66l-8.431-4.936a.883.883,0,0,1-.317-1.2,72.354,72.354,0,0,1,21.725-23.218.884.884,0,0,1,1.227.233l5.486,8.092a60.4,60.4,0,0,1,19.1-8.275l-2.16-9.532a.881.881,0,0,1,.665-1.053,71.3,71.3,0,0,1,31.786,0,.883.883,0,0,1,.665,1.054l-2.161,9.532a60.474,60.474,0,0,1,15.661,6.186l4.936-8.431a.881.881,0,0,1,1.2-.318A72.276,72.276,0,0,1,471.78,446.08a.882.882,0,0,1-.234,1.228l-8.1,5.486a60.553,60.553,0,0,1,8.284,19.1l9.532-2.161a.883.883,0,0,1,1.054.665,71.362,71.362,0,0,1,0,31.8.884.884,0,0,1-1.054.665L471.73,500.7a60.257,60.257,0,0,1-6.187,15.654l8.432,4.944a.88.88,0,0,1,.316,1.2,72.417,72.417,0,0,1-21.716,23.218.894.894,0,0,1-.662.139.876.876,0,0,1-.565-.372l-5.487-8.1a60.567,60.567,0,0,1-19.1,8.284l2.162,9.532a.88.88,0,0,1-.667,1.054,72.888,72.888,0,0,1-15.893,1.785m-14.639-3.315a69.82,69.82,0,0,0,29.283,0l-2.158-9.52a.883.883,0,0,1,.666-1.054,58.838,58.838,0,0,0,20.093-8.714.881.881,0,0,1,1.224.236l5.478,8.087a70.687,70.687,0,0,0,20.013-21.386l-8.424-4.94a.879.879,0,0,1-.314-1.206,58.508,58.508,0,0,0,6.627-16.773.877.877,0,0,1,.389-.553.9.9,0,0,1,.665-.114l9.521,2.159a69.532,69.532,0,0,0,0-29.294l-9.521,2.159a.882.882,0,0,1-1.054-.665,58.831,58.831,0,0,0-8.714-20.093.882.882,0,0,1,.236-1.224l8.088-5.478a70.558,70.558,0,0,0-21.387-20.012l-4.93,8.423a.883.883,0,0,1-1.206.316,58.692,58.692,0,0,0-16.782-6.628.881.881,0,0,1-.667-1.055l2.159-9.522a69.485,69.485,0,0,0-29.284,0l2.158,9.522a.882.882,0,0,1-.666,1.055,58.636,58.636,0,0,0-20.092,8.7.881.881,0,0,1-1.224-.235l-5.479-8.08a70.638,70.638,0,0,0-20.02,21.386l8.423,4.933a.883.883,0,0,1,.316,1.206,58.67,58.67,0,0,0-6.628,16.781.882.882,0,0,1-1.055.666l-9.519-2.158a69.82,69.82,0,0,0,0,29.292l9.52-2.158a.883.883,0,0,1,1.055.666,58.817,58.817,0,0,0,8.7,20.085.882.882,0,0,1-.235,1.224l-8.079,5.478a70.75,70.75,0,0,0,21.386,20.021l4.941-8.424a.879.879,0,0,1,1.206-.314,58.473,58.473,0,0,0,16.781,6.627.882.882,0,0,1,.666,1.054Zm14.549-20.649a46.323,46.323,0,1,1,46.323-46.323,46.375,46.375,0,0,1-46.323,46.323m0-90.882a44.559,44.559,0,1,0,44.559,44.559,44.609,44.609,0,0,0-44.559-44.559" transform="translate(13.906 16.925)" fill="#46b2e0"/>
        <path id="Trazado_987955" data-name="Trazado 987955" d="M131.649,438.186a26.381,26.381,0,0,1-1.063,7.064.457.457,0,0,1-.252.308.5.5,0,0,1-.4.046l-4.081-1.246a19.281,19.281,0,0,1-3.246,5.91l3.235,2.754a.54.54,0,0,1,.183.366.5.5,0,0,1-.126.377,24.067,24.067,0,0,1-11.91,7.59.525.525,0,0,1-.64-.365l-1.131-4.1a19.451,19.451,0,0,1-8.4.195l-.948,4.137a.511.511,0,0,1-.24.332.48.48,0,0,1-.274.08.572.572,0,0,1-.137-.023l-1.691-.435c-.469-.159-.9-.319-1.326-.468l-.378-.137a12.977,12.977,0,0,1-1.3-.56l-.606-.3a14.154,14.154,0,0,1-1.348-.72,23.627,23.627,0,0,1-5.556-4.435.519.519,0,0,1-.136-.377.53.53,0,0,1,.171-.378l3.1-2.88a19.207,19.207,0,0,1-3.5-5.772l-4,1.429a.536.536,0,0,1-.674-.321l-.3-.835c-.057-.194-.1-.377-.16-.56-.023-.1-.046-.205-.08-.32-.046-.206-.1-.388-.148-.583-.1-.378-.206-.766-.275-1.166l-.263-1.75a8.786,8.786,0,0,1-.1-1.223c-.011-.182-.023-.365-.034-.56l-.034-.891a4.1,4.1,0,0,1,.011-.652c0-.092.011-.172.011-.263.023-.594.056-1.177.091-1.76l.092-.594a21.189,21.189,0,0,1,.571-2.96.534.534,0,0,1,.64-.366l4.1,1.075a19.413,19.413,0,0,1,4.046-7.385l-3.1-2.88a.529.529,0,0,1-.171-.378.519.519,0,0,1,.136-.377,23.358,23.358,0,0,1,5.589-4.446,12.267,12.267,0,0,1,1.315-.709l.606-.3a13.8,13.8,0,0,1,1.326-.56l.366-.137c.423-.149.845-.309,1.28-.457l1.726-.447a.565.565,0,0,1,.411.057.54.54,0,0,1,.24.332l.948,4.137a19.4,19.4,0,0,1,6.745-.137l.765-4.183a.526.526,0,0,1,.218-.342.5.5,0,0,1,.4-.08,23.944,23.944,0,0,1,6.767,2.32,25.168,25.168,0,0,1,5.76,4.183.58.58,0,0,1,.149.378.481.481,0,0,1-.149.377l-2.983,3.029a19.323,19.323,0,0,1,4.366,7.19l4.081-1.257a.546.546,0,0,1,.4.046.457.457,0,0,1,.252.308,26.365,26.365,0,0,1,1.063,7.053" transform="translate(3.412 16.925)" fill="#46b2e0"/>
        <path id="Trazado_987956" data-name="Trazado 987956" d="M155.381,486.857a.777.777,0,0,1-.182-.021l-2.341-.6c-.642-.218-1.226-.434-1.809-.649l-.534-.195a14.986,14.986,0,0,1-1.791-.769l-.844-.408a17.363,17.363,0,0,1-1.856-.994,32.216,32.216,0,0,1-7.651-6.11.73.73,0,0,1,.034-1.031l4.28-3.981a26.27,26.27,0,0,1-4.827-7.948l-5.51,1.961a.728.728,0,0,1-.928-.442l-.407-1.14c-.087-.272-.154-.523-.219-.777-.038-.144-.076-.288-.116-.433-.07-.29-.138-.549-.206-.81-.136-.517-.275-1.054-.377-1.6l-.367-2.414a12.566,12.566,0,0,1-.141-1.677c-.011-.259-.021-.52-.039-.779l-.059-1.224a8.012,8.012,0,0,1,.018-.913c.007-.117.014-.232.018-.347.036-.819.073-1.626.132-2.432l.118-.819a29.025,29.025,0,0,1,.8-4.079.725.725,0,0,1,.88-.5l5.66,1.47a26.653,26.653,0,0,1,5.575-10.165l-4.28-3.981a.729.729,0,0,1-.033-1.031,32.411,32.411,0,0,1,7.691-6.131,16.862,16.862,0,0,1,1.826-.978l.825-.4a14.827,14.827,0,0,1,1.82-.781l.5-.183c.588-.216,1.177-.433,1.77-.637l2.395-.62a.727.727,0,0,1,.891.542l1.3,5.705a26.917,26.917,0,0,1,9.3-.2l1.049-5.763a.731.731,0,0,1,.305-.471.718.718,0,0,1,.549-.112,33.093,33.093,0,0,1,9.318,3.2,34.121,34.121,0,0,1,7.944,5.776.728.728,0,0,1,.009,1.029l-4.113,4.177a26.668,26.668,0,0,1,6.014,9.9l5.617-1.721a.725.725,0,0,1,.909.486,33.207,33.207,0,0,1,0,19.451.724.724,0,0,1-.909.487l-5.616-1.723a26.21,26.21,0,0,1-4.478,8.15l4.462,3.8a.725.725,0,0,1,.254.5.733.733,0,0,1-.172.53,33.31,33.31,0,0,1-16.412,10.455.725.725,0,0,1-.89-.509l-1.554-5.645a26.806,26.806,0,0,1-11.587.258l-1.3,5.705a.731.731,0,0,1-.33.459.74.74,0,0,1-.378.1m-15.442-10.218a30.4,30.4,0,0,0,6.834,5.333,16.1,16.1,0,0,0,1.742.933l.843.407a13.8,13.8,0,0,0,1.635.706l.558.2c.573.211,1.146.421,1.725.62l1.563.4,1.295-5.675a.725.725,0,0,1,.868-.547,25.28,25.28,0,0,0,12.291-.275.72.72,0,0,1,.553.068.73.73,0,0,1,.343.44l1.55,5.631a31.883,31.883,0,0,0,14.51-9.252l-4.446-3.789a.725.725,0,0,1-.082-1.024,24.814,24.814,0,0,0,4.881-8.884.719.719,0,0,1,.354-.429.711.711,0,0,1,.553-.053l5.593,1.716a31.6,31.6,0,0,0,0-17.212l-5.593,1.716a.725.725,0,0,1-.908-.482,25.174,25.174,0,0,0-6.379-10.5.728.728,0,0,1-.008-1.027l4.1-4.164a33.021,33.021,0,0,0-7.085-5.028,31.148,31.148,0,0,0-8.191-2.905l-1.045,5.737a.721.721,0,0,1-.3.468.734.734,0,0,1-.544.118A25.4,25.4,0,0,0,157,430.1a.728.728,0,0,1-.868-.547l-1.295-5.675-1.617.416c-.529.184-1.109.4-1.687.61l-.521.19a13.629,13.629,0,0,0-1.665.717l-.825.4a15.559,15.559,0,0,0-1.711.914,30.574,30.574,0,0,0-6.874,5.357l4.263,3.965a.728.728,0,0,1,.038,1.028,25.146,25.146,0,0,0-5.913,10.78.726.726,0,0,1-.885.521l-5.656-1.47c-.256,1.049-.414,2.137-.568,3.2l-.114.773c-.052.736-.087,1.529-.123,2.329,0,.12-.013.247-.02.373a6.717,6.717,0,0,0-.017.754l.058,1.212c.02.257.03.533.04.81a11.42,11.42,0,0,0,.124,1.5l.366,2.407c.088.475.215.962.349,1.476.07.27.142.539.207.812.036.124.076.28.117.435.058.226.117.451.189.675l.154.434,5.5-1.958a.728.728,0,0,1,.928.442,24.876,24.876,0,0,0,5.262,8.665.729.729,0,0,1-.037,1.028Zm22.682-4.324a17.9,17.9,0,1,1,17.9-17.9,17.923,17.923,0,0,1-17.9,17.9m0-34.344a16.444,16.444,0,1,0,16.448,16.442A16.465,16.465,0,0,0,162.62,437.97" transform="translate(8.73 10.22)" fill="#46b2e0"/>
        <path id="Trazado_987957" data-name="Trazado 987957" d="M127.772,202.093,130.149,205a6.237,6.237,0,0,0-11.058,3.308,6.209,6.209,0,0,0,1.361,4.584l1.92,2.35-.048.037a6.285,6.285,0,0,0-8.2-.274,6.207,6.207,0,0,0-2.252,4.211,6.121,6.121,0,0,0,.859,3.871l14.143,17.471a22.379,22.379,0,0,0,9.225,6.722l16.687,20.5,31.829-25.9-13.176-11.3c.2-.4.385-.8.554-1.217a22.989,22.989,0,0,0,1.686-7.49,42.426,42.426,0,0,0-1.35-18.493c-.259-.866-.539-1.734-.863-2.587l-1.7-4.528a4.248,4.248,0,0,0-.349-.93,5.87,5.87,0,0,0-.815-1.308,6.276,6.276,0,0,0-5.147-2.3l-11.184.542-4.614-5.03a6.248,6.248,0,0,0-11.058,3.307,6.335,6.335,0,0,0,.606,3.4,6.237,6.237,0,0,0-9.438,8.148" transform="translate(4.566 7.551)" fill="#f79654"/>
        <path id="Trazado_987958" data-name="Trazado 987958" d="M126.878,201.423a.62.62,0,0,0-.042.872l7.555,8.318,3.618,3.979a5.21,5.21,0,0,0,.507.5,6.681,6.681,0,0,0,2.216,1.317,6.845,6.845,0,0,0,6.086-.687,6.749,6.749,0,0,0,.864-.678l.035-.028a6.885,6.885,0,0,0,.426-9.632l-1.105-1.215-1.1-1.2a.711.711,0,0,0-.269-.172c-.042-.005-.094-.022-.135-.027a.594.594,0,0,0-.481.167.611.611,0,0,0-.041.872l.123.133,2.077,2.284a5.6,5.6,0,0,1-8.282,7.527l-3.58-3.931-7.6-8.356a.62.62,0,0,0-.872-.042" transform="translate(5.172 8.217)" fill="#19203f"/>
        <path id="Trazado_987959" data-name="Trazado 987959" d="M121.606,213.575a.647.647,0,0,0-.045.893l3.486,3.836,4.647,5.1a.145.145,0,0,0,.058.05,6.419,6.419,0,0,0,2.412,1.66,6.724,6.724,0,0,0,2.27.51,6.8,6.8,0,0,0,4.049-1.094,9.131,9.131,0,0,0,.884-.676,6.823,6.823,0,0,0,1.582-7.941,6.309,6.309,0,0,0-1.142-1.722.6.6,0,0,0-.872-.042.614.614,0,0,0-.041.874,5.6,5.6,0,0,1-8.083,7.733,1.7,1.7,0,0,1-.19-.2l-4.64-5.087-3.494-3.846a.633.633,0,0,0-.881-.054" transform="translate(4.956 8.713)" fill="#19203f"/>
        <path id="Trazado_987960" data-name="Trazado 987960" d="M116.115,225.259a.63.63,0,0,0-.042.872l.216.251,4.586,5.262a6.85,6.85,0,0,0,8.8,1.118,8.787,8.787,0,0,0,.872-.665,6.863,6.863,0,0,0,1.84-7.343A6.949,6.949,0,0,0,131,222.425a.624.624,0,0,0-.885-.032.58.58,0,0,0-.138.7.439.439,0,0,0,.1.172,5.6,5.6,0,0,1-8.274,7.54l-4.614-5.3-.187-.215a.635.635,0,0,0-.885-.032" transform="translate(4.733 9.073)" fill="#19203f"/>
        <rect id="Rectángulo_407882" data-name="Rectángulo 407882" width="19.73" height="10.687" transform="translate(195.003 209.959) rotate(-48.715)" fill="#fff"/>
        <path id="Trazado_987961" data-name="Trazado 987961" d="M170.379,202.435l-39.158,45.991a4.443,4.443,0,0,1-6.271.407l-5.365-4.711a4.445,4.445,0,0,1-1.125-5.154l28.522-57.079Z" transform="translate(4.82 7.426)" fill="#de53d4"/>
        <path id="Trazado_987962" data-name="Trazado 987962" d="M134.921,205.411l-4.95-4.346,6.147-27.931,10.378,9.112Z" transform="translate(5.306 7.068)" fill="#19203f"/>
        <path id="Trazado_987963" data-name="Trazado 987963" d="M127.66,167.278l46.362,40.711a12.527,12.527,0,0,0,17.626-1.144l13.967-15.9a12.527,12.527,0,0,0-1.144-17.626L158.109,132.6Z" transform="translate(5.212 5.414)" fill="#de53d4"/>
        <path id="Trazado_987964" data-name="Trazado 987964" d="M131.252,171.434s-57.7-27.859-96.192-30.37c0,0-6.144-15.928,30.68-57.864l.2-.564c36.824-41.935,53.413-37.9,53.413-37.9,7.466,37.847,42.548,91.461,42.548,91.461Z" transform="translate(1.416 1.822)" fill="#fff"/>
        <path id="Trazado_987965" data-name="Trazado 987965" d="M43.835,62.031c-25.593,29.145-31.69,64.217-13.887,79.851s51.784,5.046,77.377-24.1,31.69-64.217,13.9-79.843-51.8-5.045-77.386,24.091m8.889,7.805c20.5-23.35,48.293-33.9,60.693-23.007s5.525,39.8-14.98,63.149-48.293,33.9-60.683,23.016-5.541-39.8,14.97-63.157" transform="translate(0.807 1.255)" fill="#de53d4"/>
        <path id="Trazado_987966" data-name="Trazado 987966" d="M52.261,69.373c-20.512,23.359-27.37,52.269-14.97,63.157s40.172.344,60.683-23.016,27.37-52.269,14.98-63.149-40.188-.342-60.693,23.007" transform="translate(1.27 1.717)" fill="#fff"/>
        <path id="Trazado_987967" data-name="Trazado 987967" d="M76.311,125.769a.732.732,0,0,1-.621-.345L58.467,97.766a.733.733,0,0,1,.071-.87L81.864,70.334a.732.732,0,0,1,.9-.161l29.071,15.682a.731.731,0,1,1-.694,1.286l-28.559-15.4L60,97.454l16.935,27.2a.731.731,0,0,1-.621,1.118" transform="translate(2.383 2.861)" fill="#19203f"/>
        <path id="Trazado_987968" data-name="Trazado 987968" d="M59.087,98.11a.732.732,0,0,1-.127-1.452C85.075,92.01,81.843,71.8,81.693,70.944a.731.731,0,0,1,1.441-.255c.04.225,3.665,22.5-23.917,27.41a.7.7,0,0,1-.13.011" transform="translate(2.383 2.861)" fill="#19203f"/>
        <path id="Trazado_987969" data-name="Trazado 987969" d="M42.508,125.938a.733.733,0,0,1-.552-.25C25.971,107.4,56.321,70.448,57.62,68.883a.731.731,0,0,1,1.125.935c-.309.374-30.856,37.551-15.686,54.908a.732.732,0,0,1-.552,1.213" transform="translate(1.524 2.802)" fill="#19203f"/>
        <path id="Trazado_987970" data-name="Trazado 987970" d="M170.01,203.842a.73.73,0,0,1-.483-.182l-42.163-37.024a.731.731,0,1,1,.966-1.1l42.163,37.023a.731.731,0,0,1-.483,1.281" transform="translate(5.19 6.751)" fill="#19203f"/>
        <path id="Trazado_987971" data-name="Trazado 987971" d="M202.488,189.5a.73.73,0,0,1-.483-.182l-53.393-46.885a.731.731,0,1,1,.966-1.1l53.393,46.884a.731.731,0,0,1-.483,1.281" transform="translate(6.057 5.763)" fill="#19203f"/>
        <path id="Trazado_987972" data-name="Trazado 987972" d="M195.867,197.045a.73.73,0,0,1-.483-.182l-53.393-46.885a.732.732,0,0,1,.966-1.1l53.393,46.885a.731.731,0,0,1-.483,1.281" transform="translate(5.787 6.071)" fill="#19203f"/>
        <path id="Trazado_987973" data-name="Trazado 987973" d="M183.67,241.637l-31.837,25.9-16.679-20.5,12.817-20.923a26.381,26.381,0,0,1-.98-6.218v-.015a18.364,18.364,0,0,1,.38-4.433,15.906,15.906,0,0,1,2.181-5.428,17.689,17.689,0,0,1,5.882-5.618l-8.735.189a6.331,6.331,0,0,1-1.9-.219,6.837,6.837,0,0,1,1.581-13.446l3.863-.087,1.082,1.184,11.193-.541a7.335,7.335,0,0,1,.979.029,6.257,6.257,0,0,1,4.156,2.268,5.879,5.879,0,0,1,.819,1.317,4.172,4.172,0,0,1,.351.922l1.7,4.536c.322.848.6,1.726.863,2.59a42.3,42.3,0,0,1,1.346,18.493,22.984,22.984,0,0,1-1.682,7.491c-.161.41-.352.8-.556,1.215Z" transform="translate(5.518 7.791)" fill="#f79654"/>
        <path id="Trazado_987974" data-name="Trazado 987974" d="M163.447,191.157a.556.556,0,0,1-.132.365.545.545,0,0,1-.482.263l-2.063.059-14.543.322a5.6,5.6,0,0,0-1.917,10.812,6.4,6.4,0,0,0,.7.234c.044,0,.087.015.132.015a4.641,4.641,0,0,0,1.346.132l11.573-.263a.614.614,0,0,1,.629.512.641.641,0,0,1-.424.7,15.553,15.553,0,0,0-10.242,14.661,24.933,24.933,0,0,0,.951,6.817.606.606,0,0,1-.263.688.331.331,0,0,1-.161.073.618.618,0,0,1-.761-.425,26.38,26.38,0,0,1-.98-6.218v-.015a18.309,18.309,0,0,1,.381-4.433,15.885,15.885,0,0,1,2.179-5.428,17.689,17.689,0,0,1,5.882-5.618l-8.735.189a6.321,6.321,0,0,1-1.9-.219,6.837,6.837,0,0,1,1.58-13.446l3.863-.087,12.743-.307c.016,0,.03-.015.045,0a.647.647,0,0,1,.6.614" transform="translate(5.696 7.779)" fill="#19203f"/>
        <path id="Trazado_987975" data-name="Trazado 987975" d="M439.186,222.6c.22,6.481-3.906,12.348-9.423,15.435-6.5,3.643-14.484,3.263-21.2.439-3.468-1.463-6.555-3.643-9.906-5.326a18.38,18.38,0,0,0-11.442-1.961c-7.71,1.229-15.1,6.175-23.16,4.4-6.365-1.391-9.466-7.067-12.964-11.968-1.726-2.414-3.687-4.77-6.379-6.116a15.667,15.667,0,0,0-8.53-1.317c-6.1.527-11.909,2.911-18.04,3.116a16.454,16.454,0,0,1-8.4-1.741,20.932,20.932,0,0,1-7.053-7.037c-.907-1.346-1.8-2.838-2.75-4.345-4.492-.834-8.867-2.3-12.159-5.208a.792.792,0,0,1-.307-.161,23.584,23.584,0,0,1-5.853-7.638,27,27,0,0,1-1.36-19.781,33.617,33.617,0,0,1,11.983-16.606,37.951,37.951,0,0,1,40.615-2.984,38.934,38.934,0,0,1,14.616,14.09c3.292,5.413,6.072,12.056,11.822,15.363,6.862,3.921,15.07,1.565,22.386.731,6.452-.731,13.811-.453,18.552,4.623,4.1,4.39,5.121,10.7,8.983,15.246,4.989,5.838,12.993,3.307,19.547,5.063,6.13,1.624,10.213,7.433,10.418,13.68" transform="translate(11.391 6.095)" fill="#19203f"/>
        <path id="Trazado_987976" data-name="Trazado 987976" d="M331.912,186.166l-1.806,15.6c-.043.373-.1.743-.15,1.114s-.125.718-.2,1.087c-.162.766-.355,1.529-.587,2.266a24.475,24.475,0,0,1-1.087,2.878c-.1.239-.211.467-.322.7-.067.129-.124.258-.193.4v.01l-.2.385a24.22,24.22,0,0,1-45.549-13.962l3.211-21.993c26.471,3.966,35.786-5.185,35.786-5.185a23.346,23.346,0,0,0,8.288,18.994,6.509,6.509,0,0,1,2.808-2.282" transform="translate(11.499 6.918)" fill="#f79654"/>
        <path id="Trazado_987977" data-name="Trazado 987977" d="M289.927,216.271l-1.768,14.946,37.5,6.016,3.189-28.355L327.3,208.6c-.068.128-.136.264-.205.392a24.109,24.109,0,0,1-37.166,7.279" transform="translate(11.765 8.516)" fill="#f79654"/>
        <path id="Trazado_987978" data-name="Trazado 987978" d="M340.443,200.443a16.513,16.513,0,0,1-13.126,9.408l-1.548-.284h-.01c.067-.128.135-.267.2-.4.109-.228.22-.456.321-.7a24.465,24.465,0,0,0,1.087-2.878c.223-.749.415-1.5.577-2.268.073-.358.146-.716.209-1.085s.107-.742.15-1.114l1.806-15.6a7.6,7.6,0,0,1,5.26-.323,8.556,8.556,0,0,1,1.879.866,8.791,8.791,0,0,1,1.354,1.047l.029.024a9.911,9.911,0,0,1,2.679,4.434,13.029,13.029,0,0,1-.869,8.86" transform="translate(13.3 7.548)" fill="#f79654"/>
        <path id="Trazado_987979" data-name="Trazado 987979" d="M294.058,186.331a3.545,3.545,0,1,1-3.113-3.929,3.544,3.544,0,0,1,3.113,3.929" transform="translate(11.717 7.446)" fill="#19203f"/>
        <path id="Trazado_987980" data-name="Trazado 987980" d="M293.471,180.964l-4.676-.541a1.117,1.117,0,0,1-.977-1.233l.1-.9a1.116,1.116,0,0,1,1.233-.977l4.676.541a1.115,1.115,0,0,1,.976,1.233l-.1.9a1.116,1.116,0,0,1-1.233.977" transform="translate(11.75 7.239)" fill="#19203f"/>
        <path id="Trazado_987981" data-name="Trazado 987981" d="M312.651,188.484a3.545,3.545,0,1,1-3.113-3.929,3.544,3.544,0,0,1,3.113,3.929" transform="translate(12.476 7.534)" fill="#19203f"/>
        <path id="Trazado_987982" data-name="Trazado 987982" d="M312.064,183.117l-4.676-.541a1.117,1.117,0,0,1-.977-1.233l.1-.9a1.116,1.116,0,0,1,1.233-.977l4.676.541a1.115,1.115,0,0,1,.976,1.233l-.1.9a1.116,1.116,0,0,1-1.233.977" transform="translate(12.509 7.327)" fill="#19203f"/>
        <g id="Grupo_1148996" data-name="Grupo 1148996" transform="translate(325.077 201.067)" style="mix-blend-mode: soft-light;isolation: isolate">
          <g id="Grupo_1148995" data-name="Grupo 1148995">
            <g id="Grupo_1148994" data-name="Grupo 1148994" clip-path="url(#clip-path-2)">
              <path id="Trazado_987983" data-name="Trazado 987983" d="M324.587,200.039a6.15,6.15,0,1,1-5.4-6.817,6.151,6.151,0,0,1,5.4,6.817" transform="translate(-312.326 -193.18)" fill="#19203f"/>
            </g>
          </g>
        </g>
        <path id="Trazado_987984" data-name="Trazado 987984" d="M320.6,216.514s-7.253,6.371-16.621,5.227-14.076-5.767-14.076-5.767l-1.163,10.037s16.855,7.46,31.86-9.5" transform="translate(11.788 8.817)" fill="#19203f"/>
        <g id="Grupo_1148999" data-name="Grupo 1148999" transform="translate(303.521 192.641)" style="mix-blend-mode: soft-light;isolation: isolate">
          <g id="Grupo_1148998" data-name="Grupo 1148998">
            <g id="Grupo_1148997" data-name="Grupo 1148997" clip-path="url(#clip-path-3)">
              <path id="Trazado_987985" data-name="Trazado 987985" d="M297.656,185.085l.713,15.185-6.754-.782Z" transform="translate(-291.615 -185.085)" fill="#19203f"/>
            </g>
          </g>
        </g>
        <path id="Trazado_987986" data-name="Trazado 987986" d="M333.974,189.29c-2.839.984-3.3,4.163-3.489,6.76a.524.524,0,0,0,.38.5A3.763,3.763,0,0,1,330.25,204c-.664.037-.674,1.078,0,1.04a4.784,4.784,0,0,0,1.306-9.348c.147-1.932.432-4.2,2.294-5.212,1.938-1.056,3.58.661,3.644,2.581.022.667,1.062.676,1.04,0-.078-2.364-2.032-4.648-4.557-3.774" transform="translate(13.462 7.72)" fill="#19203f"/>
        <path id="Trazado_987987" data-name="Trazado 987987" d="M299.5,200.205l-7.521-1.043,6.2-14.475c.262-.613-.741-.887-1-.28q-3.218,7.516-6.434,15.033c-.15.349.211.619.5.66l8.259,1.145c.66.092.658-.949,0-1.04" transform="translate(11.868 7.515)" fill="#19203f"/>
        <path id="Trazado_987988" data-name="Trazado 987988" d="M294.564,204.695l14.555-3.08s2.18,7.981-5.052,9.763-9.5-6.683-9.5-6.683" transform="translate(12.026 8.231)" fill="#19203f"/>
        <path id="Trazado_987989" data-name="Trazado 987989" d="M463.176,164.589a6.4,6.4,0,0,1,2.149,8.756L449.89,198.82a2.267,2.267,0,0,1,.231.06l4.029-6.649a6.371,6.371,0,0,1,10.9,6.6l-1.981,3.27a6.376,6.376,0,0,1,10.906,6.608l-1.608,2.654.057.035a6.355,6.355,0,0,1,11.115,2.5,6.288,6.288,0,0,1-.332,4.032l.058.034-11.889,19.623a22.708,22.708,0,0,1-8.376,8.08l-13.98,23.073L413.212,247.05l11.719-13.272q-.387-.562-.728-1.154a23.146,23.146,0,0,1-2.762-7.335,43.306,43.306,0,0,1-.732-21.618l1.072-4.813a5.812,5.812,0,0,1,.222-.987,6.1,6.1,0,0,1,.641-1.435,6.378,6.378,0,0,1,4.886-3.057l11.367-1.023,15.523-25.619a6.4,6.4,0,0,1,8.756-2.149" transform="translate(16.87 6.682)" fill="#f79654"/>
        <path id="Trazado_987990" data-name="Trazado 987990" d="M446.037,214.673a6.985,6.985,0,0,1-2.794-10.26l1.88-2.75a.636.636,0,1,1,1.049.718l-1.881,2.75a5.711,5.711,0,0,0,9.429,6.447l9.567-13.994a.635.635,0,1,1,1.049.717l-9.567,13.994a6.993,6.993,0,0,1-8.733,2.378" transform="translate(18.047 8.055)" fill="#19203f"/>
        <path id="Trazado_987991" data-name="Trazado 987991" d="M455.587,222.4a6.989,6.989,0,0,1-2.795-10.262.636.636,0,1,1,1.049.718,5.711,5.711,0,0,0,9.428,6.447l6.958-10.175a.636.636,0,1,1,1.049.718l-6.958,10.174a7.005,7.005,0,0,1-8.732,2.379" transform="translate(18.436 8.527)" fill="#19203f"/>
        <path id="Trazado_987992" data-name="Trazado 987992" d="M465.529,229.411a6.986,6.986,0,0,1-2.794-10.26.635.635,0,1,1,1.048.718,5.711,5.711,0,0,0,9.429,6.447l2.9-4.24a.636.636,0,1,1,1.049.718l-2.9,4.239a6.993,6.993,0,0,1-8.733,2.378" transform="translate(18.842 8.936)" fill="#19203f"/>
        <path id="Trazado_987993" data-name="Trazado 987993" d="M445.692,225.772a.633.633,0,0,1-.359-.657c2.267-17.524-11.813-20.3-12.416-20.409a.636.636,0,0,1,.04-1.257l11.738-1.355a5.711,5.711,0,0,0-1.311-11.346l-16.84,1.947a.636.636,0,0,1-.147-1.264l16.839-1.946a6.982,6.982,0,0,1,1.6,13.872l-8.864,1.024c4.453,1.869,12.386,7.2,10.614,20.9a.636.636,0,0,1-.9.494" transform="translate(17.385 7.734)" fill="#19203f"/>
        <path id="Trazado_987994" data-name="Trazado 987994" d="M363.987,268.59l-28.223,65.181s8.179,9.159,16.02,25.151l2.268,4.887c-.365.4-.732.791-1.126,1.171-15.48,15.948-36.8,22.853-57.88,25.107a169.413,169.413,0,0,1-23.117.819,227.778,227.778,0,0,1-53.023-8.017c1.126-7.3,2.458-14.236,3.906-20.761,7.959-35.728,19.357-58.816,19.357-58.816-1.347-3.352-3.073-9.906-3.1-21.449a26.138,26.138,0,0,1,.221-3.131c2.633-19.533,28-52.467,28-52.467v-.015c1.01.044,2.019.117,3.043.249l76.915,10.387a18.96,18.96,0,0,1,4.331,3.263c.79.819,1.595,1.609,2.516,2.4,0,.015.015.03.03.045a29.281,29.281,0,0,1,9.554,16.4,29.22,29.22,0,0,1,.307,9.6" transform="translate(8.937 9.237)" fill="#ffde33"/>
        <path id="Trazado_987995" data-name="Trazado 987995" d="M284.818,230.722c-12.11-8.056-22.066-4.89-36.513,7.338l-39.647,36.362-28.666-49.684c-13.165,12.236-27.013,23.714-40.731,35.327l44.043,77.87a26.336,26.336,0,0,0,45.047,1.977l63.806-72.676a26.334,26.334,0,0,0-7.338-36.514" transform="translate(5.686 9.175)" fill="#ffde33"/>
        <path id="Trazado_987996" data-name="Trazado 987996" d="M421.811,228.629,392.071,277.7l-38.063-35.285A26.336,26.336,0,0,0,318.2,281.04l61.748,57.241a26.336,26.336,0,0,0,40.427-5.663l43.919-72.46Z" transform="translate(12.647 9.334)" fill="#ffde33"/>
        <path id="Trazado_987997" data-name="Trazado 987997" d="M224.144,355.652a.681.681,0,0,1-.145-.015.73.73,0,0,1-.573-.86c4.946-24.866,15.838-48.208,17.648-51.982-1.714-1.47-7.4-7.145-8.82-18.817-1.643-13.48,17.627-38.788,18.449-39.86a.731.731,0,1,1,1.16.89c-.2.258-19.728,25.9-18.157,38.793,1.565,12.827,8.64,18.147,8.711,18.2a.733.733,0,0,1,.225.915c-.125.25-12.442,25.312-17.781,52.147a.731.731,0,0,1-.716.589" transform="translate(9.121 9.955)" fill="#19203f"/>
        <path id="Trazado_987998" data-name="Trazado 987998" d="M351.792,311.17a.722.722,0,0,1-.5-.2l-27.617-25.731a.731.731,0,0,1,1-1.07L352.289,309.9a.731.731,0,0,1-.5,1.267" transform="translate(13.205 11.594)" fill="#19203f"/>
        <path id="Trazado_987999" data-name="Trazado 987999" d="M379.045,293.679a.731.731,0,0,1-.617-1.124l9.49-14.914a.732.732,0,1,1,1.234.786l-9.49,14.914a.731.731,0,0,1-.617.338" transform="translate(15.445 11.321)" fill="#19203f"/>
        <path id="Trazado_988000" data-name="Trazado 988000" d="M219.374,293.589a.73.73,0,0,1-.632-.363l-11.231-19.251a.732.732,0,1,1,1.264-.738l11.231,19.252a.731.731,0,0,1-.632,1.1" transform="translate(8.468 11.14)" fill="#19203f"/>
        <path id="Trazado_988001" data-name="Trazado 988001" d="M154.706,262.239c-.239-2.144-2.062-3.228-4.045-3.228s-3.428,2.239-3.227,4.045c.239,2.144,2.061,3.228,4.044,3.228s3.43-2.239,3.228-4.045" transform="translate(6.018 10.575)" fill="#fff4c0"/>
        <path id="Trazado_988002" data-name="Trazado 988002" d="M169.555,252.079c-.239-2.144-2.062-3.228-4.045-3.228s-3.428,2.239-3.227,4.045c.239,2.144,2.061,3.228,4.044,3.228s3.43-2.239,3.228-4.045" transform="translate(6.625 10.16)" fill="#fff4c0"/>
        <path id="Trazado_988003" data-name="Trazado 988003" d="M183.824,240.942c-.239-2.144-2.062-3.228-4.045-3.228s-3.428,2.239-3.227,4.045c.239,2.144,2.061,3.228,4.044,3.228s3.43-2.239,3.228-4.045" transform="translate(7.207 9.705)" fill="#fff4c0"/>
        <path id="Trazado_988004" data-name="Trazado 988004" d="M185.583,258.331c-.239-2.144-2.062-3.228-4.045-3.228s-3.428,2.239-3.227,4.045c.239,2.144,2.061,3.228,4.044,3.228s3.43-2.239,3.228-4.045" transform="translate(7.279 10.415)" fill="#fff4c0"/>
        <path id="Trazado_988005" data-name="Trazado 988005" d="M168,269.664c-.239-2.144-2.062-3.228-4.045-3.228s-3.428,2.239-3.227,4.045c.239,2.144,2.061,3.228,4.044,3.228s3.43-2.239,3.228-4.045" transform="translate(6.561 10.878)" fill="#fff4c0"/>
        <path id="Trazado_988006" data-name="Trazado 988006" d="M168,286.858c-.239-2.144-2.062-3.228-4.045-3.228s-3.428,2.239-3.227,4.045c.239,2.144,2.061,3.228,4.044,3.228s3.43-2.239,3.228-4.045" transform="translate(6.561 11.58)" fill="#fff4c0"/>
        <path id="Trazado_988007" data-name="Trazado 988007" d="M182.847,277.089c-.239-2.144-2.062-3.228-4.045-3.228s-3.428,2.239-3.227,4.045c.239,2.144,2.061,3.228,4.044,3.228s3.43-2.239,3.228-4.045" transform="translate(7.167 11.181)" fill="#fff4c0"/>
        <path id="Trazado_988008" data-name="Trazado 988008" d="M200.237,270.445c-.239-2.144-2.062-3.228-4.045-3.228s-3.428,2.239-3.227,4.045c.239,2.144,2.061,3.228,4.044,3.228s3.43-2.239,3.228-4.045" transform="translate(7.877 10.91)" fill="#fff4c0"/>
        <path id="Trazado_988009" data-name="Trazado 988009" d="M197.886,285.444c-.239-2.144-2.062-3.228-4.045-3.228s-3.428,2.239-3.227,4.045c.239,2.144,2.061,3.228,4.044,3.228s3.43-2.239,3.228-4.045" transform="translate(7.781 11.522)" fill="#fff4c0"/>
        <path id="Trazado_988010" data-name="Trazado 988010" d="M183.434,297.018c-.239-2.144-2.062-3.228-4.045-3.228s-3.428,2.239-3.227,4.045c.239,2.144,2.061,3.228,4.044,3.228s3.43-2.239,3.228-4.045" transform="translate(7.191 11.994)" fill="#fff4c0"/>
        <path id="Trazado_988011" data-name="Trazado 988011" d="M180.894,312.258c-.239-2.144-2.062-3.228-4.045-3.228s-3.428,2.239-3.227,4.045c.239,2.144,2.061,3.228,4.044,3.228s3.43-2.239,3.228-4.045" transform="translate(7.088 12.617)" fill="#fff4c0"/>
        <path id="Trazado_988012" data-name="Trazado 988012" d="M199.065,304.638c-.239-2.144-2.062-3.228-4.045-3.228s-3.428,2.239-3.227,4.045c.239,2.144,2.061,3.228,4.044,3.228s3.43-2.239,3.228-4.045" transform="translate(7.829 12.306)" fill="#fff4c0"/>
        <path id="Trazado_988013" data-name="Trazado 988013" d="M194.375,327.889c-.239-2.144-2.062-3.228-4.045-3.228s-3.428,2.239-3.227,4.045c.239,2.144,2.061,3.228,4.044,3.228s3.43-2.239,3.228-4.045" transform="translate(7.638 13.255)" fill="#fff4c0"/>
        <path id="Trazado_988014" data-name="Trazado 988014" d="M212.742,340c-.239-2.144-2.062-3.227-4.045-3.227s-3.428,2.239-3.227,4.044c.239,2.144,2.061,3.229,4.044,3.229s3.43-2.239,3.228-4.046" transform="translate(8.388 13.749)" fill="#fff4c0"/>
        <path id="Trazado_988015" data-name="Trazado 988015" d="M208.248,320.9c-.239-2.144-2.062-3.228-4.045-3.228s-3.428,2.239-3.227,4.045c.239,2.144,2.061,3.228,4.044,3.228s3.43-2.239,3.228-4.045" transform="translate(8.204 12.97)" fill="#fff4c0"/>
        <path id="Trazado_988016" data-name="Trazado 988016" d="M216.454,303.857c-.239-2.144-2.062-3.228-4.045-3.228s-3.428,2.239-3.227,4.045c.239,2.144,2.061,3.228,4.044,3.228s3.43-2.239,3.228-4.045" transform="translate(8.539 12.274)" fill="#fff4c0"/>
        <path id="Trazado_988017" data-name="Trazado 988017" d="M212.546,290.766c-.239-2.144-2.062-3.228-4.045-3.228s-3.428,2.239-3.227,4.045c.239,2.144,2.061,3.228,4.044,3.228s3.43-2.239,3.228-4.045" transform="translate(8.38 11.739)" fill="#fff4c0"/>
        <path id="Trazado_988018" data-name="Trazado 988018" d="M233.232,309.888c-.239-2.144-2.062-3.228-4.045-3.228s-3.429,2.239-3.227,4.045c.239,2.144,2.061,3.228,4.044,3.228s3.43-2.239,3.228-4.045" transform="translate(9.224 12.52)" fill="#fff4c0"/>
        <path id="Trazado_988019" data-name="Trazado 988019" d="M224.856,327.5c-.239-2.144-2.062-3.228-4.045-3.228s-3.429,2.239-3.227,4.045c.239,2.144,2.061,3.228,4.044,3.228s3.43-2.239,3.228-4.045" transform="translate(8.882 13.239)" fill="#fff4c0"/>
        <path id="Trazado_988020" data-name="Trazado 988020" d="M231.5,288.937c-.239-2.144-2.062-3.228-4.045-3.228s-3.428,2.239-3.227,4.045c.239,2.144,2.061,3.228,4.044,3.228s3.43-2.239,3.228-4.045" transform="translate(9.154 11.665)" fill="#fff4c0"/>
        <path id="Trazado_988021" data-name="Trazado 988021" d="M223.1,273.376c-.239-2.144-2.062-3.228-4.045-3.228s-3.428,2.239-3.227,4.045c.239,2.144,2.061,3.228,4.044,3.228s3.429-2.239,3.228-4.045" transform="translate(8.811 11.029)" fill="#fff4c0"/>
        <path id="Trazado_988022" data-name="Trazado 988022" d="M235.016,262.434c-.239-2.144-2.062-3.227-4.045-3.227s-3.429,2.238-3.227,4.044c.238,2.144,2.061,3.228,4.044,3.228s3.43-2.239,3.228-4.045" transform="translate(9.297 10.583)" fill="#fff4c0"/>
        <path id="Trazado_988023" data-name="Trazado 988023" d="M333.882,275.135c-.239-2.144-2.062-3.228-4.045-3.228s-3.428,2.239-3.227,4.045c.238,2.144,2.061,3.228,4.044,3.228s3.43-2.239,3.228-4.045" transform="translate(13.334 10.897)" fill="#fff4c0"/>
        <path id="Trazado_988024" data-name="Trazado 988024" d="M350.295,248.171c-.239-2.144-2.062-3.228-4.045-3.228s-3.428,2.239-3.227,4.045c.239,2.144,2.061,3.228,4.045,3.228s3.429-2.239,3.227-4.045" transform="translate(14.004 9.796)" fill="#fff4c0"/>
        <path id="Trazado_988025" data-name="Trazado 988025" d="M341.7,262.63c-.239-2.144-2.062-3.228-4.045-3.228s-3.428,2.239-3.227,4.045c.239,2.144,2.061,3.228,4.044,3.228s3.43-2.239,3.228-4.045" transform="translate(13.653 10.387)" fill="#fff4c0"/>
        <path id="Trazado_988026" data-name="Trazado 988026" d="M361.041,264.193c-.239-2.144-2.062-3.228-4.045-3.228s-3.428,2.239-3.227,4.045c.238,2.144,2.061,3.228,4.044,3.228s3.43-2.239,3.228-4.045" transform="translate(14.442 10.45)" fill="#fff4c0"/>
        <path id="Trazado_988027" data-name="Trazado 988027" d="M351.663,279.238c-.239-2.144-2.062-3.228-4.045-3.228s-3.428,2.239-3.227,4.045c.238,2.144,2.061,3.228,4.044,3.228s3.429-2.239,3.228-4.045" transform="translate(14.06 11.065)" fill="#fff4c0"/>
        <path id="Trazado_988028" data-name="Trazado 988028" d="M351.858,296.627c-.239-2.144-2.062-3.228-4.045-3.228s-3.428,2.239-3.227,4.045c.239,2.144,2.061,3.228,4.044,3.228s3.43-2.239,3.228-4.045" transform="translate(14.068 11.979)" fill="#fff4c0"/>
        <path id="Trazado_988029" data-name="Trazado 988029" d="M365.926,279.824c-.239-2.144-2.062-3.228-4.045-3.228s-3.428,2.239-3.227,4.045c.238,2.144,2.061,3.228,4.044,3.228s3.43-2.239,3.228-4.045" transform="translate(14.642 11.292)" fill="#fff4c0"/>
        <path id="Trazado_988030" data-name="Trazado 988030" d="M381.557,270.445c-.239-2.144-2.062-3.228-4.045-3.228s-3.428,2.239-3.227,4.045c.238,2.144,2.061,3.228,4.044,3.228s3.429-2.239,3.228-4.045" transform="translate(15.28 10.706)" fill="#fff4c0"/>
        <path id="Trazado_988031" data-name="Trazado 988031" d="M374.523,294.478c-.239-2.144-2.062-3.228-4.045-3.228s-3.428,2.239-3.227,4.045c.239,2.144,2.061,3.228,4.044,3.228s3.43-2.239,3.228-4.045" transform="translate(14.993 11.891)" fill="#fff4c0"/>
        <path id="Trazado_988032" data-name="Trazado 988032" d="M370.029,310.695c-.239-2.144-2.062-3.228-4.045-3.228s-3.428,2.239-3.227,4.045c.238,2.144,2.061,3.228,4.044,3.228s3.43-2.239,3.228-4.045" transform="translate(14.809 12.553)" fill="#fff4c0"/>
        <path id="Trazado_988033" data-name="Trazado 988033" d="M387.809,321.442c-.239-2.144-2.062-3.228-4.045-3.228s-3.429,2.239-3.227,4.045c.239,2.144,2.061,3.228,4.045,3.228s3.428-2.239,3.227-4.045" transform="translate(15.535 12.992)" fill="#fff4c0"/>
        <path id="Trazado_988034" data-name="Trazado 988034" d="M409.888,326.717c-.239-2.144-2.062-3.228-4.045-3.228s-3.428,2.239-3.227,4.045c.238,2.144,2.061,3.228,4.044,3.228s3.43-2.239,3.228-4.045" transform="translate(16.437 13.207)" fill="#fff4c0"/>
        <path id="Trazado_988035" data-name="Trazado 988035" d="M405.981,312.454c-.239-2.144-2.062-3.228-4.045-3.228s-3.428,2.239-3.227,4.045c.239,2.144,2.061,3.228,4.044,3.228s3.43-2.239,3.228-4.045" transform="translate(16.277 12.625)" fill="#fff4c0"/>
        <path id="Trazado_988036" data-name="Trazado 988036" d="M389.177,299.754c-.239-2.144-2.062-3.228-4.045-3.228s-3.428,2.239-3.227,4.045c.238,2.144,2.061,3.228,4.044,3.228s3.43-2.239,3.228-4.045" transform="translate(15.591 12.106)" fill="#fff4c0"/>
        <path id="Trazado_988037" data-name="Trazado 988037" d="M404.808,296.041c-.239-2.144-2.062-3.228-4.045-3.228s-3.428,2.239-3.227,4.045c.239,2.144,2.061,3.228,4.044,3.228s3.43-2.239,3.228-4.045" transform="translate(16.229 11.955)" fill="#fff4c0"/>
        <path id="Trazado_988038" data-name="Trazado 988038" d="M399.338,279.238c-.239-2.144-2.063-3.228-4.046-3.228s-3.428,2.239-3.227,4.045c.238,2.144,2.062,3.228,4.045,3.228s3.428-2.239,3.228-4.045" transform="translate(16.006 11.269)" fill="#fff4c0"/>
        <path id="Trazado_988039" data-name="Trazado 988039" d="M424.738,308.546c-.239-2.144-2.062-3.228-4.045-3.228s-3.428,2.239-3.227,4.045c.238,2.144,2.061,3.228,4.044,3.228s3.429-2.239,3.228-4.045" transform="translate(17.043 12.465)" fill="#fff4c0"/>
        <path id="Trazado_988040" data-name="Trazado 988040" d="M423.566,293.7c-.24-2.144-2.063-3.228-4.046-3.228s-3.428,2.239-3.227,4.045c.238,2.144,2.061,3.228,4.044,3.228s3.43-2.239,3.229-4.045" transform="translate(16.995 11.859)" fill="#fff4c0"/>
        <path id="Trazado_988041" data-name="Trazado 988041" d="M439.783,282.559c-.239-2.144-2.062-3.227-4.045-3.227s-3.429,2.239-3.227,4.044c.238,2.144,2.061,3.229,4.044,3.229s3.43-2.239,3.228-4.046" transform="translate(17.657 11.404)" fill="#fff4c0"/>
        <path id="Trazado_988042" data-name="Trazado 988042" d="M418.485,279.824c-.239-2.144-2.062-3.228-4.045-3.228s-3.428,2.239-3.227,4.045c.239,2.144,2.061,3.228,4.044,3.228s3.43-2.239,3.228-4.045" transform="translate(16.788 11.292)" fill="#fff4c0"/>
        <path id="Trazado_988043" data-name="Trazado 988043" d="M409.5,264.779c-.239-2.144-2.062-3.228-4.045-3.228s-3.428,2.239-3.227,4.045c.238,2.144,2.061,3.228,4.044,3.228s3.429-2.239,3.228-4.045" transform="translate(16.421 10.678)" fill="#fff4c0"/>
        <path id="Trazado_988044" data-name="Trazado 988044" d="M430.4,269.273c-.239-2.144-2.062-3.228-4.045-3.228s-3.429,2.239-3.227,4.045c.239,2.144,2.061,3.228,4.044,3.228s3.43-2.239,3.228-4.045" transform="translate(17.274 10.862)" fill="#fff4c0"/>
        <path id="Trazado_988045" data-name="Trazado 988045" d="M421.221,251.493c-.239-2.144-2.062-3.228-4.045-3.228s-3.428,2.239-3.227,4.045c.238,2.144,2.061,3.228,4.043,3.228s3.43-2.239,3.228-4.045" transform="translate(16.899 10.136)" fill="#fff4c0"/>
        <path id="Trazado_988046" data-name="Trazado 988046" d="M442.323,264.975c-.239-2.144-2.062-3.227-4.045-3.227s-3.429,2.239-3.227,4.045c.239,2.144,2.061,3.228,4.044,3.228s3.43-2.239,3.228-4.045" transform="translate(17.761 10.686)" fill="#fff4c0"/>
        <path id="Trazado_988047" data-name="Trazado 988047" d="M436.852,249.734c-.239-2.144-2.062-3.228-4.045-3.228s-3.428,2.239-3.227,4.045c.238,2.144,2.061,3.228,4.044,3.228s3.43-2.239,3.228-4.045" transform="translate(17.538 10.064)" fill="#fff4c0"/>
        <path id="Trazado_988048" data-name="Trazado 988048" d="M422.589,237.034c-.239-2.144-2.062-3.228-4.045-3.228s-3.428,2.239-3.227,4.045c.238,2.144,2.061,3.228,4.044,3.228s3.43-2.239,3.228-4.045" transform="translate(16.955 9.546)" fill="#fff4c0"/>
        <path id="Trazado_988049" data-name="Trazado 988049" d="M454.046,259.308c-.239-2.144-2.062-3.227-4.045-3.227s-3.428,2.238-3.227,4.044c.238,2.144,2.061,3.228,4.044,3.228s3.43-2.239,3.228-4.045" transform="translate(18.239 10.455)" fill="#fff4c0"/>
        <path id="Trazado_988050" data-name="Trazado 988050" d="M332.319,248.367c-.239-2.144-2.062-3.228-4.045-3.228s-3.428,2.239-3.227,4.045c.239,2.144,2.061,3.228,4.045,3.228s3.428-2.239,3.227-4.045" transform="translate(13.27 9.804)" fill="#fff4c0"/>
        <path id="Trazado_988051" data-name="Trazado 988051" d="M308.287,244.654c-.239-2.144-2.062-3.228-4.045-3.228s-3.428,2.239-3.227,4.045c.238,2.144,2.061,3.228,4.044,3.228s3.43-2.239,3.228-4.045" transform="translate(12.289 9.653)" fill="#fff4c0"/>
        <path id="Trazado_988052" data-name="Trazado 988052" d="M277.415,243.091c-.239-2.144-2.062-3.228-4.045-3.228s-3.428,2.239-3.227,4.045c.239,2.144,2.061,3.228,4.044,3.228s3.43-2.239,3.228-4.045" transform="translate(11.028 9.793)" fill="#fff4c0"/>
        <path id="Trazado_988053" data-name="Trazado 988053" d="M262.957,253.837c-.239-2.144-2.062-3.228-4.045-3.228s-3.429,2.239-3.227,4.045c.238,2.144,2.061,3.228,4.044,3.228s3.43-2.239,3.228-4.045" transform="translate(10.438 10.231)" fill="#fff4c0"/>
        <path id="Trazado_988054" data-name="Trazado 988054" d="M296.563,254.033c-.239-2.144-2.062-3.228-4.045-3.228s-3.429,2.239-3.227,4.045c.239,2.144,2.061,3.228,4.044,3.228s3.43-2.239,3.228-4.045" transform="translate(11.81 10.036)" fill="#fff4c0"/>
        <path id="Trazado_988055" data-name="Trazado 988055" d="M265.5,234.885c-.239-2.144-2.062-3.228-4.045-3.228s-3.428,2.239-3.227,4.045c.239,2.144,2.061,3.228,4.044,3.228s3.43-2.239,3.228-4.045" transform="translate(10.542 9.458)" fill="#fff4c0"/>
        <path id="Trazado_988056" data-name="Trazado 988056" d="M321.964,267.71c-.239-2.144-2.062-3.228-4.045-3.228s-3.428,2.239-3.227,4.045c.238,2.144,2.061,3.228,4.044,3.228s3.43-2.239,3.228-4.045" transform="translate(12.847 10.594)" fill="#fff4c0"/>
        <path id="Trazado_988057" data-name="Trazado 988057" d="M297.149,276.5c-.239-2.144-2.062-3.228-4.045-3.228s-3.428,2.239-3.227,4.045c.239,2.144,2.061,3.228,4.044,3.228s3.43-2.239,3.228-4.045" transform="translate(11.834 11.157)" fill="#fff4c0"/>
        <path id="Trazado_988058" data-name="Trazado 988058" d="M279.369,267.124c-.239-2.144-2.062-3.228-4.045-3.228s-3.428,2.239-3.227,4.045c.239,2.144,2.061,3.228,4.045,3.228s3.428-2.239,3.227-4.045" transform="translate(11.108 10.774)" fill="#fff4c0"/>
        <path id="Trazado_988059" data-name="Trazado 988059" d="M248.889,267.9c-.239-2.144-2.062-3.228-4.045-3.228s-3.428,2.239-3.227,4.045c.239,2.144,2.061,3.228,4.044,3.228s3.429-2.239,3.228-4.045" transform="translate(9.864 10.806)" fill="#fff4c0"/>
        <path id="Trazado_988060" data-name="Trazado 988060" d="M246.544,289.789c-.239-2.144-2.062-3.228-4.045-3.228s-3.428,2.239-3.227,4.045c.239,2.144,2.061,3.228,4.044,3.228s3.43-2.239,3.228-4.045" transform="translate(9.768 11.699)" fill="#fff4c0"/>
        <path id="Trazado_988061" data-name="Trazado 988061" d="M260.807,279.042c-.239-2.144-2.062-3.227-4.045-3.227s-3.428,2.239-3.227,4.045c.239,2.143,2.061,3.228,4.044,3.228s3.43-2.239,3.228-4.046" transform="translate(10.35 11.261)" fill="#fff4c0"/>
        <path id="Trazado_988062" data-name="Trazado 988062" d="M278.588,291.743c-.239-2.144-2.062-3.228-4.045-3.228s-3.428,2.239-3.227,4.045c.239,2.144,2.061,3.228,4.044,3.228s3.43-2.239,3.228-4.045" transform="translate(11.076 11.779)" fill="#fff4c0"/>
        <path id="Trazado_988063" data-name="Trazado 988063" d="M310.24,289.789c-.239-2.144-2.062-3.228-4.045-3.228s-3.429,2.239-3.227,4.045c.239,2.144,2.061,3.228,4.044,3.228s3.43-2.239,3.228-4.045" transform="translate(12.368 11.699)" fill="#fff4c0"/>
        <path id="Trazado_988064" data-name="Trazado 988064" d="M332.124,303.857c-.239-2.144-2.062-3.228-4.045-3.228s-3.428,2.239-3.227,4.045c.238,2.144,2.061,3.228,4.044,3.228s3.43-2.239,3.228-4.045" transform="translate(13.262 12.274)" fill="#fff4c0"/>
        <path id="Trazado_988065" data-name="Trazado 988065" d="M313.953,308.546c-.239-2.144-2.062-3.228-4.045-3.228s-3.428,2.239-3.227,4.045c.239,2.144,2.061,3.228,4.045,3.228s3.428-2.239,3.227-4.045" transform="translate(12.52 12.465)" fill="#fff4c0"/>
        <path id="Trazado_988066" data-name="Trazado 988066" d="M291.092,305.42c-.239-2.144-2.062-3.228-4.045-3.228s-3.428,2.239-3.227,4.045c.239,2.144,2.061,3.228,4.044,3.228s3.43-2.239,3.228-4.045" transform="translate(11.587 12.337)" fill="#fff4c0"/>
        <path id="Trazado_988067" data-name="Trazado 988067" d="M261.589,305.225c-.239-2.144-2.062-3.228-4.045-3.228s-3.428,2.239-3.227,4.045c.239,2.144,2.061,3.228,4.045,3.228s3.428-2.239,3.227-4.045" transform="translate(10.382 12.33)" fill="#fff4c0"/>
        <path id="Trazado_988068" data-name="Trazado 988068" d="M245.763,316.166c-.24-2.144-2.063-3.227-4.046-3.227s-3.428,2.238-3.227,4.044c.238,2.144,2.061,3.228,4.044,3.228s3.43-2.239,3.229-4.045" transform="translate(9.736 12.776)" fill="#fff4c0"/>
        <path id="Trazado_988069" data-name="Trazado 988069" d="M275.071,320.269c-.239-2.144-2.062-3.228-4.045-3.228s-3.428,2.239-3.227,4.045c.239,2.144,2.061,3.228,4.044,3.228s3.43-2.239,3.228-4.045" transform="translate(10.933 12.944)" fill="#fff4c0"/>
        <path id="Trazado_988070" data-name="Trazado 988070" d="M300.838,323.07a3.673,3.673,0,0,0-1.091-1.5l-.2-.2a2.723,2.723,0,0,0-1.276-.641,3.758,3.758,0,0,0-3.873,1.154q-.25.4-.5.806a3.679,3.679,0,0,0-.3,1.92q.114.461.227.921a3.682,3.682,0,0,0,1.091,1.5l.2.2a2.715,2.715,0,0,0,1.275.641,3.758,3.758,0,0,0,3.873-1.154l.5-.806a3.69,3.69,0,0,0,.3-1.92l-.228-.921" transform="translate(11.985 13.086)" fill="#fff4c0"/>
        <path id="Trazado_988071" data-name="Trazado 988071" d="M325.09,325.154c-.239-2.144-2.062-3.228-4.045-3.228s-3.428,2.239-3.227,4.045c.239,2.144,2.061,3.228,4.044,3.228s3.429-2.239,3.228-4.045" transform="translate(12.975 13.143)" fill="#fff4c0"/>
        <path id="Trazado_988072" data-name="Trazado 988072" d="M309.85,337.268c-.239-2.144-2.062-3.228-4.045-3.228s-3.428,2.239-3.227,4.045c.238,2.144,2.061,3.228,4.044,3.228s3.43-2.239,3.228-4.045" transform="translate(12.352 13.638)" fill="#fff4c0"/>
        <path id="Trazado_988073" data-name="Trazado 988073" d="M283.668,337.659c-.239-2.144-2.062-3.228-4.045-3.228s-3.429,2.239-3.227,4.045c.238,2.144,2.061,3.228,4.044,3.228s3.43-2.239,3.228-4.045" transform="translate(11.284 13.654)" fill="#fff4c0"/>
        <path id="Trazado_988074" data-name="Trazado 988074" d="M256.313,332.969c-.239-2.143-2.062-3.227-4.045-3.227s-3.428,2.239-3.227,4.045c.238,2.144,2.061,3.228,4.044,3.228s3.43-2.239,3.228-4.046" transform="translate(10.167 13.462)" fill="#fff4c0"/>
        <path id="Trazado_988075" data-name="Trazado 988075" d="M237.556,341.957c-.239-2.144-2.062-3.228-4.045-3.228s-3.429,2.239-3.227,4.045c.239,2.144,2.061,3.228,4.044,3.228s3.429-2.239,3.228-4.045" transform="translate(9.401 13.829)" fill="#fff4c0"/>
        <path id="Trazado_988076" data-name="Trazado 988076" d="M268.818,354.853c-.239-2.144-2.062-3.228-4.045-3.228s-3.428,2.239-3.227,4.045c.238,2.144,2.061,3.228,4.044,3.228s3.429-2.239,3.228-4.045" transform="translate(10.677 14.356)" fill="#fff4c0"/>
        <path id="Trazado_988077" data-name="Trazado 988077" d="M296.954,355.439c-.239-2.144-2.062-3.228-4.045-3.228s-3.428,2.239-3.227,4.045c.238,2.144,2.061,3.228,4.044,3.228s3.43-2.239,3.228-4.045" transform="translate(11.826 14.38)" fill="#fff4c0"/>
        <path id="Trazado_988078" data-name="Trazado 988078" d="M332.124,348.014c-.239-2.144-2.062-3.227-4.045-3.227s-3.428,2.238-3.227,4.044c.238,2.144,2.061,3.228,4.044,3.228s3.43-2.239,3.228-4.045" transform="translate(13.262 14.077)" fill="#fff4c0"/>
        <path id="Trazado_988079" data-name="Trazado 988079" d="M320.6,359.347c-.239-2.144-2.062-3.228-4.045-3.228s-3.428,2.239-3.227,4.045c.238,2.144,2.061,3.228,4.044,3.228s3.43-2.239,3.228-4.045" transform="translate(12.791 14.539)" fill="#fff4c0"/>
        <path id="Trazado_988080" data-name="Trazado 988080" d="M345.215,358.565c-.239-2.144-2.062-3.228-4.045-3.228s-3.429,2.239-3.227,4.045c.238,2.144,2.061,3.228,4.044,3.228s3.43-2.239,3.228-4.045" transform="translate(13.796 14.507)" fill="#fff4c0"/>
        <path id="Trazado_988081" data-name="Trazado 988081" d="M288.357,370.289c-.239-2.144-2.062-3.228-4.045-3.228s-3.428,2.239-3.227,4.045c.239,2.144,2.061,3.228,4.045,3.228s3.428-2.239,3.227-4.045" transform="translate(11.475 14.986)" fill="#fff4c0"/>
        <path id="Trazado_988082" data-name="Trazado 988082" d="M249.084,354.071c-.239-2.144-2.062-3.228-4.045-3.228s-3.429,2.239-3.227,4.045c.239,2.144,2.061,3.228,4.045,3.228s3.428-2.239,3.227-4.045" transform="translate(9.872 14.324)" fill="#fff4c0"/>
        <path id="Trazado_988083" data-name="Trazado 988083" d="M233.258,363.059c-.239-2.144-2.062-3.228-4.045-3.228s-3.428,2.239-3.227,4.045c.238,2.144,2.061,3.228,4.044,3.228s3.43-2.239,3.228-4.045" transform="translate(9.225 14.691)" fill="#fff4c0"/>
        <path id="Trazado_988084" data-name="Trazado 988084" d="M257.29,372.242c-.239-2.144-2.062-3.228-4.045-3.228s-3.428,2.239-3.227,4.045c.239,2.144,2.061,3.228,4.045,3.228s3.428-2.239,3.227-4.045" transform="translate(10.207 15.066)" fill="#fff4c0"/>
        <path id="Trazado_988085" data-name="Trazado 988085" d="M399.464,670.709H322.885L287.377,486.49,269.848,385.463a169.411,169.411,0,0,0,23.117-.819c21.084-2.253,42.4-9.159,57.88-25.107A134.76,134.76,0,0,1,362.082,389.3c10.374,42.093,37.382,281.412,37.382,281.412" transform="translate(11.017 14.679)" fill="#19203f"/>
        <path id="Trazado_988086" data-name="Trazado 988086" d="M295.721,383.941l-5.589,101.846L278.924,670.006H202.361l17.206-293.263h.015A227.776,227.776,0,0,0,272.6,384.76a169.412,169.412,0,0,0,23.117-.819" transform="translate(8.262 15.381)" fill="#19203f"/>
        <path id="Trazado_988087" data-name="Trazado 988087" d="M288.653,485.644a.732.732,0,0,1-.723-.626l-10.665-73.257-38.2-12.151a.732.732,0,0,1,.442-1.395l38.64,12.289a.732.732,0,0,1,.5.592l10.733,73.709a.732.732,0,0,1-.618.83.918.918,0,0,1-.107.007" transform="translate(9.739 16.256)" fill="#fff"/>
        <rect id="Rectángulo_407885" data-name="Rectángulo 407885" width="520.413" height="520.413" fill="none"/>
      </g>
      <rect id="Rectángulo_407886" data-name="Rectángulo 407886" width="520.413" height="685.387" transform="translate(0 0)" fill="none"/>
    </g>
  </g>
</svg>
