<svg xmlns="http://www.w3.org/2000/svg" xmlns:xlink="http://www.w3.org/1999/xlink" width="498" height="505" viewBox="0 0 498 505">
  <defs>
    <clipPath id="clip-path">
      <rect id="Rectángulo_407958" data-name="Rectángulo 407958" width="498" height="505" transform="translate(179.912 755.554)" fill="#fff" stroke="#707070" stroke-width="1" opacity="0.59"/>
    </clipPath>
    <clipPath id="clip-path-2">
      <rect id="Rectángulo_407956" data-name="Rectángulo 407956" width="551" height="551" transform="translate(0.242 0.112)" fill="none"/>
    </clipPath>
    <clipPath id="clip-path-3">
      <rect id="Rectángulo_407954" data-name="Rectángulo 407954" width="9.278" height="9.277" fill="none"/>
    </clipPath>
    <clipPath id="clip-path-4">
      <rect id="Rectángulo_407955" data-name="Rectángulo 407955" width="5.093" height="11.451" fill="none"/>
    </clipPath>
  </defs>
  <g id="Enmascarar_grupo_1098748" data-name="Enmascarar grupo 1098748" transform="translate(-179.912 -755.554)" clip-path="url(#clip-path)">
    <g id="Grupo_1149790" data-name="Grupo 1149790" transform="translate(156.669 742.442)">
      <rect id="Rectángulo_407953" data-name="Rectángulo 407953" width="483.527" height="1.223" transform="translate(23.57 508.238)" fill="#19203f"/>
      <g id="Grupo_1149789" data-name="Grupo 1149789" transform="translate(0 0)" clip-path="url(#clip-path-2)">
        <path id="Trazado_988531" data-name="Trazado 988531" d="M45.95,233.43c0,119.862,97.167,217.029,217.029,217.029S480.008,353.292,480.008,233.43,382.841,16.4,262.979,16.4,45.95,113.568,45.95,233.43" transform="translate(20.533 1.493)" fill="#d9eff8"/>
        <path id="Trazado_988532" data-name="Trazado 988532" d="M194.867,312.108a54.877,54.877,0,0,0,11.984-1.346.665.665,0,0,0,.5-.8l-1.629-7.187a45.478,45.478,0,0,0,11.812-4.665l3.729,6.359a.664.664,0,0,0,.907.238,54.665,54.665,0,0,0,17.509-16.383.664.664,0,0,0-.175-.926l-6.1-4.138a45.647,45.647,0,0,0,6.24-14.4l7.189,1.629a.664.664,0,0,0,.8-.5,54.056,54.056,0,0,0,0-23.977.664.664,0,0,0-.8-.5l-7.187,1.629a45.643,45.643,0,0,0-4.665-11.809l6.358-3.723a.665.665,0,0,0,.239-.908,54.566,54.566,0,0,0-16.384-17.51.666.666,0,0,0-.926.177l-4.137,6.1a45.561,45.561,0,0,0-14.4-6.241l1.629-7.187a.665.665,0,0,0-.5-.8,53.773,53.773,0,0,0-23.971,0,.665.665,0,0,0-.5.8l1.63,7.187A45.619,45.619,0,0,0,172.2,217.9l-3.723-6.358a.664.664,0,0,0-.907-.239,54.521,54.521,0,0,0-17.511,16.376.667.667,0,0,0,.177.927l6.109,4.137a45.665,45.665,0,0,0-6.246,14.4l-7.189-1.63a.665.665,0,0,0-.8.5,53.807,53.807,0,0,0,0,23.979.666.666,0,0,0,.8.5l7.187-1.629a45.4,45.4,0,0,0,4.665,11.805L148.4,284.4a.664.664,0,0,0-.238.907,54.592,54.592,0,0,0,16.376,17.508.664.664,0,0,0,.926-.175l4.139-6.108a45.689,45.689,0,0,0,14.4,6.246l-1.631,7.189a.666.666,0,0,0,.5.8,54.972,54.972,0,0,0,11.986,1.346m11.039-2.5a52.629,52.629,0,0,1-22.083,0l1.627-7.179a.664.664,0,0,0-.5-.8,44.37,44.37,0,0,1-15.153-6.572.665.665,0,0,0-.924.179l-4.131,6.1a53.324,53.324,0,0,1-15.092-16.127L156,281.485a.666.666,0,0,0,.237-.91,44.085,44.085,0,0,1-5-12.649.66.66,0,0,0-.294-.416.674.674,0,0,0-.5-.086l-7.181,1.628a52.456,52.456,0,0,1,0-22.092l7.181,1.629a.667.667,0,0,0,.8-.5,44.364,44.364,0,0,1,6.572-15.154.662.662,0,0,0-.179-.922l-6.1-4.131a53.21,53.21,0,0,1,16.128-15.092l3.719,6.352a.664.664,0,0,0,.909.238,44.3,44.3,0,0,1,12.657-5,.66.66,0,0,0,.416-.294.669.669,0,0,0,.086-.5l-1.627-7.181a52.419,52.419,0,0,1,22.084,0l-1.627,7.181a.664.664,0,0,0,.5.8,44.243,44.243,0,0,1,15.153,6.564.665.665,0,0,0,.924-.177l4.131-6.094a53.26,53.26,0,0,1,15.1,16.128l-6.353,3.719a.666.666,0,0,0-.238.909,44.239,44.239,0,0,1,5,12.656.666.666,0,0,0,.794.5l7.18-1.628a52.669,52.669,0,0,1,0,22.091l-7.181-1.628a.664.664,0,0,0-.794.5,44.37,44.37,0,0,1-6.564,15.146.665.665,0,0,0,.177.924l6.094,4.131a53.358,53.358,0,0,1-16.129,15.1l-3.725-6.353a.666.666,0,0,0-.91-.237,44.1,44.1,0,0,1-12.656,5,.664.664,0,0,0-.5.8Zm-10.971-15.572A34.934,34.934,0,1,0,160,259.1a34.973,34.973,0,0,0,34.934,34.934m0-68.538a33.6,33.6,0,1,1-33.6,33.6,33.642,33.642,0,0,1,33.6-33.6" transform="translate(146.959 20.876)" fill="#46b2e0"/>
        <path id="Trazado_988533" data-name="Trazado 988533" d="M249.315,117.453a.718.718,0,0,0,.167-.021l2.141-.552c.594-.2,1.134-.4,1.674-.6l.469-.172a13.6,13.6,0,0,0,1.641-.705l.769-.371a15.674,15.674,0,0,0,1.7-.912,29.39,29.39,0,0,0,7-5.588.662.662,0,0,0,.18-.478.672.672,0,0,0-.211-.466l-3.915-3.641a24.073,24.073,0,0,0,4.416-7.272l5.04,1.8a.666.666,0,0,0,.849-.4l.373-1.044c.079-.248.14-.48.2-.711.034-.132.068-.264.106-.4.064-.265.126-.5.188-.738.125-.474.253-.967.344-1.472l.335-2.207a11.212,11.212,0,0,0,.13-1.535c.01-.237.019-.474.036-.711L273,88.135a7.3,7.3,0,0,0-.017-.826c-.007-.108-.013-.216-.017-.325-.033-.75-.067-1.487-.12-2.224l-.108-.746a26.583,26.583,0,0,0-.729-3.736.662.662,0,0,0-.8-.456l-5.177,1.344a24.351,24.351,0,0,0-5.1-9.3l3.916-3.643a.666.666,0,0,0,.03-.943,29.7,29.7,0,0,0-7.034-5.61,15.4,15.4,0,0,0-1.662-.888l-.772-.373a13.712,13.712,0,0,0-1.657-.711l-.464-.17c-.535-.2-1.071-.394-1.611-.579l-2.189-.567a.685.685,0,0,0-.513.076.662.662,0,0,0-.3.42L247.475,64.1a24.558,24.558,0,0,0-8.509-.183l-.959-5.273a.665.665,0,0,0-.782-.534,30.368,30.368,0,0,0-8.525,2.927,31.229,31.229,0,0,0-7.266,5.284.665.665,0,0,0-.008.94l3.763,3.822a24.374,24.374,0,0,0-5.5,9.06l-5.137-1.577a.665.665,0,0,0-.832.446,30.381,30.381,0,0,0,0,17.793.661.661,0,0,0,.832.446l5.137-1.576a24.032,24.032,0,0,0,4.1,7.456l-4.081,3.478a.664.664,0,0,0-.074.938,30.465,30.465,0,0,0,15.013,9.565.668.668,0,0,0,.814-.466l1.421-5.164a24.494,24.494,0,0,0,10.6.235l1.192,5.219a.659.659,0,0,0,.3.42.668.668,0,0,0,.346.1M263.44,108.1a27.694,27.694,0,0,1-6.252,4.878,14.757,14.757,0,0,1-1.594.855l-.768.37a12.427,12.427,0,0,1-1.5.647l-.491.18c-.53.2-1.061.391-1.6.574l-1.43.366-1.184-5.191a.665.665,0,0,0-.794-.5,23.127,23.127,0,0,1-11.245-.25.649.649,0,0,0-.505.062.666.666,0,0,0-.314.4l-1.418,5.152a29.159,29.159,0,0,1-13.273-8.463l4.067-3.466a.667.667,0,0,0,.076-.938,22.7,22.7,0,0,1-4.465-8.128.667.667,0,0,0-.324-.393.659.659,0,0,0-.506-.049l-5.116,1.57a28.943,28.943,0,0,1,0-15.745l5.116,1.57a.663.663,0,0,0,.831-.44,23.036,23.036,0,0,1,5.835-9.609.664.664,0,0,0,.008-.939l-3.75-3.81a30.128,30.128,0,0,1,6.48-4.6,28.508,28.508,0,0,1,7.493-2.659l.957,5.249a.659.659,0,0,0,.276.428.652.652,0,0,0,.5.107,23.281,23.281,0,0,1,9.282.2.667.667,0,0,0,.794-.5l1.184-5.191,1.479.382c.482.167,1.008.36,1.534.554l.487.178a12.626,12.626,0,0,1,1.516.652l.771.372a14.677,14.677,0,0,1,1.556.832,27.975,27.975,0,0,1,6.288,4.9l-3.9,3.629a.664.664,0,0,0-.033.939,23.033,23.033,0,0,1,5.408,9.861.665.665,0,0,0,.81.477l5.174-1.344c.235.96.381,1.96.522,2.931l.1.7c.046.674.079,1.4.113,2.132,0,.113.011.231.018.35a6.109,6.109,0,0,1,.017.681l-.054,1.108c-.018.235-.028.488-.038.739a10.266,10.266,0,0,1-.114,1.373l-.334,2.2c-.081.437-.2.884-.32,1.356-.064.245-.128.49-.188.737-.032.114-.07.255-.106.4-.054.206-.108.414-.173.618l-.142.4L265.169,95.2a.665.665,0,0,0-.85.4,22.773,22.773,0,0,1-4.813,7.928.664.664,0,0,0,.033.939Zm-20.748-3.956A16.373,16.373,0,1,0,226.316,87.77a16.4,16.4,0,0,0,16.376,16.378m0-31.417A15.044,15.044,0,1,1,227.645,87.77a15.059,15.059,0,0,1,15.047-15.039" transform="translate(43.895 5.803)" fill="#46b2e0"/>
        <path id="Trazado_988534" data-name="Trazado 988534" d="M120.292,315.228a.727.727,0,0,0,.167-.021l2.141-.552c.588-.2,1.122-.4,1.655-.593l.488-.179a13.628,13.628,0,0,0,1.639-.7l.772-.372a15.839,15.839,0,0,0,1.7-.911,29.412,29.412,0,0,0,7-5.589.666.666,0,0,0-.031-.942l-3.915-3.642a24.057,24.057,0,0,0,4.416-7.271l5.04,1.794a.666.666,0,0,0,.849-.4l.373-1.043c.079-.249.14-.48.2-.712.034-.131.068-.264.106-.395.064-.266.126-.5.189-.743.124-.473.252-.963.344-1.465l.335-2.208a11.387,11.387,0,0,0,.129-1.534c.01-.237.019-.476.036-.713l.054-1.12a7.453,7.453,0,0,0-.017-.835c-.007-.107-.013-.213-.017-.319-.033-.748-.067-1.486-.12-2.223l-.109-.751a26.683,26.683,0,0,0-.727-3.731.664.664,0,0,0-.805-.456L137,278.941a24.377,24.377,0,0,0-5.1-9.3L135.818,266a.668.668,0,0,0,.031-.943,29.715,29.715,0,0,0-7.035-5.61,15.588,15.588,0,0,0-1.672-.894l-.755-.364a13.685,13.685,0,0,0-1.665-.715l-.455-.167c-.538-.2-1.077-.4-1.62-.583l-2.19-.567a.684.684,0,0,0-.513.076.662.662,0,0,0-.3.42l-1.192,5.22a24.608,24.608,0,0,0-8.508-.185l-.96-5.271a.663.663,0,0,0-.279-.43.653.653,0,0,0-.5-.1,30.309,30.309,0,0,0-8.525,2.926,31.277,31.277,0,0,0-7.267,5.284.665.665,0,0,0-.008.94l3.763,3.822a24.385,24.385,0,0,0-5.5,9.06l-5.138-1.577a.664.664,0,0,0-.509.05.671.671,0,0,0-.323.4,30.385,30.385,0,0,0,0,17.794.671.671,0,0,0,.323.4.66.66,0,0,0,.509.048l5.137-1.576a24,24,0,0,0,4.1,7.456l-4.081,3.478a.664.664,0,0,0-.074.938,30.473,30.473,0,0,0,15.013,9.565.665.665,0,0,0,.814-.466l1.421-5.164a24.494,24.494,0,0,0,10.6.235l1.192,5.219a.659.659,0,0,0,.3.42.669.669,0,0,0,.346.1m14.127-9.349a27.779,27.779,0,0,1-6.253,4.879,14.914,14.914,0,0,1-1.592.853l-.771.372a12.438,12.438,0,0,1-1.5.646l-.51.186c-.525.193-1.049.386-1.579.567l-1.43.367-1.184-5.193a.663.663,0,0,0-.794-.5,23.135,23.135,0,0,1-11.243-.252.655.655,0,0,0-.506.062.665.665,0,0,0-.313.4l-1.418,5.153a29.168,29.168,0,0,1-13.274-8.464l4.067-3.466a.666.666,0,0,0,.076-.938,22.7,22.7,0,0,1-4.465-8.128.664.664,0,0,0-.83-.441l-5.118,1.57a28.939,28.939,0,0,1,0-15.744L90.9,279.38a.663.663,0,0,0,.83-.44,23.034,23.034,0,0,1,5.835-9.609.664.664,0,0,0,.008-.939l-3.75-3.809a30.115,30.115,0,0,1,6.481-4.6,28.447,28.447,0,0,1,7.493-2.658l.956,5.248a.663.663,0,0,0,.276.428.672.672,0,0,0,.5.107,23.263,23.263,0,0,1,9.282.2.666.666,0,0,0,.794-.5l1.184-5.193,1.48.382c.483.169,1.014.363,1.543.557l.477.174a12.833,12.833,0,0,1,1.524.656l.755.364a14.638,14.638,0,0,1,1.565.835,28,28,0,0,1,6.288,4.9l-3.9,3.629a.663.663,0,0,0-.034.939,23.015,23.015,0,0,1,5.409,9.862.664.664,0,0,0,.81.477l5.174-1.345c.234.959.38,1.955.52,2.926l.1.706c.047.674.079,1.4.113,2.132,0,.11.011.226.018.341a6.268,6.268,0,0,1,.017.69l-.054,1.109c-.018.235-.028.488-.038.74a10.438,10.438,0,0,1-.113,1.371l-.334,2.2c-.081.435-.2.879-.32,1.351-.064.246-.129.493-.189.741-.033.115-.07.256-.107.4-.053.206-.107.414-.172.619l-.141.4-5.034-1.791a.663.663,0,0,0-.848.4,22.785,22.785,0,0,1-4.814,7.928.664.664,0,0,0,.033.939Zm-20.749-3.956a16.373,16.373,0,1,0-16.376-16.376,16.4,16.4,0,0,0,16.376,16.376m0-31.417a15.044,15.044,0,1,1-15.047,15.04,15.06,15.06,0,0,1,15.047-15.04" transform="translate(315.28 26.25)" fill="#46b2e0"/>
        <path id="Trazado_988535" data-name="Trazado 988535" d="M245.006,138.719c1.1,0,2.218-.036,3.312-.11a.44.44,0,0,0,.409-.469.454.454,0,0,0-.468-.409,48.925,48.925,0,0,1-5.229.068.453.453,0,0,0-.459.423.443.443,0,0,0,.423.458q1,.04,2.011.04m-7.245-.538a.44.44,0,0,0,.064-.875,47.663,47.663,0,0,1-5.12-1.06.44.44,0,1,0-.225.851,48.568,48.568,0,0,0,5.215,1.079.436.436,0,0,0,.066.006m15.764-.21a.49.49,0,0,0,.078-.007,48.785,48.785,0,0,0,5.184-1.219.44.44,0,1,0-.248-.844,47.577,47.577,0,0,1-5.091,1.2.44.44,0,0,0,.077.874m-25.952-2.493a.44.44,0,0,0,.159-.851,47.913,47.913,0,0,1-4.764-2.15.44.44,0,1,0-.406.78,48.684,48.684,0,0,0,4.853,2.191.454.454,0,0,0,.159.03M263.636,135a.446.446,0,0,0,.17-.034,48.9,48.9,0,0,0,4.793-2.322.44.44,0,1,0-.426-.77,48.158,48.158,0,0,1-4.708,2.28.44.44,0,0,0,.171.846m-45.414-4.375a.44.44,0,0,0,.244-.807,48.349,48.349,0,0,1-4.184-3.133.439.439,0,0,0-.565.673,48.7,48.7,0,0,0,4.261,3.192.441.441,0,0,0,.244.074m54.635-.733a.43.43,0,0,0,.254-.081,49,49,0,0,0,4.175-3.3.441.441,0,0,0-.583-.661,48.222,48.222,0,0,1-4.1,3.247.44.44,0,0,0,.254.8m-62.713-6.032a.44.44,0,0,0,.317-.745,48.318,48.318,0,0,1-3.411-3.963.44.44,0,1,0-.7.536,49.282,49.282,0,0,0,3.473,4.037.44.44,0,0,0,.318.135m70.609-.947a.442.442,0,0,0,.327-.143,49.628,49.628,0,0,0,3.364-4.128.44.44,0,0,0-.712-.517,48.237,48.237,0,0,1-3.3,4.052.441.441,0,0,0,.03.622.436.436,0,0,0,.3.115m-77.04-7.4a.441.441,0,0,0,.376-.669,47.78,47.78,0,0,1-2.472-4.609.44.44,0,0,0-.8.373,48.662,48.662,0,0,0,2.518,4.693.438.438,0,0,0,.375.212m83.244-1.113a.439.439,0,0,0,.382-.221,48.489,48.489,0,0,0,2.39-4.757.44.44,0,1,0-.805-.352,47.989,47.989,0,0,1-2.348,4.671.44.44,0,0,0,.163.6.436.436,0,0,0,.218.058m-87.708-8.434a.451.451,0,0,0,.141-.023.441.441,0,0,0,.276-.558,46.972,46.972,0,0,1-1.409-5.037.44.44,0,0,0-.86.19,48.132,48.132,0,0,0,1.434,5.131.441.441,0,0,0,.417.3m91.915-1.225a.44.44,0,0,0,.42-.31,48.739,48.739,0,0,0,1.3-5.164.441.441,0,1,0-.865-.168,47.811,47.811,0,0,1-1.272,5.071.44.44,0,0,0,.29.551.45.45,0,0,0,.13.02M196.97,95.669l.049,0a.441.441,0,0,0,.391-.484,48.746,48.746,0,0,1-.281-5.222.44.44,0,0,0-.881,0,49.6,49.6,0,0,0,.287,5.316.438.438,0,0,0,.436.393m96.194-1.28a.44.44,0,0,0,.437-.4c.109-1.331.164-2.685.164-4.024q0-.65-.017-1.3a.447.447,0,0,0-.451-.429.441.441,0,0,0-.429.452c.011.424.018.848.018,1.274,0,1.316-.055,2.646-.161,3.953a.44.44,0,0,0,.4.474h.038m-96.4-6.694a.441.441,0,0,0,.439-.416,48.084,48.084,0,0,1,.57-5.2.44.44,0,0,0-.868-.145,49.07,49.07,0,0,0-.58,5.293.439.439,0,0,0,.415.463h.024m96.121-3.84a.541.541,0,0,0,.06,0,.442.442,0,0,0,.377-.5,48.733,48.733,0,0,0-1-5.229.44.44,0,0,0-.854.213,47.78,47.78,0,0,1,.985,5.134.439.439,0,0,0,.435.382m-94.4-6.556a.441.441,0,0,0,.424-.321A47.847,47.847,0,0,1,200.6,72.03a.44.44,0,0,0-.816-.33,48.666,48.666,0,0,0-1.719,5.04.437.437,0,0,0,.424.558m91.849-3.67a.44.44,0,0,0,.413-.593,48.5,48.5,0,0,0-2.12-4.887.44.44,0,0,0-.788.394,47.451,47.451,0,0,1,2.082,4.8.441.441,0,0,0,.413.288m-87.9-6.1a.439.439,0,0,0,.387-.232,48.025,48.025,0,0,1,2.725-4.46.44.44,0,0,0-.725-.5,49.2,49.2,0,0,0-2.776,4.544.441.441,0,0,0,.179.6.447.447,0,0,0,.21.052M285.614,64.2a.439.439,0,0,0,.37-.679,49.108,49.108,0,0,0-3.13-4.309.44.44,0,1,0-.682.556A48.165,48.165,0,0,1,285.245,64a.441.441,0,0,0,.37.2m-77.208-5.35a.44.44,0,0,0,.334-.153,48.5,48.5,0,0,1,3.625-3.768.44.44,0,1,0-.6-.643,49.094,49.094,0,0,0-3.693,3.836.441.441,0,0,0,.333.728m70.559-2.826a.441.441,0,0,0,.31-.754,49.415,49.415,0,0,0-3.985-3.531.44.44,0,1,0-.546.69,48.811,48.811,0,0,1,3.913,3.467.434.434,0,0,0,.309.128m-62.85-4.362a.439.439,0,0,0,.263-.087,48.189,48.189,0,0,1,4.355-2.9.44.44,0,0,0-.447-.758,48.912,48.912,0,0,0-4.433,2.95.439.439,0,0,0-.089.616.434.434,0,0,0,.352.177m54.594-2.187a.441.441,0,0,0,.235-.813,49.094,49.094,0,0,0-4.653-2.585.44.44,0,1,0-.385.792,47.723,47.723,0,0,1,4.569,2.539.442.442,0,0,0,.234.067M225.2,46.317a.434.434,0,0,0,.18-.04,48.238,48.238,0,0,1,4.88-1.881.44.44,0,1,0-.271-.836,48.593,48.593,0,0,0-4.97,1.915.44.44,0,0,0,.181.842m36.038-1.442a.44.44,0,0,0,.148-.855,48.763,48.763,0,0,0-5.108-1.508.439.439,0,0,0-.2.855,48.052,48.052,0,0,1,5.014,1.483.468.468,0,0,0,.148.025m-26.008-1.8a.4.4,0,0,0,.089-.009,47.731,47.731,0,0,1,5.172-.77.441.441,0,0,0-.083-.877,48.608,48.608,0,0,0-5.265.786.44.44,0,0,0,.087.871m15.754-.625a.44.44,0,0,0,.053-.877,49.318,49.318,0,0,0-5.312-.363h-.005a.44.44,0,0,0-.007.881,48.123,48.123,0,0,1,5.216.356.475.475,0,0,0,.055,0" transform="translate(40.941 4.057)" fill="#46b2e0"/>
        <path id="Trazado_988536" data-name="Trazado 988536" d="M327.806,127.032a.718.718,0,0,0,.167-.021l2.141-.552c.588-.2,1.122-.4,1.655-.592l.488-.179a13.638,13.638,0,0,0,1.639-.7l.772-.373a15.634,15.634,0,0,0,1.7-.91,29.412,29.412,0,0,0,7-5.589.666.666,0,0,0-.031-.942l-3.915-3.642a24.058,24.058,0,0,0,4.416-7.271l5.04,1.794a.666.666,0,0,0,.849-.4l.373-1.043c.079-.249.14-.48.2-.712.034-.131.068-.264.106-.395.064-.266.126-.5.189-.743.124-.473.252-.963.344-1.465l.335-2.208a11.388,11.388,0,0,0,.129-1.534c.01-.237.019-.476.036-.713l.054-1.12a7.456,7.456,0,0,0-.017-.835c-.007-.107-.012-.213-.017-.319-.033-.748-.067-1.486-.12-2.223l-.109-.751a26.692,26.692,0,0,0-.727-3.731.665.665,0,0,0-.806-.456l-5.176,1.345a24.377,24.377,0,0,0-5.1-9.3l3.915-3.642a.668.668,0,0,0,.031-.943,29.715,29.715,0,0,0-7.035-5.61,15.586,15.586,0,0,0-1.672-.894l-.755-.364a13.693,13.693,0,0,0-1.665-.715l-.455-.167c-.538-.2-1.077-.4-1.62-.583l-2.19-.567a.685.685,0,0,0-.513.076.666.666,0,0,0-.3.42l-1.192,5.22a24.61,24.61,0,0,0-8.508-.185l-.96-5.271a.663.663,0,0,0-.279-.43.653.653,0,0,0-.5-.1,30.313,30.313,0,0,0-8.525,2.926,31.276,31.276,0,0,0-7.267,5.284.666.666,0,0,0-.008.941l3.763,3.821a24.385,24.385,0,0,0-5.5,9.06l-5.138-1.577a.665.665,0,0,0-.832.446,30.385,30.385,0,0,0,0,17.794.671.671,0,0,0,.323.4.659.659,0,0,0,.509.049l5.137-1.576a24,24,0,0,0,4.1,7.456l-4.081,3.478a.664.664,0,0,0-.074.938,30.472,30.472,0,0,0,15.013,9.565.664.664,0,0,0,.814-.466l1.421-5.164a24.494,24.494,0,0,0,10.6.235l1.192,5.219a.663.663,0,0,0,.648.517m14.127-9.349a27.778,27.778,0,0,1-6.253,4.879,14.907,14.907,0,0,1-1.592.853l-.771.372a12.445,12.445,0,0,1-1.5.645l-.51.186c-.525.193-1.049.386-1.579.567l-1.43.367-1.184-5.193a.663.663,0,0,0-.794-.5,23.135,23.135,0,0,1-11.243-.252.655.655,0,0,0-.506.062.665.665,0,0,0-.313.4l-1.418,5.153a29.168,29.168,0,0,1-13.274-8.464l4.067-3.466a.666.666,0,0,0,.076-.938,22.7,22.7,0,0,1-4.465-8.128.664.664,0,0,0-.83-.441l-5.117,1.57a28.939,28.939,0,0,1,0-15.744l5.117,1.569a.663.663,0,0,0,.83-.44,23.033,23.033,0,0,1,5.835-9.609.664.664,0,0,0,.008-.939l-3.75-3.809a30.112,30.112,0,0,1,6.481-4.6,28.446,28.446,0,0,1,7.493-2.658l.956,5.248a.663.663,0,0,0,.276.428.672.672,0,0,0,.5.107,23.264,23.264,0,0,1,9.282.2.666.666,0,0,0,.794-.5l1.184-5.193,1.48.382c.483.169,1.014.363,1.543.557l.477.174a12.839,12.839,0,0,1,1.524.657l.755.364a14.631,14.631,0,0,1,1.565.835,27.974,27.974,0,0,1,6.288,4.9l-3.9,3.628a.663.663,0,0,0-.034.939,23.014,23.014,0,0,1,5.409,9.862.664.664,0,0,0,.81.477l5.174-1.345c.234.959.38,1.955.52,2.926l.1.706c.047.674.079,1.4.113,2.132,0,.11.011.226.018.341a6.268,6.268,0,0,1,.017.69l-.054,1.109c-.018.235-.028.488-.038.74a10.443,10.443,0,0,1-.112,1.372l-.334,2.2c-.081.435-.2.879-.32,1.351-.064.246-.129.493-.189.741-.033.115-.07.256-.107.4-.053.206-.107.414-.172.619l-.141.4-5.034-1.791a.663.663,0,0,0-.848.4A22.785,22.785,0,0,1,338,113.115a.664.664,0,0,0,.033.939Zm-20.749-3.956A16.373,16.373,0,1,0,304.807,97.35a16.4,16.4,0,0,0,16.376,16.376m0-31.417a15.044,15.044,0,1,1-15.047,15.04,15.06,15.06,0,0,1,15.047-15.04" transform="translate(-121.201 6.793)" fill="#46b2e0"/>
        <path id="Trazado_988537" data-name="Trazado 988537" d="M69.428,101.023,57.183,164.486a5.4,5.4,0,0,0,4.277,6.321l94.688,18.269a5.4,5.4,0,0,0,6.322-4.277l12.244-63.463a5.4,5.4,0,0,0-4.277-6.321L75.749,96.746a5.4,5.4,0,0,0-6.321,4.277" transform="translate(313.442 9.789)" fill="#ffde33"/>
        <path id="Trazado_988538" data-name="Trazado 988538" d="M102.324,145.989a.537.537,0,0,0,.224-.05l54.57-25.56a.526.526,0,1,0-.447-.953l-54.222,25.4L61.935,101.149a.527.527,0,0,0-.772.717l40.774,43.954a.526.526,0,0,0,.386.169" transform="translate(326.489 10.237)" fill="#19203f"/>
        <path id="Trazado_988539" data-name="Trazado 988539" d="M100.643,181.955a.527.527,0,0,0,.431-.829l-30.364-43.34a.527.527,0,1,0-.863.6l30.363,43.339a.527.527,0,0,0,.433.225" transform="translate(373.109 14.019)" fill="#19203f"/>
        <path id="Trazado_988540" data-name="Trazado 988540" d="M122.071,164.293a.521.521,0,0,0,.311-.1l41.95-30.794a.527.527,0,0,0-.625-.85l-41.948,30.8a.527.527,0,0,0,.312.951" transform="translate(252.586 13.49)" fill="#19203f"/>
        <path id="Trazado_988541" data-name="Trazado 988541" d="M130.223,89.015a37.028,37.028,0,1,0,37.028-37.028,37.029,37.029,0,0,0-37.028,37.028" transform="translate(203.276 5.172)" fill="#de53d4"/>
        <path id="Trazado_988542" data-name="Trazado 988542" d="M187.74,67.136v40.627l-34.8-21.9Z" transform="translate(194.746 6.738)" fill="#fff"/>
        <path id="Trazado_988543" data-name="Trazado 988543" d="M133.555,115.987a34.3,34.3,0,0,0,19.4-34.833c-.07-.627.9-.785.971-.154a35.29,35.29,0,0,1-19.962,35.882.492.492,0,0,1-.406-.895" transform="translate(250.045 8.129)" fill="#19203f"/>
        <path id="Trazado_988544" data-name="Trazado 988544" d="M194.765,71.946c.353-.526,1.148.053.8.578a25.054,25.054,0,0,0-4.192,15.415c.039.627-.931.787-.971.154a26.156,26.156,0,0,1,4.367-16.148" transform="translate(145.565 7.214)" fill="#19203f"/>
        <path id="Trazado_988545" data-name="Trazado 988545" d="M88.558,84.807a3.932,3.932,0,0,0,3.923,3.913h9.978V98.844a3.917,3.917,0,1,0,7.834,0V88.72h9.978a3.918,3.918,0,0,0,0-7.835h-9.978v-9.83a3.917,3.917,0,0,0-7.834,0v9.83H92.481a3.94,3.94,0,0,0-3.923,3.923" transform="translate(329.335 6.737)" fill="#46b2e0"/>
        <path id="Trazado_988546" data-name="Trazado 988546" d="M173.584,254.46a3.932,3.932,0,0,0,3.923,3.913h9.978V268.5a3.917,3.917,0,1,0,7.834,0V258.373H205.3a3.918,3.918,0,0,0,0-7.835h-9.978v-9.83a3.917,3.917,0,0,0-7.834,0v9.83h-9.978a3.94,3.94,0,0,0-3.923,3.923" transform="translate(150.493 24.277)" fill="#46b2e0"/>
        <path id="Trazado_988547" data-name="Trazado 988547" d="M49.6,269.588l16.534-13.939a55.4,55.4,0,0,1,5.682-77.256l6.478,9.4,19.424-40.913L52.581,150.5l6.892,9.988a77.028,77.028,0,0,0-9.87,109.1" transform="translate(418.78 14.982)" fill="#de53d4"/>
        <path id="Trazado_988548" data-name="Trazado 988548" d="M132.382,176.312a39.88,39.88,0,0,0-13.01,2.217l12.575,38.052,13.89-38.023a40.04,40.04,0,0,0-13.456-2.247" transform="translate(273.691 18.025)" fill="#4b72bf"/>
        <path id="Trazado_988549" data-name="Trazado 988549" d="M122,178.32a40.263,40.263,0,1,0,53.446,37.871l-40.87.181Z" transform="translate(271.066 18.232)" fill="#ffde33"/>
        <path id="Trazado_988550" data-name="Trazado 988550" d="M108.808,178.348,94.919,216.371l40.87-.182a40.271,40.271,0,0,0-26.981-37.841" transform="translate(310.72 18.235)" fill="#de53d4"/>
        <path id="Trazado_988551" data-name="Trazado 988551" d="M103.48,246.8a42.238,42.238,0,0,0,27.174-9.618,41.169,41.169,0,0,0,5.819-5.88c.4-.492,1.1.2.706.684a43.172,43.172,0,0,1-25.317,15.059,41.825,41.825,0,0,1-8.367.738c-.632-.009-.65-.992-.015-.983" transform="translate(300.284 23.693)" fill="#19203f"/>
        <path id="Trazado_988552" data-name="Trazado 988552" d="M140.614,242.32l6.135,2.2a.506.506,0,0,1,.361.595.5.5,0,0,1-.595.36l-6.136-2.2a.507.507,0,0,1-.36-.595.5.5,0,0,1,.595-.36" transform="translate(249.639 24.847)" fill="#19203f"/>
        <path id="Trazado_988553" data-name="Trazado 988553" d="M125,178.673l9.681,28.9,2.433,7.264,7.547-21.313c.21-.591,1.166-.361.956.235l-7.888,22.273a.507.507,0,0,1-.548.335.5.5,0,0,1-.686-.289q-4.839-14.45-9.68-28.9l-2.761-8.241c-.2-.6.746-.863.947-.264" transform="translate(268.755 18.234)" fill="#19203f"/>
        <path id="Trazado_988554" data-name="Trazado 988554" d="M131.714,144.77l2.946,23.892a9.437,9.437,0,0,0,10.49,8.187l18.553-2.287L162.542,186.1,178.1,172.786l26.249-3.236a9.438,9.438,0,0,0,8.187-10.491l-2.946-23.892a9.437,9.437,0,0,0-10.49-8.187l-59.2,7.3a9.437,9.437,0,0,0-8.187,10.49" transform="translate(193.382 12.917)" fill="#26617a"/>
        <path id="Trazado_988555" data-name="Trazado 988555" d="M142.346,144.39a1.169,1.169,0,0,0,1.3,1.008l58.989-7.273a1.16,1.16,0,0,0-.284-2.3l-58.99,7.273a1.164,1.164,0,0,0-1.017,1.294" transform="translate(190.534 13.838)" fill="#fff"/>
        <path id="Trazado_988556" data-name="Trazado 988556" d="M141.361,152.379a1.169,1.169,0,0,0,1.3,1.008l58.989-7.274a1.16,1.16,0,1,0-.284-2.3l-58.99,7.273a1.165,1.165,0,0,0-1.017,1.294" transform="translate(192.606 14.664)" fill="#fff"/>
        <path id="Trazado_988557" data-name="Trazado 988557" d="M140.237,158.617a1.169,1.169,0,0,0,1.3,1.009l35.643-4.395a1.16,1.16,0,1,0-.285-2.3l-35.643,4.395a1.165,1.165,0,0,0-1.017,1.294" transform="translate(218.316 15.606)" fill="#fff"/>
        <path id="Trazado_988558" data-name="Trazado 988558" d="M136.76,128.276a8.682,8.682,0,0,1,8.321,6.256.392.392,0,0,1-.754.216,7.881,7.881,0,0,0-7.558-5.688.393.393,0,0,1-.009-.785" transform="translate(255.659 13.059)" fill="#19203f"/>
        <path id="Trazado_988559" data-name="Trazado 988559" d="M133.3,149.814c-.044-.5.739-.51.785-.009l.705,7.932c.044.5-.74.509-.785.008l-.705-7.931" transform="translate(269.363 15.246)" fill="#19203f"/>
        <path id="Trazado_988560" data-name="Trazado 988560" d="M61.5,72.925a3.055,3.055,0,0,0,3.049,3.041H72.3v7.869a3.044,3.044,0,1,0,6.088,0V75.966h7.755a3.045,3.045,0,0,0,0-6.09H78.392v-7.64a3.044,3.044,0,0,0-6.088,0v7.64H64.549A3.062,3.062,0,0,0,61.5,72.925" transform="translate(394.189 5.916)" fill="#de53d4"/>
        <path id="Trazado_988561" data-name="Trazado 988561" d="M61.5,104.422a3.055,3.055,0,0,0,3.049,3.041H72.3v7.869a3.044,3.044,0,1,0,6.088,0v-7.869h7.755a3.045,3.045,0,0,0,0-6.09H78.392v-7.64a3.044,3.044,0,0,0-6.088,0v7.64H64.549a3.062,3.062,0,0,0-3.049,3.049" transform="translate(394.189 9.172)" fill="#de53d4"/>
        <path id="Trazado_988562" data-name="Trazado 988562" d="M277.652,158.468A17.7,17.7,0,0,1,300.1,147.407l88.221,29.975q.771,3.81,1.518,7.627c2.04,10.468,3.9,20.975,5.4,31.533a17.688,17.688,0,0,1-4.277-.888L288.714,180.914a17.694,17.694,0,0,1-11.061-22.446" transform="translate(-149.306 14.939)" fill="#de53d4"/>
        <path id="Trazado_988563" data-name="Trazado 988563" d="M262.592,464.708h51.717L374.818,287.8l63.94,69.851L417.708,464.4h51.717l19.867-105.03a37.1,37.1,0,0,0-7.579-30.189L412.685,243.6l-9.26-22.58c-31.879,24.624-67.121,21.715-78.859,19.857l3.294,33.708Z" transform="translate(-228.437 22.647)" fill="#19203f"/>
        <path id="Trazado_988564" data-name="Trazado 988564" d="M376.077,119.7l1.362,11.762c.033.28.073.559.114.839s.094.542.15.82c.121.578.267,1.153.442,1.709a18.375,18.375,0,0,0,.82,2.17c.076.181.159.353.242.524.051.1.094.2.146.3v.008l.152.29a18.265,18.265,0,0,0,34.349-10.528l-2.731-23.585L384.446,107.1a17.6,17.6,0,0,1-6.251,14.324,4.91,4.91,0,0,0-2.117-1.72" transform="translate(-277.692 10.55)" fill="#f79654"/>
        <path id="Trazado_988565" data-name="Trazado 988565" d="M410.328,140.441l1.033,8.92-27.982,6.888-2.405-21.384,1.172-.21c.051.1.1.2.153.3a18.183,18.183,0,0,0,28.029,5.489" transform="translate(-280.48 13.718)" fill="#f79654"/>
        <path id="Trazado_988566" data-name="Trazado 988566" d="M408.427,129.519a12.452,12.452,0,0,0,9.9,7.095l1.166-.214h.008c-.05-.1-.1-.2-.152-.3-.083-.172-.167-.344-.243-.524a18.769,18.769,0,0,1-.82-2.17c-.168-.565-.312-1.132-.435-1.71-.054-.27-.109-.54-.158-.819s-.081-.559-.113-.84l-1.362-11.761a5.729,5.729,0,0,0-3.968-.244,6.5,6.5,0,0,0-1.416.653,6.607,6.607,0,0,0-1.022.79l-.022.018a7.473,7.473,0,0,0-2.02,3.344,9.818,9.818,0,0,0,.655,6.681" transform="translate(-317.833 11.974)" fill="#f79654"/>
        <path id="Trazado_988567" data-name="Trazado 988567" d="M379.89,118.983a2.673,2.673,0,1,0,2.348-2.963,2.673,2.673,0,0,0-2.348,2.963" transform="translate(-253.121 11.79)" fill="#19203f"/>
        <path id="Trazado_988568" data-name="Trazado 988568" d="M381.8,115.11l2.85-.33a1.179,1.179,0,1,0-.27-2.342l-2.851.33a1.179,1.179,0,1,0,.271,2.342" transform="translate(-254.279 11.42)" fill="#19203f"/>
        <path id="Trazado_988569" data-name="Trazado 988569" d="M393.117,120.514a2.673,2.673,0,1,0,2.348-2.963,2.673,2.673,0,0,0-2.348,2.963" transform="translate(-280.942 11.948)" fill="#19203f"/>
        <path id="Trazado_988570" data-name="Trazado 988570" d="M395.03,116.641l2.85-.33a1.179,1.179,0,1,0-.27-2.342l-2.851.33a1.179,1.179,0,1,0,.271,2.342" transform="translate(-282.101 11.579)" fill="#19203f"/>
        <g id="Grupo_1149785" data-name="Grupo 1149785" transform="translate(102.934 136.271)" style="mix-blend-mode: soft-light;isolation: isolate">
          <g id="Grupo_1149784" data-name="Grupo 1149784">
            <g id="Grupo_1149783" data-name="Grupo 1149783" clip-path="url(#clip-path-3)">
              <path id="Trazado_988571" data-name="Trazado 988571" d="M397.925,128.86A4.639,4.639,0,1,0,402,123.719a4.639,4.639,0,0,0-4.075,5.141" transform="translate(-397.894 -123.687)" fill="#19203f"/>
            </g>
          </g>
        </g>
        <path id="Trazado_988572" data-name="Trazado 988572" d="M381.119,140.309s5.47,4.8,12.534,3.942,10.616-4.35,10.616-4.35l.876,7.569s-12.711,5.625-24.026-7.162" transform="translate(-274.424 14.261)" fill="#19203f"/>
        <g id="Grupo_1149788" data-name="Grupo 1149788" transform="translate(123.375 129.917)" style="mix-blend-mode: soft-light;isolation: isolate">
          <g id="Grupo_1149787" data-name="Grupo 1149787">
            <g id="Grupo_1149786" data-name="Grupo 1149786" clip-path="url(#clip-path-4)">
              <path id="Trazado_988573" data-name="Trazado 988573" d="M383.7,117.928l-.537,11.451,5.093-.589Z" transform="translate(-383.16 -117.928)" fill="#19203f"/>
            </g>
          </g>
        </g>
        <path id="Trazado_988574" data-name="Trazado 988574" d="M369.229,110.733l1.288,11.123a6.381,6.381,0,0,1,1.417-.653,5.726,5.726,0,0,1,3.967.243,4.91,4.91,0,0,1,2.117,1.72,17.6,17.6,0,0,0,6.251-14.324l29.475-3.413s13.356-6.606,4.88-15.389-13.245,5.046-13.245,5.046l-26.14,3.027a11.387,11.387,0,0,0-10.009,12.621" transform="translate(-277.514 8.804)" fill="#19203f"/>
        <path id="Trazado_988575" data-name="Trazado 988575" d="M413.725,120.927c2.142.741,2.49,3.139,2.63,5.1a.394.394,0,0,1-.286.38,2.837,2.837,0,0,0,.463,5.615c.5.029.509.813,0,.784a3.608,3.608,0,0,1-.986-7.049c-.11-1.456-.325-3.165-1.729-3.931-1.461-.8-2.7.5-2.749,1.947-.017.5-.8.509-.785,0,.06-1.782,1.533-3.505,3.437-2.846" transform="translate(-318.375 12.284)" fill="#19203f"/>
        <path id="Trazado_988576" data-name="Trazado 988576" d="M382.884,129.374l5.672-.787-4.673-10.916c-.2-.462.559-.669.756-.211q2.426,5.667,4.852,11.336c.114.263-.158.468-.376.5l-6.228.864c-.5.068-.5-.716,0-.785" transform="translate(-260.336 11.914)" fill="#19203f"/>
        <path id="Trazado_988577" data-name="Trazado 988577" d="M396.467,132.01l-10.976-2.323s-1.644,6.019,3.81,7.363,7.166-5.04,7.166-5.04" transform="translate(-270.313 13.204)" fill="#fff"/>
        <path id="Trazado_988578" data-name="Trazado 988578" d="M256.026,441.632h51.451s26.157-2.452,26.157,21.253H256.026Z" transform="translate(-64.887 45.447)" fill="#19203f"/>
        <path id="Trazado_988579" data-name="Trazado 988579" d="M279.778,442.162h51.451a.491.491,0,1,0,0-.982H279.778a.491.491,0,0,0,0,.982" transform="translate(-88.639 45.408)" fill="#fff"/>
        <path id="Trazado_988580" data-name="Trazado 988580" d="M281.461,447.411a.492.492,0,0,0,.479-.382.473.473,0,0,0,.007-.184,26.835,26.835,0,0,0,10.579-12.961c.729-1.907.538-3.423-.524-4.161a2.549,2.549,0,0,0-2.732.031,6.044,6.044,0,0,0-1.758,1.8,41.58,41.58,0,0,0-6.222,13.083,21.7,21.7,0,0,0-8.609-12.12c-1.747-1.183-3.355-1.378-4.415-.54-1.131.9-1.241,2.628-.295,4.635a20.126,20.126,0,0,0,13.379,10.79.534.534,0,0,0,.11.012m-11.641-14.973a4.661,4.661,0,0,1,2.309.889,20.674,20.674,0,0,1,8.521,12.873,19.158,19.158,0,0,1-11.79-10.011c-.57-1.208-.865-2.747.017-3.446a1.472,1.472,0,0,1,.942-.306m20.919-2.113a1.218,1.218,0,0,1,.7.2c.964.672.372,2.469.167,3a25.853,25.853,0,0,1-9.557,12.067,40.573,40.573,0,0,1,6.261-13.477,5.151,5.151,0,0,1,1.458-1.522,1.971,1.971,0,0,1,.971-.276" transform="translate(-36.692 44.184)" fill="#fff"/>
        <path id="Trazado_988581" data-name="Trazado 988581" d="M337.708,279.917a.543.543,0,0,0,.26-.068l28.655-16.308a.527.527,0,1,0-.522-.916l-28.654,16.307a.527.527,0,0,0,.26.985" transform="translate(-187.689 26.941)" fill="#fff"/>
        <path id="Trazado_988582" data-name="Trazado 988582" d="M410.193,441.869h43.586s18.294-2.451,18.294,21.254h-61.88Z" transform="translate(-373.432 45.472)" fill="#19203f"/>
        <path id="Trazado_988583" data-name="Trazado 988583" d="M418.282,449.331a47.441,47.441,0,0,1,31.537-7.016,45.967,45.967,0,0,1,9.11,2.15c.6.207.241,1.123-.357.916a46.384,46.384,0,0,0-31.539.6,44.606,44.606,0,0,0-8.128,4.106c-.526.34-1.154-.418-.622-.76" transform="translate(-369.297 45.485)" fill="#fff"/>
        <path id="Trazado_988584" data-name="Trazado 988584" d="M423.165,441.322H470.51c.63,0,.518.977-.11.977H423.054c-.63,0-.518-.977.11-.977" transform="translate(-386.016 45.423)" fill="#fff"/>
        <path id="Trazado_988585" data-name="Trazado 988585" d="M437,443.253a.492.492,0,0,0,.479-.381.478.478,0,0,0,.007-.185,26.836,26.836,0,0,0,10.579-12.961c.729-1.907.538-3.423-.524-4.161a2.549,2.549,0,0,0-2.732.031,6.043,6.043,0,0,0-1.758,1.8,41.58,41.58,0,0,0-6.222,13.083,21.7,21.7,0,0,0-8.609-12.12c-1.747-1.183-3.355-1.378-4.415-.54-1.131.9-1.241,2.628-.295,4.635a20.126,20.126,0,0,0,13.379,10.79.538.538,0,0,0,.11.012M425.359,428.28a4.661,4.661,0,0,1,2.309.889,20.674,20.674,0,0,1,8.521,12.873,19.157,19.157,0,0,1-11.79-10.011c-.57-1.208-.865-2.747.017-3.446a1.472,1.472,0,0,1,.942-.306m20.919-2.113a1.218,1.218,0,0,1,.7.2c.964.672.372,2.469.167,3a25.854,25.854,0,0,1-9.557,12.067,40.573,40.573,0,0,1,6.261-13.477,5.151,5.151,0,0,1,1.458-1.522,1.971,1.971,0,0,1,.971-.276" transform="translate(-363.848 43.754)" fill="#fff"/>
        <path id="Trazado_988586" data-name="Trazado 988586" d="M169.6,189.36l34.676-8.97,9.884,38.207-33.423,8.645Z" transform="translate(149.941 18.446)" fill="#de53d4"/>
        <path id="Trazado_988587" data-name="Trazado 988587" d="M193.673,97.191l38.04-9.841,9.883,38.207-36.786,9.516Z" transform="translate(95.951 8.827)" fill="#26617a"/>
        <path id="Trazado_988588" data-name="Trazado 988588" d="M202.221,194a72.832,72.832,0,0,1,52.212-88.653l35.1-9.08,11.138,37.881-36.353,9.4a33.287,33.287,0,1,0,16.673,64.453l38.463-9.95,11.139,37.881-39.719,10.275A72.832,72.832,0,0,1,202.221,194" transform="translate(0.09 9.75)" fill="#fff"/>
        <path id="Trazado_988589" data-name="Trazado 988589" d="M198.126,94.058q4.414,13.376,8.827,26.754c.2.595-.7,1.006-.895.406q-4.414-13.376-8.827-26.754c-.2-.595.7-1.006.895-.406" transform="translate(126.671 9.491)" fill="#19203f"/>
        <path id="Trazado_988590" data-name="Trazado 988590" d="M308.335,128.153a59.986,59.986,0,0,1,7.677-7.237c.5-.392,1.12.369.622.76a60.606,60.606,0,0,0-20.354,30.056,58.589,58.589,0,0,0-2.1,10.278.492.492,0,0,1-.978-.11,61.512,61.512,0,0,1,15.13-33.747" transform="translate(-89.089 12.286)" fill="#19203f"/>
        <path id="Trazado_988591" data-name="Trazado 988591" d="M183.439,229.2l45.105-11.8,12.819-3.354c.612-.16.761.812.154.971l-45.105,11.8-12.82,3.354c-.611.16-.76-.812-.153-.971" transform="translate(107.36 21.924)" fill="#19203f"/>
        <path id="Trazado_988592" data-name="Trazado 988592" d="M258.511,209.026a4.2,4.2,0,0,0,5.872-.771l6.008-7.823a4.2,4.2,0,0,0-.771-5.872,4.2,4.2,0,0,0-5.868.775l-6.007,7.823a4.2,4.2,0,0,0,.766,5.869" transform="translate(-3.452 19.822)" fill="#f79654"/>
        <path id="Trazado_988593" data-name="Trazado 988593" d="M264.529,204.409a4.2,4.2,0,0,0,5.868-.775l6.007-7.823a4.182,4.182,0,1,0-6.633-5.094l-6.007,7.823a4.2,4.2,0,0,0,.766,5.869" transform="translate(-16.103 19.345)" fill="#f79654"/>
        <path id="Trazado_988594" data-name="Trazado 988594" d="M270.54,199.789a4.2,4.2,0,0,0,5.872-.771l6.008-7.823a4.2,4.2,0,0,0-.771-5.872,4.14,4.14,0,0,0-3.091-.822,4.191,4.191,0,0,0-2.777,1.6l-6.007,7.823a4.2,4.2,0,0,0,.766,5.869" transform="translate(-28.753 18.867)" fill="#f79654"/>
        <path id="Trazado_988595" data-name="Trazado 988595" d="M276.56,193.154a4.14,4.14,0,0,0,3.091.822,4.191,4.191,0,0,0,2.777-1.6l4.458-5.806a4.185,4.185,0,0,0-6.638-5.1l-4.459,5.806a4.2,4.2,0,0,0,.771,5.872" transform="translate(-39.856 18.39)" fill="#f79654"/>
        <path id="Trazado_988596" data-name="Trazado 988596" d="M274.8,192.754l5.732-7.7c.377-.508,1.12.138.743.643q-2.865,3.85-5.732,7.7c-.377.508-1.119-.138-.743-.643" transform="translate(-33.227 18.91)" fill="#19203f"/>
        <path id="Trazado_988597" data-name="Trazado 988597" d="M268.9,198.867l7.536-9.43c.4-.494,1.139.15.743.644l-7.536,9.43c-.4.494-1.138-.15-.743-.644" transform="translate(-22.626 19.363)" fill="#19203f"/>
        <path id="Trazado_988598" data-name="Trazado 988598" d="M262.834,203.459l7.451-9.277c.4-.493,1.14.15.743.644l-7.451,9.277c-.4.493-1.139-.151-.743-.644" transform="translate(-9.782 19.854)" fill="#19203f"/>
        <path id="Trazado_988599" data-name="Trazado 988599" d="M283.189,190.786c-.854-1.229-.114-2.613.669-3.651.983-1.305,1.979-2.6,2.97-3.9.383-.5,1.125.141.743.643l-2.509,3.295c-.592.777-1.782,2.019-1.061,3.056a.492.492,0,0,1-.811.555" transform="translate(-48.482 18.722)" fill="#19203f"/>
        <path id="Trazado_988600" data-name="Trazado 988600" d="M336.436,184.648l17.233,70.021s12.976,3.156,31.378,1.562c.324-.029.659-.06.993-.088,3.028-.295,6.2-.708,9.476-1.3,3.5-.619,7.127-1.434,10.843-2.467,1.7-.363,3.342-.747,4.906-1.16q4.245-1.12,7.854-2.409l.01-.01c2.173-.747,4.168-1.562,6.016-2.379,2.252-1.012,4.287-2.045,6.1-3.076a57.753,57.753,0,0,0,5.859-3.786c5.485-4.049,7.589-7.293,7.589-7.293L429.44,170.305l-1.986-8.06a21.43,21.43,0,0,0-13.733-15.119c-.01.01-.02,0-.04-.01a21.314,21.314,0,0,0-12.159-.561l-4.355,1.071-31.664,7.8-13.379,3.294a21.062,21.062,0,0,0-6.852,3.038,20.181,20.181,0,0,0-3.657,3.1q-.015.03-.03.03a21.3,21.3,0,0,0-3.981,6.075,21.493,21.493,0,0,0-1.17,13.693" transform="translate(-263.976 14.883)" fill="#fff"/>
        <path id="Trazado_988601" data-name="Trazado 988601" d="M389.418,183.783,406.651,253.8l4,43.557c32.676-3.961,28.37-42.083,28.37-42.083L419.556,154.294l-1.07.264-13.379,3.294a21.062,21.062,0,0,0-6.852,3.038,20.18,20.18,0,0,0-3.657,3.1q-.015.03-.03.03a21.3,21.3,0,0,0-3.981,6.075,21.493,21.493,0,0,0-1.17,13.693" transform="translate(-316.959 15.748)" fill="#de53d4"/>
        <path id="Trazado_988602" data-name="Trazado 988602" d="M321.978,147.627l27.977,98.794s14.636,23.907,34.808,19.484l-11.157-20-19.356-75.6-1.986-8.06a21.43,21.43,0,0,0-13.733-15.119c-.01.01-.02,0-.04-.01a21.3,21.3,0,0,0-12.159-.561Z" transform="translate(-188.787 14.883)" fill="#de53d4"/>
        <path id="Trazado_988603" data-name="Trazado 988603" d="M339.1,170.613a4.32,4.32,0,0,1-2.207,3.316,4,4,0,0,1-1.42.476,4.324,4.324,0,0,1,1.334,8.05,4.187,4.187,0,0,1-1.667.512,4.32,4.32,0,0,1-2.626,8.039l-5.043-.544a4.328,4.328,0,0,1-1.734,8.443l-40.36,4.561-12.227-24.955,31.565-20.266a18.827,18.827,0,0,1,9.6-2.1l9.877,3.22c2.635.83,5.094,2.433,5.2,5.26l-.06.551,5.934.647a4.353,4.353,0,0,1,3.836,4.786" transform="translate(-89.274 15.938)" fill="#f79654"/>
        <path id="Trazado_988604" data-name="Trazado 988604" d="M322.352,188.417l27.161,42.712a22.153,22.153,0,0,0,28.626,7.923l67.081-33.609-15.414-30.759-57.192,28.655-21.224-33.383a12.145,12.145,0,0,0-16.76-3.726l-8.542,5.426a12.138,12.138,0,0,0-3.736,16.76" transform="translate(-247.563 16.786)" fill="#de53d4"/>
        <path id="Trazado_988605" data-name="Trazado 988605" d="M314.73,175.613l13.931,27.8,6.8-2.137-18.7-26.678Z" transform="translate(-131.489 17.848)" fill="#fff"/>
        <path id="Trazado_988606" data-name="Trazado 988606" d="M379.438,239.134a22.7,22.7,0,0,0,10.19-2.423l48.1-24.1a.527.527,0,1,0-.472-.941l-48.1,24.1a21.568,21.568,0,0,1-27.945-7.735l-23.059-36.262a.527.527,0,0,0-.89.565l23.06,36.262a22.614,22.614,0,0,0,19.116,10.534" transform="translate(-258.816 19.598)" fill="#19203f"/>
        <path id="Trazado_988607" data-name="Trazado 988607" d="M365.764,203.389a.53.53,0,0,0,.236-.056l46.085-23.09a.526.526,0,1,0-.471-.941l-45.66,22.876L344.985,169.2a.527.527,0,0,0-.89.565l21.225,33.384a.528.528,0,0,0,.445.244" transform="translate(-240.713 17.264)" fill="#19203f"/>
        <path id="Trazado_988608" data-name="Trazado 988608" d="M275.481,196.487a5.5,5.5,0,0,0,3.649-1.569,4.364,4.364,0,0,0,1.3-3.705,5.073,5.073,0,0,0-1.248-2.882,26.938,26.938,0,0,0,3.978.193c2.6-.146,3.676-2.872,3.721-2.988a.527.527,0,0,0-.983-.378c-.008.021-.88,2.207-2.8,2.315a39.374,39.374,0,0,1-6.162-.5.535.535,0,0,0-.6.426.526.526,0,0,0,.412.61,3.635,3.635,0,0,1,2.633,3.322,3.334,3.334,0,0,1-1,2.836,4.3,4.3,0,0,1-3.2,1.247.526.526,0,1,0-.129,1.045,3.322,3.322,0,0,0,.423.025" transform="translate(-38.661 18.904)" fill="#19203f"/>
        <path id="Trazado_988609" data-name="Trazado 988609" d="M279.548,181.279a.527.527,0,0,0,.136-1.036l-3.1-.825a.526.526,0,1,0-.271,1.017l3.1.826a.526.526,0,0,0,.136.018" transform="translate(-33.285 18.344)" fill="#19203f"/>
        <path id="Trazado_988610" data-name="Trazado 988610" d="M280.256,173.352a.527.527,0,0,0,.124-1.039l-3.745-.9a.527.527,0,0,0-.248,1.024l3.746.9a.531.531,0,0,0,.124.014" transform="translate(-34.057 17.517)" fill="#19203f"/>
        <path id="Trazado_988611" data-name="Trazado 988611" d="M304.068,165.038a.527.527,0,0,0,.033-1.053L282.112,162.6a.514.514,0,0,0-.559.493.527.527,0,0,0,.492.559l21.99,1.38h.033" transform="translate(-64.012 16.607)" fill="#19203f"/>
        <path id="Trazado_988612" data-name="Trazado 988612" d="M350.855,182.058a.516.516,0,0,0,.128-.017.526.526,0,0,0,.383-.639l-4.02-15.986a.526.526,0,1,0-1.021.256l4.018,15.987a.528.528,0,0,0,.511.4" transform="translate(-182.253 16.857)" fill="#19203f"/>
        <path id="Trazado_988613" data-name="Trazado 988613" d="M377,188.832a.527.527,0,0,0,.377-.895l-8.828-9.074,2.259-9.693a.526.526,0,0,0-.082-.423l-14.177-20.222a.527.527,0,1,0-.863.6l14.042,20.03-2.269,9.744a.523.523,0,0,0,.135.488l9.03,9.281a.517.517,0,0,0,.376.16" transform="translate(-218.632 15.129)" fill="#19203f"/>
        <path id="Trazado_988614" data-name="Trazado 988614" d="M408.012,167.04a.529.529,0,0,0,.522-.458l1.366-10.337a.527.527,0,0,0-1.045-.138l-1.367,10.337a.528.528,0,0,0,.455.591.49.49,0,0,0,.069,0" transform="translate(-308.272 15.889)" fill="#19203f"/>
        <path id="Trazado_988615" data-name="Trazado 988615" d="M389.588,161.378a.527.527,0,0,0,.437-.232l4.681-6.936,8.519,3.413a.525.525,0,0,0,.662-.243l4.408-8.306a.527.527,0,1,0-.931-.494l-4.186,7.889-8.474-3.394a.527.527,0,0,0-.633.194l-4.663,6.908-10.246-4.992a.527.527,0,1,0-.461.947l10.658,5.193a.537.537,0,0,0,.231.053" transform="translate(-274.639 15.129)" fill="#19203f"/>
        <path id="Trazado_988616" data-name="Trazado 988616" d="M392.335,228.866c1.353,0,1.11,2.094-.235,2.094s-1.11-2.094.235-2.094" transform="translate(-273.636 23.458)" fill="#19203f"/>
        <path id="Trazado_988617" data-name="Trazado 988617" d="M399.06,225.415c1.353,0,1.11,2.094-.235,2.094s-1.11-2.094.235-2.094" transform="translate(-287.781 23.101)" fill="#19203f"/>
        <path id="Trazado_988618" data-name="Trazado 988618" d="M393.043,222.141c1.353,0,1.11,2.094-.235,2.094s-1.11-2.094.235-2.094" transform="translate(-275.125 22.763)" fill="#19203f"/>
        <path id="Trazado_988619" data-name="Trazado 988619" d="M399.679,218.514c1.352,0,1.11,2.094-.235,2.094s-1.11-2.094.235-2.094" transform="translate(-289.083 22.388)" fill="#19203f"/>
        <path id="Trazado_988620" data-name="Trazado 988620" d="M392.689,252.933c1.353,0,1.11,2.094-.235,2.094s-1.11-2.094.235-2.094" transform="translate(-274.38 25.946)" fill="#19203f"/>
        <path id="Trazado_988621" data-name="Trazado 988621" d="M392.954,258.95c1.352,0,1.11,2.094-.235,2.094s-1.11-2.094.235-2.094" transform="translate(-274.938 26.568)" fill="#19203f"/>
        <path id="Trazado_988622" data-name="Trazado 988622" d="M396.582,255.145c1.352,0,1.11,2.094-.235,2.094s-1.11-2.094.235-2.094" transform="translate(-282.569 26.175)" fill="#19203f"/>
        <path id="Trazado_988623" data-name="Trazado 988623" d="M334.644,242.315c1.354,0,1.111,2.094-.234,2.094s-1.11-2.094.234-2.094" transform="translate(-152.292 24.848)" fill="#19203f"/>
        <path id="Trazado_988624" data-name="Trazado 988624" d="M335.442,234.263c1.352,0,1.11,2.094-.235,2.094s-1.11-2.094.235-2.094" transform="translate(-153.968 24.016)" fill="#19203f"/>
        <path id="Trazado_988625" data-name="Trazado 988625" d="M338.362,239.661c1.353,0,1.11,2.094-.235,2.094s-1.11-2.094.235-2.094" transform="translate(-160.11 24.574)" fill="#19203f"/>
        <path id="Trazado_988626" data-name="Trazado 988626" d="M342.52,235.944c1.353,0,1.11,2.094-.235,2.094s-1.11-2.094.235-2.094" transform="translate(-168.856 24.19)" fill="#19203f"/>
        <path id="Trazado_988627" data-name="Trazado 988627" d="M338.1,230.724c1.352,0,1.11,2.094-.235,2.094s-1.11-2.094.235-2.094" transform="translate(-159.551 23.65)" fill="#19203f"/>
        <path id="Trazado_988628" data-name="Trazado 988628" d="M406.4,215.151c1.353,0,1.11,2.094-.235,2.094s-1.11-2.094.235-2.094" transform="translate(-303.228 22.04)" fill="#19203f"/>
        <path id="Trazado_988629" data-name="Trazado 988629" d="M403.395,210.02c1.352,0,1.11,2.094-.235,2.094s-1.11-2.094.235-2.094" transform="translate(-296.9 21.51)" fill="#19203f"/>
        <path id="Trazado_988630" data-name="Trazado 988630" d="M392.954,215.328c1.352,0,1.11,2.094-.235,2.094s-1.11-2.094.235-2.094" transform="translate(-274.938 22.058)" fill="#19203f"/>
      </g>
      <rect id="Rectángulo_407957" data-name="Rectángulo 407957" width="551" height="551" transform="translate(0.242 0.112)" fill="none"/>
    </g>
  </g>
</svg>
