<svg xmlns="http://www.w3.org/2000/svg" xmlns:xlink="http://www.w3.org/1999/xlink" width="108" height="108" viewBox="0 0 108 108">
  <defs>
    <filter id="Trazado_982419" x="0" y="0" width="108" height="108" filterUnits="userSpaceOnUse">
      <feOffset dy="3" input="SourceAlpha"/>
      <feGaussianBlur stdDeviation="3" result="blur"/>
      <feFlood flood-opacity="0.161"/>
      <feComposite operator="in" in2="blur"/>
      <feComposite in="SourceGraphic"/>
    </filter>
  </defs>
  <g id="Grupo_1150918" data-name="Grupo 1150918" transform="translate(-199 -369.836)">
    <g id="Grupo_1149917" data-name="Grupo 1149917" transform="translate(-2 -3334.164)">
      <g id="Grupo_1148559" data-name="Grupo 1148559" transform="translate(0 3382)">
        <g transform="matrix(1, 0, 0, 1, 201, 322)" filter="url(#Trazado_982419)">
          <g id="Trazado_982419-2" data-name="Trazado 982419" transform="translate(9 6)" fill="#fffbe9">
            <path d="M 45 88.5 C 39.12687683105469 88.5 33.43022537231445 87.35007476806641 28.06830024719238 85.08217620849609 C 22.88852500915527 82.89131164550781 18.23629951477051 79.75458526611328 14.2408504486084 75.75914764404297 C 10.24541282653809 71.76370239257812 7.108687400817871 67.11147308349609 4.917825222015381 61.93170166015625 C 2.649924993515015 56.56977462768555 1.5 50.87312316894531 1.5 45 C 1.5 39.12687683105469 2.649924993515015 33.43022537231445 4.917825222015381 28.06830024719238 C 7.108687400817871 22.88852500915527 10.24541282653809 18.23629951477051 14.2408504486084 14.2408504486084 C 18.23629951477051 10.24541282653809 22.88852500915527 7.108687400817871 28.06830024719238 4.917825222015381 C 33.43022537231445 2.649924993515015 39.12687683105469 1.5 45 1.5 C 50.87312316894531 1.5 56.56977462768555 2.649924993515015 61.93170166015625 4.917825222015381 C 67.11147308349609 7.108687400817871 71.76370239257812 10.24541282653809 75.75914764404297 14.2408504486084 C 79.75458526611328 18.23629951477051 82.89131164550781 22.88852500915527 85.08217620849609 28.06830024719238 C 87.35007476806641 33.43022537231445 88.5 39.12687683105469 88.5 45 C 88.5 50.87312316894531 87.35007476806641 56.56977462768555 85.08217620849609 61.93170166015625 C 82.89131164550781 67.11147308349609 79.75458526611328 71.76370239257812 75.75914764404297 75.75914764404297 C 71.76370239257812 79.75458526611328 67.11147308349609 82.89131164550781 61.93170166015625 85.08217620849609 C 56.56977462768555 87.35007476806641 50.87312316894531 88.5 45 88.5 Z" stroke="none"/>
            <path d="M 45 3 C 39.32871246337891 3 33.82865524291992 4.110054016113281 28.65262985229492 6.299339294433594 C 23.65165710449219 8.414573669433594 19.15968322753906 11.44334411621094 15.301513671875 15.301513671875 C 11.44334411621094 19.15968322753906 8.414573669433594 23.65165710449219 6.299339294433594 28.65262985229492 C 4.110054016113281 33.82865524291992 3 39.32871246337891 3 45 C 3 50.67128753662109 4.110054016113281 56.17134475708008 6.299339294433594 61.34737396240234 C 8.414573669433594 66.34834289550781 11.44334411621094 70.84031677246094 15.301513671875 74.698486328125 C 19.15968322753906 78.55665588378906 23.65165710449219 81.58542633056641 28.65262985229492 83.70066070556641 C 33.82865524291992 85.88994598388672 39.32871246337891 87 45 87 C 50.67128753662109 87 56.17134475708008 85.88994598388672 61.34737396240234 83.70066070556641 C 66.34834289550781 81.58542633056641 70.84031677246094 78.55665588378906 74.698486328125 74.698486328125 C 78.55665588378906 70.84031677246094 81.58542633056641 66.34834289550781 83.70066070556641 61.34737396240234 C 85.88994598388672 56.17134475708008 87 50.67128753662109 87 45 C 87 39.32871246337891 85.88994598388672 33.82865524291992 83.70066070556641 28.65262985229492 C 81.58542633056641 23.65165710449219 78.55665588378906 19.15968322753906 74.698486328125 15.301513671875 C 70.84031677246094 11.44334411621094 66.34834289550781 8.414573669433594 61.34737396240234 6.299339294433594 C 56.17134475708008 4.110054016113281 50.67128753662109 3 45 3 M 45 0 C 69.85281372070312 0 90 20.14718627929688 90 45 C 90 69.85281372070312 69.85281372070312 90 45 90 C 20.14718627929688 90 0 69.85281372070312 0 45 C 0 20.14718627929688 20.14718627929688 0 45 0 Z" stroke="none" fill="#ffde33"/>
          </g>
        </g>
      </g>
    </g>
    <g id="Grupo_1150917" data-name="Grupo 1150917" transform="translate(-417.514 28.007)">
      <g id="ingenieria" transform="translate(641.794 360.404)">
        <path id="Trazado_979808" data-name="Trazado 979808" d="M80.566,285.1a15.755,15.755,0,0,1-31.51,0H37.07v3.29a1,1,0,0,0,.8.985l5.574,1.079a21.887,21.887,0,0,0,2.473,5.966l-3.179,4.705a1,1,0,0,0,.122,1.271l4.653,4.653a1,1,0,0,0,1.271.122l4.705-3.179a21.888,21.888,0,0,0,5.966,2.473l1.079,5.573a1,1,0,0,0,.985.812H68.1a1,1,0,0,0,.985-.812l1.079-5.573a21.889,21.889,0,0,0,5.966-2.473l4.705,3.179a1,1,0,0,0,1.271-.122L86.76,302.4a1,1,0,0,0,.122-1.271L83.7,296.422a21.887,21.887,0,0,0,2.473-5.966l5.574-1.079a.976.976,0,0,0,.781-.985V285.1Z" transform="translate(-36.081 -248.99)" fill="#afb4bc"/>
        <path id="Trazado_979809" data-name="Trazado 979809" d="M92.531,232.089H37.07v-5.265a2.415,2.415,0,0,1,2.414-2.423h50.6a2.446,2.446,0,0,1,2.45,2.423v5.265Z" transform="translate(-36.081 -195.977)" fill="#ff8d27"/>
        <path id="Trazado_979810" data-name="Trazado 979810" d="M90.081,224.4H82.918a2.423,2.423,0,0,1,2.423,2.423h0a2.453,2.453,0,0,1-2.453,2.453H37.07v2.813H92.531v-5.265A2.446,2.446,0,0,0,90.081,224.4Z" transform="translate(-36.081 -195.977)" fill="#ff7610"/>
        <path id="Trazado_979811" data-name="Trazado 979811" d="M93.207,45.419H90.6A22.473,22.473,0,0,0,68.122,67.893v.2H115.68v-.2A22.474,22.474,0,0,0,93.207,45.419Z" transform="translate(-63.2 -39.666)" fill="#ffdc48"/>
        <path id="Trazado_979812" data-name="Trazado 979812" d="M236.9,45.419h-2.218q-.91,0-1.8.071a22.672,22.672,0,0,1,20.868,22.6h5.822A22.67,22.67,0,0,0,236.9,45.419Z" transform="translate(-207.086 -39.666)" fill="#ffce00"/>
        <path id="Trazado_979813" data-name="Trazado 979813" d="M171,37.518l-1.574-5.151a1.089,1.089,0,0,1,1.041-1.407,44.4,44.4,0,0,1,19.728,0,1.134,1.134,0,0,1,.875.441,1.083,1.083,0,0,1,.166.966l-1.5,4.9" transform="translate(-151.632 -26.07)" fill="#ffb82e"/>
        <path id="Trazado_979814" data-name="Trazado 979814" d="M192.01,30.6l2.009,6.907,12.157-.216,2.009-6.691a44.356,44.356,0,0,0-16.174,0Z" transform="translate(-171.396 -26.071)" fill="#ffa910"/>
        <path id="Trazado_979815" data-name="Trazado 979815" d="M207.869,22.168V9.344a1.537,1.537,0,0,1,1.537-1.537h9.082a1.537,1.537,0,0,1,1.537,1.537V22.168" transform="translate(-185.246 -6.818)" fill="#ffb82e"/>
        <g id="Grupo_1145624" data-name="Grupo 1145624" transform="translate(4.922 24.313)">
          <path id="Trazado_979816" data-name="Trazado 979816" d="M224.164,196.062h-9.429V193.1a1.144,1.144,0,0,1,1.144-1.144h7.141a1.144,1.144,0,0,1,1.144,1.144Z" transform="translate(-196.164 -191.952)" fill="#ff5122"/>
          <path id="Trazado_979817" data-name="Trazado 979817" d="M72.8,191.953H68.494a22.8,22.8,0,0,0-.373,4.11h5.822V193.1A1.144,1.144,0,0,0,72.8,191.953Z" transform="translate(-68.121 -191.953)" fill="#ff5122"/>
          <path id="Trazado_979818" data-name="Trazado 979818" d="M398.776,191.953h4.305a22.8,22.8,0,0,1,.373,4.11h-5.822V193.1A1.144,1.144,0,0,1,398.776,191.953Z" transform="translate(-355.895 -191.953)" fill="#ff5122"/>
        </g>
        <path id="Trazado_979819" data-name="Trazado 979819" d="M92.531,285.1H80.566a15.756,15.756,0,0,1-31.209,3.077h.029a15.831,15.831,0,0,1-.3-3.077H37.07v3.077h3.91a6.233,6.233,0,0,1,5.8,3.968,19.357,19.357,0,0,0,36.055,0,6.232,6.232,0,0,1,5.8-3.968h3.889V285.1Z" transform="translate(-36.081 -248.99)" fill="#808791"/>
        <path id="Trazado_979820" data-name="Trazado 979820" d="M83.291,27.434h-.385c-.028,0-.138.018-.16,0s-.01-.086-.012-.115c0-.09-.009-.179-.014-.269-.035-.62-.094-1.24-.179-1.856a23.5,23.5,0,0,0-1.059-4.462.989.989,0,0,0-1.87.643c.22.641.406,1.292.565,1.949H77.094a2.135,2.135,0,0,0-2.133,2.133v1.977H63.2V25.457a2.135,2.135,0,0,0-2.133-2.133H53.928A2.135,2.135,0,0,0,51.8,25.457v1.977H41.024V25.457a2.135,2.135,0,0,0-2.133-2.133H35.816A21.753,21.753,0,0,1,46.928,9.161l.787,2.576a.989.989,0,0,0,1.891-.578L48.033,6.008a.1.1,0,0,1,.1-.129.984.984,0,0,0,.22-.025c.85-.194,1.713-.361,2.577-.5v10a.989.989,0,0,0,1.978,0V2.526a.549.549,0,0,1,.548-.548h9.082a.549.549,0,0,1,.548.548V15.35a.989.989,0,0,0,1.978,0v-10c.864.143,1.727.31,2.577.5a.984.984,0,0,0,.206.025.154.154,0,0,1,.094.041.094.094,0,0,1,.015.089l-1.5,4.9a.989.989,0,1,0,1.891.578l.711-2.327a21.948,21.948,0,0,1,8.818,8.412.989.989,0,0,0,1.711-.992,23.936,23.936,0,0,0-9.943-9.341l.2-.652a2.058,2.058,0,0,0-.317-1.843,2.118,2.118,0,0,0-1.538-.837c-.966-.218-1.947-.4-2.929-.56V2.526A2.528,2.528,0,0,0,62.534,0H53.452a2.529,2.529,0,0,0-2.526,2.526v.821c-.98.155-1.96.341-2.924.558a2.078,2.078,0,0,0-1.86,2.681l.2.651a23.737,23.737,0,0,0-12.7,16.8.975.975,0,0,0-.024.1,23.785,23.785,0,0,0-.314,2.426q-.034.436-.053.873h-.552a3.426,3.426,0,0,0-3.431,3.412V39.4a1.99,1.99,0,0,0,1.6,1.956l4.964.961a22.866,22.866,0,0,0,2.1,5.074L35.1,51.584a2,2,0,0,0,.242,2.524L40,58.761A2,2,0,0,0,42.521,59l4.191-2.832a22.864,22.864,0,0,0,5.074,2.1l.961,4.964A2,2,0,0,0,54.7,64.851h6.581a2,2,0,0,0,1.956-1.613l.411-2.126a.989.989,0,1,0-1.942-.376L61.3,62.862a.014.014,0,0,1-.014.011H54.7a.014.014,0,0,1-.014-.011L53.61,57.289a.989.989,0,0,0-.731-.772,20.885,20.885,0,0,1-5.7-2.361.99.99,0,0,0-1.063.028l-4.705,3.179a.013.013,0,0,1-.018,0l-4.653-4.653a.014.014,0,0,1,0-.018l3.179-4.705a.989.989,0,0,0,.028-1.063,20.9,20.9,0,0,1-2.361-5.7.989.989,0,0,0-.772-.731l-5.572-1.077a.023.023,0,0,1,0-.015V37.1H41.277a16.745,16.745,0,0,0,33.43,0H84.724v2.3a.111.111,0,0,1,0,.018L79.17,40.495a.989.989,0,0,0-.771.731,20.893,20.893,0,0,1-2.361,5.7.989.989,0,0,0,.028,1.063l3.179,4.705a.014.014,0,0,1,0,.018L74.59,57.362a.013.013,0,0,1-.018,0l-4.705-3.179a.99.99,0,0,0-1.063-.028,20.89,20.89,0,0,1-5.7,2.361.989.989,0,1,0,.479,1.919,22.866,22.866,0,0,0,5.687-2.265L73.464,59a2,2,0,0,0,2.524-.242l4.653-4.653a2,2,0,0,0,.242-2.524l-2.832-4.191a22.858,22.858,0,0,0,2.1-5.074l4.964-.961A1.956,1.956,0,0,0,86.7,39.4V30.846A3.415,3.415,0,0,0,83.291,27.434Zm-6.352-1.977a.155.155,0,0,1,.155-.155h3.464c.1.706.172,1.419.2,2.132H76.939Zm-23.166,0a.155.155,0,0,1,.155-.155h7.141a.155.155,0,0,1,.155.155v1.977H53.773V25.457ZM38.891,25.3a.155.155,0,0,1,.155.155v1.977H35.225c.011-.238.026-.475.045-.711,0-.033.005-.066.008-.1q.056-.666.153-1.322Zm34.857,9.821H51.561a.989.989,0,1,0,0,1.978H72.725a14.766,14.766,0,0,1-29.465,0h3.224a.989.989,0,1,0,0-1.978H31.241V30.846a1.446,1.446,0,0,1,1.454-1.434h50.6a1.435,1.435,0,0,1,1.432,1.434v4.277Z" transform="translate(-29.263)"/>
      </g>
    </g>
  </g>
</svg>
