<svg xmlns="http://www.w3.org/2000/svg" xmlns:xlink="http://www.w3.org/1999/xlink" width="108" height="108" viewBox="0 0 108 108">
  <defs>
    <filter id="Trazado_982419" x="0" y="0" width="108" height="108" filterUnits="userSpaceOnUse">
      <feOffset dy="3" input="SourceAlpha"/>
      <feGaussianBlur stdDeviation="3" result="blur"/>
      <feFlood flood-opacity="0.161"/>
      <feComposite operator="in" in2="blur"/>
      <feComposite in="SourceGraphic"/>
    </filter>
  </defs>
  <g id="Grupo_1150936" data-name="Grupo 1150936" transform="translate(-606 -3110.836)">
    <g id="Grupo_1150764" data-name="Grupo 1150764" transform="translate(393 2606.836)">
      <g id="Grupo_1148745" data-name="Grupo 1148745" transform="translate(12 182)">
        <g transform="matrix(1, 0, 0, 1, 201, 322)" filter="url(#Trazado_982419)">
          <g id="Trazado_982419-2" data-name="Trazado 982419" transform="translate(9 6)" fill="#fbecfa">
            <path d="M 45 88.5 C 39.12687683105469 88.5 33.43022537231445 87.35007476806641 28.06830024719238 85.08217620849609 C 22.88852500915527 82.89131164550781 18.23629951477051 79.75458526611328 14.2408504486084 75.75914764404297 C 10.24541282653809 71.76370239257812 7.108687400817871 67.11147308349609 4.917825222015381 61.93170166015625 C 2.649924993515015 56.56977462768555 1.5 50.87312316894531 1.5 45 C 1.5 39.12687683105469 2.649924993515015 33.43022537231445 4.917825222015381 28.06830024719238 C 7.108687400817871 22.88852500915527 10.24541282653809 18.23629951477051 14.2408504486084 14.2408504486084 C 18.23629951477051 10.24541282653809 22.88852500915527 7.108687400817871 28.06830024719238 4.917825222015381 C 33.43022537231445 2.649924993515015 39.12687683105469 1.5 45 1.5 C 50.87312316894531 1.5 56.56977462768555 2.649924993515015 61.93170166015625 4.917825222015381 C 67.11147308349609 7.108687400817871 71.76370239257812 10.24541282653809 75.75914764404297 14.2408504486084 C 79.75458526611328 18.23629951477051 82.89131164550781 22.88852500915527 85.08217620849609 28.06830024719238 C 87.35007476806641 33.43022537231445 88.5 39.12687683105469 88.5 45 C 88.5 50.87312316894531 87.35007476806641 56.56977462768555 85.08217620849609 61.93170166015625 C 82.89131164550781 67.11147308349609 79.75458526611328 71.76370239257812 75.75914764404297 75.75914764404297 C 71.76370239257812 79.75458526611328 67.11147308349609 82.89131164550781 61.93170166015625 85.08217620849609 C 56.56977462768555 87.35007476806641 50.87312316894531 88.5 45 88.5 Z" stroke="none"/>
            <path d="M 45 3 C 39.32871246337891 3 33.82865524291992 4.110054016113281 28.65262985229492 6.299339294433594 C 23.65165710449219 8.414573669433594 19.15968322753906 11.44334411621094 15.301513671875 15.301513671875 C 11.44334411621094 19.15968322753906 8.414573669433594 23.65165710449219 6.299339294433594 28.65262985229492 C 4.110054016113281 33.82865524291992 3 39.32871246337891 3 45 C 3 50.67128753662109 4.110054016113281 56.17134475708008 6.299339294433594 61.34737396240234 C 8.414573669433594 66.34834289550781 11.44334411621094 70.84031677246094 15.301513671875 74.698486328125 C 19.15968322753906 78.55665588378906 23.65165710449219 81.58542633056641 28.65262985229492 83.70066070556641 C 33.82865524291992 85.88994598388672 39.32871246337891 87 45 87 C 50.67128753662109 87 56.17134475708008 85.88994598388672 61.34737396240234 83.70066070556641 C 66.34834289550781 81.58542633056641 70.84031677246094 78.55665588378906 74.698486328125 74.698486328125 C 78.55665588378906 70.84031677246094 81.58542633056641 66.34834289550781 83.70066070556641 61.34737396240234 C 85.88994598388672 56.17134475708008 87 50.67128753662109 87 45 C 87 39.32871246337891 85.88994598388672 33.82865524291992 83.70066070556641 28.65262985229492 C 81.58542633056641 23.65165710449219 78.55665588378906 19.15968322753906 74.698486328125 15.301513671875 C 70.84031677246094 11.44334411621094 66.34834289550781 8.414573669433594 61.34737396240234 6.299339294433594 C 56.17134475708008 4.110054016113281 50.67128753662109 3 45 3 M 45 0 C 69.85281372070312 0 90 20.14718627929688 90 45 C 90 69.85281372070312 69.85281372070312 90 45 90 C 20.14718627929688 90 0 69.85281372070312 0 45 C 0 20.14718627929688 20.14718627929688 0 45 0 Z" stroke="none" fill="#de53d4"/>
          </g>
        </g>
      </g>
    </g>
    <g id="ingenieria_1_" data-name="ingenieria (1)" transform="translate(630.973 3132.808)">
      <g id="Grupo_1145798" data-name="Grupo 1145798" transform="translate(1.904 1.904)">
        <g id="Grupo_1145778" data-name="Grupo 1145778" transform="translate(1.808 35.541)">
          <path id="Trazado_981354" data-name="Trazado 981354" d="M20.274,54.591v5.425H8.629a4.633,4.633,0,0,1-3.282-1.365l-.036-.036A4.481,4.481,0,0,1,4,55.441V44.7a5.441,5.441,0,0,1,1.184-3.39,8.442,8.442,0,0,1,4.24,7.314v5.967H20.274Z" transform="translate(-4 -41.31)" fill="#b4dd7f"/>
        </g>
        <g id="Grupo_1145779" data-name="Grupo 1145779" transform="translate(2.993 33.452)">
          <path id="Trazado_981355" data-name="Trazado 981355" d="M18.591,47.49v6.88H9.55V48.4a8.442,8.442,0,0,0-4.24-7.314,5.4,5.4,0,0,1,2.224-1.645L8.646,39l3.616,3.616,1.808-1.808a7.21,7.21,0,0,1,4.521,6.681Z" transform="translate(-5.31 -39)" fill="#b4dd7f"/>
        </g>
        <g id="Grupo_1145780" data-name="Grupo 1145780" transform="translate(0 9.041)">
          <path id="Trazado_981356" data-name="Trazado 981356" d="M10.137,12h.9a7.231,7.231,0,0,1,7.233,7.233H2A7.231,7.231,0,0,1,9.233,12Z" transform="translate(-2 -12)" fill="#ffeaa7"/>
        </g>
        <g id="Grupo_1145781" data-name="Grupo 1145781" transform="translate(0 16.274)">
          <path id="Trazado_981357" data-name="Trazado 981357" d="M20.082,20.9v1.808a.907.907,0,0,1-.9.9H2V20H19.178A.907.907,0,0,1,20.082,20.9Z" transform="translate(-2 -20)" fill="#fcd770"/>
        </g>
        <g id="Grupo_1145782" data-name="Grupo 1145782" transform="translate(0 19.89)">
          <path id="Trazado_981358" data-name="Trazado 981358" d="M2,24h8.137a1.814,1.814,0,0,0-1.808,1.808v1.808a1.814,1.814,0,0,0-1.808,1.808v.154a1.814,1.814,0,0,0,.533,1.284L7.8,31.6a1.814,1.814,0,0,1,.533,1.284v2.866L5.788,33.936A9.046,9.046,0,0,1,2,26.577Z" transform="translate(-2 -24)" fill="#b27946"/>
        </g>
        <g id="Grupo_1145783" data-name="Grupo 1145783" transform="translate(23.507 47.014)">
          <path id="Trazado_981359" data-name="Trazado 981359" d="M58.74,54v7.233H28a1.808,1.808,0,0,0,1.808-1.808V57.616H40.658V54H58.74Z" transform="translate(-28 -54)" fill="#969faa"/>
        </g>
        <g id="Grupo_1145784" data-name="Grupo 1145784" transform="translate(41.589 37.973)">
          <path id="Trazado_981360" data-name="Trazado 981360" d="M60.658,44v9.041H48L49.808,44H60.658Z" transform="translate(-48 -44)" fill="#aab2bd"/>
        </g>
        <g id="Grupo_1145785" data-name="Grupo 1145785" transform="translate(45.206 23.923)">
          <path id="Trazado_981361" data-name="Trazado 981361" d="M59.233,28.46V42.51H52V28.46a5.393,5.393,0,0,0,7.233,0Z" transform="translate(-52 -28.46)" fill="#ccd1d9"/>
        </g>
        <g id="Grupo_1145786" data-name="Grupo 1145786" transform="translate(30.396)">
          <path id="Trazado_981362" data-name="Trazado 981362" d="M54.145,4.613A8.876,8.876,0,0,0,47.844,2a.6.6,0,0,0-.127.009,8.89,8.89,0,0,0-4.945,1.573L41.3,4.6,35.62,8.537a5.416,5.416,0,0,1,3.806,3.96l5.759-3.978.678-.47a3.5,3.5,0,0,1,1.853-.624h.127a3.488,3.488,0,0,1,3.49,3.49V17.2a5.389,5.389,0,0,1,5.425,0V10.915A8.876,8.876,0,0,0,54.145,4.613Z" transform="translate(-35.62 -2)" fill="#ccd1d9"/>
        </g>
        <g id="Grupo_1145787" data-name="Grupo 1145787" transform="translate(23.507 6.329)">
          <path id="Trazado_981363" data-name="Trazado 981363" d="M38.7,13.168a5.2,5.2,0,0,1,.154,1.257,5.407,5.407,0,0,1-3.616,5.108,5.325,5.325,0,0,1-3.616,0A5.421,5.421,0,0,1,33.425,9a5.213,5.213,0,0,1,1.465.208,5.416,5.416,0,0,1,3.806,3.96Z" transform="translate(-28 -9)" fill="#ff826e"/>
        </g>
        <g id="Grupo_1145788" data-name="Grupo 1145788" transform="translate(43.397 14.466)">
          <path id="Trazado_981364" data-name="Trazado 981364" d="M58.137,18.732a5.425,5.425,0,1,1-5.425,0,5.389,5.389,0,0,1,5.425,0Z" transform="translate(-50 -18)" fill="#ff826e"/>
        </g>
        <g id="Grupo_1145789" data-name="Grupo 1145789" transform="translate(27.123 9.945)">
          <ellipse id="Elipse_11656" data-name="Elipse 11656" cx="2" cy="1.5" rx="2" ry="1.5" transform="translate(-0.027 0.152)" fill="#fc6e51"/>
        </g>
        <g id="Grupo_1145790" data-name="Grupo 1145790" transform="translate(47.014 18.082)">
          <circle id="Elipse_11657" data-name="Elipse 11657" cx="2" cy="2" r="2" transform="translate(0.082 0.015)" fill="#fc6e51"/>
        </g>
        <g id="Grupo_1145791" data-name="Grupo 1145791" transform="translate(18.082 28.932)">
          <path id="Trazado_981365" data-name="Trazado 981365" d="M43.7,40.546v.262a6.547,6.547,0,0,1-3.616,5.85V43.041a5.429,5.429,0,0,0-5.425-5.425H31.041a5.429,5.429,0,0,0-5.425,5.425v3.616A6.547,6.547,0,0,1,22,40.808v-.262A6.544,6.544,0,0,1,28.546,34h8.607A6.544,6.544,0,0,1,43.7,40.546Z" transform="translate(-22 -34)" fill="#ccd1d9"/>
        </g>
        <g id="Grupo_1145792" data-name="Grupo 1145792" transform="translate(21.699 37.973)">
          <path id="Trazado_981366" data-name="Trazado 981366" d="M26,44v9.421a1.639,1.639,0,0,1,.488.588l.416.841h.9a1.814,1.814,0,0,1,1.808,1.808H40.466V44Z" transform="translate(-26 -44)" fill="#d3a06c"/>
        </g>
        <g id="Grupo_1145793" data-name="Grupo 1145793" transform="translate(25.315 23.507)">
          <path id="Trazado_981367" data-name="Trazado 981367" d="M35.425,28.488a3.82,3.82,0,0,1,.75.57,3.639,3.639,0,0,1,1.058,2.559v1.808H30V31.616a3.611,3.611,0,0,1,5.425-3.128Z" transform="translate(-30 -28)" fill="#aab2bd"/>
        </g>
        <g id="Grupo_1145794" data-name="Grupo 1145794" transform="translate(27.123 37.973)">
          <path id="Trazado_981368" data-name="Trazado 981368" d="M32,44h3.616v3.616H32Z" transform="translate(-32 -44)" fill="#b27946"/>
        </g>
        <g id="Grupo_1145795" data-name="Grupo 1145795" transform="translate(27.123 16.862)">
          <path id="Trazado_981369" data-name="Trazado 981369" d="M35.616,20.65v7.133a3.593,3.593,0,0,0-3.616,0V20.65a5.325,5.325,0,0,0,3.616,0Z" transform="translate(-32 -20.65)" fill="#ccd1d9"/>
        </g>
        <g id="Grupo_1145796" data-name="Grupo 1145796" transform="translate(18.082 47.014)">
          <path id="Trazado_981370" data-name="Trazado 981370" d="M29.233,57.616v1.808a1.808,1.808,0,0,1-1.808,1.808H22V55.808l1.293-1.293a1.758,1.758,0,0,1,2.324-.145v.009a1.639,1.639,0,0,1,.488.588l.416.841h.9a1.814,1.814,0,0,1,1.808,1.808Z" transform="translate(-22 -54)" fill="#f0d0b4"/>
        </g>
        <g id="Grupo_1145797" data-name="Grupo 1145797" transform="translate(4.521 19.89)">
          <path id="Trazado_981371" data-name="Trazado 981371" d="M14.233,36.63V39.37l-1.808,1.808L8.808,37.562V32.887A1.814,1.814,0,0,0,8.275,31.6l-.741-.741A1.814,1.814,0,0,1,7,29.578v-.154a1.814,1.814,0,0,1,1.808-1.808V25.808A1.814,1.814,0,0,1,10.616,24h6.329a15.1,15.1,0,0,1,2.712,8.137l-2.712.9v.533a3.078,3.078,0,0,1-2.712,3.056Z" transform="translate(-7 -24)" fill="#f0d0b4"/>
        </g>
      </g>
      <g id="Grupo_1145799" data-name="Grupo 1145799" transform="translate(1 1)">
        <ellipse id="Elipse_11658" data-name="Elipse 11658" cx="0.5" cy="1" rx="0.5" ry="1" transform="translate(13 24.001)"/>
        <path id="Trazado_981372" data-name="Trazado 981372" d="M36.425,14.712a2.712,2.712,0,1,0-2.712,2.712A2.716,2.716,0,0,0,36.425,14.712Zm-3.616,0a.9.9,0,1,1,.9.9A.905.905,0,0,1,32.808,14.712Z" transform="translate(-3.877 -2.055)"/>
        <path id="Trazado_981373" data-name="Trazado 981373" d="M55.712,21a2.712,2.712,0,1,0,2.712,2.712A2.716,2.716,0,0,0,55.712,21Zm0,3.616a.9.9,0,1,1,.9-.9A.905.905,0,0,1,55.712,24.616Z" transform="translate(-5.986 -2.918)"/>
        <path id="Trazado_981374" data-name="Trazado 981374" d="M55.247,26.215a6.311,6.311,0,0,0-.9-9.606V10.817a9.816,9.816,0,0,0-15.4-8.071L32.126,7.462a6.324,6.324,0,0,0-4,11.905v6.067a4.5,4.5,0,0,0-1.808,3.593v.915a7.449,7.449,0,0,0-7.233,7.435v.264A7.388,7.388,0,0,0,22.7,44.007v4.019c-.06,0-.118-.012-.178-.012a2.641,2.641,0,0,0-1.878.778l-1.031,1.031h-.53V43.841a8.052,8.052,0,0,0-4.521-7.264V35.13a3.938,3.938,0,0,0,2.711-3.642l2.713-.905v-.652A15.37,15.37,0,0,0,18,22.7h1.085A1.81,1.81,0,0,0,20.89,20.89V19.082a1.81,1.81,0,0,0-1.808-1.808h-.053a8.147,8.147,0,0,0-8.084-7.233H9.137a8.146,8.146,0,0,0-8.084,7.233H1v7.1a9.963,9.963,0,0,0,4.164,8.093l2.164,1.545v.731l-.542.216a6.3,6.3,0,0,0-3.978,5.877V51.576a5.392,5.392,0,0,0,1.615,3.852A5.505,5.505,0,0,0,8.34,57.057l17.075,0h31.64V38.973H55.247ZM48.014,38.973V27.5a6.249,6.249,0,0,0,5.425,0V38.973Zm-5.262,9.041H38.973V44.007a7.388,7.388,0,0,0,3.616-6.365v-.264a7.449,7.449,0,0,0-7.233-7.435v-.915a4.5,4.5,0,0,0-1.808-3.593V19.367A6.245,6.245,0,0,0,37.1,12.814l5.954-4.122a2.584,2.584,0,0,1,4.054,2.124v5.792a6.311,6.311,0,0,0-.9,9.606V38.973H44.56ZM27.957,51.63a2.709,2.709,0,0,0-2.546-1.808h-.345l-.17-.34a2.659,2.659,0,0,0-.389-.572V40.781h3.616V44.4h5.425V40.781h3.616V51.63Zm1.975-10.849H31.74v1.808H29.932ZM24.6,38.973a4.528,4.528,0,0,1,4.429-3.616h3.616a4.529,4.529,0,0,1,4.429,3.616ZM46.921,7.143A4.363,4.363,0,0,0,45.3,6.5V2.847a7.963,7.963,0,0,1,4.206,1.71Zm8.326,14.651a4.521,4.521,0,1,1-4.521-4.521A4.526,4.526,0,0,1,55.247,21.795Zm-4.521-6.329a6.289,6.289,0,0,0-1.808.267V11.849h3.616v3.883A6.289,6.289,0,0,0,50.726,15.466ZM52.5,10.041H48.84a4.363,4.363,0,0,0-.64-1.619l2.587-2.587A7.976,7.976,0,0,1,52.5,10.041Zm-9-7.155V6.559a4.349,4.349,0,0,0-1.467.646l-.053.037-2.6-2.6.593-.411a7.978,7.978,0,0,1,3.526-1.346Zm-5.63,2.8,2.6,2.6-3.9,2.7a6.359,6.359,0,0,0-2.428-2.718ZM26.315,13.658a4.521,4.521,0,1,1,4.521,4.521A4.526,4.526,0,0,1,26.315,13.658Zm3.616,6.256a5.687,5.687,0,0,0,1.808,0V24.6a4.521,4.521,0,0,0-1.808,0Zm.9,6.4a2.716,2.716,0,0,1,2.712,2.712v.9H28.123v-.9a2.716,2.716,0,0,1,2.712-2.712ZM20.89,37.642v-.264a5.644,5.644,0,0,1,5.638-5.638h8.614a5.644,5.644,0,0,1,5.638,5.638v.264a5.606,5.606,0,0,1-1.808,4.141v-2.81H38.9a6.334,6.334,0,0,0-6.256-5.425H29.027a6.334,6.334,0,0,0-6.256,5.425H22.7v2.81A5.6,5.6,0,0,1,20.89,37.642Zm2.388,12.649.67,1.339h1.463a.905.905,0,0,1,.9.9v1.808a.9.9,0,0,1-.9.9H20.89V51.1l1.031-1.031a.875.875,0,0,1,1.357.222Zm-5.12-21.005-2.692.9v1.182a2.184,2.184,0,0,1-2.183,2.183H10.945v1.808h1.808V36.79l-.9.9L9.137,34.982v-4.3a2.692,2.692,0,0,0-.795-1.918l-.749-.749a.913.913,0,0,1-.265-.639v-.156a.905.905,0,0,1,.9-.9h.9V23.6a.905.905,0,0,1,.9-.9h5.852A14.36,14.36,0,0,1,18.158,29.286ZM9.137,11.849v3.616h1.808V11.849A6.334,6.334,0,0,1,17.2,17.274h-2.64V13.658H12.753v3.616H7.329V13.658H5.521v3.616H2.881a6.334,6.334,0,0,1,6.256-5.425Zm9.945,7.233V20.89H2.808V19.082ZM6.216,31a8.154,8.154,0,0,1-3.408-6.622V22.7H7.5a2.682,2.682,0,0,0-.166.9v1.059a2.718,2.718,0,0,0-1.808,2.558v.156a2.692,2.692,0,0,0,.795,1.918l.749.749a.913.913,0,0,1,.265.639v1.111ZM7.458,36.64l.558-.223,3.833,3.834,1.993-1.993a6.241,6.241,0,0,1,3.432,5.583v5.981H10.041V44.759A9.356,9.356,0,0,0,6.316,37.3a4.547,4.547,0,0,1,1.142-.661Zm.881,18.607a3.742,3.742,0,0,1-2.672-1.133,3.568,3.568,0,0,1-1.051-2.54V40.836a4.511,4.511,0,0,1,.538-2.146,7.544,7.544,0,0,1,3.079,6.069V51.63H19.082v3.616Zm46.908,0H27.957a2.682,2.682,0,0,0,.166-.9v-.9H38.973V49.822H55.247ZM44.6,48.014l1.447-7.233h9.2v7.233Z" transform="translate(-1 -1)"/>
      </g>
    </g>
  </g>
</svg>
