<svg xmlns="http://www.w3.org/2000/svg" width="41.277" height="41.277" viewBox="0 0 41.277 41.277">
  <g id="icono" transform="translate(-0.001 -0.001)">
    <g id="Grupo_1150837" data-name="Grupo 1150837" transform="translate(0.001 0.001)">
      <path id="Trazado_989737" data-name="Trazado 989737" d="M40.949,29.578l-1.159-.853a6.489,6.489,0,0,0,0-1.459l1.159-.853a.806.806,0,0,0,.22-1.052l-1.4-2.424a15.953,15.953,0,0,0,1.507-6.813A16.123,16.123,0,0,0,11.963,6.853H2.421A2.421,2.421,0,0,0,0,9.272v8.062a2.421,2.421,0,0,0,2.418,2.418H9.442a16,16,0,0,0,2.3,5.329L1.041,35.276l-.014.014a3.509,3.509,0,0,0,4.962,4.962L6,40.238l10.2-10.71a16.085,16.085,0,0,0,8.953,2.72c.443,0,.893-.019,1.341-.056l.711,1.232a.806.806,0,0,0,1.022.335l1.318-.577a6.391,6.391,0,0,0,1.264.731l.159,1.429a.806.806,0,0,0,.8.717h3.225a.806.806,0,0,0,.8-.717l.159-1.429a6.393,6.393,0,0,0,1.263-.731l1.318.577a.806.806,0,0,0,1.022-.335l1.612-2.793a.806.806,0,0,0-.22-1.052ZM25.154,1.613A14.527,14.527,0,0,1,39.665,16.124a14.356,14.356,0,0,1-1.4,6.229l-1.046.458a6.393,6.393,0,0,0-1.113-.663,12.485,12.485,0,0,0,1.545-6.024,12.66,12.66,0,0,0-.086-1.461.806.806,0,0,0-1.6.187,11.052,11.052,0,0,1,.075,1.274A10.9,10.9,0,0,1,35.324,20a.8.8,0,0,0-.33-.071H31.769a.806.806,0,0,0-.8.717l-.159,1.429a6.4,6.4,0,0,0-1.263.731l-1.318-.577a.806.806,0,0,0-1.022.335l-1.612,2.793a.806.806,0,0,0,.22,1.052l.693.51a11,11,0,0,1-1.353.084A10.883,10.883,0,0,1,14.89,19.752H17l2.585,2.585a.806.806,0,0,0,1.14,0l2.586-2.585h1.681a2.421,2.421,0,0,0,2.418-2.418V9.272a2.421,2.421,0,0,0-2.418-2.418H19.45A10.888,10.888,0,0,1,33.187,8.782a.806.806,0,0,0,1.19-1.088,12.495,12.495,0,0,0-17.6-.841H13.991a14.5,14.5,0,0,1,11.163-5.24ZM1.614,17.333V9.272a.807.807,0,0,1,.806-.806H24.993a.807.807,0,0,1,.806.806v8.062a.807.807,0,0,1-.806.806H22.978a.806.806,0,0,0-.57.236l-2.252,2.252L17.9,18.376a.806.806,0,0,0-.57-.236H2.421a.807.807,0,0,1-.806-.806ZM4.843,39.118A1.9,1.9,0,0,1,2.16,36.436l7.328-6.978L11.82,31.79Zm8.09-8.5-2.276-2.276,2.061-1.963a16.213,16.213,0,0,0,2.18,2.176ZM11.1,19.752h2.093a12.507,12.507,0,0,0,13.757,8.739q.009.118.022.235l-1.159.853a.806.806,0,0,0-.222,1.05q-.22.007-.438.007A14.532,14.532,0,0,1,11.1,19.752Zm27.027,7.309a4.882,4.882,0,0,1,0,1.87.806.806,0,0,0,.313.8l.971.714-.891,1.543-1.1-.484a.806.806,0,0,0-.854.131,4.809,4.809,0,0,1-1.617.935.806.806,0,0,0-.541.674l-.133,1.2H32.491l-.133-1.2a.806.806,0,0,0-.541-.674,4.808,4.808,0,0,1-1.617-.935.806.806,0,0,0-.854-.131l-1.1.484-.891-1.543.971-.714a.806.806,0,0,0,.313-.8,4.875,4.875,0,0,1,0-1.87.806.806,0,0,0-.313-.8l-.971-.714L28.242,24l1.1.484a.806.806,0,0,0,.854-.131,4.81,4.81,0,0,1,1.617-.935.806.806,0,0,0,.541-.674l.133-1.2h1.782l.133,1.2a.806.806,0,0,0,.541.674,4.806,4.806,0,0,1,1.617.935.806.806,0,0,0,.854.131l1.1-.484.891,1.543-.971.714a.806.806,0,0,0-.313.8Z" transform="translate(-0.001 -0.001)"/>
      <path id="Trazado_989738" data-name="Trazado 989738" d="M381.9,312.266a2.822,2.822,0,1,0,2.822,2.822A2.825,2.825,0,0,0,381.9,312.266Zm0,4.031a1.209,1.209,0,1,1,1.209-1.209A1.211,1.211,0,0,1,381.9,316.3Z" transform="translate(-348.519 -287.093)"/>
      <path id="Trazado_989739" data-name="Trazado 989739" d="M40.827,140a.806.806,0,0,0-.806.806v2.418a.806.806,0,0,0,1.612,0v-2.418A.806.806,0,0,0,40.827,140Z" transform="translate(-36.795 -128.714)"/>
      <path id="Trazado_989740" data-name="Trazado 989740" d="M80.827,130a.806.806,0,0,0-.806.806v4.031a.806.806,0,0,0,1.612,0v-4.031A.806.806,0,0,0,80.827,130Z" transform="translate(-73.57 -119.52)"/>
      <path id="Trazado_989741" data-name="Trazado 989741" d="M120.827,147.837a.806.806,0,0,0-.806.806V149.8a.806.806,0,0,0,1.612,0v-1.155A.806.806,0,0,0,120.827,147.837Z" transform="translate(-110.345 -135.919)"/>
      <path id="Trazado_989742" data-name="Trazado 989742" d="M160.827,125a.806.806,0,0,0-.806.806v4.837a.806.806,0,1,0,1.612,0v-4.837A.806.806,0,0,0,160.827,125Z" transform="translate(-147.121 -114.923)"/>
      <path id="Trazado_989743" data-name="Trazado 989743" d="M201.633,149.8v-1.155a.806.806,0,0,0-1.612,0V149.8a.806.806,0,0,0,1.612,0Z" transform="translate(-183.896 -135.919)"/>
      <path id="Trazado_989744" data-name="Trazado 989744" d="M240.827,135.643a.806.806,0,0,0,.806-.806v-4.031a.806.806,0,0,0-1.612,0v4.031A.806.806,0,0,0,240.827,135.643Z" transform="translate(-220.672 -119.52)"/>
      <path id="Trazado_989745" data-name="Trazado 989745" d="M280.827,144.031a.806.806,0,0,0,.806-.806v-2.418a.806.806,0,0,0-1.612,0v2.418A.806.806,0,0,0,280.827,144.031Z" transform="translate(-257.447 -128.714)"/>
      <path id="Trazado_989746" data-name="Trazado 989746" d="M434.723,131.3a.806.806,0,0,0,0-1.612h0a.806.806,0,0,0,0,1.612Z" transform="translate(-398.937 -119.231)"/>
    </g>
  </g>
</svg>
